<svg width="51" height="50" viewBox="0 0 51 50" fill="none" xmlns="http://www.w3.org/2000/svg">
<g clip-path="url(#clip0_3310_264)">
<path d="M54.4909 14.1388H43.4631L43.4636 10.5071C43.4637 10.3757 43.4292 10.2466 43.3635 10.1328C43.2978 10.0189 43.2034 9.92442 43.0896 9.85872L26.1867 0.0997421C26.073 0.03408 25.9439 -0.000488281 25.8126 -0.000488281C25.6813 -0.000488281 25.5523 0.03408 25.4386 0.0997421L8.53568 9.85909C8.42188 9.9248 8.32739 10.0193 8.26173 10.1331C8.19606 10.247 8.16153 10.3761 8.16162 10.5075V14.1388H-2.86569L-4.09949 14.6506L-4.61132 15.8844L-4.61133 52.6026L-4.09949 53.8364L-2.86569 54.3482H22.8145L22.8972 58.9691L17.7644 58.9696L16.3146 59.571L15.7129 61.0207V63.0923L15.932 63.6213L16.461 63.8404L35.235 63.8111L35.6932 63.6213L35.9124 63.0923V61.0207L35.3108 59.5706L33.8607 58.9691H28.728V54.3482H54.4909L55.7247 53.8364L56.2366 52.6026V15.8844L55.7247 14.6506L54.4909 14.1388ZM9.65788 22.3183V11.8029L25.0645 20.6982V38.4879L9.65788 29.5929V22.3183ZM26.5607 20.6982L41.9674 11.8029V29.5929L26.5607 38.4879V20.6982ZM25.8126 1.61196L41.2192 10.507L25.8126 19.4015L10.406 10.507L25.8126 1.61196ZM35.6932 63.6213L35.235 63.8111L16.461 63.8404L15.932 63.6213L15.7129 63.0923V61.0207L16.3146 59.571L17.7644 58.9696L33.8607 58.9691L35.3108 59.5706L35.9124 61.0207V63.0923L35.6932 63.6213ZM28.728 58.9691H22.8972L22.8145 54.3482H28.728V58.9691ZM56.2366 52.6026L55.7247 53.8364L54.4909 54.3482H-2.86569L-4.09949 53.8364L-4.61133 52.6026L-4.61132 15.8844L-4.09949 14.6506L-2.86569 14.1388H8.16162V21.8921C3.56062 24.5792 1.03169 28.1515 1.03169 31.9857C1.03169 35.3742 3.07995 38.652 6.7989 41.2152C10.2477 43.5921 15.0001 45.2692 20.2278 45.9607L20.1491 48.3391C20.1445 48.4765 20.1778 48.6126 20.2454 48.7323C20.313 48.852 20.4122 48.9508 20.5323 49.0178C20.6523 49.0848 20.7885 49.1174 20.9259 49.112C21.0633 49.1067 21.1965 49.0636 21.311 48.9875L25.4208 46.2568C25.5187 46.1918 25.5999 46.1047 25.6578 46.0024C25.7157 45.9002 25.7488 45.7857 25.7542 45.6683C25.7596 45.5509 25.7374 45.4339 25.6891 45.3268C25.6409 45.2196 25.5682 45.1253 25.4767 45.0515L21.5615 41.8923C21.4533 41.8049 21.3228 41.7495 21.1848 41.7322C21.0468 41.7149 20.9067 41.7364 20.7803 41.7943C20.6538 41.8522 20.546 41.9442 20.469 42.06C20.3919 42.1758 20.3486 42.3107 20.344 42.4497L20.2776 44.4572C9.95389 43.0549 2.52795 37.8678 2.52795 31.9857C2.52795 28.9115 4.5176 25.9832 8.16162 23.6459V30.0249C8.16153 30.1563 8.19606 30.2854 8.26173 30.3993C8.32739 30.5131 8.42188 30.6076 8.53568 30.6733L25.4386 40.4315C25.5523 40.4972 25.6813 40.5318 25.8126 40.5318C25.9439 40.5318 26.073 40.4972 26.1867 40.4315L43.0896 30.6733C43.2034 30.6076 43.2978 30.5131 43.3635 30.3993C43.4292 30.2854 43.4637 30.1563 43.4636 30.0249V23.6459C47.1076 25.9832 49.0973 28.9115 49.0973 31.9857C49.0973 38.6814 39.6149 44.3067 27.5096 44.7928C27.3112 44.7967 27.1225 44.8793 26.985 45.0224C26.8474 45.1655 26.7724 45.3573 26.7763 45.5557C26.7803 45.7541 26.8629 45.9429 27.0059 46.0804C27.149 46.2179 27.3409 46.293 27.5393 46.289H27.5697C33.7433 46.041 39.4913 44.4852 43.7543 41.9078C48.1644 39.2419 50.593 35.7186 50.593 31.9868C50.593 28.152 48.0647 24.5803 43.4631 21.8933V14.1388H54.4909L55.7247 14.6506L56.2366 15.8844V52.6026ZM21.6924 46.937L21.7895 43.9989L23.7427 45.5749L21.6924 46.937Z" fill="#C80151"/>
</g>
<defs>
<clipPath id="clip0_3310_264">
<rect width="50.3741" height="50" fill="white" transform="translate(0.625977)"/>
</clipPath>
</defs>
</svg>
