<svg width="6" height="9" viewBox="0 0 6 9" fill="none" xmlns="http://www.w3.org/2000/svg">
<path d="M0.650261 4.78377C0.552294 4.68592 0.497192 4.55318 0.49707 4.41472V4.15012C0.498675 4.01196 0.553553 3.87975 0.650261 3.78107L4.22935 0.208942C4.29472 0.143031 4.38371 0.105957 4.47654 0.105957C4.56937 0.105957 4.65836 0.143031 4.72374 0.208942L5.21812 0.70333C5.28362 0.767505 5.32053 0.855344 5.32053 0.947042C5.32053 1.03874 5.28362 1.12658 5.21812 1.19075L2.1195 4.28242L5.21812 7.37408C5.28403 7.43945 5.32111 7.52844 5.32111 7.62127C5.32111 7.71411 5.28403 7.8031 5.21812 7.86847L4.72374 8.35589C4.65836 8.4218 4.56937 8.45888 4.47654 8.45888C4.38371 8.45888 4.29472 8.4218 4.22935 8.35589L0.650261 4.78377Z" fill="#AE9CAB"/>
</svg>
