<svg width="6" height="9" viewBox="0 0 6 9" fill="none" xmlns="http://www.w3.org/2000/svg">
<path d="M4.91419 4.78377C5.01216 4.68592 5.06726 4.55318 5.06738 4.41472V4.15012C5.06578 4.01196 5.0109 3.87975 4.91419 3.78107L1.3351 0.208942C1.26973 0.143031 1.18074 0.105957 1.08791 0.105957C0.995078 0.105957 0.90609 0.143031 0.840717 0.208942L0.346329 0.70333C0.280831 0.767505 0.243921 0.855344 0.243921 0.947042C0.243921 1.03874 0.280831 1.12658 0.346329 1.19075L3.44496 4.28242L0.346329 7.37408C0.280418 7.43945 0.243344 7.52844 0.243344 7.62127C0.243344 7.71411 0.280418 7.8031 0.346329 7.86847L0.840717 8.35589C0.90609 8.4218 0.995078 8.45888 1.08791 8.45888C1.18074 8.45888 1.26973 8.4218 1.3351 8.35589L4.91419 4.78377Z" fill="#AE9CAB"/>
</svg>
