<svg width="20" height="20" viewBox="0 0 20 20" fill="none" xmlns="http://www.w3.org/2000/svg">
<path d="M9.5 13.3333C9.5 13.6095 9.72386 13.8333 10 13.8333C10.2761 13.8333 10.5 13.6095 10.5 13.3333H9.5ZM6.7745 11.668C7.04415 11.6085 7.21446 11.3416 7.1549 11.072C7.09534 10.8023 6.82847 10.632 6.55883 10.6916L6.7745 11.668ZM13.4412 10.6916C13.1715 10.632 12.9047 10.8023 12.8451 11.072C12.7855 11.3416 12.9559 11.6085 13.2255 11.668L13.4412 10.6916ZM12.8333 5.83333C12.8333 7.39814 11.5648 8.66667 10 8.66667V9.66667C12.1171 9.66667 13.8333 7.95043 13.8333 5.83333H12.8333ZM10 8.66667C8.43519 8.66667 7.16667 7.39814 7.16667 5.83333H6.16667C6.16667 7.95043 7.88291 9.66667 10 9.66667V8.66667ZM7.16667 5.83333C7.16667 4.26853 8.43519 3 10 3V2C7.88291 2 6.16667 3.71624 6.16667 5.83333H7.16667ZM10 3C11.5648 3 12.8333 4.26853 12.8333 5.83333H13.8333C13.8333 3.71624 12.1171 2 10 2V3ZM9.5 9.16667V13.3333H10.5V9.16667H9.5ZM17 14.1667C17 14.4642 16.8664 14.7853 16.5484 15.1194C16.228 15.4562 15.7407 15.7821 15.1002 16.0668C13.8206 16.6355 12.0179 17 10 17V18C12.1243 18 14.0715 17.6183 15.5064 16.9806C16.2232 16.662 16.8342 16.2697 17.2728 15.8088C17.7139 15.3454 18 14.7896 18 14.1667H17ZM10 17C7.98214 17 6.17936 16.6355 4.89977 16.0668C4.25934 15.7821 3.77203 15.4562 3.45158 15.1194C3.1336 14.7853 3 14.4642 3 14.1667H2C2 14.7896 2.28614 15.3454 2.72719 15.8088C3.16579 16.2697 3.77682 16.662 4.49363 16.9806C5.9285 17.6183 7.87572 18 10 18V17ZM3 14.1667C3 13.7461 3.27374 13.2675 3.94468 12.7961C4.60674 12.331 5.58048 11.9318 6.7745 11.668L6.55883 10.6916C5.28332 10.9733 4.17373 11.4131 3.36984 11.9778C2.57483 12.5364 2 13.2784 2 14.1667H3ZM13.2255 11.668C14.4195 11.9318 15.3933 12.331 16.0553 12.7961C16.7263 13.2675 17 13.7461 17 14.1667H18C18 13.2784 17.4252 12.5364 16.6302 11.9778C15.8263 11.4131 14.7167 10.9733 13.4412 10.6916L13.2255 11.668Z" fill="#C80151"/>
</svg>
