<svg width="41" height="43" viewBox="0 0 41 43" fill="none" xmlns="http://www.w3.org/2000/svg">
<path d="M12.1458 0.289062H29.497L40.197 12.435L20.5322 42.2213L0.289062 12.435L12.1458 0.289062Z" fill="#C80151"/>
<path fill-rule="evenodd" clip-rule="evenodd" d="M34.0311 21.4608C36.3571 17.9019 39.9872 12.3478 39.9872 12.3478L29.3216 0.452168H12.2152L0.580018 12.3826L6.74387 21.5303C6.7785 21.5999 10.83 27.6868 10.83 27.6868L10.4837 27.7564L10.4491 27.9303C6.37863 21.8585 0.0259713 12.3826 0.0259713 12.3826C-0.00865711 12.313 -0.00865711 12.2434 0.0259713 12.2086C3.00402 9.18257 5.98204 6.12171 8.92546 3.09564L11.9035 0.0347846C11.9381 2.1223e-06 11.9728 0 11.9728 0H29.3562C29.3909 0 29.4601 0.0347761 29.4947 0.0695585C31.7802 2.64346 34.1003 5.18258 36.3858 7.75648L40.4373 12.2782C40.472 12.3478 40.5066 12.4173 40.472 12.4521L34.3773 21.7738H34.1696L34.0311 21.6695V21.4608ZM34.3773 21.7738L29.3909 29.252H29.1831L29.0446 29.1477L28.9753 28.939C28.9753 28.939 32.0567 24.3812 34.0311 21.4608V21.6695L34.1696 21.7738H34.3773ZM29.3909 29.252L20.4914 42.7476C20.4567 42.8172 20.3529 42.8172 20.2836 42.7476C20.249 42.7476 20.249 42.7128 20.249 42.6781L11.3148 29.2173L11.5226 29.252L11.6611 29.1477L11.6957 28.9738L20.3528 42.0172L28.9753 28.939L29.0446 29.1477L29.1831 29.252H29.3909ZM11.3148 29.2173C11.3148 29.2173 10.7872 28.4329 10.4491 27.9303L10.4837 27.7564L10.83 27.6868L11.6957 28.9738L11.6611 29.1477L11.5226 29.252L11.3148 29.2173Z" fill="#C80151"/>
<path fill-rule="evenodd" clip-rule="evenodd" d="M12.1585 23.2604C12.6285 23.2604 13.0242 22.8132 13.1974 22.3163C13.3705 21.8194 13.2963 21.3722 12.8264 21.3722C12.3564 21.3722 11.9607 21.8194 11.7875 22.3163C11.6144 22.8132 11.6886 23.2604 12.1585 23.2604ZM12.8758 21.1983C13.5684 21.1983 13.9642 21.6704 13.7415 22.2915C13.5189 22.9126 12.7769 23.3846 12.0843 23.3846C11.3918 23.3846 10.996 22.9126 11.2186 22.2915C11.4412 21.6952 12.1833 21.1983 12.8758 21.1983ZM15.4235 21.248L15.3493 21.4219H15.102L14.4836 23.161H15.2256L15.3246 22.8877H15.5472L15.374 23.3598H13.6673L13.7415 23.1859H14.0136L14.632 21.3971H14.3599L14.4341 21.2232H15.4235V21.248ZM17.4023 21.248L17.3281 21.4219H17.056L16.4376 23.161H17.1797L17.2786 22.8877H17.5012L17.3281 23.3598H15.6214L15.6956 23.1859H15.9677L16.586 21.3971H16.314L16.3882 21.2232H17.4023V21.248ZM18.2927 21.4219L18.3669 21.248H20.1231L19.9747 21.6704H19.8015L19.8757 21.4716H19.0595L18.8121 22.1672H19.5047L19.5789 21.9188H19.7521L19.5294 22.5648H19.3563L19.4305 22.3412H18.7379L18.4411 23.1859H19.3316L19.4058 22.9374H19.5789L19.4305 23.3846H17.6001L17.6744 23.2107H17.9464L18.5648 21.4219H18.2927ZM21.9534 23.0368C21.6071 23.2853 21.2856 23.4095 20.9146 23.4095C20.222 23.4095 19.851 22.9374 20.0736 22.2915C20.2467 21.7946 20.6425 21.4468 21.1125 21.2977C21.2856 21.2232 21.4835 21.2232 21.6566 21.2232C21.904 21.2232 22.0524 21.2728 22.2008 21.4219L22.3739 21.248H22.5471L22.3245 21.8443H22.1266C22.2008 21.5461 21.9534 21.3971 21.7061 21.3971C21.3598 21.3971 20.8651 21.6455 20.6425 22.3163C20.5188 22.689 20.5683 23.012 20.7414 23.1362C20.8404 23.2107 20.964 23.2356 21.1125 23.2356C21.3845 23.2356 21.6071 23.1362 21.8545 22.9126L21.9534 23.0368ZM22.5471 23.3846L22.6213 23.2107H22.8933L23.5117 21.4219H22.9675L22.8933 21.6455H22.6955L22.8439 21.248H24.8226L24.6742 21.6455H24.4764L24.5506 21.4219H24.0064L23.388 23.2107H23.6601L23.5859 23.3846H22.5471ZM25.1442 23.1859H25.4163L25.3421 23.3598H24.3279L24.4021 23.1859H24.6742L25.2926 21.3971H25.0205L25.0947 21.2232H26.1088L26.0346 21.3971H25.7626L25.1442 23.1859ZM26.9498 23.2604C27.4198 23.2604 27.8155 22.8132 27.9887 22.3163C28.1618 21.8194 28.0876 21.3722 27.6176 21.3722C27.1477 21.3722 26.7519 21.8194 26.5788 22.3163C26.4057 22.8132 26.4799 23.2604 26.9498 23.2604ZM27.6671 21.1983C28.3597 21.1983 28.7554 21.6704 28.5328 22.2915C28.3102 22.9126 27.5682 23.3846 26.8756 23.3846C26.183 23.3846 25.7873 22.9126 26.0099 22.2915C26.2325 21.6952 26.9746 21.1983 27.6671 21.1983ZM29.918 21.248L30.7837 22.838L31.2784 21.4219H31.0063L31.0805 21.248H31.7731L31.6989 21.4219H31.4268L30.7342 23.3846H30.4621L29.4727 21.6207L28.9286 23.1859H29.2007L29.1265 23.3598H28.4586L28.5328 23.1859H28.8049L29.4233 21.3971H29.1512L29.2254 21.2232H29.918V21.248ZM30.0911 19.9561L34.3455 13.4468L26.7272 4.94993H14.5083L6.1975 13.4716L10.6003 20.0058C10.625 20.0555 10.625 20.1051 10.5755 20.13L10.4766 20.2045C10.4271 20.2294 10.3776 20.2045 10.3282 20.1797L5.80175 13.4716C5.77702 13.4219 5.77702 13.3723 5.80175 13.3474C7.92893 11.1859 10.0561 8.9996 12.1585 6.83812L14.2857 4.6518C14.3104 4.62695 14.3352 4.62695 14.3352 4.62695H26.7519C26.7767 4.62695 26.8261 4.65179 26.8509 4.67664C28.4834 6.51514 30.1406 8.3288 31.7731 10.1673L34.667 13.3971C34.6917 13.4468 34.7165 13.4965 34.6917 13.5213L30.3384 20.1797C30.3137 20.2294 30.2395 20.2294 30.19 20.1797L30.0911 20.1051C30.0664 20.0555 30.0664 20.0058 30.0911 19.9561ZM27.395 24.602L26.7767 25.5213C26.7519 25.571 26.6777 25.571 26.6283 25.5213L26.5293 25.4467C26.4799 25.4219 26.4551 25.3474 26.4799 25.2977L27.0982 24.3536C27.123 24.3039 27.1972 24.3039 27.2466 24.3536L27.3456 24.4281C27.395 24.5026 27.4198 24.5523 27.395 24.602ZM23.487 30.515L20.4199 35.161C20.3952 35.2107 20.321 35.2107 20.2715 35.161C20.2468 35.161 20.2467 35.1361 20.2467 35.1113L17.1797 30.4902C17.1549 30.4405 17.1549 30.3908 17.2044 30.366L17.3033 30.2914C17.3528 30.2666 17.4023 30.2914 17.4517 30.3163L20.3209 34.6392L23.1902 30.2914C23.2149 30.2417 23.2891 30.2417 23.3386 30.2914L23.4375 30.366C23.487 30.4157 23.5117 30.4653 23.487 30.515ZM13.8652 25.4964L13.2469 24.5772C13.2221 24.5275 13.2221 24.4778 13.2716 24.4529L13.3705 24.3784C13.42 24.3536 13.4695 24.3784 13.5189 24.4033L14.1373 25.3225C14.162 25.3722 14.162 25.4219 14.1126 25.4467L14.0136 25.5213C13.9642 25.571 13.9147 25.571 13.8652 25.4964ZM15.0278 9.14867H16.3634C17.6743 9.14867 17.9959 9.96855 17.6001 11.1114C17.2539 12.0555 16.3387 13.1735 14.9536 13.1735H13.5931L15.0278 9.14867ZM12.5543 8.57724L12.3811 9.04929H13.5189L10.5013 17.3474H9.36353L9.19038 17.8194H13.049L13.2221 17.3474H12.0843L13.3953 13.7201H14.2857C14.6073 14.6393 16.4376 18.2915 21.7556 19.5834L21.8298 19.3847C16.8828 17.2232 15.9182 13.5213 15.9182 13.5213C17.897 13.1487 18.8863 12.0555 19.2821 10.9872C19.6284 10.0182 19.4058 8.5524 17.056 8.5524H12.5543V8.57724ZM29.7448 8.52755H29.0275L28.7307 9.32258L28.6318 9.62072C28.6318 9.62072 28.1865 8.42818 26.3562 8.37849C23.3633 8.37849 20.2715 10.217 19.2079 13.1735C18.3422 15.5834 19.3316 17.9685 22.9428 17.9685C24.3774 17.9685 25.9604 17.5213 27.2714 16.4778L26.9993 16.1549C25.4657 17.1983 24.1053 17.3971 23.1654 17.3971C20.8156 17.3971 20.1725 15.335 21.063 12.9002C21.9534 10.4654 23.7838 8.99961 26.183 8.99961C27.865 8.99961 28.5328 9.91885 28.1123 11.1362H28.8296L29.7448 8.52755ZM14.3846 28.279H14.6073L14.5825 28.3287C14.5825 28.3536 14.5578 28.3784 14.5578 28.4032C14.5578 28.4032 14.5578 28.4281 14.5331 28.4281H14.5083H13.8405C13.8405 28.4281 13.8405 28.4281 13.8158 28.4281H13.791L13.8158 28.3784C13.8158 28.3536 13.8405 28.3287 13.8405 28.3039C13.8405 28.3039 13.8405 28.279 13.8652 28.279H13.89H13.9147C13.9642 28.279 14.0136 28.279 14.0631 28.279C14.0878 28.279 14.0878 28.279 14.0878 28.279C14.0878 28.279 14.0878 28.2542 14.1126 28.2542C14.2115 27.956 14.3104 27.6579 14.4094 27.3598C14.4836 27.1362 14.5578 26.8877 14.6567 26.6393H14.4341L14.4589 26.5896C14.4589 26.5647 14.4836 26.5399 14.4836 26.5151L14.5083 26.4902H14.5331H15.003C15.1267 26.4902 15.2256 26.4902 15.3493 26.4902C15.374 26.4902 15.4235 26.4902 15.4482 26.4902C15.473 26.4902 15.5224 26.4902 15.5472 26.5151C15.6461 26.5399 15.6956 26.5896 15.745 26.6641C15.7945 26.7387 15.7945 26.8132 15.7945 26.9126C15.7698 27.0616 15.7203 27.1859 15.6461 27.2852C15.5719 27.3846 15.473 27.484 15.3246 27.5337C15.2751 27.5585 15.2504 27.5585 15.2009 27.5834L15.1267 27.6082L15.1514 27.6579C15.1762 27.7076 15.2009 27.7573 15.2009 27.807C15.2751 27.9809 15.374 28.13 15.4977 28.2542C15.6214 28.3784 15.7451 28.5026 15.8935 28.602C15.9677 28.6517 16.0666 28.7014 16.1655 28.7511C16.215 28.7759 16.2645 28.8008 16.314 28.8504V28.9001L16.2892 28.9498L16.1903 28.925C16.1408 28.9001 16.0666 28.8753 16.0171 28.8504C15.8687 28.8008 15.7203 28.7262 15.5966 28.6268C15.473 28.5275 15.3493 28.4281 15.2504 28.3287C15.1514 28.2293 15.0772 28.1299 15.003 28.0306C14.9288 27.9312 14.8793 27.807 14.8299 27.6827H14.632C14.5331 27.8815 14.4588 28.0554 14.3846 28.279ZM21.7556 26.4902L21.904 28.3039H22.1018L22.0771 28.3536C22.0771 28.3784 22.0524 28.4032 22.0524 28.4032L22.0276 28.4281H22.0029H21.3351L21.3598 28.3784C21.3598 28.3536 21.3845 28.3287 21.3845 28.3039L21.4093 28.279H21.434H21.6071L21.5824 28.0057C21.5824 27.956 21.5824 27.9064 21.5577 27.8815H20.7662C20.6672 28.0057 20.5683 28.1548 20.4694 28.3039H20.692L20.6672 28.3536C20.6672 28.3784 20.6425 28.4032 20.6425 28.4281C20.6425 28.4281 20.6425 28.4529 20.6178 28.4529H20.593H20.0241L20.0489 28.4032C20.0489 28.3784 20.0736 28.3536 20.0736 28.3287L20.0983 28.3039H20.1231H20.1725C20.1973 28.3039 20.222 28.3039 20.2467 28.3039C20.2467 28.3039 20.2468 28.3039 20.2715 28.3039C20.692 27.7076 21.1372 27.1113 21.5577 26.5151L21.5824 26.4902C21.5824 26.4902 21.6072 26.4902 21.6319 26.4902C21.6566 26.4902 21.6566 26.4902 21.6813 26.4902H21.7556ZM21.5082 26.8629C21.3103 27.1362 21.1125 27.4343 20.9146 27.7076H21.5824L21.5577 27.484C21.5577 27.3598 21.5329 27.2355 21.5329 27.1113C21.5329 27.0865 21.5329 27.0616 21.5329 27.0368C21.5082 26.9623 21.4835 26.9126 21.5082 26.8629ZM23.8333 26.6144L23.858 26.5399C23.858 26.5151 23.858 26.5151 23.8827 26.5151C23.8827 26.5151 23.9075 26.4902 23.9322 26.5151C23.9569 26.5151 23.9817 26.5151 24.0064 26.5151H24.0559V26.5647V26.5896L23.9075 26.9871C23.9075 27.0119 23.9075 27.0119 23.8827 27.0119C23.8827 27.0119 23.858 27.0119 23.8333 27.0119C23.8085 27.0119 23.7838 27.0119 23.7838 27.0119H23.7343V26.9623C23.7343 26.9374 23.7343 26.9374 23.7343 26.9374V26.8877C23.7343 26.8629 23.7343 26.8132 23.7343 26.7883C23.7343 26.7387 23.7096 26.7138 23.6849 26.689C23.6601 26.6641 23.6354 26.6393 23.5859 26.6393C23.487 26.6144 23.3633 26.6144 23.2891 26.6393C23.1902 26.6641 23.0912 26.7138 23.017 26.8132C22.9923 26.838 22.9923 26.838 22.9923 26.8629C22.9923 26.8877 22.9675 26.9126 22.9675 26.9374C22.9428 26.9871 22.9428 27.0368 22.9428 27.0616C22.9428 27.0865 22.9675 27.1362 23.017 27.161C23.0665 27.2107 23.1407 27.2355 23.2149 27.2604L23.2644 27.2852C23.2891 27.3101 23.3386 27.3101 23.3633 27.3349C23.4128 27.3598 23.487 27.3846 23.5364 27.4343C23.6354 27.484 23.6848 27.5585 23.7096 27.6331C23.7343 27.7076 23.7343 27.807 23.6849 27.9063C23.6354 28.0057 23.5859 28.1051 23.5117 28.1796C23.4375 28.2542 23.3633 28.3287 23.2644 28.3784C23.1654 28.4281 23.0665 28.4529 22.9675 28.4778C22.8686 28.5026 22.7449 28.4778 22.646 28.4778C22.5965 28.4778 22.5718 28.4529 22.5471 28.4281C22.5223 28.4032 22.4729 28.3784 22.4481 28.3536L22.4234 28.3287C22.4234 28.3536 22.3987 28.3784 22.3987 28.4032C22.3987 28.4281 22.3739 28.4281 22.3739 28.4529C22.3492 28.4529 22.3492 28.4778 22.3245 28.4529C22.2997 28.4529 22.2997 28.4529 22.275 28.4529H22.2008L22.2997 28.1796C22.3244 28.1051 22.3492 28.0306 22.3739 27.956C22.3739 27.9312 22.3987 27.9312 22.3987 27.9312C22.3987 27.9312 22.4234 27.9312 22.4481 27.9312C22.4729 27.9312 22.4976 27.9312 22.4976 27.9312H22.5471V27.9809C22.5471 28.0057 22.5471 28.0057 22.5223 28.0306C22.4976 28.0803 22.4976 28.1548 22.5223 28.2045C22.5471 28.2542 22.5965 28.3039 22.646 28.3287C22.7202 28.3536 22.7944 28.3784 22.8933 28.3536C22.9675 28.3536 23.0418 28.3287 23.116 28.3039C23.1654 28.279 23.1902 28.2542 23.2396 28.2293C23.2644 28.2045 23.3138 28.1796 23.3386 28.13C23.3633 28.1051 23.388 28.0554 23.388 28.0306C23.4128 28.0057 23.4128 27.956 23.4128 27.9063C23.4128 27.8815 23.4128 27.8318 23.388 27.807C23.388 27.7821 23.3633 27.7573 23.3386 27.7324C23.2891 27.7076 23.2396 27.6827 23.1902 27.6579L23.017 27.5585C22.9428 27.5337 22.8686 27.484 22.8191 27.4343C22.7449 27.3846 22.7202 27.3349 22.6955 27.2604C22.6707 27.1859 22.6707 27.1362 22.6955 27.0368C22.7202 26.9374 22.7449 26.8629 22.7944 26.7883C22.8439 26.7138 22.9181 26.6641 22.9923 26.6144C23.0912 26.5399 23.1902 26.4902 23.3138 26.4654C23.4128 26.4405 23.5364 26.4405 23.6601 26.4654C23.7096 26.4654 23.7343 26.4902 23.7591 26.5151C23.7838 26.5647 23.8085 26.5896 23.8333 26.6144ZM24.0064 28.3039L23.9817 28.3784C23.9817 28.4032 23.9817 28.4032 23.9569 28.4032C23.9569 28.4032 23.9322 28.4032 23.9075 28.4032C23.8827 28.4032 23.858 28.4032 23.858 28.4032H23.7838L23.9569 27.9063C23.9569 27.8815 23.9569 27.8815 23.9817 27.8815C23.9817 27.8815 24.0064 27.8815 24.0311 27.8815C24.0559 27.8815 24.0806 27.8815 24.1053 27.8815H24.1795L24.1548 28.0057C24.1301 28.0554 24.1548 28.1051 24.1548 28.13C24.1795 28.1796 24.2043 28.2045 24.229 28.2293C24.2538 28.2542 24.3032 28.279 24.3527 28.279C24.4022 28.279 24.4269 28.279 24.4764 28.279C24.5506 28.279 24.6 28.279 24.6742 28.2542C24.7237 28.2293 24.7979 28.2045 24.8474 28.1796C24.8969 28.13 24.9463 28.1051 24.9958 28.0306C25.0205 27.9809 25.0453 27.9064 25.07 27.8318C25.07 27.807 25.07 27.7573 25.07 27.7324C25.07 27.7076 25.0452 27.6827 25.0205 27.6579C24.971 27.6331 24.9216 27.6082 24.8721 27.5834L24.7237 27.5088C24.6495 27.484 24.6 27.4343 24.5258 27.4095C24.5011 27.3846 24.4764 27.3846 24.4516 27.3598C24.4269 27.3349 24.4021 27.3101 24.4021 27.2852C24.3774 27.2355 24.3774 27.1859 24.3774 27.1362C24.3774 27.0865 24.3774 27.0368 24.4021 26.9871C24.4269 26.8877 24.4764 26.8132 24.5258 26.7635C24.5753 26.689 24.6495 26.6393 24.7237 26.5896C24.8226 26.5399 24.9216 26.4902 25.0205 26.4654C25.1195 26.4405 25.2431 26.4405 25.3421 26.4654C25.3915 26.4654 25.4163 26.4902 25.441 26.5151C25.4657 26.5399 25.4905 26.5647 25.5152 26.5896L25.5399 26.4902C25.5399 26.4902 25.5399 26.4654 25.5647 26.4654H25.5894C25.6142 26.4654 25.6389 26.4654 25.6636 26.4654H25.7378L25.5894 26.9374C25.5894 26.9623 25.5894 26.9623 25.5647 26.9623C25.5647 26.9623 25.5399 26.9623 25.5152 26.9623C25.4905 26.9623 25.4657 26.9623 25.441 26.9623H25.3915L25.4163 26.8877C25.4163 26.8629 25.4163 26.838 25.441 26.8132C25.441 26.7635 25.441 26.7138 25.4163 26.6641C25.3915 26.6393 25.3668 26.5896 25.2926 26.5896C25.1937 26.5647 25.07 26.5647 24.9463 26.6144C24.8474 26.6393 24.7484 26.7138 24.699 26.7883C24.699 26.8132 24.6742 26.838 24.6742 26.838C24.6742 26.8629 24.6495 26.8877 24.6495 26.9126C24.6495 26.9374 24.6495 26.9623 24.6495 26.9871C24.6495 27.0119 24.6742 27.0368 24.699 27.0616C24.7237 27.0865 24.7484 27.1113 24.7732 27.1362C24.7979 27.161 24.8226 27.161 24.8474 27.1859C24.8969 27.2107 24.9711 27.2355 25.0453 27.2852C25.0947 27.3101 25.1442 27.3349 25.1689 27.3349C25.1937 27.3349 25.1937 27.3598 25.2184 27.3598C25.2431 27.3598 25.2431 27.3846 25.2679 27.3846C25.3173 27.4343 25.3668 27.484 25.3915 27.5585C25.4163 27.6331 25.4163 27.6828 25.3915 27.7573C25.3668 27.8567 25.3421 27.9312 25.2926 28.0057C25.2431 28.0803 25.1689 28.1548 25.0947 28.2045C24.9711 28.279 24.8721 28.3287 24.7484 28.3784C24.6248 28.4032 24.5011 28.4032 24.3527 28.3784H24.3279C24.3279 28.3784 24.3032 28.3784 24.3032 28.3536C24.1053 28.4032 24.0559 28.3784 24.0064 28.3039ZM25.4657 27.9312L25.5399 27.8567L25.7131 28.0306C25.7626 28.0803 25.812 28.1548 25.8862 28.2045C25.9357 28.2542 25.9852 28.3287 26.0594 28.3784C26.1088 28.4281 26.1583 28.5026 26.2078 28.5523C26.2573 28.6268 26.3067 28.6765 26.3562 28.7511C26.3809 28.8008 26.4057 28.8256 26.4304 28.8753C26.4551 28.925 26.4799 28.9498 26.5046 28.9995C26.5293 29.0492 26.5541 29.0741 26.5788 29.1237C26.6035 29.1734 26.6283 29.2231 26.6283 29.2728C26.6283 29.2976 26.653 29.3225 26.653 29.3473C26.653 29.3722 26.6777 29.397 26.6777 29.4219C26.6777 29.4467 26.6777 29.4716 26.6777 29.4964C26.6777 29.5213 26.6777 29.5461 26.6777 29.5709C26.6777 29.5958 26.6777 29.6206 26.653 29.6455C26.653 29.6703 26.6283 29.6952 26.6283 29.72C26.6283 29.7449 26.6035 29.7697 26.5788 29.7945C26.5541 29.8194 26.5541 29.8442 26.5293 29.8442C26.4551 29.9436 26.3809 30.0181 26.282 30.1175C26.2078 30.1921 26.1088 30.2914 26.0346 30.366L25.9852 30.4157C25.9604 30.4405 25.911 30.4902 25.8615 30.515C25.812 30.5399 25.7873 30.5399 25.7378 30.5647C25.6884 30.5647 25.6636 30.5647 25.6141 30.5647C25.5647 30.5647 25.5152 30.5399 25.4905 30.515L25.3668 30.4653L25.2431 30.4157L25.1195 30.366L24.9958 30.3163C24.8721 30.2666 24.7732 30.1921 24.6495 30.1424C24.5258 30.0927 24.4022 30.0181 24.3032 29.9685C24.1795 29.9188 24.0559 29.8691 23.9322 29.8194C23.8085 29.7697 23.6849 29.72 23.5612 29.6703C23.4375 29.6206 23.3138 29.5958 23.2149 29.5461C23.0912 29.4964 22.9675 29.4716 22.8439 29.4219C22.7202 29.397 22.5965 29.3473 22.4729 29.3225C22.3492 29.2976 22.2255 29.2728 22.1018 29.2231C22.0029 29.1983 21.904 29.1734 21.805 29.1734C21.7061 29.1486 21.6072 29.1486 21.5082 29.1237C21.4093 29.0989 21.3103 29.0989 21.2114 29.074C21.1125 29.0492 21.0135 29.0492 20.9146 29.0244C20.8156 29.0244 20.7167 28.9995 20.6178 28.9995C20.5188 28.9995 20.4199 28.9747 20.3209 28.9747C20.222 28.9747 20.1231 28.9498 20.0241 28.9498C19.9252 28.9498 19.8263 28.9498 19.7273 28.925H19.4552H19.1832H18.9111H18.639C18.5648 28.925 18.4906 28.925 18.4164 28.925C18.3422 28.925 18.268 28.925 18.1938 28.925H17.9712L17.7486 28.9498C17.5259 28.9747 17.3033 28.9747 17.056 28.9995L16.8828 29.0244C16.8086 29.0244 16.7344 29.0492 16.6602 29.0492C16.586 29.0492 16.5118 29.074 16.4376 29.074L16.4129 28.925L16.6108 28.9001C16.7344 28.8753 16.8334 28.8753 16.957 28.8753C17.0807 28.8753 17.1797 28.8504 17.3033 28.8504C17.4023 28.8504 17.5259 28.8256 17.6496 28.8256C17.7733 28.8256 17.8722 28.8008 17.9959 28.8008C18.169 28.8008 18.3422 28.7759 18.5153 28.7759C18.5895 28.7759 18.6885 28.7759 18.7874 28.7759C18.8863 28.7759 18.9605 28.7759 19.0595 28.7759C19.1584 28.7759 19.2574 28.7759 19.3563 28.7759C19.4552 28.7759 19.5542 28.7759 19.6531 28.7759C19.7521 28.7759 19.851 28.7759 19.9499 28.8008L20.2467 28.8256C20.3457 28.8256 20.4446 28.8504 20.5436 28.8504C20.6425 28.8504 20.7414 28.8753 20.8404 28.8753C20.9393 28.8753 21.0383 28.9001 21.1372 28.925C21.2361 28.9498 21.3351 28.9498 21.434 28.9747C21.6071 28.9995 21.7803 29.0244 21.9534 29.074C22.1266 29.0989 22.2997 29.1486 22.4481 29.1983C22.6213 29.248 22.7944 29.2977 22.9428 29.3473C23.116 29.397 23.2644 29.4467 23.4375 29.4964C23.5612 29.5461 23.6849 29.5958 23.8085 29.6455C23.9322 29.6952 24.0559 29.7449 24.1795 29.7945C24.3032 29.8442 24.4269 29.8939 24.5506 29.9685C24.6742 30.0181 24.7979 30.0927 24.9216 30.1424L25.1937 30.2914L25.4657 30.4405C25.5152 30.4653 25.5647 30.4653 25.6141 30.4902C25.6389 30.4902 25.6636 30.4902 25.6884 30.4902C25.7131 30.4902 25.7378 30.4902 25.7378 30.4902C25.7626 30.4902 25.7873 30.4653 25.7873 30.4653C25.812 30.4653 25.812 30.4405 25.8368 30.4157C25.8862 30.366 25.9357 30.3163 25.9852 30.2666C26.0346 30.2169 26.0841 30.1672 26.1336 30.1175C26.183 30.0678 26.2325 30.0181 26.282 29.9685C26.3315 29.9188 26.3809 29.8691 26.4304 29.8194C26.4551 29.7945 26.4551 29.7697 26.4551 29.7697C26.4551 29.7448 26.4799 29.72 26.4799 29.6952C26.4799 29.6703 26.4799 29.6455 26.4799 29.6206C26.4799 29.5958 26.4799 29.5709 26.4551 29.5461C26.4551 29.5212 26.4304 29.4716 26.4304 29.4467C26.4057 29.4219 26.4057 29.3722 26.3809 29.3473C26.3562 29.3225 26.3562 29.2728 26.3315 29.248C26.3067 29.2231 26.282 29.1734 26.282 29.1486C26.2573 29.0989 26.2078 29.0492 26.183 28.9995C26.1583 28.9498 26.1088 28.9001 26.0841 28.8504C26.0594 28.8008 26.0099 28.7511 25.9604 28.7014C25.911 28.6517 25.8862 28.602 25.8368 28.5772L25.6884 28.4281L25.5152 28.2542C25.4657 28.2045 25.4163 28.1548 25.3915 28.1051L25.3668 28.0803L25.4657 27.9312ZM18.5895 26.6393L18.6143 26.5647C18.6143 26.5399 18.639 26.5151 18.6637 26.4902C18.6885 26.4654 18.7132 26.4654 18.7379 26.4654H18.7627H18.8369L18.8121 26.5399L18.6637 27.0119C18.6637 27.0368 18.6637 27.0368 18.639 27.0368C18.639 27.0368 18.6143 27.0368 18.5895 27.0368C18.5648 27.0368 18.5401 27.0368 18.5153 27.0368H18.4411L18.4658 26.9871C18.4658 26.9623 18.4658 26.9623 18.4658 26.9374C18.4658 26.8629 18.4659 26.8132 18.4411 26.7635C18.4164 26.7138 18.3669 26.6641 18.2927 26.6641C18.2433 26.6393 18.169 26.6393 18.1196 26.6393C18.0454 26.6393 17.9959 26.6393 17.9217 26.6641C17.7238 26.7138 17.5754 26.7883 17.4517 26.9126C17.3281 27.0368 17.2291 27.1859 17.1302 27.3846C17.1055 27.4592 17.0807 27.5337 17.056 27.6082C17.0313 27.6828 17.0312 27.7573 17.0312 27.8318C17.0312 27.9809 17.0807 28.0803 17.1549 28.1548C17.2291 28.2293 17.3281 28.279 17.4517 28.3039C17.5754 28.3039 17.6991 28.3039 17.8228 28.2542C17.9464 28.2293 18.0701 28.1548 18.169 28.0803L18.2432 28.0306L18.2927 28.0803L18.3422 28.13L18.2927 28.1796C18.268 28.2045 18.2432 28.2293 18.2185 28.2293C18.0701 28.3287 17.897 28.4032 17.7238 28.4281C17.5507 28.4529 17.3775 28.4529 17.2044 28.4032C17.1055 28.3784 17.0312 28.3536 16.957 28.279C16.8828 28.2293 16.8334 28.1548 16.8086 28.0803C16.7839 28.0057 16.7592 27.9312 16.7592 27.8567C16.7592 27.7821 16.7592 27.7076 16.7592 27.6331C16.7839 27.484 16.8334 27.3598 16.8828 27.2355C16.957 27.1113 17.0313 26.9871 17.1302 26.8877C17.2786 26.7138 17.4517 26.5896 17.6496 26.5151C17.8228 26.4405 18.0454 26.4157 18.2432 26.4157C18.2927 26.4157 18.3422 26.4157 18.3916 26.4405C18.4411 26.4654 18.4906 26.4654 18.5153 26.5151C18.5401 26.5896 18.5648 26.5896 18.5895 26.6393ZM18.5895 28.4032C18.6143 28.3536 18.6143 28.3287 18.6143 28.3287C18.6143 28.3287 18.6143 28.3039 18.639 28.3039H18.6637H18.7379H18.8121C18.8121 28.3039 18.8121 28.3039 18.8369 28.3039C18.8369 28.3039 18.8369 28.3039 18.8369 28.279L19.381 26.6393H19.1584L19.1832 26.5896C19.1832 26.5647 19.2079 26.5399 19.2079 26.5151C19.2079 26.5151 19.2079 26.4902 19.2326 26.4902H19.2574H19.9005C19.9005 26.4902 19.9005 26.4902 19.9252 26.4902H19.9499L19.9252 26.5399C19.9252 26.5647 19.9252 26.5896 19.9005 26.5896C19.9005 26.5896 19.9005 26.6144 19.8757 26.6144H19.851H19.7521C19.7273 26.6144 19.7026 26.6144 19.6531 26.6144C19.6531 26.6144 19.6531 26.6144 19.6284 26.6144C19.6284 26.6144 19.6284 26.6144 19.6284 26.6393L19.109 28.2045H19.7768C19.7768 28.2045 19.7768 28.2045 19.8015 28.2045C19.8015 28.1548 19.8263 28.13 19.851 28.0803L19.8757 28.0057C19.8757 27.9809 19.8757 27.9809 19.9005 27.9809H19.9252C19.9499 27.9809 19.9747 27.9809 19.9994 27.9809H20.0736L19.9252 28.3784C19.9252 28.4032 19.9252 28.4032 19.9005 28.4032C19.9005 28.4032 19.8757 28.4281 19.851 28.4281H18.5648H18.5153L18.5895 28.4032ZM14.6567 27.484C14.7062 27.484 14.7309 27.484 14.7804 27.484H14.8546C14.9041 27.484 14.9535 27.484 15.003 27.484C15.1019 27.4592 15.2256 27.3846 15.2998 27.3101C15.374 27.2107 15.4482 27.0865 15.4482 26.9623C15.4482 26.8877 15.4482 26.8132 15.4235 26.7635C15.3988 26.7138 15.3246 26.689 15.2751 26.6641H15.2504H15.1514C15.102 26.6641 15.0277 26.6641 14.9783 26.6641H14.9536C14.9536 26.6641 14.9536 26.6641 14.9536 26.689C14.8299 26.9623 14.7309 27.2355 14.6567 27.484ZM10.7239 23.0368C10.3776 23.2853 10.0561 23.4095 9.68507 23.4095C8.9925 23.4095 8.62149 22.9374 8.84411 22.2915C9.01725 21.7946 9.413 21.4468 9.88296 21.2977C10.0561 21.2232 10.254 21.2232 10.4271 21.2232C10.6745 21.2232 10.8229 21.2728 10.9713 21.4219L11.1444 21.248H11.3176L11.0949 21.8443H10.8971C10.9713 21.5461 10.7239 21.3971 10.4766 21.3971C10.1303 21.3971 9.63561 21.6455 9.413 22.3163C9.28932 22.689 9.3388 23.012 9.51194 23.1362C9.61088 23.2107 9.73455 23.2356 9.88296 23.2356C10.155 23.2356 10.3777 23.1362 10.625 22.9126L10.7239 23.0368Z" fill="white"/>
</svg>
