<svg width="37" height="37" viewBox="0 0 37 37" fill="none" xmlns="http://www.w3.org/2000/svg">
<circle cx="18.5" cy="18.5" r="18" stroke="#774653"/>
<path d="M23.1014 15.157L23.1001 15.1601L23.1001 15.1601L23.1 15.1602L23.1 15.1602L23.0997 15.1611L23.0979 15.1651L23.0903 15.1826C23.0834 15.1984 23.0729 15.2221 23.059 15.2532C23.0311 15.3152 22.9895 15.4063 22.9351 15.5206C22.8264 15.7492 22.6672 16.0696 22.4665 16.4346C22.064 17.1666 21.5048 18.059 20.8606 18.754C20.5823 19.0211 20.441 19.1263 20.3599 19.1676C20.3556 19.1424 20.3525 19.1094 20.3525 19.0671V15.4689C20.3525 15.2192 20.3204 14.9397 20.155 14.7224C19.9682 14.4771 19.691 14.4061 19.4266 14.4061H16.4584C15.9561 14.4061 15.5839 14.7821 15.5839 15.2161C15.5839 15.441 15.676 15.6098 15.7649 15.7338C15.8073 15.7929 15.8548 15.8497 15.8945 15.8971L15.8996 15.9032C15.9399 15.9513 15.9764 15.9949 16.0131 16.043C16.1486 16.2206 16.3022 16.4781 16.3339 17.0006V19.6653C16.3339 19.7822 16.3292 19.8687 16.3216 19.9321C16.3174 19.9296 16.3131 19.9269 16.3086 19.9241C16.2364 19.8784 16.1425 19.8017 16.0294 19.6877C15.8038 19.4603 15.5364 19.1197 15.252 18.6874C14.6848 17.8248 14.0785 16.6399 13.6272 15.3737L13.6272 15.3737L13.6255 15.3693C13.529 15.1082 13.4094 14.8511 13.2016 14.6686C12.9758 14.4702 12.7025 14.4061 12.4036 14.4061H10.5157C10.1972 14.4061 9.91119 14.4769 9.71117 14.6775C9.50915 14.88 9.47441 15.1353 9.47441 15.3147C9.47441 15.4922 9.52759 15.7755 9.62613 16.1229C9.72803 16.4822 9.8874 16.9408 10.12 17.4808C10.5851 18.5608 11.3461 19.9734 12.5348 21.5755C14.1548 23.811 16.463 25.0602 18.6125 25.0602C19.2126 25.0602 19.6576 25.0014 19.9513 24.812C20.1164 24.7056 20.2267 24.5635 20.2889 24.3973C20.3463 24.2439 20.3557 24.0877 20.3557 23.9604C20.3557 23.6513 20.3531 23.374 20.351 23.1383C20.3496 22.9869 20.3484 22.8527 20.3481 22.7383C20.3472 22.4256 20.3533 22.2393 20.3717 22.1222C20.3729 22.115 20.374 22.1084 20.3751 22.1024C20.3949 22.1012 20.4213 22.1002 20.4555 22.1002C20.5731 22.1002 20.9557 22.139 22.0668 23.1676C22.3792 23.4682 22.6269 23.7277 22.8355 23.95C22.874 23.991 22.9116 24.0312 22.9484 24.0705C23.1076 24.2408 23.2506 24.3938 23.3812 24.5198C23.5437 24.6765 23.7108 24.8154 23.9034 24.9125C24.1039 25.0137 24.3133 25.0602 24.5488 25.0602H26.4368C26.7515 25.0602 27.0918 24.987 27.3173 24.7363C27.5606 24.4659 27.5681 24.1091 27.4671 23.7801L27.4672 23.7801L27.4642 23.771C27.3519 23.4345 27.0967 23.0498 26.8136 22.6842C26.523 22.3089 26.1731 21.9163 25.8364 21.5587C25.4989 21.2003 25.1702 20.8721 24.9206 20.6258C24.8615 20.5674 24.8078 20.5146 24.7594 20.4671C24.7041 20.4127 24.6558 20.3652 24.6144 20.3242C24.576 20.2861 24.5465 20.2565 24.5255 20.2349C24.5121 20.221 24.5059 20.2142 24.5044 20.2126L24.5026 20.2103C24.4364 20.1284 24.4163 20.0853 24.4107 20.069C24.4126 20.0628 24.4169 20.0509 24.4265 20.0315C24.4453 19.9933 24.4737 19.9465 24.52 19.8743L24.54 19.8473C24.5575 19.8234 24.5829 19.7887 24.6152 19.7444C24.6797 19.6557 24.7717 19.5283 24.8827 19.3723C25.1045 19.0606 25.4029 18.6336 25.709 18.1727C26.0146 17.7127 26.3308 17.2146 26.5868 16.7617C26.8315 16.3288 27.0454 15.8962 27.1221 15.5701C27.1912 15.3374 27.2248 15.0236 27.0335 14.759C26.8361 14.4861 26.5014 14.4061 26.1707 14.4061H24.2828C23.9723 14.4061 23.7124 14.4861 23.5049 14.6372C23.3012 14.7855 23.1789 14.9798 23.1014 15.157ZM20.389 22.0479C20.3891 22.0479 20.3889 22.0483 20.3885 22.0491L20.389 22.0479ZM24.4088 20.0611C24.409 20.0612 24.4094 20.0627 24.4096 20.0656C24.4088 20.0625 24.4087 20.0611 24.4088 20.0611Z" stroke="#774653" stroke-width="0.7875"/>
</svg>
