<svg width="37" height="37" viewBox="0 0 37 37" fill="none" xmlns="http://www.w3.org/2000/svg">
<g clip-path="url(#clip0_445_6564)">
<path d="M21.2521 19.1105L17.2587 21.3001C16.7948 21.5501 16.3012 21.2054 16.3012 20.696V16.2046C16.3012 15.6973 16.8013 15.3404 17.2725 15.6085L21.2912 17.9116C21.7616 18.1855 21.7161 18.8561 21.2521 19.1105ZM17.1547 20.3852L20.5981 18.4969L17.1547 16.5226V20.3852ZM26.9308 16.157C26.9308 14.2622 25.3958 12.7265 23.501 12.7265H13.498C11.6039 12.7265 10.0683 14.2622 10.0683 16.157V20.8441C10.0683 22.7389 11.6039 24.2746 13.498 24.2746H23.501C25.3958 24.2746 26.9308 22.7389 26.9308 20.8441V16.157ZM27.7842 16.157V20.8441C27.7842 23.2101 25.867 25.128 23.501 25.128H13.498C11.1328 25.128 9.21484 23.2101 9.21484 20.8441V16.157C9.21484 13.791 11.1328 11.873 13.498 11.873H23.501C25.867 11.873 27.7842 13.791 27.7842 16.157Z" fill="#774653"/>
<circle cx="18.5" cy="18.5" r="18" stroke="#774653"/>
</g>
<defs>
<clipPath id="clip0_445_6564">
<rect width="37" height="37" fill="white"/>
</clipPath>
</defs>
</svg>
