<svg width="118" height="123" viewBox="0 0 118 123" fill="none" xmlns="http://www.w3.org/2000/svg">
<path fill-rule="evenodd" clip-rule="evenodd" d="M26.2934 74.96C28.1947 74.96 29.7959 73.161 30.4964 71.162C31.1969 69.1631 30.8967 67.3641 28.9953 67.3641C27.094 67.3641 25.4928 69.1631 24.7923 71.162C24.0918 73.161 24.392 74.96 26.2934 74.96ZM29.1955 66.6644C31.9975 66.6644 33.5986 68.5634 32.698 71.0621C31.7973 73.5608 28.7952 75.4598 25.9932 75.4598C23.1912 75.4598 21.59 73.5608 22.4907 71.0621C23.3913 68.6634 26.3935 66.6644 29.1955 66.6644ZM39.5028 66.8643L39.2026 67.564H38.2019L35.7001 74.5602H38.7023L39.1026 73.4608H40.0032L39.3027 75.3598H32.3978L32.698 74.6602H33.7987L36.3005 67.464H35.1998L35.5 66.7644H39.5028V66.8643ZM47.5086 66.8643L47.2084 67.564H46.1076L43.6058 74.5602H46.6079L47.0082 73.4608H47.9089L47.2084 75.3598H40.3034L40.6037 74.6602H41.7044L44.2062 67.464H43.1054L43.4056 66.7644H47.5086V66.8643ZM51.1112 67.564L51.4114 66.8643H58.5164L57.916 68.5634H57.2155L57.5157 67.7639H54.2134L53.2126 70.5624H56.0146L56.3148 69.5629H57.0153L56.1147 72.1615H55.4142L55.7144 71.262H52.9124L51.7116 74.6602H55.3141L55.6144 73.6607H56.3148L55.7144 75.4598H48.3091L48.6094 74.7601H49.7101L52.2119 67.564H51.1112ZM65.9217 74.0605C64.5207 75.06 63.2198 75.5597 61.7187 75.5597C58.9167 75.5597 57.4156 73.6607 58.3163 71.0621C59.0168 69.0632 60.6179 67.6639 62.5193 67.0642C63.2198 66.7644 64.0204 66.7644 64.7209 66.7644C65.7216 66.7644 66.322 66.9643 66.9224 67.564L67.623 66.8643H68.3234L67.4228 69.2631H66.6222C66.9225 68.0637 65.9217 67.464 64.921 67.464C63.52 67.464 61.5186 68.4635 60.618 71.162C60.1176 72.6612 60.3177 73.9606 61.0182 74.4603C61.4185 74.7601 61.9188 74.8601 62.5193 74.8601C63.6201 74.8601 64.5207 74.4603 65.5214 73.5608L65.9217 74.0605ZM68.3234 75.4598L68.6237 74.7601H69.7244L72.2262 67.564H70.0246L69.7244 68.4635H68.9239L69.5243 66.8643H77.53L76.9296 68.4635H76.129L76.4292 67.564H74.2277L71.7259 74.7601H72.8266L72.5264 75.4598H68.3234ZM78.8309 74.6602H79.9317L79.6315 75.3598H75.5286L75.8288 74.6602H76.9296L79.4314 67.464H78.3306L78.6308 66.7644H82.7337L82.4335 67.464H81.3327L78.8309 74.6602ZM86.1362 74.96C88.0375 74.96 89.6386 73.161 90.3391 71.162C91.0396 69.1631 90.7394 67.3641 88.8381 67.3641C86.9367 67.3641 85.3356 69.1631 84.6351 71.162C83.9346 73.161 84.2348 74.96 86.1362 74.96ZM89.0382 66.6644C91.8402 66.6644 93.4414 68.5634 92.5407 71.0621C91.6401 73.5608 88.6379 75.4598 85.8359 75.4598C83.0339 75.4598 81.4328 73.5608 82.3334 71.0621C83.2341 68.6634 86.2362 66.6644 89.0382 66.6644ZM98.1448 66.8643L101.647 73.2609L103.649 67.564H102.548L102.848 66.8643H105.65L105.35 67.564H104.249L101.447 75.4598H100.346L96.3434 68.3635L94.1419 74.6602H95.2427L94.9425 75.3598H92.2405L92.5407 74.6602H93.6415L96.1433 67.464H95.0425L95.3427 66.7644H98.1448V66.8643ZM98.8452 61.6671L116.058 35.4811L85.2355 1.29929H35.8002L2.17617 35.581L19.9889 61.867C20.089 62.0669 20.089 62.2668 19.8888 62.3667L19.4885 62.6666C19.2884 62.7665 19.0883 62.6666 18.8881 62.5666L0.575054 35.581C0.474982 35.3811 0.474982 35.1812 0.575054 35.0813C9.1812 26.3859 17.7873 17.5906 26.2934 8.89525L34.8996 0.0999528C34.9996 6.09877e-06 35.0997 0 35.0997 0H85.3356C85.4356 0 85.6358 0.0999284 85.7359 0.199875C92.3406 7.59593 99.0454 14.892 105.65 22.2881L117.358 35.2812C117.459 35.4811 117.559 35.681 117.459 35.7809L99.8459 62.5666C99.7459 62.7665 99.4457 62.7665 99.2455 62.5666L98.8452 62.2668C98.7451 62.0669 98.7451 61.867 98.8452 61.6671ZM87.9375 80.3571L85.4357 84.0552C85.3356 84.2551 85.0353 84.2551 84.8352 84.0552L84.435 83.7553C84.2348 83.6554 84.1347 83.3555 84.2348 83.1556L86.7366 79.3577C86.8367 79.1578 87.1368 79.1578 87.337 79.3577L87.7373 79.6575C87.9374 79.9573 88.0375 80.1572 87.9375 80.3571ZM72.1262 104.144L59.7173 122.834C59.6172 123.034 59.317 123.034 59.1169 122.834C59.0168 122.834 59.0168 122.735 59.0168 122.635L46.6079 104.045C46.5079 103.845 46.5079 103.645 46.708 103.545L47.1083 103.245C47.3084 103.145 47.5086 103.245 47.7087 103.345L59.317 120.736L70.9253 103.245C71.0254 103.045 71.3256 103.045 71.5257 103.245L71.926 103.545C72.1262 103.745 72.2262 103.945 72.1262 104.144ZM33.1983 83.9552L30.6966 80.2572C30.5965 80.0573 30.5965 79.8574 30.7966 79.7575L31.1969 79.4576C31.3971 79.3577 31.5972 79.4576 31.7973 79.5576L34.2991 83.2556C34.3992 83.4555 34.3992 83.6554 34.1991 83.7553L33.7987 84.0552C33.5986 84.2551 33.3985 84.2551 33.1983 83.9552ZM37.9017 18.1903H43.3055C48.6093 18.1903 49.9103 21.4885 48.3091 26.0861C46.9081 29.8841 43.2055 34.3817 37.6015 34.3817H32.0976L37.9017 18.1903ZM27.8946 15.8915L27.194 17.7905H31.7973L19.5886 51.1727H14.9853L14.2848 53.0717H29.896L30.5965 51.1727H25.9932L31.297 36.5805H34.8996C36.2005 40.2785 43.6058 54.9707 65.1212 60.1679L65.4214 59.3683C45.4071 50.673 41.5043 35.7809 41.5043 35.7809C49.51 34.2817 53.5129 29.8841 55.114 25.5864C56.515 21.6884 55.6144 15.7916 46.1076 15.7916H27.8946V15.8915ZM97.4443 15.6916H94.5422L93.3413 18.8899L92.941 20.0893C92.941 20.0893 91.1397 15.2919 83.7344 15.092C71.6258 15.092 59.1168 22.488 54.8138 34.3817C51.3113 44.0765 55.3141 53.6714 69.9246 53.6714C75.7287 53.6714 82.1333 51.8723 87.4371 47.6746L86.3363 46.3753C80.1318 50.573 74.6279 51.3726 70.8252 51.3726C61.3184 51.3726 58.7165 43.077 62.3191 33.2822C65.9217 23.4875 73.327 17.5906 83.0339 17.5906C89.8388 17.5906 92.5407 21.2886 90.8395 26.186H93.7416L97.4443 15.6916ZM35.2998 95.1492H36.2005L36.1004 95.3491C36.1004 95.4491 36.0003 95.549 36.0003 95.649C36.0003 95.649 36.0004 95.7489 35.9003 95.7489H35.8002H33.0983C33.0983 95.7489 33.0983 95.7489 32.9982 95.7489H32.8981L32.9982 95.549C32.9982 95.4491 33.0983 95.3491 33.0983 95.2492C33.0983 95.2492 33.0983 95.1492 33.1983 95.1492H33.2984H33.3985C33.5986 95.1492 33.7988 95.1492 33.9989 95.1492C34.099 95.1492 34.099 95.1492 34.099 95.1492C34.099 95.1492 34.099 95.0493 34.1991 95.0493C34.5993 93.85 34.9996 92.6506 35.3999 91.4512C35.7001 90.5517 36.0004 89.5523 36.4006 88.5528H35.5L35.6001 88.3529C35.6001 88.2529 35.7001 88.153 35.7001 88.053L35.8002 87.9531H35.9003H37.8016C38.302 87.9531 38.7023 87.9531 39.2026 87.9531C39.3027 87.9531 39.5029 87.9531 39.6029 87.9531C39.703 87.9531 39.9031 87.9531 40.0032 88.053C40.4035 88.153 40.6036 88.3529 40.8037 88.6527C41.0039 88.9525 41.0039 89.2524 41.0039 89.6522C40.9038 90.2519 40.7037 90.7516 40.4035 91.1514C40.1033 91.5512 39.703 91.951 39.1026 92.1508C38.9024 92.2508 38.8024 92.2508 38.6022 92.3507L38.302 92.4507L38.4021 92.6506C38.5021 92.8505 38.6022 93.0504 38.6022 93.2503C38.9024 93.9499 39.3027 94.5496 39.803 95.0493C40.3034 95.549 40.8038 96.0488 41.4042 96.4486C41.7044 96.6485 42.1047 96.8484 42.505 97.0483C42.7051 97.1482 42.9053 97.2481 43.1054 97.448V97.6479L43.0053 97.8478L42.6051 97.7479C42.4049 97.6479 42.1047 97.548 41.9046 97.448C41.3041 97.2481 40.7037 96.9483 40.2033 96.5485C39.703 96.1487 39.2026 95.7489 38.8023 95.3491C38.402 94.9494 38.1018 94.5496 37.8016 94.1498C37.5014 93.75 37.3013 93.2503 37.1012 92.7505H36.3005C35.9002 93.5501 35.6 94.2497 35.2998 95.1492ZM65.1212 87.9531L65.7216 95.2492H66.5221L66.4221 95.4491C66.4221 95.549 66.322 95.649 66.322 95.649L66.2219 95.7489H66.1219H63.4199L63.52 95.549C63.52 95.4491 63.6201 95.3491 63.6201 95.2492L63.7201 95.1492H63.8202H64.5207L64.4207 94.0499C64.4207 93.85 64.4206 93.6501 64.3206 93.5501H61.1183C60.718 94.0499 60.3177 94.6495 59.9174 95.2492H60.8181L60.718 95.4491C60.718 95.549 60.618 95.649 60.618 95.7489C60.618 95.7489 60.6179 95.8489 60.5178 95.8489H60.4178H58.1162L58.2162 95.649C58.2162 95.549 58.3163 95.4491 58.3163 95.3491L58.4164 95.2492H58.5164H58.7166C58.8166 95.2492 58.9167 95.2492 59.0168 95.2492C59.0168 95.2492 59.0168 95.2492 59.1169 95.2492C60.8181 92.8505 62.6193 90.4518 64.3206 88.053L64.4207 87.9531C64.4207 87.9531 64.5207 87.9531 64.6208 87.9531C64.7209 87.9531 64.7208 87.9531 64.8209 87.9531H65.1212ZM64.1205 89.4523C63.3199 90.5517 62.5193 91.7511 61.7187 92.8505H64.4207L64.3206 91.951C64.3206 91.4512 64.2205 90.9515 64.2205 90.4518C64.2205 90.3518 64.2205 90.2519 64.2205 90.1519C64.1204 89.8521 64.0204 89.6522 64.1205 89.4523ZM73.5271 88.4528L73.6272 88.153C73.6272 88.053 73.6272 88.053 73.7273 88.053C73.7273 88.053 73.8274 87.9531 73.9275 88.053C74.0275 88.053 74.1276 88.053 74.2277 88.053H74.4278V88.2529V88.3529L73.8273 89.952C73.8273 90.052 73.8274 90.052 73.7273 90.052C73.7273 90.052 73.6272 90.052 73.5271 90.052C73.4271 90.052 73.327 90.052 73.327 90.052H73.1269V89.8521C73.1269 89.7521 73.1269 89.7521 73.1269 89.7521V89.5523C73.1269 89.4523 73.1269 89.2524 73.1269 89.1524C73.1269 88.9525 73.0268 88.8526 72.9267 88.7527C72.8267 88.6527 72.7266 88.5528 72.5264 88.5528C72.1261 88.4528 71.6258 88.4528 71.3256 88.5528C70.9253 88.6527 70.525 88.8526 70.2248 89.2524C70.1247 89.3523 70.1247 89.3523 70.1247 89.4523C70.1247 89.5522 70.0246 89.6522 70.0246 89.7521C69.9246 89.952 69.9246 90.1519 69.9246 90.2519C69.9246 90.3518 70.0247 90.5517 70.2248 90.6516C70.4249 90.8515 70.7251 90.9515 71.0254 91.0515L71.2255 91.1514C71.3256 91.2513 71.5257 91.2513 71.6258 91.3513C71.826 91.4512 72.1261 91.5512 72.3263 91.7511C72.7266 91.951 72.9267 92.2508 73.0268 92.5507C73.1269 92.8505 73.1269 93.2503 72.9267 93.65C72.7266 94.0498 72.5264 94.4496 72.2262 94.7495C71.926 95.0493 71.6258 95.3492 71.2255 95.549C70.8252 95.7489 70.4249 95.8489 70.0246 95.9488C69.6244 96.0488 69.124 95.9488 68.7237 95.9488C68.5236 95.9488 68.4235 95.8489 68.3234 95.7489C68.2233 95.649 68.0232 95.549 67.9232 95.4491L67.8231 95.3491C67.8231 95.4491 67.723 95.549 67.723 95.649C67.723 95.7489 67.623 95.7489 67.623 95.8489C67.5229 95.8489 67.5229 95.9488 67.4228 95.8489C67.3227 95.8489 67.3227 95.8489 67.2226 95.8489H66.9224L67.3227 94.7495C67.4228 94.4496 67.5229 94.1498 67.623 93.8499C67.623 93.75 67.723 93.75 67.723 93.75C67.723 93.75 67.8231 93.75 67.9232 93.75C68.0232 93.75 68.1233 93.75 68.1233 93.75H68.3234V93.9499C68.3234 94.0498 68.3234 94.0498 68.2234 94.1498C68.1233 94.3497 68.1233 94.6495 68.2234 94.8494C68.3234 95.0493 68.5236 95.2492 68.7237 95.3491C69.0239 95.4491 69.3242 95.549 69.7244 95.4491C70.0247 95.4491 70.3249 95.3491 70.6251 95.2492C70.8252 95.1492 70.9253 95.0493 71.1255 94.9494C71.2255 94.8494 71.4256 94.7495 71.5257 94.5496C71.6258 94.4496 71.7259 94.2497 71.7259 94.1498C71.8259 94.0498 71.8259 93.8499 71.8259 93.65C71.8259 93.5501 71.8259 93.3502 71.7259 93.2503C71.7259 93.1503 71.6258 93.0504 71.5257 92.9504C71.3256 92.8505 71.1255 92.7505 70.9253 92.6506L70.2248 92.2508C69.9246 92.1508 69.6244 91.951 69.4242 91.7511C69.124 91.5512 69.0239 91.3513 68.9239 91.0515C68.8238 90.7516 68.8238 90.5517 68.9239 90.1519C69.0239 89.7521 69.124 89.4523 69.3241 89.1524C69.5243 88.8526 69.8245 88.6527 70.1247 88.4528C70.525 88.153 70.9253 87.9531 71.4257 87.8531C71.826 87.7532 72.3263 87.7532 72.8266 87.8531C73.0268 87.8531 73.1269 87.9531 73.2269 88.053C73.327 88.2529 73.4271 88.3529 73.5271 88.4528ZM74.2277 95.2492L74.1276 95.549C74.1276 95.649 74.1276 95.649 74.0275 95.649C74.0275 95.649 73.9274 95.649 73.8273 95.649C73.7273 95.649 73.6272 95.649 73.6272 95.649H73.327L74.0275 93.65C74.0275 93.5501 74.0275 93.5501 74.1276 93.5501C74.1276 93.5501 74.2276 93.5501 74.3277 93.5501C74.4278 93.5501 74.5279 93.5501 74.628 93.5501H74.9282L74.8281 94.0499C74.728 94.2497 74.8281 94.4496 74.8281 94.5496C74.9281 94.7495 75.0283 94.8494 75.1283 94.9494C75.2284 95.0493 75.4285 95.1492 75.6287 95.1492C75.8288 95.1492 75.9289 95.1492 76.129 95.1492C76.4293 95.1492 76.6294 95.1493 76.9296 95.0493C77.1297 94.9494 77.43 94.8494 77.6301 94.7495C77.8303 94.5496 78.0304 94.4496 78.2305 94.1498C78.3306 93.9499 78.4306 93.6501 78.5307 93.3502C78.5307 93.2503 78.5307 93.0504 78.5307 92.9504C78.5307 92.8505 78.4306 92.7505 78.3306 92.6506C78.1304 92.5506 77.9303 92.4507 77.7302 92.3507L77.1298 92.0509C76.8295 91.951 76.6293 91.7511 76.3291 91.6511C76.2291 91.5512 76.129 91.5512 76.0289 91.4512C75.9289 91.3513 75.8288 91.2513 75.8288 91.1514C75.7287 90.9515 75.7287 90.7516 75.7287 90.5517C75.7287 90.3518 75.7287 90.1519 75.8288 89.952C75.9288 89.5522 76.129 89.2524 76.3291 89.0525C76.5293 88.7527 76.8295 88.5528 77.1298 88.3529C77.53 88.153 77.9303 87.9531 78.3306 87.8531C78.7308 87.7532 79.2313 87.7532 79.6315 87.8531C79.8317 87.8531 79.9317 87.9531 80.0318 88.053C80.1319 88.153 80.2319 88.2529 80.332 88.3529L80.4321 87.9531C80.4321 87.9531 80.4321 87.8531 80.5321 87.8531H80.6323C80.7323 87.8531 80.8324 87.8531 80.9325 87.8531H81.2327L80.6323 89.7521C80.6323 89.8521 80.6322 89.8521 80.5321 89.8521C80.5321 89.8521 80.4321 89.8521 80.332 89.8521C80.2319 89.8521 80.1319 89.8521 80.0318 89.8521H79.8316L79.9317 89.5523C79.9317 89.4523 79.9317 89.3523 80.0318 89.2524C80.0318 89.0525 80.0318 88.8526 79.9317 88.6527C79.8317 88.5528 79.7316 88.3529 79.4314 88.3529C79.0311 88.2529 78.5307 88.2529 78.0304 88.4528C77.6301 88.5528 77.2298 88.8526 77.0296 89.1524C77.0296 89.2524 76.9296 89.3523 76.9296 89.3523C76.9296 89.4523 76.8295 89.5522 76.8295 89.6522C76.8295 89.7521 76.8295 89.8521 76.8295 89.952C76.8295 90.052 76.9296 90.1519 77.0296 90.2519C77.1297 90.3518 77.2298 90.4518 77.3298 90.5517C77.4299 90.6517 77.53 90.6516 77.6301 90.7516C77.8303 90.8515 78.1305 90.9515 78.4307 91.1514C78.6308 91.2513 78.831 91.3513 78.931 91.3513C79.0311 91.3513 79.0311 91.4512 79.1312 91.4512C79.2313 91.4512 79.2312 91.5512 79.3313 91.5512C79.5314 91.7511 79.7316 91.951 79.8316 92.2508C79.9317 92.5506 79.9317 92.7505 79.8316 93.0504C79.7316 93.4502 79.6315 93.75 79.4314 94.0499C79.2312 94.3497 78.931 94.6495 78.6308 94.8494C78.1305 95.1493 77.7302 95.3492 77.2298 95.549C76.7294 95.649 76.2291 95.649 75.6287 95.549H75.5286C75.5286 95.549 75.4285 95.549 75.4285 95.4491C74.628 95.649 74.4278 95.549 74.2277 95.2492ZM80.1319 93.75L80.4321 93.4502L81.1326 94.1498C81.3328 94.3497 81.5328 94.6495 81.8331 94.8494C82.0332 95.0493 82.2334 95.3492 82.5336 95.549C82.7337 95.7489 82.9339 96.0488 83.134 96.2487C83.3342 96.5485 83.5343 96.7484 83.7344 97.0483C83.8345 97.2481 83.9346 97.3481 84.0346 97.548C84.1347 97.7479 84.2348 97.8478 84.3348 98.0477C84.4349 98.2476 84.535 98.3476 84.6351 98.5475C84.7352 98.7473 84.8352 98.9472 84.8352 99.1471C84.8352 99.2471 84.9353 99.347 84.9353 99.447C84.9353 99.5469 85.0354 99.6469 85.0354 99.7468C85.0354 99.8467 85.0354 99.9467 85.0354 100.047C85.0354 100.147 85.0354 100.247 85.0354 100.346C85.0354 100.446 85.0354 100.546 84.9353 100.646C84.9353 100.746 84.8352 100.846 84.8352 100.946C84.8352 101.046 84.7352 101.146 84.6351 101.246C84.535 101.346 84.535 101.446 84.435 101.446C84.1347 101.846 83.8345 102.146 83.4342 102.545C83.134 102.845 82.7337 103.245 82.4335 103.545L82.2334 103.745C82.1333 103.845 81.9332 104.044 81.733 104.144C81.5329 104.244 81.4328 104.244 81.2327 104.344C81.0325 104.344 80.9324 104.344 80.7323 104.344C80.5322 104.344 80.332 104.244 80.2319 104.144L79.7316 103.945L79.2312 103.745L78.7309 103.545L78.2305 103.345C77.7302 103.145 77.3298 102.845 76.8295 102.645C76.3291 102.445 75.8288 102.146 75.4285 101.946C74.9282 101.746 74.4278 101.546 73.9275 101.346C73.4271 101.146 72.9267 100.946 72.4264 100.746C71.926 100.546 71.4256 100.446 71.0254 100.247C70.525 100.047 70.0246 99.9467 69.5243 99.7468C69.0239 99.6469 68.5236 99.447 68.0232 99.347C67.5229 99.2471 67.0225 99.1471 66.5221 98.9472C66.1218 98.8473 65.7215 98.7473 65.3213 98.7473C64.921 98.6474 64.5207 98.6474 64.1205 98.5475C63.7202 98.4475 63.3199 98.4475 62.9196 98.3475C62.5193 98.2476 62.119 98.2476 61.7187 98.1476C61.3184 98.1476 60.9181 98.0477 60.5178 98.0477C60.1176 98.0477 59.7173 97.9478 59.317 97.9478C58.9167 97.9478 58.5165 97.8478 58.1162 97.8478C57.7159 97.8478 57.3156 97.8478 56.9153 97.7479H55.8145H54.7137H53.6129H52.5121C52.2119 97.7479 51.9117 97.7479 51.6115 97.7479C51.3113 97.7479 51.0111 97.7479 50.7109 97.7479H49.8102L48.9096 97.8478C48.0089 97.9478 47.1083 97.9478 46.1076 98.0477L45.4071 98.1476C45.1069 98.1476 44.8066 98.2476 44.5064 98.2476C44.2062 98.2476 43.906 98.3475 43.6058 98.3475L43.5057 97.7479L44.3063 97.6479C44.8066 97.548 45.2069 97.548 45.7073 97.548C46.2076 97.548 46.6079 97.448 47.1083 97.448C47.5086 97.448 48.0089 97.3481 48.5093 97.3481C49.0096 97.3481 49.4099 97.2481 49.9103 97.2481C50.6108 97.2481 51.3113 97.1482 52.0118 97.1482C52.312 97.1482 52.7123 97.1482 53.1126 97.1482C53.5129 97.1482 53.8131 97.1482 54.2134 97.1482C54.6136 97.1482 55.0139 97.1482 55.4142 97.1482C55.8145 97.1482 56.2148 97.1482 56.6151 97.1482C57.0154 97.1482 57.4156 97.1482 57.8159 97.2481L59.0168 97.3481C59.4171 97.3481 59.8174 97.448 60.2176 97.448C60.6179 97.448 61.0182 97.548 61.4185 97.548C61.8188 97.548 62.2191 97.6479 62.6194 97.7479C63.0197 97.8478 63.4199 97.8478 63.8202 97.9478C64.5207 98.0477 65.2212 98.1477 65.9217 98.3475C66.6222 98.4475 67.3227 98.6474 67.9232 98.8473C68.6237 99.0472 69.3242 99.2471 69.9246 99.447C70.6251 99.6469 71.2255 99.8468 71.926 100.047C72.4264 100.247 72.9267 100.446 73.4271 100.646C73.9275 100.846 74.4278 101.046 74.9282 101.246C75.4285 101.446 75.9289 101.646 76.4292 101.946C76.9296 102.146 77.43 102.445 77.9303 102.645L79.0311 103.245L80.1319 103.845C80.332 103.945 80.5322 103.945 80.7323 104.045C80.8324 104.045 80.9324 104.045 81.0325 104.045C81.1326 104.045 81.2327 104.045 81.2327 104.045C81.3327 104.045 81.4328 103.945 81.4328 103.945C81.5329 103.945 81.5329 103.845 81.633 103.745C81.8331 103.545 82.0332 103.345 82.2334 103.145C82.4335 102.945 82.6336 102.745 82.8338 102.545C83.0339 102.345 83.2341 102.146 83.4342 101.946C83.6344 101.746 83.8345 101.546 84.0346 101.346C84.1347 101.246 84.1348 101.146 84.1348 101.146C84.1348 101.046 84.2348 100.946 84.2348 100.846C84.2348 100.746 84.2348 100.646 84.2348 100.546C84.2348 100.446 84.2348 100.346 84.1348 100.247C84.1348 100.147 84.0346 99.9467 84.0346 99.8467C83.9346 99.7468 83.9346 99.5469 83.8345 99.447C83.7344 99.347 83.7345 99.1471 83.6344 99.0472C83.5343 98.9472 83.4342 98.7473 83.4342 98.6474C83.3342 98.4475 83.134 98.2476 83.0339 98.0477C82.9339 97.8478 82.7338 97.6479 82.6337 97.448C82.5336 97.2481 82.3335 97.0482 82.1333 96.8484C81.9332 96.6485 81.8331 96.4486 81.633 96.3486L81.0325 95.7489L80.332 95.0493C80.1318 94.8494 79.9317 94.6495 79.8316 94.4496L79.7316 94.3497L80.1319 93.75ZM52.312 88.5528L52.4121 88.2529C52.4121 88.153 52.5122 88.053 52.6122 87.9531C52.7123 87.8531 52.8124 87.8531 52.9124 87.8531H53.0125H53.3127L53.2126 88.153L52.6122 90.052C52.6122 90.1519 52.6122 90.1519 52.5121 90.1519C52.5121 90.1519 52.412 90.1519 52.312 90.1519C52.2119 90.1519 52.1118 90.1519 52.0118 90.1519H51.7116L51.8116 89.952C51.8116 89.8521 51.8116 89.8521 51.8116 89.7521C51.8116 89.4523 51.8116 89.2524 51.7116 89.0525C51.6115 88.8526 51.4114 88.6527 51.1112 88.6527C50.911 88.5528 50.6108 88.5528 50.4106 88.5528C50.1104 88.5528 49.9103 88.5528 49.6101 88.6527C48.8095 88.8526 48.2091 89.1524 47.7087 89.6522C47.2084 90.1519 46.8081 90.7516 46.4078 91.5512C46.3077 91.851 46.2077 92.1509 46.1076 92.4507C46.0075 92.7505 46.0075 93.0504 46.0075 93.3502C46.0075 93.9499 46.2076 94.3497 46.5078 94.6495C46.8081 94.9493 47.2084 95.1492 47.7087 95.2492C48.2091 95.2492 48.7094 95.2492 49.2098 95.0493C49.7101 94.9494 50.2105 94.6495 50.6108 94.3497L50.911 94.1498L51.1112 94.3497L51.3113 94.5496L51.1112 94.7495C51.0111 94.8494 50.911 94.9494 50.8109 94.9494C50.2105 95.3492 49.51 95.649 48.8095 95.7489C48.109 95.8489 47.4085 95.8489 46.708 95.649C46.3077 95.549 46.0075 95.4491 45.7073 95.1492C45.4071 94.9493 45.2069 94.6495 45.1069 94.3497C45.0068 94.0498 44.9067 93.75 44.9067 93.4502C44.9067 93.1503 44.9067 92.8505 44.9067 92.5507C45.0068 91.951 45.2069 91.4512 45.4071 90.9515C45.7073 90.4518 46.0075 89.952 46.4078 89.5523C47.0082 88.8526 47.7087 88.3529 48.5093 88.053C49.2098 87.7532 50.1104 87.6532 50.911 87.6532C51.1111 87.6532 51.3113 87.6532 51.5114 87.7532C51.7116 87.8531 51.9117 87.8532 52.0118 88.053C52.1118 88.3529 52.2119 88.3529 52.312 88.5528ZM52.312 95.649C52.412 95.4491 52.4121 95.3491 52.4121 95.3491C52.4121 95.3491 52.4121 95.2492 52.5121 95.2492H52.6122H52.9124H53.2126C53.2126 95.2492 53.2126 95.2492 53.3127 95.2492C53.3127 95.2492 53.3127 95.2492 53.3127 95.1492L55.5143 88.5528H54.6137L54.7137 88.3529C54.7137 88.2529 54.8138 88.153 54.8138 88.053C54.8138 88.053 54.8138 87.9531 54.9139 87.9531H55.0139H57.6158C57.6158 87.9531 57.6158 87.9531 57.7159 87.9531H57.8159L57.7159 88.153C57.7159 88.2529 57.7159 88.3529 57.6158 88.3529C57.6158 88.3529 57.6158 88.4528 57.5157 88.4528H57.4157H57.0153C56.9153 88.4528 56.8152 88.4528 56.6151 88.4528C56.6151 88.4528 56.6151 88.4528 56.515 88.4528C56.515 88.4528 56.515 88.4528 56.515 88.5528L54.4135 94.8494H57.1155C57.1155 94.8494 57.1154 94.8494 57.2155 94.8494C57.2155 94.6495 57.3156 94.5496 57.4157 94.3497L57.5157 94.0499C57.5157 93.9499 57.5157 93.9499 57.6158 93.9499H57.7159C57.8159 93.9499 57.916 93.9499 58.0161 93.9499H58.3163L57.7159 95.549C57.7159 95.649 57.7159 95.649 57.6158 95.649C57.6158 95.649 57.5157 95.7489 57.4157 95.7489H52.2119H52.0118L52.312 95.649ZM36.4006 91.951C36.6008 91.951 36.7009 91.951 36.901 91.951H37.2012C37.4013 91.951 37.6015 91.951 37.8016 91.951C38.2019 91.851 38.7023 91.5512 39.0025 91.2513C39.3027 90.8515 39.6029 90.3518 39.6029 89.8521C39.6029 89.5522 39.6029 89.2524 39.5028 89.0525C39.4028 88.8526 39.1026 88.7527 38.9024 88.6527H38.8023H38.4021C38.2019 88.6527 37.9017 88.6527 37.7016 88.6527H37.6015C37.6015 88.6527 37.6015 88.6527 37.6015 88.7527C37.1012 89.8521 36.7009 90.9515 36.4006 91.951ZM20.4892 74.0605C19.0882 75.06 17.7873 75.5597 16.2862 75.5597C13.4842 75.5597 11.9832 73.6607 12.8838 71.0621C13.5843 69.0632 15.1855 67.6639 17.0869 67.0642C17.7874 66.7644 18.5879 66.7644 19.2884 66.7644C20.2891 66.7644 20.8895 66.9643 21.49 67.564L22.1905 66.8643H22.891L21.9903 69.2631H21.1898C21.49 68.0637 20.4892 67.464 19.4885 67.464C18.0875 67.464 16.0861 68.4635 15.1855 71.162C14.6851 72.6612 14.8853 73.9606 15.5858 74.4603C15.9861 74.7601 16.4864 74.8601 17.0869 74.8601C18.1876 74.8601 19.0883 74.4603 20.089 73.5608L20.4892 74.0605Z" fill="#3C3C3B"/>
</svg>
