<svg width="242" height="471" viewBox="0 0 242 471" fill="none" xmlns="http://www.w3.org/2000/svg">
<mask id="path-1-inside-1_445_6284" fill="white">
<path d="M160.432 432.13C148.932 418.866 145.14 409.427 143.299 403.959C140.354 395.215 137.896 386.268 135.06 377.476C133.12 371.46 130.955 365.531 128.761 359.624C127.55 356.364 126.302 353.94 129.987 350.88C132.564 348.741 134.184 344.339 135.055 340.605C138.1 327.548 140.511 314.309 143.393 301.202C146.875 285.368 151.031 269.703 154.064 253.768C156.374 241.632 157.404 229.191 158.956 216.878C159.048 215.519 159.055 214.153 158.979 212.792L157.844 212.635C157.353 215.614 156.861 218.595 156.369 221.578C147.604 221.85 138.915 219.695 131.075 215.305C125.871 212.395 120.213 210.455 114.672 208.37C112.823 207.674 112.84 206.893 112.913 204.951C113.126 199.289 112.881 193.604 112.793 187.928C112.773 186.642 112.147 184.911 112.678 184.147C115.407 180.215 114.608 176.421 112.914 172.476C112.631 171.816 112.635 171.002 112.328 169.236C120.7 176.54 129.9 179.214 139.224 181.469C146.232 183.164 153.245 184.86 160.305 186.238C163.511 186.864 163.424 188.339 162.486 191.178C160.85 196.135 159.582 201.244 158.159 206.29C158.507 206.461 158.854 206.632 159.201 206.803C159.918 205.443 160.552 204.031 161.1 202.576C166.899 184.026 172.598 165.437 178.438 146.903C180.769 139.506 185.496 133.929 190.416 128.605C190.818 128.25 191.283 127.993 191.779 127.849C192.276 127.706 192.793 127.68 193.299 127.774C198.55 129.002 203.522 131.142 206.759 136.196C209.576 140.595 213.282 142.868 217.781 144.509C221.518 145.901 225.048 147.91 228.254 150.469C240.098 159.888 243.514 175.071 236.089 188.987C226.111 207.691 216.881 226.994 204.328 243.846C194.546 256.979 188.301 271.425 190.522 289.11C191.304 295.336 191.959 301.591 192.984 307.768C199.081 344.484 199.913 381.422 196.872 418.528C196.608 421.458 196.086 424.353 195.314 427.169C193.112 435.421 188.056 439.632 180.5 438.369C174.667 437.394 171.192 436.292 165.463 434.541C161.869 433.335 161.177 432.382 160.432 432.13C160.243 432.483 160.262 433.785 160.073 434.139C161.61 435.299 162.229 435.345 165.463 436.551C172.292 438.962 178.042 440.57 181.995 440.57C187.026 440.57 190.979 438.158 192.776 436.149C194.573 434.139 199.311 420.769 199.954 411.06C202.509 373.374 200.523 335.474 194.051 298.379C192.073 287.077 190.949 275.443 195.508 264.435C197.962 258.507 200.094 251.849 204.044 247.361C218.141 231.345 226.218 211.017 236.843 192.538C249.471 170.573 236.984 149.945 220.123 143.27C215.069 141.269 210.5 139.118 207.098 134.08C204.047 129.563 199.342 127.621 194.474 126.24C192.999 125.822 190.852 124.719 190.538 123.456C189.087 117.62 184.767 114.514 181.075 111.282C176.893 107.62 175.845 102.969 175.394 97.8851C175.002 93.4631 174.702 89.4004 170.643 86.9716C170.015 86.5956 170.009 84.4135 170.107 83.1036C170.92 72.3249 171.892 61.5608 172.65 50.7777C172.804 48.5844 172.259 46.3297 172.339 44.2382C170.954 58.0621 169.568 71.886 168.237 85.1735C152.627 88.4144 137.914 91.4692 123.836 94.3919C127.657 79.0504 131.762 63.4831 135.382 47.7761C139.012 32.0247 142.159 16.134 145.517 0.304315L144.539 0C143.592 3.85256 142.605 7.69337 141.706 11.5596C136.649 33.2953 131.966 55.1508 126.398 76.7207C124.168 85.3563 120.1 93.4184 116.629 101.615C116.02 103.054 114.369 104.31 112.95 104.895C99.1886 110.568 84.7302 111.708 70.2781 112.879C67.7747 113.035 65.2871 113.422 62.8406 114.036C54.2196 116.375 45.8213 114.572 37.0239 113.047C40.5031 86.0692 43.9225 59.5545 47.3419 33.0397L46.0936 32.8359C44.4648 44.4027 42.8106 55.965 41.2136 67.5372C39.2619 81.6792 37.3884 95.8348 35.3837 109.967C35.2308 111.371 34.6338 112.666 33.7009 113.62C29.0897 117.275 27.9644 120.66 28.7672 126.869C30.0656 136.911 29.5707 146.917 25.8368 156.286C23.1664 162.986 22.0623 169.954 20.8607 177.075C18.8028 189.271 15.372 201.182 13.3996 213.39C10.4686 231.532 7.90184 249.775 5.92627 268.076C3.8336 287.461 2.72118 306.976 0.98201 326.412C-0.617599 344.817 -0.261963 363.369 2.04147 381.68C3.87292 396.616 5.89931 411.616 9.21442 426.196C11.2697 435.236 15.5485 443.747 19.4643 452.124C23.1151 459.935 29.0636 465.374 36.5657 468.546C36.5657 468.546 48.2184 471.554 62.1842 470.656C68.5062 470.25 74.9263 468.192 80.9141 465.713C89.0333 462.35 94.7052 455.461 97.513 446.288C103.445 426.91 108.909 407.35 109.498 386.635C109.696 379.691 109.422 372.722 109.173 365.773C108.392 343.941 108.507 322.157 111.521 300.499C111.591 299.997 111.676 299.497 111.89 298.119C112.443 299.185 112.916 300.302 113.304 301.456C117.273 319.361 121.22 337.273 125.144 355.19C125.281 355.979 125.454 356.759 125.663 357.527C130.313 371.965 134.84 386.455 139.71 400.8C141.612 406.406 144.978 413.641 147.135 417.258C147.701 418.468 155.76 430.924 160.073 434.139L160.432 432.13ZM45.0866 392.527C36.5123 393.105 30.5731 388.071 25.2585 381.463C15.1508 368.895 10.0425 353.724 7.37315 337.489C5.73811 327.545 3.89417 317.327 4.31142 307.345C5.06934 289.212 7.4465 271.163 9.14081 253.079C9.64908 247.653 12.9217 244.658 17.8635 245.444C31.9485 247.683 45.985 250.359 60.1085 252.219C68.6226 253.341 77.3759 254.393 85.8093 253.343C91.6427 252.487 97.5727 253.053 103.192 255.003C104.033 255.302 105.18 256.648 105.171 257.496C105.054 268.59 105.808 279.871 104.25 290.729C101.987 306.505 98.3818 322.084 94.6425 337.534C92.5851 346.175 89.6949 354.54 86.0226 362.484C81.7165 371.668 74.7532 378.547 67.1599 384.605C60.7348 389.787 53.0077 392.56 45.0866 392.527ZM2.7757 327.28L3.35368 327.337C4.19034 331.463 5.08592 335.574 5.85327 339.715C8.76028 355.403 13.8961 369.894 23.4078 382.201C33.0495 394.677 42.0331 398.503 58.4582 391.801C73.2902 385.748 83.4947 373.181 89.78 357.261C93.7149 347.294 96.4641 336.681 99.1355 326.164C103.819 307.726 106.693 289.062 106.562 269.649C106.44 251.572 108.294 233.477 109.279 215.39C109.649 215.407 110.019 215.424 110.389 215.441C110.389 220.768 110.349 226.096 110.396 231.423C110.521 245.601 110.334 259.798 110.954 273.95C111.367 283.379 111.241 292.637 109.636 301.902C108.813 306.084 108.307 310.337 108.125 314.614C107.765 333.597 107.613 352.586 107.433 371.573C107.386 376.513 107.602 381.458 107.538 386.398C107.281 406.371 101.653 425.068 96.2913 443.779C93.5381 453.387 87.9843 460.39 79.266 464.149C68.8535 468.638 58.1195 469.453 47.1488 468.766C35.1353 468.013 25.9529 461.727 20.5034 449.996C16.0698 440.452 11.7093 430.489 9.48549 420.129C6.38898 405.154 4.28613 389.943 3.19409 374.622C2.06059 360.153 2.53384 345.525 2.34181 330.967C2.4037 329.728 2.54872 328.495 2.7757 327.28ZM105.119 255.077C99.1293 252.208 93.72 250.5 89.1768 247.27C76.6804 238.385 64.4396 229.034 52.3048 219.536C42.8026 212.099 33.553 204.265 26.0756 194.139C22.6778 189.537 20.6721 185.12 22.0369 178.611C23.6141 171.088 24.1137 163.289 27.4787 156.327C27.8896 155.477 28.848 154.072 29.1771 154.193C33.3017 155.718 37.9014 154.408 41.7993 157.771C63.0042 176.061 84.3524 194.143 105.695 212.232C107.904 214.104 108.388 216.321 108.128 219.225C107.297 228.533 106.626 237.859 105.876 247.176C105.699 249.382 105.457 251.581 105.119 255.077ZM127.632 349.176C127.199 349.077 126.766 348.977 126.333 348.878C125.695 346.773 124.933 344.704 124.441 342.557C121.59 330.134 118.778 317.7 116.004 305.255C114.876 300.202 113.192 295.164 112.914 290.041C112.146 275.91 111.871 261.74 111.623 247.581C111.423 236.087 111.535 224.586 111.538 213.089C111.538 211.844 111.734 210.599 111.873 208.946C114.482 209.964 116.586 210.838 118.719 211.608C130.092 215.714 140.315 223.972 152.963 223.484C153.077 223.479 153.193 223.566 153.31 223.575C155.84 223.771 156.371 225.25 155.917 227.9C153.403 242.591 151.312 257.382 148.462 271.988C146.046 284.365 142.487 296.461 140.006 308.825C137.65 320.565 135.852 332.438 130.912 343.294C129.978 345.346 128.733 347.22 127.632 349.176ZM177.859 111.079C182.085 115.077 187.633 118.851 189.875 126.328C189.29 127.036 188.694 127.86 188.007 128.575C182.015 134.786 177.55 142.615 175.04 151.31C171.957 161.708 168.518 171.974 165.32 182.33C164.663 184.458 164.013 185.218 161.736 184.569C155.952 182.92 150.07 181.67 144.197 180.443C133.701 178.248 123.324 175.713 114.196 169.049C110.228 166.152 110.253 164.368 114.243 161.53C127.058 152.415 140.137 143.724 152.589 134.028C161.255 127.281 169.059 119.151 177.859 111.079ZM114.335 135.491C114.895 141.009 111.161 150.758 107.691 153.311C107.01 153.854 106.224 154.211 105.397 154.354C94.5148 155.519 83.7045 156.098 73.2699 151.133C60.8608 145.229 48.3649 139.552 35.9032 133.786C29.972 131.041 28.0045 125.701 30.5004 119.106C31.6422 116.089 33.7132 114.046 36.5727 114.479C43.8556 115.583 51.3658 115.677 58.012 120.061C69.5214 127.652 81.7504 133.298 95.024 135.473C101.312 136.504 107.71 138.726 114.335 135.491ZM175.842 105.632C175.161 107.579 174.995 109.572 174.018 110.605C167.958 117.012 162.2 123.974 155.427 129.298C143.701 138.514 131.313 146.677 119.193 155.267C116.72 157.02 114.208 158.704 111.322 160.689C110.725 156.495 110.339 153.134 112.351 149.81C115.006 145.425 116.686 140.678 116.17 135.128C115.954 131.563 115.909 127.987 116.036 124.416C116.047 121.351 117.302 120.322 120.206 119.987C129.107 118.96 138.099 118.042 146.78 115.768C156.256 113.287 165.425 109.338 175.842 105.632ZM10.1773 244.465C11.6831 226.124 15.6647 207.854 20.6692 189.017C30.8765 206.092 45.8969 216.151 60.4796 228.533C43.2405 233.993 26.79 239.203 10.1773 244.465ZM117.168 118.21C117.025 117.461 116.962 116.696 116.978 115.93C117.801 110.877 118.439 105.764 119.633 100.82C120.266 98.2008 121.691 96.0665 124.815 95.6108C130.715 94.7499 136.522 93.1242 142.395 91.9912C149.572 90.6068 156.764 89.3279 163.972 88.1544C167.404 87.5979 171.17 87.7126 172.615 91.8518C173.794 95.2299 173.787 99.1496 174.106 102.851C174.152 103.382 173.171 104.285 172.509 104.593C154.949 112.833 136.199 117.447 117.168 118.21ZM108.363 156.256C109.775 162.959 111.325 170.011 112.698 177.107C112.956 178.44 112.972 180.337 112.314 181.308C107.44 188.499 102.366 195.523 97.1948 202.826C87.2888 194.282 78.0813 186.341 68.9931 178.502C82.5434 170.845 95.7044 163.409 108.363 156.256ZM116.96 105.169C116.048 113.488 115.304 121.006 114.377 128.495C113.599 134.776 112.661 135.58 106.946 135.266C94.39 134.658 82.0519 131.382 70.5911 125.613C66.0309 123.3 61.6807 120.469 57.2349 117.875C57.3415 117.51 57.4481 117.145 57.5547 116.78C77.1884 112.79 97.694 114.456 116.96 105.169ZM21.0701 244.159C20.9927 243.704 20.9152 243.249 20.8377 242.795C24.3412 241.716 27.8512 240.663 31.3471 239.554C40.3049 236.713 49.3399 234.126 58.1615 230.828C60.9302 229.793 62.6207 229.981 64.9463 231.714C73.0921 237.787 81.4202 243.553 89.6578 249.473C90.2306 250.055 90.7393 250.711 91.1731 251.428C66.9749 254.531 44.246 246.729 21.0701 244.159ZM102.543 156.984L102.94 158.054C91.3966 164.006 79.8775 170.019 68.2641 175.795C67.3444 176.252 65.5428 175.409 64.5371 174.582C59.0449 170.07 53.6779 165.367 48.2578 160.745C46.8392 159.535 45.3846 158.378 43.9465 157.196C45.9362 156.649 47.5682 156.945 49.2107 157.07C55.1667 157.523 61.1661 158.601 67.0749 158.17C75.3834 157.566 83.5963 155.734 92.0099 156.904C95.4704 157.385 99.0289 156.984 102.543 156.984ZM31.2763 133.64C46.3273 140.561 61.1399 147.372 75.9526 154.183C75.8967 154.593 75.8409 155.003 75.7851 155.413C72.062 155.885 68.2916 157.027 64.6248 156.703C53.5585 155.725 42.5276 154.223 31.5025 152.743C30.79 152.647 29.6592 150.954 29.7159 150.084C30.0689 144.683 30.7056 139.305 31.2763 133.64ZM98.0634 203.568C102.358 197.941 106.258 192.832 110.198 187.669C113.766 193.932 112.734 205.691 107.982 212.053C104.739 209.279 101.482 206.493 98.0634 203.568Z"/>
</mask>
<path d="M160.432 432.13C148.932 418.866 145.14 409.427 143.299 403.959C140.354 395.215 137.896 386.268 135.06 377.476C133.12 371.46 130.955 365.531 128.761 359.624C127.55 356.364 126.302 353.94 129.987 350.88C132.564 348.741 134.184 344.339 135.055 340.605C138.1 327.548 140.511 314.309 143.393 301.202C146.875 285.368 151.031 269.703 154.064 253.768C156.374 241.632 157.404 229.191 158.956 216.878C159.048 215.519 159.055 214.153 158.979 212.792L157.844 212.635C157.353 215.614 156.861 218.595 156.369 221.578C147.604 221.85 138.915 219.695 131.075 215.305C125.871 212.395 120.213 210.455 114.672 208.37C112.823 207.674 112.84 206.893 112.913 204.951C113.126 199.289 112.881 193.604 112.793 187.928C112.773 186.642 112.147 184.911 112.678 184.147C115.407 180.215 114.608 176.421 112.914 172.476C112.631 171.816 112.635 171.002 112.328 169.236C120.7 176.54 129.9 179.214 139.224 181.469C146.232 183.164 153.245 184.86 160.305 186.238C163.511 186.864 163.424 188.339 162.486 191.178C160.85 196.135 159.582 201.244 158.159 206.29C158.507 206.461 158.854 206.632 159.201 206.803C159.918 205.443 160.552 204.031 161.1 202.576C166.899 184.026 172.598 165.437 178.438 146.903C180.769 139.506 185.496 133.929 190.416 128.605C190.818 128.25 191.283 127.993 191.779 127.849C192.276 127.706 192.793 127.68 193.299 127.774C198.55 129.002 203.522 131.142 206.759 136.196C209.576 140.595 213.282 142.868 217.781 144.509C221.518 145.901 225.048 147.91 228.254 150.469C240.098 159.888 243.514 175.071 236.089 188.987C226.111 207.691 216.881 226.994 204.328 243.846C194.546 256.979 188.301 271.425 190.522 289.11C191.304 295.336 191.959 301.591 192.984 307.768C199.081 344.484 199.913 381.422 196.872 418.528C196.608 421.458 196.086 424.353 195.314 427.169C193.112 435.421 188.056 439.632 180.5 438.369C174.667 437.394 171.192 436.292 165.463 434.541C161.869 433.335 161.177 432.382 160.432 432.13C160.243 432.483 160.262 433.785 160.073 434.139C161.61 435.299 162.229 435.345 165.463 436.551C172.292 438.962 178.042 440.57 181.995 440.57C187.026 440.57 190.979 438.158 192.776 436.149C194.573 434.139 199.311 420.769 199.954 411.06C202.509 373.374 200.523 335.474 194.051 298.379C192.073 287.077 190.949 275.443 195.508 264.435C197.962 258.507 200.094 251.849 204.044 247.361C218.141 231.345 226.218 211.017 236.843 192.538C249.471 170.573 236.984 149.945 220.123 143.27C215.069 141.269 210.5 139.118 207.098 134.08C204.047 129.563 199.342 127.621 194.474 126.24C192.999 125.822 190.852 124.719 190.538 123.456C189.087 117.62 184.767 114.514 181.075 111.282C176.893 107.62 175.845 102.969 175.394 97.8851C175.002 93.4631 174.702 89.4004 170.643 86.9716C170.015 86.5956 170.009 84.4135 170.107 83.1036C170.92 72.3249 171.892 61.5608 172.65 50.7777C172.804 48.5844 172.259 46.3297 172.339 44.2382C170.954 58.0621 169.568 71.886 168.237 85.1735C152.627 88.4144 137.914 91.4692 123.836 94.3919C127.657 79.0504 131.762 63.4831 135.382 47.7761C139.012 32.0247 142.159 16.134 145.517 0.304315L144.539 0C143.592 3.85256 142.605 7.69337 141.706 11.5596C136.649 33.2953 131.966 55.1508 126.398 76.7207C124.168 85.3563 120.1 93.4184 116.629 101.615C116.02 103.054 114.369 104.31 112.95 104.895C99.1886 110.568 84.7302 111.708 70.2781 112.879C67.7747 113.035 65.2871 113.422 62.8406 114.036C54.2196 116.375 45.8213 114.572 37.0239 113.047C40.5031 86.0692 43.9225 59.5545 47.3419 33.0397L46.0936 32.8359C44.4648 44.4027 42.8106 55.965 41.2136 67.5372C39.2619 81.6792 37.3884 95.8348 35.3837 109.967C35.2308 111.371 34.6338 112.666 33.7009 113.62C29.0897 117.275 27.9644 120.66 28.7672 126.869C30.0656 136.911 29.5707 146.917 25.8368 156.286C23.1664 162.986 22.0623 169.954 20.8607 177.075C18.8028 189.271 15.372 201.182 13.3996 213.39C10.4686 231.532 7.90184 249.775 5.92627 268.076C3.8336 287.461 2.72118 306.976 0.98201 326.412C-0.617599 344.817 -0.261963 363.369 2.04147 381.68C3.87292 396.616 5.89931 411.616 9.21442 426.196C11.2697 435.236 15.5485 443.747 19.4643 452.124C23.1151 459.935 29.0636 465.374 36.5657 468.546C36.5657 468.546 48.2184 471.554 62.1842 470.656C68.5062 470.25 74.9263 468.192 80.9141 465.713C89.0333 462.35 94.7052 455.461 97.513 446.288C103.445 426.91 108.909 407.35 109.498 386.635C109.696 379.691 109.422 372.722 109.173 365.773C108.392 343.941 108.507 322.157 111.521 300.499C111.591 299.997 111.676 299.497 111.89 298.119C112.443 299.185 112.916 300.302 113.304 301.456C117.273 319.361 121.22 337.273 125.144 355.19C125.281 355.979 125.454 356.759 125.663 357.527C130.313 371.965 134.84 386.455 139.71 400.8C141.612 406.406 144.978 413.641 147.135 417.258C147.701 418.468 155.76 430.924 160.073 434.139L160.432 432.13ZM45.0866 392.527C36.5123 393.105 30.5731 388.071 25.2585 381.463C15.1508 368.895 10.0425 353.724 7.37315 337.489C5.73811 327.545 3.89417 317.327 4.31142 307.345C5.06934 289.212 7.4465 271.163 9.14081 253.079C9.64908 247.653 12.9217 244.658 17.8635 245.444C31.9485 247.683 45.985 250.359 60.1085 252.219C68.6226 253.341 77.3759 254.393 85.8093 253.343C91.6427 252.487 97.5727 253.053 103.192 255.003C104.033 255.302 105.18 256.648 105.171 257.496C105.054 268.59 105.808 279.871 104.25 290.729C101.987 306.505 98.3818 322.084 94.6425 337.534C92.5851 346.175 89.6949 354.54 86.0226 362.484C81.7165 371.668 74.7532 378.547 67.1599 384.605C60.7348 389.787 53.0077 392.56 45.0866 392.527ZM2.7757 327.28L3.35368 327.337C4.19034 331.463 5.08592 335.574 5.85327 339.715C8.76028 355.403 13.8961 369.894 23.4078 382.201C33.0495 394.677 42.0331 398.503 58.4582 391.801C73.2902 385.748 83.4947 373.181 89.78 357.261C93.7149 347.294 96.4641 336.681 99.1355 326.164C103.819 307.726 106.693 289.062 106.562 269.649C106.44 251.572 108.294 233.477 109.279 215.39C109.649 215.407 110.019 215.424 110.389 215.441C110.389 220.768 110.349 226.096 110.396 231.423C110.521 245.601 110.334 259.798 110.954 273.95C111.367 283.379 111.241 292.637 109.636 301.902C108.813 306.084 108.307 310.337 108.125 314.614C107.765 333.597 107.613 352.586 107.433 371.573C107.386 376.513 107.602 381.458 107.538 386.398C107.281 406.371 101.653 425.068 96.2913 443.779C93.5381 453.387 87.9843 460.39 79.266 464.149C68.8535 468.638 58.1195 469.453 47.1488 468.766C35.1353 468.013 25.9529 461.727 20.5034 449.996C16.0698 440.452 11.7093 430.489 9.48549 420.129C6.38898 405.154 4.28613 389.943 3.19409 374.622C2.06059 360.153 2.53384 345.525 2.34181 330.967C2.4037 329.728 2.54872 328.495 2.7757 327.28ZM105.119 255.077C99.1293 252.208 93.72 250.5 89.1768 247.27C76.6804 238.385 64.4396 229.034 52.3048 219.536C42.8026 212.099 33.553 204.265 26.0756 194.139C22.6778 189.537 20.6721 185.12 22.0369 178.611C23.6141 171.088 24.1137 163.289 27.4787 156.327C27.8896 155.477 28.848 154.072 29.1771 154.193C33.3017 155.718 37.9014 154.408 41.7993 157.771C63.0042 176.061 84.3524 194.143 105.695 212.232C107.904 214.104 108.388 216.321 108.128 219.225C107.297 228.533 106.626 237.859 105.876 247.176C105.699 249.382 105.457 251.581 105.119 255.077ZM127.632 349.176C127.199 349.077 126.766 348.977 126.333 348.878C125.695 346.773 124.933 344.704 124.441 342.557C121.59 330.134 118.778 317.7 116.004 305.255C114.876 300.202 113.192 295.164 112.914 290.041C112.146 275.91 111.871 261.74 111.623 247.581C111.423 236.087 111.535 224.586 111.538 213.089C111.538 211.844 111.734 210.599 111.873 208.946C114.482 209.964 116.586 210.838 118.719 211.608C130.092 215.714 140.315 223.972 152.963 223.484C153.077 223.479 153.193 223.566 153.31 223.575C155.84 223.771 156.371 225.25 155.917 227.9C153.403 242.591 151.312 257.382 148.462 271.988C146.046 284.365 142.487 296.461 140.006 308.825C137.65 320.565 135.852 332.438 130.912 343.294C129.978 345.346 128.733 347.22 127.632 349.176ZM177.859 111.079C182.085 115.077 187.633 118.851 189.875 126.328C189.29 127.036 188.694 127.86 188.007 128.575C182.015 134.786 177.55 142.615 175.04 151.31C171.957 161.708 168.518 171.974 165.32 182.33C164.663 184.458 164.013 185.218 161.736 184.569C155.952 182.92 150.07 181.67 144.197 180.443C133.701 178.248 123.324 175.713 114.196 169.049C110.228 166.152 110.253 164.368 114.243 161.53C127.058 152.415 140.137 143.724 152.589 134.028C161.255 127.281 169.059 119.151 177.859 111.079ZM114.335 135.491C114.895 141.009 111.161 150.758 107.691 153.311C107.01 153.854 106.224 154.211 105.397 154.354C94.5148 155.519 83.7045 156.098 73.2699 151.133C60.8608 145.229 48.3649 139.552 35.9032 133.786C29.972 131.041 28.0045 125.701 30.5004 119.106C31.6422 116.089 33.7132 114.046 36.5727 114.479C43.8556 115.583 51.3658 115.677 58.012 120.061C69.5214 127.652 81.7504 133.298 95.024 135.473C101.312 136.504 107.71 138.726 114.335 135.491ZM175.842 105.632C175.161 107.579 174.995 109.572 174.018 110.605C167.958 117.012 162.2 123.974 155.427 129.298C143.701 138.514 131.313 146.677 119.193 155.267C116.72 157.02 114.208 158.704 111.322 160.689C110.725 156.495 110.339 153.134 112.351 149.81C115.006 145.425 116.686 140.678 116.17 135.128C115.954 131.563 115.909 127.987 116.036 124.416C116.047 121.351 117.302 120.322 120.206 119.987C129.107 118.96 138.099 118.042 146.78 115.768C156.256 113.287 165.425 109.338 175.842 105.632ZM10.1773 244.465C11.6831 226.124 15.6647 207.854 20.6692 189.017C30.8765 206.092 45.8969 216.151 60.4796 228.533C43.2405 233.993 26.79 239.203 10.1773 244.465ZM117.168 118.21C117.025 117.461 116.962 116.696 116.978 115.93C117.801 110.877 118.439 105.764 119.633 100.82C120.266 98.2008 121.691 96.0665 124.815 95.6108C130.715 94.7499 136.522 93.1242 142.395 91.9912C149.572 90.6068 156.764 89.3279 163.972 88.1544C167.404 87.5979 171.17 87.7126 172.615 91.8518C173.794 95.2299 173.787 99.1496 174.106 102.851C174.152 103.382 173.171 104.285 172.509 104.593C154.949 112.833 136.199 117.447 117.168 118.21ZM108.363 156.256C109.775 162.959 111.325 170.011 112.698 177.107C112.956 178.44 112.972 180.337 112.314 181.308C107.44 188.499 102.366 195.523 97.1948 202.826C87.2888 194.282 78.0813 186.341 68.9931 178.502C82.5434 170.845 95.7044 163.409 108.363 156.256ZM116.96 105.169C116.048 113.488 115.304 121.006 114.377 128.495C113.599 134.776 112.661 135.58 106.946 135.266C94.39 134.658 82.0519 131.382 70.5911 125.613C66.0309 123.3 61.6807 120.469 57.2349 117.875C57.3415 117.51 57.4481 117.145 57.5547 116.78C77.1884 112.79 97.694 114.456 116.96 105.169ZM21.0701 244.159C20.9927 243.704 20.9152 243.249 20.8377 242.795C24.3412 241.716 27.8512 240.663 31.3471 239.554C40.3049 236.713 49.3399 234.126 58.1615 230.828C60.9302 229.793 62.6207 229.981 64.9463 231.714C73.0921 237.787 81.4202 243.553 89.6578 249.473C90.2306 250.055 90.7393 250.711 91.1731 251.428C66.9749 254.531 44.246 246.729 21.0701 244.159ZM102.543 156.984L102.94 158.054C91.3966 164.006 79.8775 170.019 68.2641 175.795C67.3444 176.252 65.5428 175.409 64.5371 174.582C59.0449 170.07 53.6779 165.367 48.2578 160.745C46.8392 159.535 45.3846 158.378 43.9465 157.196C45.9362 156.649 47.5682 156.945 49.2107 157.07C55.1667 157.523 61.1661 158.601 67.0749 158.17C75.3834 157.566 83.5963 155.734 92.0099 156.904C95.4704 157.385 99.0289 156.984 102.543 156.984ZM31.2763 133.64C46.3273 140.561 61.1399 147.372 75.9526 154.183C75.8967 154.593 75.8409 155.003 75.7851 155.413C72.062 155.885 68.2916 157.027 64.6248 156.703C53.5585 155.725 42.5276 154.223 31.5025 152.743C30.79 152.647 29.6592 150.954 29.7159 150.084C30.0689 144.683 30.7056 139.305 31.2763 133.64ZM98.0634 203.568C102.358 197.941 106.258 192.832 110.198 187.669C113.766 193.932 112.734 205.691 107.982 212.053C104.739 209.279 101.482 206.493 98.0634 203.568Z" fill="#E2E2E2"/>
<path d="M143.299 403.959L143.109 404.023H143.109L143.299 403.959ZM135.06 377.476L134.87 377.537L135.06 377.476ZM128.761 359.624L128.573 359.693L128.761 359.624ZM129.987 350.88L129.859 350.727L129.987 350.88ZM135.055 340.605L134.86 340.559L135.055 340.605ZM143.393 301.202L143.198 301.159L143.393 301.202ZM154.064 253.768L154.261 253.805L154.064 253.768ZM158.956 216.878L159.156 216.892L159.154 216.904L158.956 216.878ZM158.979 212.792L159.006 212.594L159.169 212.617L159.178 212.781L158.979 212.792ZM157.844 212.635L157.647 212.602L157.679 212.41L157.872 212.437L157.844 212.635ZM156.369 221.578L156.566 221.61L156.54 221.773L156.375 221.778L156.369 221.578ZM131.075 215.305L131.172 215.131L131.172 215.131L131.075 215.305ZM114.672 208.37L114.742 208.183H114.742L114.672 208.37ZM112.913 204.951L112.713 204.944L112.913 204.951ZM112.793 187.928L112.993 187.925L112.793 187.928ZM112.678 184.147L112.842 184.261L112.678 184.147ZM112.914 172.476L113.098 172.397L112.914 172.476ZM112.328 169.236L112.131 169.27L112.035 168.715L112.46 169.085L112.328 169.236ZM139.224 181.469L139.177 181.663L139.224 181.469ZM160.305 186.238L160.267 186.435L160.305 186.238ZM162.486 191.178L162.297 191.115L162.486 191.178ZM158.159 206.29L158.071 206.469L157.922 206.396L157.967 206.236L158.159 206.29ZM159.201 206.803L159.378 206.896L159.288 207.068L159.113 206.982L159.201 206.803ZM161.1 202.576L161.291 202.636L161.287 202.647L161.1 202.576ZM178.438 146.903L178.629 146.964L178.438 146.903ZM190.416 128.605L190.269 128.47L190.276 128.462L190.283 128.455L190.416 128.605ZM193.299 127.774L193.335 127.577L193.345 127.579L193.299 127.774ZM206.759 136.196L206.591 136.304L206.759 136.196ZM217.781 144.509L217.849 144.321L217.851 144.321L217.781 144.509ZM228.254 150.469L228.13 150.626L228.129 150.625L228.254 150.469ZM236.089 188.987L235.913 188.893L236.089 188.987ZM204.328 243.846L204.488 243.966L204.328 243.846ZM190.522 289.11L190.721 289.085L190.522 289.11ZM192.984 307.768L193.182 307.735L192.984 307.768ZM196.872 418.528L197.071 418.544L197.071 418.546L196.872 418.528ZM195.314 427.169L195.12 427.117L195.121 427.116L195.314 427.169ZM180.5 438.369L180.467 438.566H180.467L180.5 438.369ZM165.463 434.541L165.405 434.732L165.4 434.731L165.463 434.541ZM165.463 436.551L165.397 436.739L165.393 436.738L165.463 436.551ZM199.954 411.06L199.754 411.047L199.754 411.046L199.954 411.06ZM194.051 298.379L194.248 298.345L194.248 298.345L194.051 298.379ZM195.508 264.435L195.692 264.511L195.508 264.435ZM204.044 247.361L204.194 247.493L204.044 247.361ZM236.843 192.538L237.016 192.637H237.016L236.843 192.538ZM220.123 143.27L220.197 143.084V143.084L220.123 143.27ZM207.098 134.08L207.263 133.968H207.263L207.098 134.08ZM194.474 126.24L194.528 126.048L194.528 126.048L194.474 126.24ZM190.538 123.456L190.343 123.504L190.538 123.456ZM181.075 111.282L181.207 111.131L181.075 111.282ZM175.394 97.8851L175.195 97.9028L175.394 97.8851ZM170.643 86.9716L170.746 86.8L170.643 86.9716ZM170.107 83.1036L170.307 83.1186L170.107 83.1036ZM172.65 50.7777L172.45 50.7636L172.65 50.7777ZM172.339 44.2382L172.14 44.2183L172.539 44.2458L172.339 44.2382ZM168.237 85.1735L168.436 85.1934L168.421 85.3395L168.277 85.3693L168.237 85.1735ZM123.836 94.3919L123.877 94.5877L123.565 94.6525L123.642 94.3436L123.836 94.3919ZM135.382 47.7761L135.577 47.821L135.382 47.7761ZM145.517 0.304315L145.577 0.113338L145.751 0.16748L145.713 0.345826L145.517 0.304315ZM144.539 0L144.345 -0.0477206L144.395 -0.254084L144.598 -0.190977L144.539 0ZM141.706 11.5596L141.901 11.6049V11.6049L141.706 11.5596ZM126.398 76.7207L126.204 76.6707L126.398 76.7207ZM116.629 101.615L116.445 101.537V101.537L116.629 101.615ZM112.95 104.895L112.874 104.71L112.95 104.895ZM70.2781 112.879L70.2943 113.078L70.2906 113.078L70.2781 112.879ZM62.8406 114.036L62.7882 113.843L62.7919 113.842L62.8406 114.036ZM37.0239 113.047L36.9898 113.244L36.8011 113.211L36.8256 113.021L37.0239 113.047ZM47.3419 33.0397L47.3741 32.8423L47.565 32.8735L47.5403 33.0653L47.3419 33.0397ZM46.0936 32.8359L45.8956 32.808L45.9241 32.6056L46.1259 32.6385L46.0936 32.8359ZM41.2136 67.5372L41.4117 67.5646L41.2136 67.5372ZM35.3837 109.967L35.1848 109.946L35.1857 109.939L35.3837 109.967ZM33.7009 113.62L33.8439 113.76L33.835 113.769L33.8251 113.777L33.7009 113.62ZM28.7672 126.869L28.5688 126.895L28.7672 126.869ZM25.8368 156.286L25.651 156.212L25.8368 156.286ZM20.8607 177.075L21.0579 177.108L20.8607 177.075ZM13.3996 213.39L13.5971 213.422L13.3996 213.39ZM5.92627 268.076L6.12512 268.098L5.92627 268.076ZM0.98201 326.412L0.782761 326.395L0.782806 326.394L0.98201 326.412ZM2.04147 381.68L2.23991 381.655L2.23999 381.656L2.04147 381.68ZM9.21442 426.196L9.01939 426.24L9.21442 426.196ZM19.4643 452.124L19.6454 452.04L19.4643 452.124ZM36.5657 468.546L36.5157 468.74L36.5014 468.736L36.4878 468.731L36.5657 468.546ZM62.1842 470.656L62.1714 470.457L62.1842 470.656ZM80.9141 465.713L80.8376 465.528L80.9141 465.713ZM97.513 446.288L97.3218 446.23L97.513 446.288ZM109.498 386.635L109.298 386.629L109.498 386.635ZM109.173 365.773L109.373 365.766V365.766L109.173 365.773ZM111.521 300.499L111.323 300.471L111.521 300.499ZM111.89 298.119L111.692 298.088L111.786 297.485L112.067 298.027L111.89 298.119ZM113.304 301.456L113.493 301.393L113.496 301.403L113.499 301.413L113.304 301.456ZM125.144 355.19L125.34 355.148L125.341 355.156L125.144 355.19ZM125.663 357.527L125.472 357.588L125.47 357.58L125.663 357.527ZM139.71 400.8L139.52 400.865L139.71 400.8ZM147.135 417.258L147.307 417.156L147.312 417.164L147.316 417.173L147.135 417.258ZM45.0866 392.527L45.0731 392.328L45.0802 392.327L45.0874 392.327L45.0866 392.527ZM25.2585 381.463L25.4143 381.338L25.2585 381.463ZM7.37315 337.489L7.1758 337.522L7.37315 337.489ZM4.31142 307.345L4.51125 307.354L4.31142 307.345ZM9.14081 253.079L9.33994 253.097L9.14081 253.079ZM17.8635 245.444L17.8949 245.246L17.8635 245.444ZM60.1085 252.219L60.1346 252.021L60.1085 252.219ZM85.8093 253.343L85.8384 253.541L85.834 253.542L85.8093 253.343ZM103.192 255.003L103.258 254.814L103.259 254.814L103.192 255.003ZM105.171 257.496L105.371 257.499L105.171 257.496ZM104.25 290.729L104.052 290.701L104.25 290.729ZM94.6425 337.534L94.448 337.487L94.4482 337.486L94.6425 337.534ZM86.0226 362.484L86.2042 362.568L86.2037 362.569L86.0226 362.484ZM67.1599 384.605L67.0344 384.45L67.0352 384.449L67.1599 384.605ZM2.7757 327.28L2.5791 327.244L2.61279 327.063L2.79536 327.081L2.7757 327.28ZM3.35368 327.337L3.37335 327.138L3.52034 327.153L3.5497 327.298L3.35368 327.337ZM5.85327 339.715L5.65662 339.751L5.85327 339.715ZM23.4078 382.201L23.566 382.079L23.4078 382.201ZM58.4582 391.801L58.5338 391.986L58.4582 391.801ZM89.78 357.261L89.5939 357.187L89.78 357.261ZM99.1355 326.164L99.3293 326.213L99.1355 326.164ZM106.562 269.649L106.362 269.65L106.562 269.649ZM109.279 215.39L109.079 215.38L109.09 215.182L109.288 215.191L109.279 215.39ZM110.389 215.441L110.398 215.241L110.589 215.25V215.441H110.389ZM110.396 231.423L110.196 231.424L110.396 231.423ZM110.954 273.95L110.754 273.959L110.954 273.95ZM109.636 301.902L109.833 301.936L109.832 301.941L109.636 301.902ZM108.125 314.614L107.925 314.611L107.925 314.606L108.125 314.614ZM107.433 371.573L107.233 371.571L107.433 371.573ZM107.538 386.398L107.338 386.396L107.538 386.398ZM96.2913 443.779L96.099 443.724L96.2913 443.779ZM79.266 464.149L79.1868 463.965L79.266 464.149ZM47.1488 468.766L47.1613 468.566L47.1488 468.766ZM20.5034 449.996L20.6848 449.912L20.5034 449.996ZM9.48549 420.129L9.28995 420.171L9.28964 420.169L9.48549 420.129ZM3.19409 374.622L3.39348 374.606L3.39359 374.608L3.19409 374.622ZM2.34181 330.967L2.14142 330.969L2.14206 330.957L2.34181 330.967ZM105.119 255.077L105.318 255.097L105.291 255.381L105.033 255.258L105.119 255.077ZM89.1768 247.27L89.0609 247.433L89.1768 247.27ZM52.3048 219.536L52.428 219.378L52.3048 219.536ZM26.0756 194.139L25.9147 194.258L26.0756 194.139ZM22.0369 178.611L22.2327 178.652L22.0369 178.611ZM27.4787 156.327L27.6588 156.415L27.4787 156.327ZM29.1771 154.193L29.2465 154.006H29.2465L29.1771 154.193ZM41.7993 157.771L41.6687 157.922L41.7993 157.771ZM105.695 212.232L105.566 212.385L105.695 212.232ZM108.128 219.225L108.328 219.243L108.128 219.225ZM105.876 247.176L105.677 247.16L105.876 247.176ZM127.632 349.176L127.807 349.274L127.733 349.404L127.588 349.371L127.632 349.176ZM126.333 348.878L126.288 349.073L126.175 349.047L126.142 348.936L126.333 348.878ZM124.441 342.557L124.246 342.602L124.441 342.557ZM116.004 305.255L116.199 305.211L116.199 305.211L116.004 305.255ZM112.914 290.041L112.714 290.052L112.914 290.041ZM111.623 247.581L111.423 247.584L111.623 247.581ZM111.538 213.089L111.738 213.089L111.538 213.089ZM111.873 208.946L111.673 208.929L111.696 208.662L111.945 208.76L111.873 208.946ZM118.719 211.608L118.787 211.42L118.719 211.608ZM152.963 223.484L152.97 223.684H152.97L152.963 223.484ZM153.31 223.575L153.326 223.375H153.326L153.31 223.575ZM155.917 227.9L155.72 227.866L155.917 227.9ZM148.462 271.988L148.265 271.95L148.462 271.988ZM140.006 308.825L140.202 308.864L140.006 308.825ZM130.912 343.294L130.73 343.212L130.912 343.294ZM177.859 111.079L177.724 110.932L177.861 110.806L177.997 110.934L177.859 111.079ZM189.875 126.328L190.066 126.27L190.097 126.373L190.029 126.455L189.875 126.328ZM188.007 128.575L188.151 128.713L188.151 128.714L188.007 128.575ZM175.04 151.31L175.232 151.366L175.232 151.367L175.04 151.31ZM165.32 182.33L165.511 182.389L165.32 182.33ZM161.736 184.569L161.681 184.761L161.736 184.569ZM144.197 180.443L144.157 180.638L144.197 180.443ZM114.196 169.049L114.078 169.211L114.196 169.049ZM114.243 161.53L114.127 161.367V161.367L114.243 161.53ZM152.589 134.028L152.467 133.871L152.589 134.028ZM114.335 135.491L114.247 135.311L114.505 135.185L114.534 135.471L114.335 135.491ZM107.691 153.311L107.566 153.155L107.572 153.15L107.691 153.311ZM105.397 154.354L105.432 154.551L105.419 154.553L105.397 154.354ZM73.2699 151.133L73.3558 150.953L73.2699 151.133ZM35.9032 133.786L35.9872 133.604L35.9032 133.786ZM30.5004 119.106L30.6874 119.177L30.5004 119.106ZM36.5727 114.479L36.5427 114.677L36.5727 114.479ZM58.012 120.061L57.9019 120.228L58.012 120.061ZM95.024 135.473L95.0563 135.276L95.024 135.473ZM175.842 105.632L175.775 105.443L176.168 105.303L176.03 105.698L175.842 105.632ZM174.018 110.605L173.873 110.467L174.018 110.605ZM155.427 129.298L155.551 129.455L155.427 129.298ZM119.193 155.267L119.077 155.104L119.193 155.267ZM111.322 160.689L111.435 160.854L111.169 161.037L111.124 160.717L111.322 160.689ZM112.351 149.81L112.522 149.914L112.351 149.81ZM116.17 135.128L115.971 135.147L115.97 135.14L116.17 135.128ZM116.036 124.416L116.236 124.417L116.236 124.423L116.036 124.416ZM120.206 119.987L120.183 119.788L120.206 119.987ZM146.78 115.768L146.831 115.962L146.78 115.768ZM10.1773 244.465L10.2377 244.656L9.95361 244.746L9.978 244.449L10.1773 244.465ZM20.6692 189.017L20.4759 188.965L20.5976 188.507L20.8409 188.914L20.6692 189.017ZM60.4796 228.533L60.6091 228.38L60.8846 228.614L60.54 228.723L60.4796 228.533ZM117.168 118.21L117.176 118.41L117.004 118.417L116.972 118.248L117.168 118.21ZM116.978 115.93L116.778 115.925L116.778 115.911L116.781 115.898L116.978 115.93ZM119.633 100.82L119.439 100.773L119.633 100.82ZM124.815 95.6108L124.786 95.4129H124.786L124.815 95.6108ZM142.395 91.9912L142.358 91.7948L142.395 91.9912ZM163.972 88.1544L163.94 87.957L163.94 87.957L163.972 88.1544ZM172.615 91.8518L172.804 91.7859L172.615 91.8518ZM174.106 102.851L174.306 102.833V102.833L174.106 102.851ZM172.509 104.593L172.424 104.412L172.424 104.412L172.509 104.593ZM108.363 156.256L108.265 156.082L108.502 155.947L108.559 156.215L108.363 156.256ZM112.698 177.107L112.895 177.069L112.698 177.107ZM112.314 181.308L112.48 181.42L112.314 181.308ZM97.1948 202.826L97.358 202.942L97.2308 203.121L97.0641 202.977L97.1948 202.826ZM68.9931 178.502L68.8625 178.653L68.6472 178.468L68.8947 178.328L68.9931 178.502ZM116.96 105.169L116.873 104.989L117.198 104.832L117.159 105.191L116.96 105.169ZM114.377 128.495L114.575 128.519L114.377 128.495ZM106.946 135.266L106.956 135.066L106.957 135.066L106.946 135.266ZM70.5911 125.613L70.5011 125.792L70.5006 125.791L70.5911 125.613ZM57.2349 117.875L57.1341 118.047L56.9991 117.969L57.0429 117.819L57.2349 117.875ZM57.5547 116.78L57.3627 116.724L57.3966 116.608L57.5149 116.584L57.5547 116.78ZM21.0701 244.159L21.0481 244.358L20.8983 244.341L20.873 244.193L21.0701 244.159ZM20.8377 242.795L20.6405 242.828L20.611 242.655L20.7788 242.604L20.8377 242.795ZM31.3471 239.554L31.4076 239.745L31.3471 239.554ZM58.1615 230.828L58.0915 230.641L58.1615 230.828ZM64.9463 231.714L65.0658 231.554L64.9463 231.714ZM89.6578 249.473L89.7745 249.311L89.7884 249.321L89.8004 249.333L89.6578 249.473ZM91.1731 251.428L91.3442 251.325L91.5033 251.588L91.1986 251.627L91.1731 251.428ZM102.543 156.984V156.784H102.682L102.73 156.914L102.543 156.984ZM102.94 158.054L103.127 157.984L103.189 158.15L103.031 158.232L102.94 158.054ZM68.2641 175.795L68.175 175.616L68.2641 175.795ZM64.5371 174.582L64.4101 174.737L64.5371 174.582ZM48.2578 160.745L48.3876 160.593L48.2578 160.745ZM43.9465 157.196L43.8196 157.351L43.5214 157.106L43.8935 157.004L43.9465 157.196ZM49.2107 157.07L49.2259 156.87L49.2107 157.07ZM67.0749 158.17L67.0894 158.37L67.0749 158.17ZM92.0099 156.904L92.0374 156.706L92.0099 156.904ZM31.2763 133.64L31.0773 133.62L31.1054 133.341L31.3599 133.458L31.2763 133.64ZM75.9526 154.183L76.0361 154.002L76.1707 154.063L76.1507 154.21L75.9526 154.183ZM75.7851 155.413L75.9832 155.44L75.9625 155.592L75.8102 155.611L75.7851 155.413ZM64.6248 156.703L64.6424 156.504L64.6248 156.703ZM31.5025 152.743L31.5291 152.545L31.5025 152.743ZM29.7159 150.084L29.5164 150.071V150.071L29.7159 150.084ZM98.0634 203.568L97.9334 203.72L97.7897 203.597L97.9044 203.447L98.0634 203.568ZM110.198 187.669L110.039 187.548L110.223 187.308L110.372 187.57L110.198 187.669ZM107.982 212.053L108.143 212.172L108.015 212.343L107.852 212.205L107.982 212.053ZM160.281 432.261C148.761 418.975 144.958 409.512 143.109 404.023L143.488 403.895C145.322 409.342 149.102 418.757 160.583 431.999L160.281 432.261ZM143.109 404.023C140.166 395.284 137.7 386.311 134.87 377.537L135.25 377.414C138.092 386.225 140.542 395.146 143.488 403.895L143.109 404.023ZM134.87 377.537C132.931 371.526 130.767 365.601 128.573 359.693L128.948 359.554C131.142 365.462 133.309 371.394 135.25 377.414L134.87 377.537ZM128.573 359.693C127.976 358.084 127.341 356.619 127.338 355.178C127.335 353.706 127.985 352.283 129.859 350.727L130.115 351.034C128.304 352.537 127.735 353.856 127.738 355.177C127.741 356.527 128.335 357.904 128.948 359.554L128.573 359.693ZM129.859 350.727C131.115 349.684 132.148 348.08 132.979 346.258C133.808 344.439 134.427 342.418 134.86 340.559L135.25 340.65C134.812 342.526 134.186 344.574 133.343 346.424C132.501 348.271 131.436 349.937 130.115 351.034L129.859 350.727ZM134.86 340.559C137.906 327.5 140.312 314.28 143.198 301.159L143.588 301.245C140.709 314.337 138.294 327.596 135.25 340.65L134.86 340.559ZM143.198 301.159C146.683 285.312 150.835 269.664 153.868 253.73L154.261 253.805C151.227 269.743 147.068 285.424 143.588 301.245L143.198 301.159ZM153.868 253.73C156.176 241.603 157.204 229.178 158.757 216.853L159.154 216.904C157.604 229.205 156.572 241.662 154.261 253.805L153.868 253.73ZM158.756 216.865C158.848 215.513 158.855 214.156 158.779 212.803L159.178 212.781C159.256 214.15 159.248 215.524 159.155 216.892L158.756 216.865ZM158.951 212.99L157.817 212.833L157.872 212.437L159.006 212.594L158.951 212.99ZM158.042 212.667C157.55 215.647 157.058 218.628 156.566 221.61L156.172 221.545C156.664 218.563 157.156 215.582 157.647 212.602L158.042 212.667ZM156.375 221.778C147.573 222.051 138.848 219.887 130.977 215.48L131.172 215.131C138.982 219.503 147.635 221.649 156.363 221.378L156.375 221.778ZM130.977 215.48C125.79 212.579 120.151 210.646 114.601 208.557L114.742 208.183C120.275 210.265 125.952 212.211 131.172 215.131L130.977 215.48ZM114.601 208.557C113.657 208.202 113.136 207.805 112.887 207.205C112.766 206.912 112.715 206.585 112.697 206.216C112.68 205.849 112.695 205.427 112.713 204.944L113.113 204.959C113.094 205.447 113.08 205.85 113.097 206.197C113.113 206.543 113.16 206.819 113.256 207.051C113.443 207.501 113.838 207.842 114.742 208.183L114.601 208.557ZM112.713 204.944C112.926 199.288 112.681 193.614 112.593 187.931L112.993 187.925C113.081 193.593 113.326 199.289 113.113 204.959L112.713 204.944ZM112.593 187.931C112.583 187.303 112.427 186.581 112.331 185.868C112.284 185.52 112.253 185.177 112.269 184.868C112.286 184.561 112.351 184.267 112.513 184.033L112.842 184.261C112.739 184.408 112.683 184.617 112.669 184.89C112.654 185.161 112.681 185.474 112.727 185.815C112.817 186.48 112.983 187.266 112.993 187.925L112.593 187.931ZM112.513 184.033C115.182 180.188 114.415 176.479 112.731 172.555L113.098 172.397C114.8 176.362 115.631 180.242 112.842 184.261L112.513 184.033ZM112.731 172.555C112.577 172.198 112.505 171.807 112.432 171.299C112.358 170.787 112.284 170.15 112.131 169.27L112.525 169.202C112.679 170.089 112.756 170.741 112.828 171.242C112.901 171.749 112.968 172.094 113.098 172.397L112.731 172.555ZM112.46 169.085C120.793 176.356 129.951 179.021 139.271 181.275L139.177 181.663C129.848 179.408 120.607 176.725 112.197 169.387L112.46 169.085ZM139.271 181.275C146.279 182.969 153.288 184.665 160.343 186.042L160.267 186.435C153.201 185.056 146.184 183.358 139.177 181.663L139.271 181.275ZM160.343 186.042C161.962 186.358 162.842 186.905 163.139 187.816C163.284 188.26 163.282 188.766 163.189 189.329C163.097 189.892 162.911 190.529 162.676 191.241L162.297 191.115C162.53 190.408 162.707 189.795 162.794 189.264C162.882 188.733 162.876 188.298 162.759 187.94C162.533 187.248 161.853 186.744 160.267 186.435L160.343 186.042ZM162.676 191.241C161.042 196.193 159.777 201.29 158.352 206.344L157.967 206.236C159.387 201.198 160.658 196.078 162.297 191.115L162.676 191.241ZM158.248 206.11C158.595 206.282 158.942 206.453 159.29 206.624L159.113 206.982C158.766 206.811 158.418 206.64 158.071 206.469L158.248 206.11ZM159.024 206.71C159.737 205.357 160.368 203.953 160.913 202.506L161.287 202.647C160.736 204.109 160.098 205.529 159.378 206.896L159.024 206.71ZM160.909 202.516C166.707 183.968 172.407 165.377 178.247 146.843L178.629 146.964C172.789 165.497 167.09 184.084 161.291 202.636L160.909 202.516ZM178.247 146.843C180.592 139.4 185.348 133.794 190.269 128.47L190.563 128.741C185.644 134.063 180.945 139.612 178.629 146.964L178.247 146.843ZM190.283 128.455C190.707 128.081 191.198 127.809 191.724 127.657L191.834 128.042C191.368 128.176 190.929 128.419 190.548 128.755L190.283 128.455ZM191.724 127.657C192.25 127.505 192.799 127.478 193.335 127.577L193.263 127.97C192.788 127.883 192.301 127.907 191.834 128.042L191.724 127.657ZM193.345 127.579C198.617 128.812 203.65 130.97 206.927 136.088L206.591 136.304C203.395 131.314 198.484 129.192 193.254 127.968L193.345 127.579ZM206.927 136.088C209.714 140.438 213.377 142.689 217.849 144.321L217.712 144.697C213.187 143.046 209.439 140.751 206.591 136.304L206.927 136.088ZM217.851 144.321C221.608 145.721 225.157 147.741 228.379 150.313L228.129 150.625C224.939 148.079 221.428 146.081 217.711 144.696L217.851 144.321ZM228.378 150.313C240.298 159.791 243.736 175.079 236.266 189.082L235.913 188.893C243.291 175.062 239.899 159.985 228.13 150.626L228.378 150.313ZM236.266 189.082C226.293 207.774 217.053 227.097 204.488 243.966L204.167 243.727C216.708 226.89 225.929 207.608 235.913 188.893L236.266 189.082ZM204.488 243.966C194.725 257.074 188.508 271.469 190.721 289.085L190.324 289.135C188.094 271.382 194.367 256.884 204.167 243.727L204.488 243.966ZM190.721 289.085C191.503 295.316 192.157 301.564 193.182 307.735L192.787 307.801C191.76 301.619 191.105 295.355 190.324 289.135L190.721 289.085ZM193.182 307.735C199.281 344.47 200.113 381.425 197.071 418.544L196.673 418.511C199.712 381.42 198.88 344.498 192.787 307.801L193.182 307.735ZM197.071 418.546C196.806 421.488 196.282 424.394 195.507 427.222L195.121 427.116C195.89 424.311 196.41 421.429 196.673 418.51L197.071 418.546ZM195.507 427.22C194.399 431.372 192.567 434.533 190.038 436.495C187.503 438.461 184.291 439.205 180.467 438.566L180.533 438.172C184.265 438.795 187.36 438.066 189.792 436.179C192.23 434.288 194.027 431.217 195.12 427.117L195.507 427.22ZM180.467 438.566C174.62 437.589 171.133 436.483 165.405 434.732L165.522 434.35C171.251 436.1 174.715 437.199 180.533 438.172L180.467 438.566ZM165.4 434.731C163.59 434.124 162.506 433.578 161.778 433.15C161.416 432.938 161.141 432.753 160.919 432.612C160.694 432.469 160.529 432.374 160.368 432.319L160.496 431.94C160.707 432.012 160.908 432.131 161.134 432.275C161.364 432.421 161.627 432.598 161.98 432.806C162.683 433.219 163.742 433.753 165.527 434.351L165.4 434.731ZM160.608 432.224C160.579 432.279 160.548 432.395 160.52 432.574C160.493 432.745 160.473 432.946 160.451 433.155C160.43 433.36 160.408 433.573 160.379 433.757C160.352 433.933 160.314 434.112 160.249 434.233L159.896 434.045C159.926 433.99 159.956 433.873 159.984 433.695C160.011 433.524 160.032 433.322 160.053 433.114C160.074 432.908 160.096 432.696 160.125 432.512C160.153 432.336 160.19 432.157 160.256 432.035L160.608 432.224ZM160.193 433.979C161.7 435.116 162.277 435.15 165.533 436.363L165.393 436.738C162.181 435.54 161.519 435.481 159.952 434.299L160.193 433.979ZM165.53 436.362C172.361 438.775 178.081 440.37 181.995 440.37V440.77C178.003 440.77 172.222 439.15 165.397 436.739L165.53 436.362ZM181.995 440.37C186.965 440.37 190.866 437.986 192.627 436.015L192.926 436.282C191.093 438.331 187.087 440.77 181.995 440.77V440.37ZM192.627 436.015C192.835 435.783 193.096 435.373 193.397 434.799C193.697 434.229 194.029 433.509 194.381 432.669C195.085 430.988 195.864 428.831 196.607 426.432C198.094 421.632 199.434 415.879 199.754 411.047L200.153 411.073C199.83 415.949 198.481 421.736 196.989 426.551C196.243 428.959 195.46 431.129 194.75 432.823C194.395 433.671 194.058 434.401 193.751 434.985C193.447 435.565 193.167 436.012 192.926 436.282L192.627 436.015ZM199.754 411.046C202.308 373.376 200.324 335.493 193.854 298.414L194.248 298.345C200.723 335.456 202.709 373.371 200.153 411.073L199.754 411.046ZM193.854 298.414C191.875 287.107 190.74 275.423 195.323 264.358L195.692 264.511C191.157 275.463 192.271 287.047 194.248 298.345L193.854 298.414ZM195.323 264.358C196.545 261.407 197.698 258.244 199.033 255.276C200.369 252.302 201.899 249.495 203.894 247.229L204.194 247.493C202.238 249.715 200.728 252.48 199.397 255.44C198.065 258.405 196.925 261.535 195.692 264.511L195.323 264.358ZM203.894 247.229C210.928 239.237 216.463 230.167 221.57 220.777C226.671 211.399 231.357 201.677 236.669 192.438L237.016 192.637C231.703 201.878 227.039 211.56 221.921 220.969C216.809 230.367 211.257 239.468 204.194 247.493L203.894 247.229ZM236.669 192.438C242.953 181.509 242.983 170.926 239.357 162.248C235.728 153.563 228.433 146.775 220.05 143.456L220.197 143.084C228.675 146.44 236.053 153.304 239.726 162.093C243.401 170.889 243.361 181.602 237.016 192.637L236.669 192.438ZM220.05 143.456C214.989 141.452 210.37 139.283 206.932 134.192L207.263 133.968C210.629 138.952 215.148 141.085 220.197 143.084L220.05 143.456ZM206.932 134.192C203.923 129.737 199.278 127.811 194.419 126.433L194.528 126.048C199.407 127.432 204.171 129.39 207.263 133.968L206.932 134.192ZM194.419 126.433C193.665 126.219 192.741 125.831 191.963 125.334C191.195 124.843 190.52 124.215 190.343 123.504L190.732 123.408C190.869 123.96 191.425 124.515 192.178 124.996C192.92 125.471 193.807 125.844 194.528 126.048L194.419 126.433ZM190.343 123.504C188.911 117.744 184.655 114.682 180.944 111.432L181.207 111.131C184.879 114.346 189.262 117.497 190.732 123.408L190.343 123.504ZM180.944 111.432C176.701 107.718 175.647 103.001 175.195 97.9028L175.593 97.8675C176.043 102.937 177.084 107.522 181.207 111.131L180.944 111.432ZM175.195 97.9028C174.801 93.4592 174.498 89.5117 170.54 87.1433L170.746 86.8C174.905 89.2892 175.203 93.4669 175.593 97.8675L175.195 97.9028ZM170.54 87.1433C170.317 87.0094 170.18 86.7402 170.09 86.4528C169.996 86.1554 169.938 85.7905 169.903 85.4056C169.834 84.6346 169.858 83.7498 169.908 83.0885L170.307 83.1186C170.258 83.7673 170.235 84.6285 170.302 85.37C170.335 85.7414 170.39 86.0744 170.471 86.3328C170.556 86.6013 170.655 86.7458 170.746 86.8L170.54 87.1433ZM169.908 83.0885C170.721 72.3041 171.692 61.548 172.45 50.7636L172.849 50.7917C172.091 61.5736 171.119 72.3458 170.307 83.1186L169.908 83.0885ZM172.45 50.7636C172.526 49.6859 172.43 48.5895 172.323 47.4891C172.217 46.3946 172.099 45.2928 172.139 44.2306L172.539 44.2458C172.5 45.2751 172.614 46.3464 172.721 47.4504C172.828 48.5486 172.927 49.6762 172.849 50.7917L172.45 50.7636ZM172.538 44.2582C171.153 58.0821 169.767 71.906 168.436 85.1934L168.038 85.1535C169.369 71.8661 170.755 58.0422 172.14 44.2183L172.538 44.2582ZM168.277 85.3693C152.668 88.6102 137.954 91.665 123.877 94.5877L123.796 94.1961C137.873 91.2734 152.586 88.2185 168.196 84.9777L168.277 85.3693ZM123.642 94.3436C127.464 78.9985 131.567 63.436 135.187 47.7312L135.577 47.821C131.956 63.5302 127.85 79.1024 124.03 94.4403L123.642 94.3436ZM135.187 47.7312C138.817 31.982 141.962 16.0961 145.322 0.262804L145.713 0.345826C142.355 16.1719 139.207 32.0674 135.577 47.821L135.187 47.7312ZM145.458 0.495292L144.479 0.190977L144.598 -0.190977L145.577 0.113338L145.458 0.495292ZM144.733 0.0477206C143.786 3.90313 142.8 7.74019 141.901 11.6049L141.511 11.5143C142.411 7.64655 143.399 3.802 144.345 -0.0477206L144.733 0.0477206ZM141.901 11.6049C136.845 33.3359 132.161 55.1978 126.591 76.7707L126.204 76.6707C131.772 55.1039 136.453 33.2546 141.511 11.5143L141.901 11.6049ZM126.591 76.7707C124.357 85.4255 120.277 93.5131 116.813 101.693L116.445 101.537C119.923 93.3237 123.98 85.2872 126.204 76.6707L126.591 76.7707ZM116.813 101.693C116.492 102.45 115.904 103.148 115.223 103.727C114.541 104.308 113.755 104.779 113.026 105.08L112.874 104.71C113.564 104.426 114.313 103.976 114.964 103.423C115.615 102.868 116.156 102.218 116.445 101.537L116.813 101.693ZM113.026 105.08C99.2312 110.767 84.7409 111.908 70.2943 113.078L70.2619 112.679C84.7194 111.508 99.1461 110.369 112.874 104.71L113.026 105.08ZM70.2906 113.078C67.7995 113.234 65.324 113.619 62.8893 114.23L62.7919 113.842C65.2502 113.225 67.7499 112.836 70.2656 112.679L70.2906 113.078ZM62.893 114.229C54.2198 116.582 45.7717 114.766 36.9898 113.244L37.0581 112.85C45.871 114.378 54.2194 116.168 62.7882 113.843L62.893 114.229ZM36.8256 113.021C40.3048 86.0436 43.7242 59.5289 47.1436 33.0141L47.5403 33.0653C44.1209 59.5801 40.7015 86.0948 37.2223 113.073L36.8256 113.021ZM47.3097 33.2371L46.0614 33.0333L46.1259 32.6385L47.3741 32.8423L47.3097 33.2371ZM46.2917 32.8638C44.6628 44.4311 43.0087 55.9927 41.4117 67.5646L41.0155 67.5099C42.6125 55.9373 44.2669 44.3742 45.8956 32.808L46.2917 32.8638ZM41.4117 67.5646C39.4603 81.7048 37.5864 95.8626 35.5818 109.995L35.1857 109.939C37.1903 95.807 39.0636 81.6536 41.0155 67.5099L41.4117 67.5646ZM35.5826 109.989C35.425 111.434 34.81 112.772 33.8439 113.76L33.5579 113.481C34.4576 112.561 35.0365 111.307 35.1849 109.946L35.5826 109.989ZM33.8251 113.777C31.5369 115.591 30.1322 117.323 29.3917 119.355C28.6501 121.391 28.5659 123.753 28.9655 126.843L28.5688 126.895C28.1656 123.776 28.2427 121.341 29.0159 119.219C29.7901 117.093 31.2536 115.305 33.5766 113.464L33.8251 113.777ZM28.9655 126.843C30.2668 136.908 29.7728 146.95 26.0226 156.36L25.651 156.212C29.3687 146.884 29.8643 136.914 28.5688 126.895L28.9655 126.843ZM26.0226 156.36C23.3616 163.036 22.2604 169.982 21.0579 177.108L20.6635 177.042C21.8642 169.926 22.9712 162.935 25.651 156.212L26.0226 156.36ZM21.0579 177.108C20.0279 183.213 18.6544 189.245 17.2932 195.272C15.9315 201.301 14.5821 207.325 13.5971 213.422L13.2022 213.358C14.1895 207.247 15.5417 201.211 16.903 195.184C18.2648 189.154 19.6356 183.133 20.6635 177.042L21.0579 177.108ZM13.5971 213.422C10.6664 231.562 8.10023 249.801 6.12512 268.098L5.72743 268.055C7.70346 249.75 10.2707 231.503 13.2022 213.358L13.5971 213.422ZM6.12512 268.098C4.0325 287.482 2.92133 306.983 1.18121 326.43L0.782806 326.394C2.52103 306.969 3.6347 287.44 5.72743 268.055L6.12512 268.098ZM1.18126 326.429C-0.41713 344.82 -0.0617676 363.358 2.23991 381.655L1.84303 381.705C-0.462173 363.38 -0.818069 344.814 0.782761 326.395L1.18126 326.429ZM2.23999 381.656C4.07138 396.591 6.09677 411.582 9.40944 426.152L9.01939 426.24C5.70186 411.649 3.67448 396.641 1.84296 381.704L2.23999 381.656ZM9.40944 426.152C11.4588 435.165 15.7254 443.653 19.6454 452.04L19.2831 452.209C15.3716 443.841 11.0807 435.306 9.01939 426.24L9.40944 426.152ZM19.6454 452.04C23.2744 459.804 29.1849 465.208 36.6436 468.362L36.4878 468.731C28.9422 465.539 22.9558 460.067 19.2831 452.209L19.6454 452.04ZM36.5657 468.546C36.6157 468.353 36.6157 468.353 36.6157 468.353C36.6158 468.353 36.6159 468.353 36.6161 468.353C36.6164 468.353 36.6169 468.353 36.6175 468.353C36.6188 468.354 36.6209 468.354 36.6236 468.355C36.6291 468.356 36.6373 468.358 36.6484 468.361C36.6705 468.367 36.7037 468.375 36.7477 468.386C36.8357 468.407 36.9669 468.439 37.139 468.479C37.4832 468.559 37.9912 468.673 38.6447 468.806C39.9516 469.073 41.8404 469.421 44.165 469.74C48.8148 470.378 55.2055 470.904 62.1714 470.457L62.1971 470.856C55.1971 471.306 48.7785 470.777 44.1106 470.136C41.7763 469.815 39.8789 469.467 38.5646 469.198C37.9074 469.064 37.3959 468.949 37.0483 468.869C36.8746 468.828 36.7418 468.796 36.6522 468.774C36.6075 468.763 36.5735 468.755 36.5507 468.749C36.5392 468.746 36.5306 468.744 36.5247 468.742C36.5218 468.742 36.5196 468.741 36.5181 468.741C36.5173 468.74 36.5168 468.74 36.5164 468.74C36.5162 468.74 36.516 468.74 36.5159 468.74C36.5158 468.74 36.5157 468.74 36.5657 468.546ZM62.1714 470.457C68.4614 470.053 74.8579 468.004 80.8376 465.528L80.9906 465.897C74.9948 468.38 68.5511 470.448 62.1971 470.856L62.1714 470.457ZM80.8376 465.528C88.8923 462.192 94.5283 455.355 97.3218 446.23L97.7043 446.347C94.8822 455.566 89.1742 462.509 80.9906 465.897L80.8376 465.528ZM97.3218 446.23C103.253 426.852 108.71 407.315 109.298 386.629L109.698 386.64C109.108 407.385 103.636 426.968 97.7043 446.347L97.3218 446.23ZM109.298 386.629C109.495 379.693 109.222 372.731 108.973 365.78L109.373 365.766C109.622 372.713 109.896 379.689 109.698 386.64L109.298 386.629ZM108.973 365.78C108.192 343.943 108.306 322.146 111.323 300.471L111.719 300.526C108.707 322.167 108.592 343.938 109.373 365.766L108.973 365.78ZM111.323 300.471C111.393 299.967 111.479 299.463 111.692 298.088L112.088 298.15C111.873 299.531 111.789 300.026 111.719 300.526L111.323 300.471ZM112.067 298.027C112.626 299.103 113.103 300.228 113.493 301.393L113.114 301.52C112.73 300.375 112.261 299.268 111.712 298.211L112.067 298.027ZM113.499 301.413C117.468 319.318 121.415 337.23 125.34 355.148L124.949 355.233C121.025 337.316 117.078 319.405 113.108 301.5L113.499 301.413ZM125.341 355.156C125.477 355.939 125.649 356.712 125.856 357.475L125.47 357.58C125.259 356.805 125.085 356.019 124.947 355.224L125.341 355.156ZM125.853 357.466C130.504 371.906 135.03 386.393 139.899 400.736L139.52 400.865C134.65 386.518 130.121 372.024 125.472 357.588L125.853 357.466ZM139.899 400.736C141.798 406.33 145.158 413.552 147.307 417.156L146.963 417.361C144.799 413.73 141.427 406.482 139.52 400.865L139.899 400.736ZM147.316 417.173C147.45 417.46 148.051 418.453 148.956 419.845C149.857 421.231 151.051 422.999 152.361 424.83C153.672 426.661 155.098 428.553 156.465 430.187C157.834 431.824 159.134 433.19 160.192 433.979L159.953 434.299C158.855 433.481 157.53 432.084 156.158 430.443C154.783 428.799 153.35 426.899 152.036 425.063C150.722 423.227 149.525 421.453 148.621 420.063C147.721 418.68 147.102 417.661 146.954 417.343L147.316 417.173ZM159.876 434.104L160.235 432.094L160.629 432.165L160.269 434.174L159.876 434.104ZM45.1 392.727C36.4232 393.312 30.4271 388.209 25.1026 381.589L25.4143 381.338C30.7191 387.934 36.6014 392.899 45.0731 392.328L45.1 392.727ZM25.1026 381.589C14.9656 368.984 9.84833 353.776 7.1758 337.522L7.5705 337.457C10.2367 353.672 15.336 368.806 25.4143 381.338L25.1026 381.589ZM7.1758 337.522C5.54193 327.584 3.6933 317.344 4.11159 307.337L4.51125 307.354C4.09503 317.31 5.93428 327.505 7.5705 337.457L7.1758 337.522ZM4.11159 307.337C4.8698 289.197 7.24834 271.135 8.94168 253.06L9.33994 253.097C7.64468 271.192 5.26888 289.227 4.51125 307.354L4.11159 307.337ZM8.94168 253.06C9.19902 250.313 10.1588 248.154 11.7069 246.782C13.2588 245.407 15.3759 244.846 17.8949 245.246L17.8321 245.642C15.4093 245.256 13.4192 245.8 11.9722 247.082C10.5215 248.367 9.59087 250.419 9.33994 253.097L8.94168 253.06ZM17.8949 245.246C31.9888 247.487 46.0139 250.161 60.1346 252.021L60.0824 252.418C45.9561 250.557 31.9083 247.879 17.8321 245.642L17.8949 245.246ZM60.1346 252.021C68.6514 253.143 77.3802 254.191 85.7846 253.145L85.834 253.542C77.3715 254.595 68.5938 253.539 60.0824 252.418L60.1346 252.021ZM85.7803 253.145C91.6458 252.285 97.6082 252.854 103.258 254.814L103.126 255.192C97.5373 253.253 91.6397 252.69 85.8384 253.541L85.7803 253.145ZM103.259 254.814C103.729 254.981 104.254 255.424 104.656 255.917C104.859 256.167 105.037 256.438 105.165 256.705C105.291 256.97 105.374 257.244 105.371 257.499L104.971 257.494C104.973 257.324 104.916 257.113 104.804 256.877C104.692 256.644 104.533 256.4 104.345 256.17C103.966 255.703 103.497 255.323 103.125 255.191L103.259 254.814ZM105.371 257.499C105.254 268.571 106.008 279.882 104.448 290.757L104.052 290.701C105.607 279.86 104.854 268.61 104.971 257.494L105.371 257.499ZM104.448 290.757C102.183 306.543 98.5763 322.131 94.8369 337.581L94.4482 337.486C98.1874 322.037 101.79 306.466 104.052 290.701L104.448 290.757ZM94.8371 337.58C92.7767 346.234 89.8821 354.612 86.2041 362.568L85.8411 362.4C89.5077 354.469 92.3936 346.116 94.448 337.487L94.8371 337.58ZM86.2037 362.569C81.8785 371.794 74.8875 378.696 67.2847 384.762L67.0352 384.449C74.6188 378.399 81.5545 371.543 85.8415 362.399L86.2037 362.569ZM67.2855 384.761C60.8262 389.97 53.0549 392.76 45.0857 392.727L45.0874 392.327C52.9606 392.36 60.6434 389.603 67.0344 384.45L67.2855 384.761ZM2.79536 327.081L3.37335 327.138L3.33403 327.537L2.75604 327.479L2.79536 327.081ZM3.5497 327.298C4.38556 331.419 5.28218 335.535 6.04993 339.679L5.65662 339.751C4.88965 335.612 3.99512 331.506 3.15768 327.377L3.5497 327.298ZM6.04993 339.679C8.9534 355.347 14.0802 369.805 23.566 382.079L23.2495 382.323C13.7121 369.982 8.56717 355.458 5.65662 339.751L6.04993 339.679ZM23.566 382.079C28.3772 388.304 33.0019 392.341 38.4475 394.001C43.8904 395.661 50.1921 394.958 58.3827 391.616L58.5338 391.986C50.2992 395.346 43.8965 396.081 38.3309 394.384C32.768 392.688 28.08 388.574 23.2495 382.323L23.566 382.079ZM58.3827 391.616C73.1498 385.59 83.3222 373.074 89.5939 357.187L89.966 357.334C83.6672 373.289 73.4306 385.907 58.5338 391.986L58.3827 391.616ZM89.5939 357.187C93.5235 347.234 96.2699 336.633 98.9416 326.115L99.3293 326.213C96.6583 336.729 93.9063 347.354 89.966 357.334L89.5939 357.187ZM98.9416 326.115C103.622 307.689 106.493 289.042 106.362 269.65L106.762 269.648C106.894 289.082 104.016 307.763 99.3293 326.213L98.9416 326.115ZM106.362 269.65C106.24 251.565 108.095 233.453 109.079 215.38L109.478 215.401C108.493 233.501 106.64 251.578 106.762 269.648L106.362 269.65ZM109.288 215.191C109.658 215.207 110.028 215.224 110.398 215.241L110.38 215.641C110.01 215.624 109.64 215.607 109.27 215.59L109.288 215.191ZM110.589 215.441C110.589 220.77 110.549 226.095 110.596 231.421L110.196 231.424C110.149 226.096 110.189 220.766 110.189 215.441H110.589ZM110.596 231.421C110.721 245.605 110.534 259.794 111.154 273.941L110.754 273.959C110.134 259.802 110.321 245.597 110.196 231.424L110.596 231.421ZM111.154 273.941C111.567 283.377 111.442 292.651 109.833 301.936L109.439 301.868C111.041 292.622 111.167 283.381 110.754 273.959L111.154 273.941ZM109.832 301.941C109.011 306.113 108.506 310.355 108.324 314.623L107.925 314.606C108.108 310.318 108.614 306.055 109.44 301.863L109.832 301.941ZM108.325 314.618C107.965 333.6 107.813 352.587 107.633 371.574L107.233 371.571C107.413 352.584 107.565 333.595 107.925 314.611L108.325 314.618ZM107.633 371.574C107.61 374.042 107.652 376.51 107.692 378.982C107.732 381.453 107.77 383.927 107.738 386.401L107.338 386.396C107.37 383.929 107.332 381.46 107.292 378.989C107.252 376.518 107.21 374.044 107.233 371.571L107.633 371.574ZM107.738 386.401C107.48 406.406 101.843 425.129 96.4835 443.834L96.099 443.724C101.463 425.006 107.081 406.337 107.338 386.396L107.738 386.401ZM96.4835 443.834C93.7165 453.491 88.1269 460.546 79.3452 464.333L79.1868 463.965C87.8418 460.234 93.3597 453.284 96.099 443.724L96.4835 443.834ZM79.3452 464.333C68.8933 468.839 58.1245 469.654 47.1363 468.965L47.1613 468.566C58.1145 469.252 68.8137 468.438 79.1868 463.965L79.3452 464.333ZM47.1363 468.965C35.0463 468.208 25.8009 461.875 20.322 450.081L20.6848 449.912C26.1048 461.58 35.2244 467.819 47.1613 468.566L47.1363 468.965ZM20.322 450.081C15.8883 440.536 11.5189 430.555 9.28995 420.171L9.68105 420.087C11.8997 430.423 16.2513 440.368 20.6848 449.912L20.322 450.081ZM9.28964 420.169C6.19131 405.186 4.08727 389.966 2.9946 374.636L3.39359 374.608C4.485 389.92 6.58664 405.122 9.68135 420.088L9.28964 420.169ZM2.99471 374.637C1.86055 360.16 2.33369 345.515 2.14183 330.969L2.54179 330.964C2.73398 345.535 2.26065 360.146 3.39348 374.606L2.99471 374.637ZM2.14206 330.957C2.20439 329.709 2.35046 328.467 2.5791 327.244L2.97231 327.317C2.74698 328.523 2.603 329.746 2.54155 330.977L2.14206 330.957ZM105.033 255.258C102.04 253.824 99.2029 252.685 96.5241 251.492C93.8514 250.301 91.3489 249.06 89.0609 247.433L89.2927 247.107C91.5479 248.711 94.0216 249.939 96.6869 251.126C99.346 252.311 102.208 253.461 105.206 254.897L105.033 255.258ZM89.0609 247.433C76.561 238.546 64.3174 229.192 52.1815 219.693L52.428 219.378C64.5618 228.875 76.7999 238.225 89.2927 247.107L89.0609 247.433ZM52.1815 219.693C42.6767 212.254 33.409 204.407 25.9147 194.258L26.2365 194.02C33.697 204.124 42.9285 211.943 52.428 219.378L52.1815 219.693ZM25.9147 194.258C24.2096 191.949 22.8439 189.673 22.0789 187.148C21.3129 184.621 21.1524 181.855 21.8412 178.57L22.2327 178.652C21.5567 181.876 21.7166 184.573 22.4617 187.032C23.2078 189.494 24.5438 191.728 26.2365 194.02L25.9147 194.258ZM21.8412 178.57C22.2346 176.693 22.561 174.799 22.8822 172.901C23.2032 171.004 23.5192 169.103 23.8912 167.22C24.6352 163.453 25.6054 159.743 27.2986 156.24L27.6588 156.415C25.9871 159.873 25.0249 163.544 24.2836 167.297C23.9129 169.174 23.598 171.069 23.2766 172.968C22.9554 174.865 22.6279 176.767 22.2327 178.652L21.8412 178.57ZM27.2986 156.24C27.51 155.803 27.8592 155.228 28.1986 154.776C28.3678 154.551 28.5403 154.348 28.6971 154.207C28.7748 154.137 28.8567 154.075 28.939 154.035C29.0171 153.997 29.13 153.963 29.2465 154.006L29.1078 154.381C29.142 154.394 29.1529 154.376 29.114 154.395C29.0793 154.412 29.0291 154.447 28.9643 154.505C28.8359 154.62 28.6815 154.799 28.5185 155.016C28.1938 155.449 27.8583 156.002 27.6588 156.415L27.2986 156.24ZM29.2465 154.006C31.2807 154.758 33.4184 154.807 35.5993 155.095C37.7666 155.38 39.9372 155.9 41.9299 157.619L41.6687 157.922C39.7634 156.279 37.6853 155.773 35.5471 155.491C33.4226 155.211 31.1981 155.154 29.1078 154.381L29.2465 154.006ZM41.9299 157.619C63.134 175.909 84.4816 193.991 105.825 212.08L105.566 212.385C84.2233 194.296 62.8743 176.213 41.6687 157.922L41.9299 157.619ZM105.825 212.08C106.956 213.038 107.651 214.091 108.028 215.281C108.404 216.467 108.458 217.777 108.328 219.243L107.929 219.208C108.058 217.769 108 216.518 107.647 215.402C107.295 214.289 106.644 213.298 105.566 212.385L105.825 212.08ZM108.328 219.243C107.497 228.55 106.825 237.873 106.076 247.192L105.677 247.16C106.426 237.845 107.098 228.517 107.929 219.208L108.328 219.243ZM106.076 247.192C105.898 249.4 105.655 251.603 105.318 255.097L104.92 255.058C105.258 251.558 105.5 249.364 105.677 247.16L106.076 247.192ZM127.588 349.371C127.155 349.272 126.721 349.172 126.288 349.073L126.378 348.683C126.811 348.782 127.244 348.882 127.677 348.981L127.588 349.371ZM126.142 348.936C125.509 346.847 124.74 344.757 124.246 342.602L124.636 342.513C125.126 344.651 125.882 346.7 126.524 348.82L126.142 348.936ZM124.246 342.602C121.395 330.178 118.583 317.744 115.809 305.298L116.199 305.211C118.973 317.656 121.785 330.09 124.636 342.513L124.246 342.602ZM115.809 305.298C114.687 300.273 112.994 295.197 112.714 290.052L113.114 290.03C113.391 295.131 115.064 300.13 116.199 305.211L115.809 305.298ZM112.714 290.052C111.946 275.917 111.671 261.743 111.423 247.584L111.823 247.577C112.07 261.737 112.346 275.903 113.114 290.03L112.714 290.052ZM111.423 247.584C111.223 236.088 111.335 224.584 111.338 213.089L111.738 213.089C111.735 224.589 111.623 236.086 111.823 247.577L111.423 247.584ZM111.338 213.089C111.338 211.833 111.536 210.563 111.673 208.929L112.072 208.963C111.931 210.635 111.738 211.855 111.738 213.089L111.338 213.089ZM111.945 208.76C114.56 209.78 116.657 210.651 118.787 211.42L118.651 211.797C116.515 211.025 114.404 210.148 111.8 209.132L111.945 208.76ZM118.787 211.42C121.641 212.451 124.42 213.74 127.177 215.085C129.937 216.431 132.67 217.83 135.445 219.087C140.994 221.599 146.677 223.526 152.955 223.284L152.97 223.684C146.6 223.93 140.849 221.972 135.28 219.451C132.498 218.191 129.752 216.786 127.002 215.445C124.248 214.101 121.484 212.819 118.651 211.797L118.787 211.42ZM152.955 223.284C153.059 223.28 153.154 223.317 153.207 223.337C153.276 223.364 153.303 223.374 153.326 223.375L153.295 223.774C153.201 223.767 153.111 223.729 153.064 223.711C153.002 223.687 152.981 223.683 152.97 223.684L152.955 223.284ZM153.326 223.375C154.627 223.476 155.471 223.913 155.909 224.722C156.335 225.51 156.343 226.601 156.115 227.934L155.72 227.866C155.946 226.549 155.915 225.575 155.557 224.912C155.209 224.27 154.524 223.869 153.295 223.774L153.326 223.375ZM156.115 227.934C153.601 242.616 151.509 257.418 148.658 272.027L148.265 271.95C151.115 257.346 153.204 242.566 155.72 227.866L156.115 227.934ZM148.658 272.027C147.449 278.22 145.954 284.343 144.452 290.459C142.95 296.577 141.441 302.687 140.202 308.864L139.809 308.785C141.051 302.598 142.562 296.479 144.064 290.364C145.566 284.247 147.059 278.133 148.265 271.95L148.658 272.027ZM140.202 308.864C137.848 320.59 136.047 332.494 131.094 343.377L130.73 343.212C135.658 332.382 137.451 320.54 139.809 308.785L140.202 308.864ZM131.094 343.377C130.156 345.438 128.898 347.336 127.807 349.274L127.458 349.078C128.569 347.104 129.8 345.253 130.73 343.212L131.094 343.377ZM177.997 110.934C182.195 114.906 187.805 118.727 190.066 126.27L189.683 126.385C187.461 118.974 181.975 115.248 177.722 111.224L177.997 110.934ZM190.029 126.455C189.456 127.149 188.845 127.992 188.151 128.713L187.863 128.436C188.544 127.728 189.125 126.922 189.72 126.201L190.029 126.455ZM188.151 128.714C182.183 134.9 177.733 142.7 175.232 151.366L174.848 151.255C177.366 142.53 181.847 134.672 187.863 128.436L188.151 128.714ZM175.232 151.367C172.148 161.764 168.706 172.04 165.511 182.389L165.129 182.271C168.329 171.907 171.765 161.652 174.848 151.253L175.232 151.367ZM165.511 182.389C165.184 183.448 164.842 184.235 164.251 184.654C163.645 185.084 162.834 185.09 161.681 184.761L161.791 184.377C162.915 184.697 163.568 184.648 164.02 184.328C164.487 183.997 164.799 183.34 165.129 182.271L165.511 182.389ZM161.681 184.761C155.905 183.115 150.03 181.866 144.157 180.638L144.238 180.247C150.111 181.475 155.999 182.726 161.791 184.377L161.681 184.761ZM144.157 180.638C133.66 178.444 123.245 175.903 114.078 169.211L114.314 168.888C123.404 175.524 133.742 178.052 144.238 180.247L144.157 180.638ZM114.078 169.211C113.081 168.482 112.322 167.815 111.812 167.176C111.301 166.535 111.03 165.908 111.035 165.266C111.04 164.623 111.321 164.001 111.84 163.368C112.358 162.736 113.124 162.081 114.127 161.367L114.359 161.693C113.367 162.398 112.634 163.03 112.149 163.622C111.665 164.212 111.439 164.749 111.435 165.269C111.431 165.789 111.649 166.329 112.125 166.926C112.602 167.525 113.328 168.167 114.314 168.888L114.078 169.211ZM114.127 161.367C126.949 152.247 140.018 143.563 152.467 133.871L152.712 134.186C140.255 143.885 127.167 152.583 114.359 161.693L114.127 161.367ZM152.467 133.871C161.124 127.13 168.911 119.016 177.724 110.932L177.994 111.226C169.208 119.287 161.386 127.433 152.712 134.186L152.467 133.871ZM114.534 135.471C114.819 138.274 114.013 142.125 112.711 145.584C112.059 147.316 111.279 148.958 110.442 150.33C109.607 151.698 108.707 152.812 107.81 153.472L107.572 153.15C108.41 152.534 109.277 151.471 110.101 150.122C110.923 148.775 111.692 147.156 112.337 145.443C113.63 142.009 114.412 138.226 114.136 135.511L114.534 135.471ZM107.816 153.467C107.109 154.03 106.293 154.402 105.431 154.551L105.363 154.157C106.156 154.02 106.91 153.677 107.566 153.155L107.816 153.467ZM105.419 154.553C94.5345 155.718 83.6736 156.305 73.184 151.314L73.3558 150.953C83.7354 155.891 94.4951 155.32 105.376 154.155L105.419 154.553ZM73.184 151.314C60.7762 145.41 48.2827 139.734 35.8192 133.967L35.9872 133.604C48.4472 139.369 60.9454 145.047 73.3558 150.953L73.184 151.314ZM35.8192 133.967C32.8151 132.577 30.7969 130.52 29.854 127.959C28.9118 125.4 29.0532 122.365 30.3133 119.035L30.6874 119.177C29.4517 122.442 29.3289 125.375 30.2294 127.821C31.129 130.264 33.0601 132.25 35.9872 133.604L35.8192 133.967ZM30.3133 119.035C30.8922 117.506 31.7123 116.207 32.7657 115.344C33.8242 114.477 35.113 114.056 36.6027 114.281L36.5427 114.677C35.1729 114.469 33.9964 114.853 33.0192 115.653C32.0368 116.458 31.2505 117.689 30.6874 119.177L30.3133 119.035ZM36.6027 114.281C40.2221 114.83 43.9488 115.134 47.5696 115.844C51.2031 116.556 54.7697 117.683 58.1221 119.894L57.9019 120.228C54.6081 118.055 51.0965 116.943 47.4926 116.236C43.876 115.527 40.2062 115.232 36.5427 114.677L36.6027 114.281ZM58.1221 119.894C69.6157 127.475 81.8183 133.106 95.0563 135.276L94.9916 135.671C81.6824 133.489 69.4271 127.83 57.9019 120.228L58.1221 119.894ZM95.0563 135.276C98.2262 135.796 101.364 136.603 104.57 136.883C107.761 137.16 110.977 136.908 114.247 135.311L114.423 135.671C111.068 137.309 107.773 137.563 104.536 137.281C101.314 137 98.1096 136.182 94.9916 135.671L95.0563 135.276ZM176.03 105.698C175.692 106.666 175.488 107.627 175.234 108.516C174.985 109.388 174.689 110.187 174.164 110.742L173.873 110.467C174.325 109.989 174.601 109.275 174.849 108.406C175.092 107.554 175.311 106.545 175.653 105.566L176.03 105.698ZM174.164 110.742C168.117 117.136 162.339 124.119 155.551 129.455L155.304 129.14C162.061 123.829 167.8 116.888 173.873 110.467L174.164 110.742ZM155.551 129.455C143.82 138.675 131.421 146.846 119.309 155.43L119.077 155.104C131.205 146.509 143.583 138.353 155.304 129.14L155.551 129.455ZM119.309 155.43C116.834 157.184 114.319 158.87 111.435 160.854L111.209 160.524C114.097 158.537 116.606 156.855 119.077 155.104L119.309 155.43ZM111.124 160.717C110.528 156.531 110.126 153.099 112.18 149.707L112.522 149.914C110.552 153.168 110.922 156.46 111.52 160.661L111.124 160.717ZM112.18 149.707C114.821 145.345 116.481 140.641 115.971 135.147L116.369 135.11C116.89 140.715 115.192 145.505 112.522 149.914L112.18 149.707ZM115.97 135.14C115.754 131.568 115.709 127.986 115.836 124.409L116.236 124.423C116.109 127.987 116.154 131.557 116.37 135.116L115.97 135.14ZM115.836 124.415C115.842 122.86 116.162 121.773 116.895 121.037C117.622 120.305 118.719 119.957 120.183 119.788L120.229 120.186C118.789 120.352 117.807 120.686 117.178 121.319C116.554 121.947 116.241 122.907 116.236 124.417L115.836 124.415ZM120.183 119.788C129.089 118.761 138.065 117.844 146.73 115.575L146.831 115.962C138.133 118.24 129.124 119.159 120.229 120.186L120.183 119.788ZM146.73 115.575C156.195 113.096 165.341 109.155 175.775 105.443L175.909 105.82C165.509 109.52 156.318 113.477 146.831 115.962L146.73 115.575ZM9.978 244.449C11.4852 226.09 15.4701 207.807 20.4759 188.965L20.8625 189.068C15.8592 207.901 11.8811 226.157 10.3766 244.482L9.978 244.449ZM20.8409 188.914C31.026 205.952 46.0048 215.981 60.6091 228.38L60.3502 228.685C45.789 216.322 30.7271 206.232 20.4975 189.119L20.8409 188.914ZM60.54 228.723C43.3009 234.184 26.8504 239.394 10.2377 244.656L10.1169 244.275C26.7296 239.013 43.1801 233.802 60.4193 228.342L60.54 228.723ZM116.972 118.248C116.826 117.485 116.761 116.705 116.778 115.925L117.178 115.934C117.162 116.686 117.225 117.437 117.365 118.173L116.972 118.248ZM116.781 115.898C117.602 110.855 118.242 105.727 119.439 100.773L119.827 100.867C118.636 105.801 118 110.9 117.175 115.962L116.781 115.898ZM119.439 100.773C119.76 99.4441 120.286 98.2212 121.141 97.2703C122 96.3158 123.18 95.6471 124.786 95.4129L124.844 95.8087C123.325 96.0302 122.231 96.6565 121.438 97.5379C120.642 98.4229 120.139 99.5769 119.827 100.867L119.439 100.773ZM124.786 95.4129C127.728 94.9836 130.649 94.3634 133.571 93.7079C136.492 93.0529 139.417 92.3621 142.358 91.7948L142.433 92.1876C139.501 92.7533 136.586 93.4418 133.659 94.0982C130.735 94.754 127.802 95.3771 124.844 95.8087L124.786 95.4129ZM142.358 91.7948C149.536 90.4101 156.73 89.1308 163.94 87.957L164.005 88.3518C156.798 89.525 149.608 90.8036 142.433 92.1876L142.358 91.7948ZM163.94 87.957C165.664 87.6774 167.501 87.5606 169.097 88.051C170.709 88.546 172.06 89.6555 172.804 91.7859L172.426 91.9177C171.725 89.9089 170.471 88.8914 168.98 88.4334C167.474 87.9708 165.712 88.0748 164.004 88.3518L163.94 87.957ZM172.804 91.7859C173.993 95.1954 173.988 99.1589 174.306 102.833L173.907 102.868C173.585 99.1402 173.594 95.2644 172.426 91.9177L172.804 91.7859ZM174.306 102.833C174.322 103.027 174.246 103.227 174.142 103.404C174.035 103.587 173.885 103.772 173.716 103.945C173.381 104.289 172.951 104.608 172.593 104.774L172.424 104.412C172.729 104.27 173.121 103.983 173.43 103.666C173.584 103.508 173.711 103.348 173.797 103.203C173.884 103.052 173.913 102.94 173.907 102.868L174.306 102.833ZM172.594 104.774C155.01 113.025 136.234 117.646 117.176 118.41L117.16 118.01C136.164 117.248 154.887 112.641 172.424 104.412L172.594 104.774ZM108.559 156.215C109.97 162.915 111.521 169.971 112.895 177.069L112.502 177.145C111.129 170.052 109.58 163.002 108.167 156.297L108.559 156.215ZM112.895 177.069C113.027 177.75 113.097 178.575 113.049 179.355C113.003 180.13 112.839 180.89 112.48 181.42L112.148 181.195C112.447 180.754 112.605 180.081 112.65 179.331C112.695 178.587 112.628 177.797 112.502 177.145L112.895 177.069ZM112.48 181.42C107.604 188.614 102.528 195.64 97.358 202.942L97.0316 202.71C102.205 195.405 107.276 188.385 112.148 181.195L112.48 181.42ZM97.0641 202.977C87.1582 194.434 77.9507 186.492 68.8625 178.653L69.1238 178.351C78.2119 186.189 87.4194 194.131 97.3254 202.675L97.0641 202.977ZM68.8947 178.328C82.445 170.671 95.606 163.235 108.265 156.082L108.461 156.43C95.8028 163.583 82.6418 171.019 69.0915 178.676L68.8947 178.328ZM117.159 105.191C116.247 113.507 115.503 121.028 114.575 128.519L114.178 128.47C115.105 120.983 115.849 113.469 116.761 105.147L117.159 105.191ZM114.575 128.519C114.381 130.091 114.175 131.333 113.883 132.304C113.591 133.276 113.208 133.994 112.647 134.502C112.085 135.011 111.365 135.289 110.437 135.422C109.512 135.554 108.366 135.544 106.935 135.466L106.957 135.066C108.384 135.145 109.498 135.152 110.38 135.026C111.26 134.9 111.895 134.643 112.379 134.205C112.864 133.766 113.219 133.125 113.5 132.189C113.781 131.253 113.984 130.039 114.178 128.47L114.575 128.519ZM106.937 135.466C94.3518 134.856 81.9865 131.573 70.5011 125.792L70.681 125.434C82.1174 131.191 94.4282 134.459 106.956 135.066L106.937 135.466ZM70.5006 125.791C65.9338 123.475 61.5682 120.635 57.1341 118.047L57.3357 117.702C61.7932 120.304 66.1279 123.125 70.6815 125.435L70.5006 125.791ZM57.0429 117.819C57.1495 117.454 57.2561 117.089 57.3627 116.724L57.7467 116.836C57.6401 117.201 57.5335 117.566 57.4269 117.931L57.0429 117.819ZM57.5149 116.584C67.3411 114.587 77.3999 114.003 87.3706 112.763C97.3518 111.52 107.269 109.618 116.873 104.989L117.047 105.349C107.385 110.007 97.4164 111.915 87.42 113.159C77.4129 114.405 67.402 114.983 57.5946 116.976L57.5149 116.584ZM20.873 244.193C20.7955 243.738 20.718 243.283 20.6405 242.828L21.0348 242.761C21.1123 243.216 21.1898 243.671 21.2673 244.125L20.873 244.193ZM20.7788 242.604C24.2842 241.524 27.7917 240.472 31.2867 239.363L31.4076 239.745C27.9106 240.854 24.3982 241.908 20.8965 242.986L20.7788 242.604ZM31.2867 239.363C40.2516 236.52 49.2761 233.937 58.0915 230.641L58.2315 231.015C49.4036 234.316 40.3582 236.906 31.4076 239.745L31.2867 239.363ZM58.0915 230.641C59.4904 230.118 60.6403 229.894 61.7452 230.034C62.8514 230.175 63.8877 230.676 65.0658 231.554L64.8267 231.875C63.6793 231.019 62.7075 230.56 61.6949 230.431C60.681 230.303 59.6013 230.503 58.2315 231.015L58.0915 230.641ZM65.0658 231.554C73.21 237.625 81.5329 243.388 89.7745 249.311L89.5411 249.635C81.3075 243.719 72.9742 237.948 64.8267 231.875L65.0658 231.554ZM89.8004 249.333C90.3843 249.926 90.9025 250.595 91.3442 251.325L91.002 251.532C90.576 250.828 90.0768 250.184 89.5153 249.613L89.8004 249.333ZM91.1986 251.627C79.0711 253.182 67.3171 252.003 55.7062 250.118C44.0843 248.232 32.631 245.642 21.0481 244.358L21.0922 243.96C32.685 245.246 44.1842 247.843 55.7703 249.724C67.3674 251.606 79.0769 252.778 91.1477 251.23L91.1986 251.627ZM102.73 156.914L103.127 157.984L102.752 158.123L102.355 157.053L102.73 156.914ZM103.031 158.232C91.4895 164.183 79.9683 170.197 68.3532 175.974L68.175 175.616C79.7868 169.841 91.3037 163.829 102.848 157.876L103.031 158.232ZM68.3532 175.974C68.0788 176.11 67.7531 176.143 67.4176 176.114C67.0807 176.084 66.7198 175.99 66.3631 175.857C65.6505 175.592 64.9294 175.164 64.4101 174.737L64.664 174.428C65.1505 174.828 65.8331 175.234 66.5025 175.483C66.8369 175.607 67.1617 175.69 67.4527 175.715C67.7451 175.741 67.9895 175.708 68.175 175.616L68.3532 175.974ZM64.4101 174.737C58.9161 170.223 53.5453 165.517 48.128 160.897L48.3876 160.593C53.8105 165.218 59.1737 169.917 64.664 174.428L64.4101 174.737ZM48.128 160.897C46.7111 159.689 45.261 158.535 43.8196 157.351L44.0735 157.042C45.5082 158.221 46.9672 159.381 48.3876 160.593L48.128 160.897ZM43.8935 157.004C45.9258 156.444 47.6044 156.747 49.2259 156.87L49.1956 157.269C47.5321 157.143 45.9465 156.853 43.9996 157.389L43.8935 157.004ZM49.2259 156.87C55.2102 157.325 61.1709 158.4 67.0604 157.971L67.0894 158.37C61.1612 158.801 55.1233 157.72 49.1956 157.269L49.2259 156.87ZM67.0604 157.971C71.2179 157.668 75.3208 157.062 79.4844 156.673C83.634 156.285 87.8083 156.118 92.0374 156.706L91.9824 157.102C87.7979 156.52 83.6589 156.684 79.5216 157.071C75.3983 157.456 71.2404 158.068 67.0894 158.37L67.0604 157.971ZM92.0374 156.706C93.7517 156.944 95.4939 156.964 97.2518 156.924C99.0027 156.884 100.784 156.784 102.543 156.784V157.184C100.787 157.184 99.0329 157.284 97.2609 157.324C95.4959 157.364 93.7285 157.345 91.9824 157.102L92.0374 156.706ZM31.3599 133.458C46.4108 140.379 61.2235 147.19 76.0361 154.002L75.869 154.365C61.0564 147.554 46.2437 140.742 31.1927 133.821L31.3599 133.458ZM76.1507 154.21C76.0949 154.62 76.0391 155.03 75.9832 155.44L75.5869 155.386C75.6427 154.976 75.6986 154.566 75.7544 154.156L76.1507 154.21ZM75.8102 155.611C73.9513 155.847 72.0979 156.247 70.216 156.554C68.3447 156.859 66.4657 157.066 64.6072 156.902L64.6424 156.504C66.4507 156.663 68.2904 156.462 70.1517 156.159C72.0024 155.858 73.8958 155.451 75.7599 155.215L75.8102 155.611ZM64.6072 156.902C53.5356 155.923 42.4999 154.421 31.4758 152.941L31.5291 152.545C42.5553 154.025 53.5815 155.526 64.6424 156.504L64.6072 156.902ZM31.4758 152.941C31.2365 152.909 30.9948 152.752 30.7805 152.558C30.5604 152.359 30.3437 152.097 30.1546 151.815C29.9652 151.533 29.7996 151.223 29.6844 150.925C29.5705 150.631 29.4995 150.33 29.5164 150.071L29.9155 150.097C29.904 150.273 29.953 150.511 30.0575 150.781C30.1606 151.048 30.3116 151.331 30.4869 151.592C30.6624 151.854 30.8585 152.089 31.049 152.261C31.2454 152.439 31.4121 152.529 31.5291 152.545L31.4758 152.941ZM29.5164 150.071C29.8696 144.665 30.5071 139.28 31.0773 133.62L31.4753 133.66C30.9041 139.33 30.2682 144.701 29.9155 150.097L29.5164 150.071ZM97.9044 203.447C102.2 197.82 106.099 192.711 110.039 187.548L110.357 187.791C106.417 192.953 102.517 198.062 98.2224 203.69L97.9044 203.447ZM110.372 187.57C112.183 190.749 112.817 195.3 112.409 199.842C112.001 204.385 110.547 208.954 108.143 212.172L107.822 211.933C110.17 208.79 111.607 204.298 112.011 199.806C112.415 195.312 111.781 190.852 110.025 187.768L110.372 187.57ZM107.852 212.205C104.609 209.431 101.352 206.645 97.9334 203.72L98.1934 203.416C101.612 206.341 104.869 209.127 108.112 211.901L107.852 212.205Z" fill="white" mask="url(#path-1-inside-1_445_6284)"/>
</svg>
