<svg width="85" height="85" viewBox="0 0 85 85" fill="none" xmlns="http://www.w3.org/2000/svg">
<g clip-path="url(#clip0_445_6394)">
<path d="M42.5715 78.6178C42.559 78.8017 42.5438 78.9146 42.5449 79.0274C42.551 79.6649 42.2812 80.16 41.6932 80.393C40.6721 80.7977 39.6294 81.1476 38.5958 81.5206C38.5604 81.4676 38.525 81.4147 38.4896 81.3618C38.5915 81.2711 38.6787 81.1381 38.7978 81.0965C39.5999 80.8159 40.4104 80.5597 41.2149 80.2859C42.1281 79.9752 42.6057 79.1382 42.1848 78.2888C41.9236 77.762 41.383 77.3515 40.9099 76.9586C40.5058 76.6225 39.9873 76.456 39.4632 76.494C39.0451 76.5201 38.7824 76.7687 38.7346 77.1847C38.658 77.8514 38.8386 78.4111 39.3465 78.8758C39.7035 79.2025 40.0176 79.5761 40.3606 79.9392C39.8854 80.2513 38.9729 80.017 38.6182 79.4239C38.3016 78.8946 38.159 78.2611 37.9233 77.6296L34.6057 80.8414C35.3194 81.0482 36.0726 81.2664 36.9441 81.5189C36.7254 81.5939 36.6012 81.6853 36.5047 81.6619C35.6886 81.464 34.8774 81.2458 34.0655 81.0307C34.0302 81.0214 34.0023 80.9841 33.8976 80.903C34.3675 80.5319 34.8072 80.1846 35.2468 79.8372C35.2337 79.8181 35.2205 79.7989 35.2073 79.7798C34.7177 79.9942 34.2363 80.2301 33.7369 80.4185C32.7201 80.8022 31.7192 81.2916 30.665 81.4974C29.1561 81.792 27.6541 81.5749 26.2991 80.7579C25.5853 80.3275 25.1343 79.7201 25.1564 78.8421C25.1518 78.7484 25.1662 78.6548 25.1987 78.5669C25.2559 78.4718 25.3232 78.3831 25.3995 78.3024C25.4604 78.3948 25.5634 78.4821 25.5753 78.5804C25.6459 79.155 25.9385 79.6791 26.3905 80.0408C26.843 80.4121 27.3842 80.6593 27.9611 80.7582C29.5344 81.0628 31.0957 80.8973 32.5973 80.4473C33.2797 80.2428 33.8983 79.7336 34.47 79.2692C36.0938 77.9506 37.4618 76.3747 38.8116 74.7855C38.8477 74.7304 38.8774 74.6714 38.9002 74.6096C38.4844 74.6525 38.0966 74.7255 37.7086 74.726C36.808 74.7271 36.0949 74.1977 35.8075 73.359C35.5991 72.751 35.9249 71.9003 36.5542 71.3847C37.3465 70.7354 37.9951 70.9054 38.895 71.7071C39.3906 72.1486 39.7092 72.7156 39.8592 73.4576C40.2425 73.0364 40.5847 72.6604 40.927 72.2844C40.9639 72.3087 41.0009 72.333 41.0379 72.3573C41.1255 73.0159 40.6628 73.526 40.4766 74.1975C41.125 73.4178 41.5771 72.629 41.7414 71.6991C41.8285 71.2057 41.6948 70.7426 41.4601 70.311C41.3171 70.0479 41.1438 69.8478 40.7778 69.8688C40.6157 69.878 40.3405 69.7335 40.2919 69.5966C40.0569 68.9348 39.4584 68.9229 38.9388 68.7801C38.6846 68.7103 38.3698 68.6235 38.1568 68.7159C37.9837 68.7909 37.917 69.1195 37.8108 69.3393C37.3166 70.3618 36.4806 71.0574 35.5208 71.5812C33.3878 72.7451 31.4385 74.1814 29.4537 75.5664C28.0609 76.5383 26.6269 77.4506 25.0332 78.042C23.3642 78.6614 21.6624 78.6876 19.993 77.9662C19.5539 77.7764 19.1091 77.5979 18.6806 77.3863C18.568 77.3306 18.5067 77.1708 18.4219 77.0589C18.455 77.0329 18.4881 77.0069 18.5212 76.981C19.1104 77.243 19.6901 77.5296 20.2908 77.762C21.57 78.2571 22.8782 78.3536 24.2123 77.9809C26.2174 77.4207 27.9022 76.2594 29.5832 75.1024C31.4797 73.7972 33.3313 72.4294 35.3647 71.3299C36.2022 70.877 36.9395 70.2611 37.4319 69.4129C38.048 68.3515 37.8251 67.3358 37.1415 66.4263C36.4277 65.4766 35.5079 64.8717 34.2261 65.1617C33.6436 65.2877 33.0984 65.5477 32.634 65.9212C32.5895 65.9572 32.5801 66.0366 32.5411 66.1265C33.2675 66.2675 33.9766 66.3908 34.6787 66.5459C35.2737 66.6774 35.8798 66.7951 36.4466 67.0095C37.3127 67.3372 37.4063 68.2313 37.0772 68.8443C36.4191 70.07 35.3883 70.8771 33.9772 71.0034C32.9324 71.0969 32.0697 70.4429 31.6457 69.3005C31.2808 68.3174 31.3684 67.3638 31.8813 66.3804C30.9291 66.3414 30.13 66.6308 29.3174 67.0369C29.268 66.9471 29.2297 66.8516 29.2033 66.7526C29.1941 66.6239 29.195 66.4947 29.2058 66.3662C29.3114 66.4141 29.4132 66.4881 29.5233 66.5037C29.6818 66.5262 29.8792 66.5641 30.0027 66.4943C30.5721 66.1725 31.184 66.099 31.819 66.089C31.9589 66.092 32.0953 66.045 32.2036 65.9563C32.7081 65.4247 33.3218 65.0867 34.1145 64.866C33.1573 64.7473 32.3755 65.0334 31.5942 65.322C31.5647 65.2922 31.5352 65.2623 31.5057 65.2325C31.5971 65.1263 31.6685 64.9629 31.7831 64.9229C32.8471 64.5511 33.9361 64.4062 35.047 64.6835C36.4077 65.0232 37.5274 65.6791 38.0258 67.086C38.1406 67.4101 38.185 67.7586 38.2865 68.0882C38.3247 68.2124 38.4138 68.3897 38.5124 68.4149C39.0117 68.5424 39.5216 68.6278 39.9976 68.722C40.7182 67.2025 40.551 65.5532 40.5845 63.9325C40.6152 62.4498 40.3193 61.0074 39.8713 59.6019C39.3502 57.9671 38.3347 56.647 37.127 55.4596C36.0919 54.4419 34.8339 53.7605 33.5601 53.1093C30.676 51.6452 28.0015 49.8004 25.6083 47.6245C24.8076 46.8942 23.9852 46.1809 23.1177 45.5336C22.7153 45.2334 22.1869 45.0946 21.7048 44.9112C21.3706 44.7841 21.0137 44.7175 20.6758 44.5989C20.5681 44.5611 20.4888 44.4428 20.3965 44.3614C20.4992 44.2905 20.5926 44.1861 20.7063 44.1542C21.4617 43.9428 22.174 44.1351 22.8104 44.5176C24.0916 45.2876 25.3548 46.0871 26.6002 46.9162C28.2489 48.0186 29.8529 49.1883 31.5076 50.2813C32.6225 51.0178 33.8025 51.6551 34.9343 52.3671C36.3751 53.2735 37.7311 54.2831 38.7434 55.6877C39.3936 56.5899 39.7739 57.6107 40.0497 58.6693C40.3086 59.6627 40.5342 60.6671 40.7183 61.6769C40.8425 62.3581 40.8717 63.0568 40.9391 63.7481C41.057 64.9558 41.1357 66.1689 41.3029 67.3698C41.379 68.0091 41.6586 68.6071 42.1005 69.0754C42.1005 68.7804 42.1067 68.5868 42.0996 68.3937C42.0118 66.0344 42.9763 64.2369 44.9477 62.9429C45.5505 62.5473 46.1443 62.1058 46.6402 61.5876C47.2832 60.9156 47.1892 60.1531 46.4856 59.5305C46.1794 59.2595 45.8279 59.0401 45.5154 58.7756C44.2205 57.6797 44.0889 56.3298 44.7878 54.8428C45.6354 53.0396 46.9706 51.6341 48.5482 50.4548C49.7144 49.5831 50.8691 48.6826 52.1101 47.9285C53.1511 47.3001 54.2532 46.7789 55.3994 46.3729C56.7656 45.8817 58.1674 45.4963 59.5926 45.2198C60.5449 45.0387 61.327 44.512 62.2313 44.2508C63.7221 43.8201 65.2026 43.5493 66.7605 43.8094C67.7857 43.9805 68.8313 44.0282 69.8583 44.1909C70.9021 44.3562 71.9685 44.4706 72.9046 45.0418C73.0137 45.1084 73.1672 45.0977 73.2873 45.1515C73.5479 45.2682 73.7998 45.3939 73.7209 45.7677C73.7123 45.8828 73.7373 45.9979 73.7928 46.099C74.5117 47.7069 73.6972 49.7654 72.0651 50.4549C71.3169 50.771 71.0154 50.7756 69.7815 50.4901C69.4185 51.8347 69.4185 51.8347 67.6048 51.5083C67.8522 51.9684 68.0621 52.3464 68.2605 52.7303C68.6434 53.4711 68.9701 54.2463 69.4111 54.9502C69.994 55.8807 70.6972 56.7354 71.2883 57.6612C71.9853 58.7527 72.8488 59.7306 73.369 60.946C74.0285 62.4869 73.7188 63.7813 72.5413 64.8927C71.9207 65.4784 71.2305 65.9899 70.5797 66.5444C69.5783 67.3975 69.3217 68.4776 69.6559 69.7182C69.6783 69.8015 69.8541 69.9155 69.9342 69.8988C70.3003 69.8357 70.6587 69.7344 71.0036 69.5965C72.4739 68.9447 73.9819 68.5527 75.614 68.6446C76.8442 68.7176 78.0773 68.7253 79.3083 68.6678C81.075 68.5794 82.6743 67.9837 84.021 66.8034C84.2185 66.6304 84.3556 66.3883 84.5333 66.162C84.2697 66.0437 84.0881 65.971 83.9146 65.8823C83.6575 65.7509 83.4651 65.5571 83.5728 65.2475C83.6548 65.012 83.831 64.8296 84.1175 64.8815C84.4451 64.9409 84.7235 65.0694 84.7975 65.451C84.8309 65.6229 84.9066 65.7866 84.9994 66.0614C84.7645 66.3458 84.4881 66.7941 84.107 67.1198C83.1298 67.955 82.0042 68.5617 80.7294 68.7659C79.8006 68.9147 78.8472 68.9336 77.9033 68.9597C76.5136 68.9982 75.1151 68.9098 73.735 69.036C72.9619 69.1067 72.2186 69.5017 71.4614 69.7492C70.8968 69.9337 70.3315 70.1161 69.694 70.3229C69.6636 71.5882 69.3973 72.883 68.5358 73.9756C67.6953 75.0414 66.6202 75.7596 65.2581 76.0547C65.5082 77.0826 65.029 77.8394 64.3967 78.5457C64.0637 78.9176 63.7921 79.3612 63.4083 79.666C63.0591 79.9435 62.6116 80.1282 62.1792 80.264C61.1728 80.5801 60.1447 80.4715 59.1214 80.3175C57.8719 80.1357 56.6449 79.8236 55.4604 79.3864C55.3881 79.3594 55.3109 79.3457 55.2078 79.3184C55.253 79.8223 55.0517 80.2613 55.1351 80.7752C55.2486 81.4744 54.7246 82.0042 54.1998 82.387C53.4271 82.9508 52.6946 83.6451 51.6899 83.7662C50.98 83.8518 50.243 83.9305 49.5429 83.8335C47.9739 83.6161 46.7005 82.773 45.6011 81.6686C44.9397 81.0042 44.6439 80.2044 44.9197 79.1466C43.88 80.0245 43.2956 79.2293 42.5715 78.6178ZM59.163 46.2849C59.0116 46.2847 58.8603 46.294 58.7101 46.3126C57.8875 46.4677 57.0595 46.6022 56.247 46.8C55.5411 46.9718 54.83 47.163 54.1638 47.4461C53.387 47.7763 52.6442 48.1938 51.9097 48.6138C51.2341 49 50.5456 49.3851 49.9398 49.8673C48.6022 50.9319 47.6665 52.336 46.8749 53.8285C46.3351 54.8463 45.8531 55.9279 46.1169 57.1093C46.2756 57.8198 46.6112 58.5034 46.9449 59.1596C47.6464 60.5391 47.7899 61.8591 46.8786 63.2264C46.314 64.0734 45.8454 64.9898 45.392 65.904C45.0213 66.6515 44.7776 67.4624 44.4008 68.2063C44.1162 68.768 43.7432 69.3106 43.0738 69.4974C42.5242 69.6508 42.5205 69.6369 42.6648 70.1901C42.6816 70.2547 42.6937 70.3204 42.7081 70.3856C43.1491 72.3735 44.2028 73.9719 45.7278 75.1993C46.0852 74.9727 46.3906 74.7 46.7478 74.5745C47.1209 74.4433 47.5437 74.4538 47.9873 74.3969C46.7562 73.3203 45.7933 72.1217 46.6858 70.4182C47.5297 68.8076 48.9217 68.2345 50.7676 68.6326C50.6338 68.474 50.5371 68.3705 50.4528 68.2577C49.9797 67.6248 49.3789 67.0349 49.7198 66.1209C49.7339 66.0686 49.7321 66.0132 49.7145 65.962C49.4899 65.1977 49.6842 64.4754 49.9726 63.7801C50.5657 62.3496 51.8177 61.3863 53.5155 61.7734C54.0243 61.8895 54.5174 62.0749 55.0867 62.2497C54.6629 61.4718 54.6631 60.6741 54.7971 59.8818C54.9707 58.8554 55.3836 57.9504 56.3103 57.3652C57.6812 56.4994 59.1854 56.6293 60.6929 56.7732C61.636 56.8631 62.5793 57.0091 63.5235 57.0169C64.8202 57.0276 66.1174 56.9092 67.4151 56.889C68.2064 56.8767 68.999 56.9449 69.8092 56.9777C69.7661 56.8979 69.6861 56.7677 69.6227 56.6298C69.3122 55.955 68.947 55.2976 68.7149 54.5964C68.4751 53.8722 68.2036 53.1769 67.7799 52.5436C67.1848 51.6542 66.44 50.9936 65.2835 51.1892C64.726 51.2835 64.1897 51.516 63.6537 51.713C63.5679 51.7445 63.4884 51.9169 63.4848 52.0267C63.4699 52.4882 63.1868 52.7039 62.8065 52.8687C62.049 53.1972 61.404 52.9311 60.7984 52.4964C60.5527 52.32 60.3697 52.0497 60.1142 51.8946C59.1192 51.2906 58.4783 50.4049 58.0272 49.3619C57.9706 49.2311 57.9897 49.0675 57.9738 48.919C58.1154 48.9845 58.3036 49.0126 58.3912 49.1215C58.8885 49.7398 59.4115 50.3463 59.8317 51.0158C60.473 52.0375 61.3562 51.9781 62.2832 51.8103C62.3047 51.8064 62.3168 51.7507 62.3338 51.7181C61.3697 51.3295 60.2343 50.5777 59.732 49.7388C59.1574 48.7791 58.617 47.7509 59.116 46.5543C59.1406 46.4663 59.1563 46.376 59.163 46.2849ZM58.5084 63.6886C58.5694 63.7072 58.6843 63.7359 58.7944 63.777C59.9333 64.2021 61.0489 64.7099 62.2153 65.0356C63.7213 65.4587 65.2819 65.6552 66.8457 65.6185C66.9659 65.6187 67.0852 65.5994 67.1992 65.5613C67.7668 65.3515 68.3241 65.1116 68.8973 64.9188C69.9109 64.5777 70.7471 63.9913 71.3591 63.1224C71.6207 62.751 71.971 62.4106 71.8606 61.8426C71.6069 60.5371 71.1368 59.3253 70.5398 58.1404C70.2218 57.5094 69.7275 57.2462 69.1207 57.2314C67.6631 57.196 66.1945 57.1396 64.7475 57.2752C63.2706 57.4135 61.8421 57.1629 60.3929 57.0563C59.6621 57.0026 58.9195 56.9344 58.1958 57.0073C57.5001 57.0774 56.7895 57.2802 56.2482 57.7643C55.1846 58.7156 54.9013 59.9658 55.0818 61.3227C55.1515 61.8471 55.3893 62.35 55.9776 62.5429C55.9977 62.5474 56.0183 62.5493 56.0389 62.5488C56.0861 62.4546 56.1313 62.3644 56.1793 62.2684C56.3071 62.3313 56.4087 62.3814 56.5351 62.4436C56.5924 62.3017 56.6419 62.1568 56.6833 62.0095C56.8536 61.2415 56.9936 60.4659 57.1907 59.705C57.3035 59.2693 57.5269 58.8634 57.6616 58.432C57.9367 57.5502 58.3879 57.3234 59.2536 57.7369C59.89 58.0409 60.4575 58.5591 60.9467 59.0836C61.5842 59.7671 61.5933 60.5735 61.0686 61.3575C60.4074 62.3455 59.412 62.804 58.2759 62.9918C57.9706 63.0422 57.6553 63.0319 57.3446 63.0494L57.3232 63.1204C57.6085 63.2709 57.8938 63.4215 58.1791 63.572C58.1682 63.6161 58.1572 63.6602 58.1463 63.7043C57.8664 63.6907 57.5553 63.752 57.312 63.6506C56.3105 63.2329 55.3431 62.7323 54.3373 62.3262C53.3342 61.9212 52.3244 61.7612 51.3418 62.4707C50.4903 63.0857 49.8013 64.6029 50.0158 65.5947C50.0976 65.4847 50.1642 65.392 50.2339 65.3017C50.8829 64.4617 51.5392 63.631 52.4483 63.0435C53.4412 62.4018 54.2571 62.5024 54.9238 63.3917C55.7333 64.4713 55.9867 65.6549 55.5564 66.9631C55.4995 67.1539 55.3991 67.3289 55.2632 67.4744C55.1273 67.6198 54.9595 67.7318 54.773 67.8016C53.6929 68.2268 52.6779 68.0474 51.7747 67.3561C51.4211 67.0855 51.16 66.6939 50.8584 66.3592C50.6345 66.8033 50.6345 66.8033 49.9692 66.5395C49.9611 66.6208 49.9481 66.6969 49.9476 66.7732C49.9404 66.8401 49.9485 66.9078 49.9711 66.9712C50.3687 67.7512 50.88 68.4517 51.6421 68.8969C52.188 69.2158 52.8155 69.3927 53.3703 69.6988C54.5253 70.336 55.6889 70.9675 56.7869 71.695C57.6768 72.2847 58.4719 73.0167 59.3175 73.6748C59.7109 73.981 60.3573 73.9811 60.65 73.5846C61.0063 73.1018 61.2534 72.5364 61.5303 71.9977C61.784 71.5043 61.9684 70.9692 62.2674 70.507C62.5904 70.0075 63.129 70.0673 63.4718 70.5618C63.7458 70.9571 63.7348 71.3735 63.5681 71.7859C63.349 72.3279 63.0828 72.8506 62.8553 73.3894C62.6469 73.8828 62.395 74.3734 62.5367 74.9957C62.6668 74.9068 62.763 74.8472 62.8527 74.7789C63.7166 74.1215 63.8576 74.15 64.4269 75.1024C64.488 75.2046 64.5409 75.3125 64.6111 75.4078C64.6524 75.4579 64.6995 75.5029 64.7514 75.5418C64.9898 75.3513 65.1709 75.1589 65.3919 75.0423C65.664 74.9016 65.9522 74.7945 66.2501 74.7233C67.6498 74.3795 68.6616 73.6117 69.1167 72.1963C69.7438 70.2456 68.5678 68.5869 66.7567 68.2988C65.9537 68.171 65.1364 68.1284 64.3241 68.0668C63.5684 68.0096 62.8573 67.796 62.2412 67.3724C61.5448 66.8937 60.8929 66.349 60.2318 65.8203C59.5047 65.2388 58.7892 64.6429 58.0964 64.0759C58.2251 63.9549 58.3486 63.8388 58.5084 63.6886ZM48.1151 73.9632C48.0934 73.9945 48.0718 74.0258 48.0502 74.0571C48.3401 74.2829 48.6126 74.5368 48.9232 74.7294C50.0582 75.4336 51.1855 76.1543 52.3543 76.7987C53.5921 77.481 54.6464 78.4523 55.9692 79.0015C57.0141 79.4354 58.0322 79.9137 59.1995 79.9118C60.4259 79.9098 61.6368 79.7508 62.7553 79.268C64.0132 78.725 64.2728 78.5236 64.1999 76.9966C64.1713 76.397 63.9126 75.9348 63.3773 75.6793C62.949 75.4748 62.4849 75.3453 62.0375 75.1804C60.9111 74.7654 59.7319 74.4526 58.6714 73.9089C57.1133 73.11 55.626 72.1685 54.1362 71.2432C53.2891 70.7171 52.4972 70.1024 51.6907 69.5349C51.5451 69.7212 51.3923 69.9167 51.2153 70.1433C51.3373 70.2369 51.4572 70.3345 51.5826 70.4243C52.3834 70.9973 52.7446 71.9941 52.4838 72.8861C52.206 73.8363 51.3334 74.3784 50.4025 74.4736C49.5942 74.5563 48.8124 74.4579 48.1151 73.9632ZM45.2366 78.9885C45.2205 79.1757 45.1361 79.3915 45.2006 79.5448C45.442 80.1187 45.6522 80.7319 46.0192 81.2217C47.032 82.5739 48.4656 83.3027 50.1126 83.4598C51.668 83.6081 53.1165 83.2096 53.968 81.7461C54.922 80.1064 54.9418 80.3586 53.6901 79.2964C52.7225 78.4752 51.7336 77.679 50.77 76.8532C50.1093 76.2871 49.5129 75.6401 48.8209 75.118C47.8809 74.4089 46.5629 74.6132 45.9433 75.5259C45.4046 76.3193 45.3357 77.255 45.2238 78.2728C45.3909 78.1395 45.4844 78.0559 45.5867 77.985C46.0195 77.6851 46.4314 77.3441 46.8944 77.1008C47.8014 76.6242 48.8939 77.0266 49.1785 77.979C49.4606 78.923 49.1759 79.6362 48.0716 80.0243C47.0549 80.3816 46.0139 80.1491 45.2366 78.9885ZM69.3132 44.4609C68.3624 44.4609 67.4516 44.3881 66.5572 44.478C65.2183 44.6124 63.8912 44.8633 62.5585 45.0604C61.9507 45.1503 61.3405 45.2249 60.733 45.3166C60.4232 45.3633 59.8562 45.8329 59.8333 46.0213C59.7784 46.4727 59.7508 46.9328 59.6393 47.3708C59.4608 48.0717 59.5147 48.6795 60.1146 49.1622C60.3304 49.3359 60.5204 49.5446 60.7473 49.701C61.4541 50.1884 62.1994 50.6244 62.8764 51.1491C63.2351 51.4271 63.5135 51.4122 63.8905 51.2532C64.559 50.9713 65.2169 50.5897 65.9813 50.6984C66.4245 50.7614 66.8561 50.9064 67.2933 51.013C67.3665 51.0308 67.461 51.0766 67.5129 51.0487C68.0122 50.7801 68.5044 50.4985 69.0306 50.2026C68.7479 50.1062 68.4411 50.0044 68.1361 49.897C67.2266 49.5769 66.5985 49.2331 66.5591 47.9461C66.5275 46.9151 66.4101 45.9004 66.7601 44.8934C66.8808 44.5462 67.0179 44.4629 67.3269 44.6324C67.4187 44.6827 67.5145 44.7254 67.6067 44.7749C68.0558 45.0156 68.5261 45.1628 69.0296 45.1286C69.1226 44.9097 69.2049 44.7158 69.3132 44.4609ZM67.849 45.3064L67.8065 45.4046C67.0086 45.3651 66.8372 45.5401 66.9664 46.3338C67.1982 47.7583 67.9601 48.8652 69.0959 49.7185C69.3591 49.9163 69.7074 50.153 69.9984 50.1311C70.6711 50.0795 71.3349 49.9453 71.9748 49.7316C73.6439 49.1726 73.8509 47.8583 73.4865 46.3817C73.4137 46.0868 73.2708 46.0523 73.0336 46.2443C72.6636 46.5437 72.2286 46.6142 71.7577 46.6149C70.9049 46.6162 70.1548 46.2798 69.3948 45.9661C68.877 45.7523 68.3641 45.5267 67.849 45.3064ZM41.5127 69.7971C41.5321 69.8617 41.5572 69.9245 41.5878 69.9847C42.1202 70.7481 42.1479 71.5764 41.8677 72.4249C41.5336 73.4364 40.8623 74.2518 40.2349 75.0864C40.0243 75.3666 40.0164 75.6409 40.1815 75.8965C40.3187 76.1089 40.5317 76.2802 40.7336 76.4415C41.2257 76.8347 41.7626 77.1775 42.221 77.6054C42.6033 77.9624 42.8588 78.4556 43.2426 78.8103C44.013 79.5221 44.4725 79.3894 44.8449 78.4113C44.8682 78.3354 44.8863 78.258 44.8988 78.1796C45.106 77.2661 45.3132 76.3525 45.531 75.392C45.2699 75.2095 44.8959 74.9991 44.584 74.7193C43.9769 74.1746 43.345 73.6394 42.8345 73.0101C42.3195 72.3751 42.1646 71.5767 42.2027 70.7446C42.2309 70.1288 42.0706 69.929 41.5127 69.7971ZM31.7146 67.9945C31.7873 68.4566 31.8051 68.7814 31.8926 69.0862C32.1618 70.0245 32.8794 70.7204 33.9243 70.7234C34.8163 70.726 36.5298 69.6139 36.8902 68.5762C37.0035 68.2498 36.986 67.9266 36.7523 67.6298C36.469 67.2699 36.0794 67.1161 35.6582 67.0313C34.6135 66.8209 33.567 66.6179 32.5167 66.4384C32.3945 66.4175 32.1588 66.532 32.1209 66.6364C31.9461 67.1179 31.8227 67.6182 31.7146 67.9945ZM68.6116 68.7932C68.6271 67.9769 68.9761 67.3553 69.5439 66.7905C68.956 66.8181 68.4517 66.8603 67.9474 66.8601C67.4854 66.8599 67.1043 66.6667 66.9699 66.1952C66.8918 65.9211 66.738 65.9057 66.5034 65.8897C65.5994 65.8277 64.6965 65.7504 63.7947 65.6578C62.3837 65.5103 61.0704 65.0155 59.7655 64.4934C59.489 64.3827 59.1988 64.3062 58.9149 64.214C59.5923 64.8849 60.2991 65.4758 60.9887 66.0862C61.7577 66.767 62.5618 67.3908 63.593 67.6037C64.1362 67.7158 64.6965 67.7414 65.246 67.826C66.0319 67.947 66.8237 68.0498 67.5952 68.2345C67.9373 68.3164 68.2359 68.5796 68.6116 68.7932ZM57.8907 62.7355C58.7663 62.7042 59.6879 62.3316 60.4689 61.6497C61.1767 61.0318 61.3031 60.185 60.8167 59.418C60.3855 58.7381 59.7575 58.264 59.0281 57.944C58.4807 57.7038 58.1305 57.8718 57.9583 58.449C57.6238 59.5709 57.3003 60.6967 57.0061 61.8297C56.7942 62.6463 56.8841 62.7352 57.8907 62.7355ZM39.4147 57.6831C39.1171 56.7859 38.6416 55.9578 38.0168 55.2484C36.7648 53.81 35.166 52.8282 33.5495 51.8702C32.0152 50.9609 30.4891 50.0504 29.0425 48.9907C27.0899 47.5603 25.0383 46.2631 23.0063 44.9439C22.4699 44.5956 21.8661 44.3221 21.1785 44.3893C21.328 44.4675 21.4837 44.5333 21.644 44.5861C22.0539 44.7343 22.5133 44.8095 22.8634 45.0464C23.6273 45.5631 24.3869 46.1075 25.0577 46.7371C27.7797 49.3004 30.8659 51.4469 34.2161 53.107C35.4512 53.7194 36.6158 54.4598 37.5582 55.4831C38.2096 56.1903 38.8016 56.9521 39.4147 57.6831ZM42.5309 69.3403C42.7892 69.2514 43.043 69.2134 43.2406 69.0874C43.9996 68.6033 44.3138 67.8012 44.6559 67.0227C45.0447 66.1376 45.4112 65.2412 45.8392 64.3754C46.1671 63.7122 46.5931 63.0981 46.9397 62.4433C47.0824 62.1737 47.1312 61.8545 47.2228 61.5578C47.187 61.5492 47.1511 61.5405 47.1153 61.5319C46.7018 62.1698 46.0658 62.5441 45.4428 62.9301C43.0567 64.4085 42.0801 66.4984 42.5309 69.3403ZM49.8702 74.2773C50.2113 74.2032 50.4547 74.1382 50.7022 74.0986C51.6471 73.9475 52.1545 73.2397 52.2509 72.3793C52.3375 71.6057 51.7642 70.6965 51.0148 70.4069C50.9037 70.3697 50.7826 70.3769 50.6767 70.4269C49.9244 70.8349 49.1434 71.205 48.4435 71.6908C47.739 72.1798 47.3575 73.2647 48.55 73.855C48.9797 74.0677 49.4721 74.1538 49.8702 74.2773ZM50.916 66.0735C51.0824 66.117 51.2457 66.1711 51.4051 66.2355C51.8686 66.4628 52.3218 66.711 52.7863 66.936C53.5301 67.2962 54.2662 67.3349 54.9637 66.8209C55.2012 66.6459 55.368 66.4109 55.2713 66.099C55.071 65.4531 54.9245 64.776 54.6229 64.1791C54.0503 63.0458 52.9508 62.8966 52.0254 63.7685C51.362 64.3936 51.2144 65.2702 50.916 66.0735ZM37.9368 74.4727C38.1145 74.4263 38.3991 74.3637 38.6764 74.2773C39.4499 74.0364 39.6441 73.6466 39.3655 72.8922C39.316 72.7267 39.2325 72.5733 39.1201 72.442C38.7673 72.0918 38.4355 71.6823 38.0112 71.4499C37.0641 70.9312 36.184 71.9732 36.0795 72.7472C35.9388 73.79 36.7623 74.3828 37.9368 74.4727ZM47.7753 73.7205C47.3528 72.989 47.4288 72.2868 47.9817 71.7036C48.3 71.3678 48.7428 71.1414 49.1506 70.9016C49.6232 70.6236 50.1189 70.3848 50.6391 70.1108C50.2784 69.7267 50.0439 69.3801 50.4327 68.9631C49.6648 68.4746 47.8471 69.0341 47.1364 70.2138C46.4458 71.36 46.4237 72.5337 47.7753 73.7205ZM47.4873 77.2145C46.8993 77.2456 46.3511 77.7017 45.8287 78.1992C45.4605 78.5498 45.4708 78.6808 45.7722 79.1088C46.3388 79.9135 47.4762 80.0853 48.2924 79.5974C48.8387 79.2708 49.1046 78.7817 48.9689 78.2514C48.8129 77.6413 48.2791 77.2143 47.4873 77.2145ZM46.4942 59.0924C46.3693 58.8165 46.2931 58.6259 46.1991 58.4446C45.6784 57.4404 45.5743 56.3695 45.9759 55.3394C46.3927 54.2701 46.9659 53.2604 47.4949 52.237C47.6768 51.885 47.9313 51.5704 48.1527 51.2386C46.9307 52.1778 45.9204 53.2873 45.2253 54.6537C44.8846 55.3233 44.6287 56.0289 44.7151 56.7996C44.8356 57.8745 45.5391 58.5166 46.4942 59.0924ZM60.3108 74.1918L60.299 74.3373C60.9025 74.5192 61.506 74.701 62.1143 74.8843C62.2289 74.4206 62.2833 74.0349 62.421 73.6815C62.6273 73.1519 62.9102 72.6525 63.1264 72.1262C63.3058 71.6893 63.5464 71.2418 63.2406 70.7564C63.0063 70.3846 62.7044 70.3654 62.4715 70.7398C62.2981 71.0374 62.1431 71.3454 62.0074 71.6619C61.576 72.5944 61.3724 73.6761 60.3108 74.1918ZM71.8482 63.3193C71.7648 63.3896 71.6906 63.4257 71.6561 63.485C70.7615 65.0231 69.3438 65.6757 67.6491 65.8716C67.5094 65.8878 67.3773 65.9692 67.2416 66.0203C67.3368 66.1553 67.4133 66.311 67.5331 66.4186C67.6316 66.5065 67.7581 66.5566 67.8901 66.5599C68.3681 66.539 68.8533 66.5298 69.3194 66.4353C69.7351 66.351 70.1627 66.3074 70.5156 65.9613C71.2568 65.2342 71.6659 64.3653 71.8482 63.3193ZM73.236 45.778C72.9966 45.6009 72.8261 45.3887 72.6144 45.333C71.7269 45.0995 70.8317 44.8965 69.9289 44.7242C69.7784 44.6952 69.5897 44.8653 69.4186 44.9435C69.4941 45.1079 69.526 45.3531 69.6532 45.4218C70.0691 45.6466 70.5049 45.8704 70.9605 45.9779C71.6858 46.1491 72.431 46.1989 73.236 45.778ZM71.4679 65.4085C71.5428 65.3632 71.6137 65.3116 71.6798 65.2542C72.265 64.6567 72.5292 63.9128 72.6117 63.1023C72.7538 61.7053 72.3778 60.4032 71.8103 59.1504C71.532 58.5358 71.2404 58.2487 70.8415 58.0659C72.0318 60.4282 72.8558 62.8057 71.4679 65.4085ZM52.3217 69.4895C52.8345 70.1718 57.7977 73.3323 58.4439 73.4399C56.7021 71.7293 54.5493 70.6532 52.3217 69.4895ZM38.3694 76.8285C38.8164 76.308 39.3382 75.8305 39.6923 75.2507C40.0351 74.6893 40.2054 74.0227 40.4514 73.4022L40.3449 73.3463C39.5282 74.3502 38.7115 75.3541 37.9368 76.3063C38.0779 76.4766 38.1999 76.6239 38.3694 76.8285ZM40.8655 66.8764C40.6904 67.4941 40.5323 68.0277 40.3918 68.566C40.3611 68.6835 40.34 68.8709 40.4047 68.9353C40.9028 69.4302 41.5522 69.5463 42.2441 69.6018C41.2828 68.9763 41.1075 67.9591 40.8655 66.8764ZM64.6248 77.7708C64.6436 77.7373 64.6607 77.7026 64.6817 77.6704C65.1834 76.8979 65.1347 76.3995 64.52 75.7667C64.3842 75.6269 64.3049 75.434 64.1861 75.2757C64.0004 75.0285 63.8031 74.7899 63.5929 74.5253C63.3487 74.7491 63.1562 74.9255 62.9301 75.1328C64.2692 75.57 64.6332 76.5362 64.6248 77.7708ZM66.7415 44.1457C64.8823 43.7762 63.252 44.2068 61.6462 44.8003C61.6512 44.8339 61.6562 44.8675 61.6613 44.9011C63.3157 44.6551 64.9702 44.4091 66.7415 44.1457ZM72.5434 60.1227C72.9816 61.9339 73.0123 63.0462 72.6718 64.1905C73.7317 63.449 73.6389 61.504 72.5434 60.1227ZM34.4489 79.768C35.9612 79.1959 36.9723 78.1113 37.6558 76.6413C36.5736 77.6964 35.5135 78.73 34.4489 79.768ZM68.315 49.5905C67.84 48.903 67.3446 48.1861 66.853 47.4745C66.7962 48.801 67.3905 49.6246 68.315 49.5905ZM61.041 52.227C61.3676 52.6472 62.1718 52.8175 62.7512 52.5406C62.9768 52.4327 63.2892 52.3234 63.1885 51.9833C62.4576 52.0662 61.7539 52.1461 61.041 52.227ZM51.4967 66.5588C51.9963 67.6667 54.4097 68.1923 55.11 67.1061C53.7473 67.9726 52.6687 67.2363 51.4967 66.5588ZM67.834 51.1329L67.8477 51.2749C68.2081 51.3204 68.568 51.3975 68.929 51.4025C69.2745 51.4072 69.4056 51.1424 69.3998 50.835C69.3983 50.7587 69.2405 50.6125 69.1716 50.622C68.6889 50.6887 68.2093 50.7847 67.834 51.1329ZM56.4721 46.2529C56.4778 46.2949 56.4834 46.3369 56.4891 46.3789C56.6442 46.3568 56.7996 46.336 56.9545 46.3123C57.5987 46.2136 58.2401 46.0726 58.888 46.0302C59.2786 46.0046 59.5706 45.9242 59.8081 45.4435C58.6403 45.7268 57.5562 45.9898 56.4721 46.2529ZM52.8471 78.2202C53.5387 78.7868 54.1824 79.3142 54.8397 79.8527C54.9833 79.5672 54.9478 79.2484 54.7045 79.1098C54.1263 78.7803 53.5041 78.5282 52.8471 78.2202ZM60.1123 49.6644C60.8173 50.4401 61.5322 51.2159 62.6538 51.3801C61.8066 50.8083 60.9595 50.2364 60.1123 49.6644ZM65.1666 75.6605C66.02 75.6932 66.6385 75.1921 67.2777 74.7361C66.5606 75.0122 65.7304 75.0212 65.1666 75.6605ZM50.752 76.301L50.7153 76.3355C51.1052 76.7558 51.495 77.1761 51.9039 77.617C52.1374 77.1481 52.4561 77.5153 52.7883 77.4083C52.0648 77.0149 51.4084 76.6579 50.752 76.301ZM69.3393 67.6047C68.8432 67.928 68.7619 69.2008 69.2322 69.5765C69.2675 68.9274 69.3048 68.2389 69.3393 67.6047ZM43.6179 73.4578C43.2578 72.7104 42.8914 71.9499 42.514 71.1669C42.4632 71.8952 43.0168 73.0069 43.6179 73.4578ZM38.546 78.4166C38.4581 79.1286 39.1674 79.7483 39.7382 79.7161C39.3331 79.2745 38.9357 78.8413 38.546 78.4166ZM50.8156 69.9278L50.9669 69.9395C51.0899 69.7439 51.2432 69.5583 51.3136 69.3452C51.3302 69.2951 51.0748 69.0899 50.9306 69.0728C50.8197 69.0595 50.5765 69.2423 50.585 69.3154C50.6094 69.5257 50.7318 69.7245 50.8156 69.9278ZM50.94 65.0315C50.9053 65.0129 50.8705 64.9942 50.8357 64.9755C50.6207 65.2964 50.3814 65.6042 50.1988 65.9426C50.0713 66.1789 50.1988 66.3379 50.5028 66.3783C50.6508 65.9226 50.7954 65.4771 50.94 65.0315ZM61.0627 80.1031C61.8055 80.1175 62.403 79.9885 63.0334 79.5417C62.3333 79.7412 61.7465 79.9083 61.0627 80.1031ZM84.436 65.7861C84.4854 65.7347 84.5348 65.6834 84.5843 65.6321C84.4424 65.48 84.3049 65.3228 84.1495 65.1861C84.138 65.1759 83.9977 65.312 83.9172 65.3801C84.0901 65.5154 84.2631 65.6508 84.436 65.7861ZM69.9408 56.3195C69.9166 56.3427 69.8923 56.3659 69.868 56.3891C70.1562 56.7482 70.2184 57.2813 70.7719 57.4375C70.4949 57.0648 70.2179 56.6921 69.9408 56.3195Z" fill="#774653"/>
<path d="M43.5 62L51 55.5L45 70.5H43L42 69V65L43.5 62Z" fill="white"/>
<path d="M13.2459 54.2904C14.3849 54.495 15.4324 54.3546 16.4654 54.1422C17.0301 54.0261 17.5705 53.7918 18.1218 53.6104C18.82 53.3807 19.0989 52.7911 19.342 52.1764C19.6941 51.2857 19.6054 50.3616 19.5367 49.439C19.498 48.9188 19.4631 48.398 19.4453 47.8769C19.4419 47.7758 19.5256 47.6718 19.5691 47.5691C19.654 47.6543 19.7832 47.7247 19.8173 47.8269C20.2375 49.085 20.5064 50.3606 20.0707 51.6715C19.9463 52.0455 19.7995 52.4299 19.5775 52.7503C18.8152 53.8503 17.8164 54.6543 16.5084 55.0333C16.2285 55.1144 15.9484 55.1996 15.6776 55.3062C14.9911 55.5763 14.8555 56.1863 14.7655 56.8213C14.6233 57.8245 14.5174 58.8349 14.3242 59.8283C14.1155 60.9017 13.5036 61.8072 12.9672 62.7402C12.4266 63.6806 11.6985 64.5364 11.4777 65.6291C11.0517 67.7374 11.3069 69.676 12.9668 71.2523C13.7504 71.9964 15.9729 72.3476 16.9468 71.7286C17.6929 71.2545 18.6005 71.0418 19.4147 70.666C21.0635 69.9052 22.7022 69.1221 24.3361 68.3297C25.3123 67.8563 26.2723 67.3497 27.2372 66.8532C27.3651 66.7873 27.4691 66.6626 27.6016 66.6216C27.7054 66.5895 27.8363 66.6446 27.9551 66.661L27.9597 66.8094C27.189 67.2862 26.4299 67.7834 25.6448 68.2354C24.2808 69.0207 22.9244 69.8253 21.5195 70.5316C20.4643 71.0621 19.3486 71.4796 18.239 71.8911C17.6947 72.093 17.103 72.1672 16.5328 72.2994C15.8275 72.4629 15.188 73.7009 15.4068 74.4522C15.614 75.1638 16.1362 75.5946 16.7103 75.9933C16.8527 76.0999 16.9526 76.2536 16.9925 76.427C16.1791 76.1004 15.5471 75.5961 15.2045 74.773C14.822 73.8544 15.2063 73.1258 15.8496 72.3563C15.6206 72.3563 15.4853 72.354 15.3501 72.3567C13.3321 72.3975 11.9678 71.0773 11.3704 69.343C10.9397 68.0928 10.8478 66.811 11.1916 65.5548C11.3973 64.803 11.845 64.1138 12.2104 63.4103C12.7547 62.3624 13.3563 61.3431 13.8701 60.281C14.3272 59.3359 14.2715 58.2749 14.4079 57.2589C14.4558 56.9021 14.5094 56.5454 14.5775 56.192C14.758 55.2546 15.5211 55.0311 16.2853 54.7956C16.6935 54.6694 17.0861 54.4972 17.4554 54.2823C16.6797 54.3963 15.9069 54.545 15.1271 54.6128C14.562 54.6619 13.9866 54.6204 13.4176 54.5879C13.0488 54.5668 12.6833 54.6807 12.3149 54.4015C11.6917 53.9447 11.165 53.3691 10.7653 52.7078C9.91252 51.2609 9.51526 49.6878 9.45483 47.9794C9.37738 48.1441 9.29505 48.3068 9.22331 48.474C8.88796 49.2555 8.57465 50.0587 7.94473 50.6571C7.04084 51.5159 6.02764 51.4972 4.94086 51.0108C4.20746 50.6826 3.51646 50.2605 2.80124 49.8905C1.44997 49.1915 0.828194 49.4258 -0.189716 50.5202C-0.301807 50.6407 -0.398092 50.7759 -0.501706 50.9043C-0.541589 50.8838 -0.581473 50.8634 -0.621356 50.843C-0.621356 50.7427 -0.664394 50.6052 -0.614767 50.5477C-0.0584856 49.9032 0.505573 49.2567 1.44736 49.2076C2.14667 49.1711 2.72452 49.511 3.3113 49.8258C4.12341 50.2615 4.89301 50.7703 5.8181 50.9887C6.54418 51.1602 7.13477 50.9977 7.65454 50.5195C8.31641 49.9105 8.62605 49.0848 8.98891 48.288C9.42193 47.3371 9.75137 46.2828 10.3993 45.4997C11.2867 44.4271 12.2983 43.3612 13.7909 43.0908C14.3015 42.991 14.8248 42.9733 15.341 43.0384C16.3407 43.1842 17.3277 43.4189 18.3174 43.6291C18.4513 43.6575 18.5702 43.7564 18.696 43.8226L18.6438 43.9355C18.4467 43.9464 18.2492 43.9453 18.0523 43.9321C16.7563 43.7717 15.4554 43.7476 14.1706 43.9646C13.1781 44.1322 12.147 44.3533 11.3736 45.0252C10.5118 45.774 9.86884 46.7137 9.83236 47.9378C9.77572 49.5499 10.1892 51.1437 11.0225 52.5249C11.0555 52.5627 11.0925 52.5969 11.133 52.6266C11.14 52.5286 11.1394 52.4301 11.1311 52.3322C10.8799 50.9366 11.3401 49.8388 12.5953 49.0777C13.4963 48.5313 14.4925 48.2127 15.5668 48.2986C16.1849 48.3481 16.7273 48.5846 17.0761 49.1461C17.2398 49.4096 17.2749 49.5879 16.9402 49.7841C15.508 50.6236 14.6 51.9394 13.7973 53.3425C13.6233 53.6466 13.4451 53.9483 13.2459 54.2904ZM16.8634 49.4569C16.6319 48.7705 15.8188 48.5452 15.1593 48.5894C14.1873 48.6546 13.2709 48.9409 12.4716 49.5119C10.8816 50.6476 11.0493 52.9687 12.5728 53.9915C12.8096 54.1505 12.9653 54.1621 13.1359 53.8566C13.5171 53.1741 13.9415 52.5144 14.3707 51.8602C15.0146 50.8854 15.8658 50.0648 16.8634 49.4569ZM15.8724 43.4041C14.611 43.3 13.3841 43.1595 12.412 44.0383C13.5275 43.8339 14.681 43.6224 15.8724 43.4041ZM21.5311 70.232C21.5092 70.1829 21.4872 70.1338 21.4653 70.0847C20.6098 70.4772 19.7543 70.8697 18.8988 71.2622C18.9183 71.3058 18.9378 71.3493 18.9573 71.3928L21.5311 70.232Z" fill="#774653"/>
<path d="M29.3033 65.3836C29.3823 65.1875 29.4329 64.9729 29.5456 64.7986C29.9291 64.205 30.2023 63.5741 29.9159 62.8828C29.5351 61.9638 28.8529 61.3288 27.9031 60.9803C27.6418 60.8793 27.3622 60.834 27.0823 60.8474C26.8025 60.8608 26.5285 60.9325 26.278 61.058C26.2292 61.078 26.1822 61.102 26.1373 61.1298C26.1199 61.1419 26.1188 61.1777 26.0987 61.2367C26.9598 61.8682 27.6259 62.6911 28.1624 63.6197C28.3169 63.8818 28.4419 64.1601 28.5351 64.4497C28.738 65.1036 28.5235 65.5411 27.8854 65.7671C27.4964 65.9055 27.0974 66.0138 26.6918 66.0908C24.8834 66.4307 24.0759 65.0858 24.3438 63.6139C24.4238 63.1968 24.5533 62.7909 24.7296 62.4045C24.8942 62.0367 25.14 61.7051 25.3779 61.3118C25.18 61.2818 24.9805 61.2626 24.7805 61.2543C23.4737 61.272 22.1711 61.4088 20.889 61.663C19.7667 61.8836 18.6247 62.0666 17.4675 61.9488C17.3465 61.9223 17.2289 61.8818 17.1172 61.8281C17.179 61.7052 17.2156 61.5581 17.3068 61.4635C17.7424 61.0114 18.3369 60.9156 18.9125 60.8469C19.5632 60.763 20.2198 60.7344 20.8753 60.7616C22.4027 60.8404 23.8782 60.4947 25.3722 60.2932C26.368 60.1589 27.3604 60.105 28.3698 60.2306C30.0711 60.4422 31.3167 62.1795 30.8826 63.8384C30.832 64.0318 30.6663 64.1951 30.5539 64.3723C30.5197 64.3547 30.4855 64.337 30.4514 64.3193C30.4431 64.2576 30.4439 64.195 30.4536 64.1335C31.0763 62.168 29.8904 60.5021 27.8388 60.4874C27.0907 60.4821 26.3391 60.4921 25.595 60.56C24.8607 60.6405 24.1318 60.7652 23.4124 60.9333C23.5028 60.955 23.5946 60.9705 23.6871 60.9796C24.3278 61.0021 24.9693 61.0415 25.6092 61.0251C25.7978 61.0203 25.9798 60.8481 26.1689 60.7615C27.1208 60.3255 28.0014 60.5721 28.8161 61.1018C29.4671 61.5251 30.0035 62.0707 30.2227 62.8581C30.4822 63.7899 30.1974 64.6326 29.4251 65.2078C29.3694 65.2637 29.3221 65.3274 29.2845 65.3968L29.3033 65.3836ZM26.4815 65.8622C26.7613 65.7734 27.2872 65.6434 27.7828 65.4395C28.3233 65.2171 28.4646 64.8562 28.2142 64.3378C27.7101 63.2701 26.973 62.329 26.0572 61.5838C25.8903 61.4492 25.738 61.4242 25.559 61.6508C25.0085 62.3478 24.6412 63.1074 24.5831 64.0031C24.5119 65.1002 25.1899 65.8694 26.4815 65.8622ZM22.4447 61.0554C21.7021 61.0554 20.8619 61.0255 20.0251 61.0654C19.4151 61.1081 18.8084 61.1879 18.2082 61.3046C18.009 61.3388 17.8265 61.4711 17.6364 61.5585C17.6521 61.6071 17.6677 61.6557 17.6834 61.7042C19.3281 61.6791 20.9342 61.3452 22.4447 61.0554Z" fill="#774653"/>
<path d="M28.5439 67.5499C28.1387 67.8045 27.7474 68.0504 27.3562 68.2962C27.3205 68.2616 27.2847 68.227 27.249 68.1924C27.3073 68.0783 27.3446 67.9447 27.4285 67.8543C27.5897 67.6804 27.7811 67.5348 27.9532 67.3705C28.2002 67.1346 28.3881 67.1506 28.5439 67.5499Z" fill="#774653"/>
<path d="M17.3197 76.4355C18.0077 76.5564 18.2223 76.7502 18.0425 77.1055C17.8098 76.8805 17.3036 76.9718 17.3197 76.4355Z" fill="#774653"/>
<path d="M37.1279 81.4222C37.5465 81.3711 37.8722 81.3313 38.1979 81.2915C37.8581 81.7152 37.4749 81.7545 37.1279 81.4222Z" fill="#774653"/>
<path d="M28.8478 66.5898C29.1212 66.8331 29.1413 67.0172 28.9288 67.2104C28.7864 67.34 28.648 67.3561 28.5391 67.1742C28.3096 66.7911 28.7701 66.834 28.8478 66.5898Z" fill="#774653"/>
<path d="M29.3036 65.3831L29.2848 65.3963C29.3212 65.3806 29.3606 65.3467 29.3935 65.3521C29.5325 65.375 29.6695 65.4095 29.8073 65.4397C29.6656 65.5842 29.5271 65.7325 29.3769 65.8676C29.3622 65.8808 29.2275 65.8098 29.2295 65.784C29.2458 65.649 29.2706 65.5151 29.3036 65.3831Z" fill="#774653"/>
<path d="M28.4316 65.9828C28.6606 65.7845 28.7942 65.6689 28.9277 65.5532C28.9659 65.5626 29.004 65.572 29.0421 65.5814C29.0288 65.7736 29.0154 65.9659 29.0021 66.1582C28.8366 66.1073 28.671 66.0564 28.4316 65.9828Z" fill="#774653"/>
<path d="M29.4805 66.1887C29.6596 66.0601 29.799 65.9464 29.9528 65.8574C30.0035 65.828 30.0911 65.8626 30.1619 65.8679C30.1489 65.9474 30.1624 66.0732 30.1184 66.0984C29.9406 66.2002 29.776 66.4934 29.4805 66.1887Z" fill="#774653"/>
<path d="M28.7526 66.4197C28.4808 66.4932 28.2901 66.5447 28.0995 66.5963C28.0856 66.518 28.0334 66.3958 28.0643 66.369C28.2291 66.2256 28.4083 66.0501 28.7526 66.4197Z" fill="#774653"/>
<path d="M37.2977 38.2089L34.2857 43.2332L31.8451 49.6082C31.7432 50.0913 31.5363 51.0852 31.5241 51.196C31.5118 51.3068 31.1861 53.465 31.0247 54.5303L31.1258 57.0268C31.2164 57.5477 31.3919 58.6074 31.3686 58.6783C31.3453 58.7492 32.4156 59.9368 32.9537 60.5218C33.3489 60.7525 34.1879 61.254 34.3829 61.4148C34.5779 61.5756 35.9656 61.9251 36.6351 62.0798L38.231 62.1209L39.8796 62.2549L42.5151 61.2022L45.5861 59.4917L48.853 56.8407L50.5027 55.0407L52.4414 51.7641L53.3032 49.3499L54.1778 46.207L54.9678 43.4367L56.2111 39.9768C56.5339 39.1712 57.184 37.5372 57.2018 37.4463C57.2196 37.3555 57.9093 35.8 58.2519 35.0337L59.6942 32.4854L61.3637 29.9817L62.9638 27.712L64.822 24.7263L66.1709 23.1977L67.2904 20.5509L67.9412 18.7323L68.0353 16.7457L68.0388 15.4019L67.3404 13.3664L66.4035 11.8267L64.9385 10.5139L63.6563 9.4727L62.2893 8.80414L60.6327 8.35013L58.6489 8.3628L57.226 8.4617L55.1875 9.53691L54.2214 10.3149L52.8212 12.0458C52.1231 13.403 50.6575 16.2549 50.3801 16.8044C50.1027 17.354 48.5614 20.191 47.8254 21.5409L44.3471 27.9835L40.5976 33.6419L37.2977 38.2089Z" fill="white"/>
<path d="M33.8944 60.7178C33.5966 60.6123 33.565 61.0639 33.3634 61.3215C32.5947 60.9705 31.5797 59.6775 31.4016 59.3557C30.9317 58.5062 30.7953 57.5651 30.7344 56.6147C30.606 54.6108 30.8708 52.6438 31.3266 50.6967C32.1057 47.3689 33.4441 44.2689 35.134 41.3101C36.1923 39.4571 37.426 37.7244 38.6797 36.0011C39.5395 34.8194 40.3417 33.5934 41.1259 32.3595C42.7601 29.7879 44.4057 27.2222 45.9717 24.6092C47.7496 21.6427 49.349 18.5765 50.8325 15.4505C51.3601 14.3388 51.8859 13.2206 52.5057 12.1598C53.241 10.9014 54.2747 9.89456 55.521 9.13032C56.3945 8.58481 57.3771 8.23765 58.3993 8.11336C61.4001 7.76095 63.8882 8.81335 66.0027 10.8887C66.0579 10.9428 66.4594 11.3816 66.6046 11.5831C66.3505 11.6051 65.9265 11.586 65.7443 11.5798C65.6872 11.5779 65.1524 11.0018 65.128 10.9361C65.0633 10.7616 65.1779 11.1161 65.128 10.9361C65.1054 11.0714 65.1568 10.7643 65.128 10.9361C63.8361 9.79 62.3596 8.99714 60.6406 8.703C58.8907 8.40357 57.2534 8.69562 55.7394 9.62283C56.1947 9.56524 56.6484 9.48649 57.1055 9.45405C58.4256 9.36035 59.5944 9.76329 60.5855 10.6282C61.5634 11.4817 62.1119 12.5816 62.3012 13.8631C62.3125 13.9395 62.3335 14.0145 62.3479 14.0906C62.3998 14.365 62.4341 14.607 62.1448 14.8169C61.8144 15.0564 61.8685 15.3889 62.2142 15.6101C62.2699 15.6458 62.3383 15.7242 62.3346 15.7784C62.3216 15.9703 62.2797 16.1602 62.2478 16.357C61.8274 16.1918 61.7741 16.0912 61.8219 15.6864C61.9761 14.3777 61.8228 13.1139 61.1095 11.9845C60.249 10.6223 58.9913 9.87701 57.3662 9.88212C56.7301 9.89111 56.098 9.98282 55.4856 10.1549C54.5023 10.4227 53.7844 11.0991 53.2008 11.9081C52.8573 12.3845 52.5605 12.8946 52.2449 13.3909C52.2306 13.4159 52.2232 13.4443 52.2235 13.4731C52.2239 13.5019 52.2321 13.5301 52.2471 13.5547C52.3524 13.3924 52.4583 13.2305 52.563 13.0677C53.0702 12.2793 53.6287 11.5396 54.4075 10.9885C55.1481 10.4644 55.9682 10.2073 56.869 10.161C57.8662 10.1097 58.7801 10.3331 59.5623 10.9675C60.5407 11.7609 60.9988 12.8253 61.1177 14.0592C61.1832 14.7264 61.1508 15.3997 61.0216 16.0575C60.9903 16.1761 60.7463 17.0969 60.6518 17.1752C60.3669 17.418 60.4871 16.8384 60.6518 17.1752C60.7748 17.4268 57.7573 22.0423 57.6959 22.2826C57.5429 22.1787 57.2389 22.1306 57.3586 21.9081C57.3534 21.9758 57.388 21.8535 57.3586 21.9081C57.2927 21.9423 57.422 21.8699 57.3586 21.9081C57.3247 21.9392 57.404 21.9009 57.3586 21.9081C57.3696 21.8256 60.0289 17.2809 60.0502 17.2005C60.3682 16.2372 60.542 15.2488 60.4262 14.2384C60.295 13.0939 59.9122 12.0612 58.8808 11.3948C58.2066 10.9591 57.4625 10.872 56.6811 10.9424C55.4139 11.0566 54.4983 11.7411 53.7611 12.7191C52.9223 13.8317 52.3218 15.0823 51.693 16.3158C50.303 19.0429 48.9531 21.7912 47.5184 24.4945C46.0726 27.2308 44.4137 29.8491 42.557 32.3251C41.7753 33.3639 40.9588 34.3772 40.1996 35.432C39.4126 36.5151 38.8611 37.751 38.5805 39.0602C38.3851 39.9787 38.3373 40.8997 38.7606 41.7877C39.0842 42.4664 39.6302 42.8832 40.3162 43.1234C41.4917 43.535 42.6708 43.5101 43.855 43.1282C45.0264 42.7504 46.0051 42.0756 46.8788 41.2313C48.3729 39.7872 49.404 38.0354 50.2651 36.1645C50.9182 34.7454 51.3776 33.2581 51.8875 31.7876C52.5933 29.7521 53.5296 27.8242 54.6143 25.9636C55.4135 24.5929 56.3259 23.3011 57.2559 22.0197C57.2879 21.9805 57.3222 21.9432 57.3586 21.9081C57.4749 22.0373 57.5818 22.1559 57.6959 22.2826C57.2134 22.9237 56.7355 23.5671 56.2489 24.2038C54.7378 26.1797 53.5639 28.392 52.7747 30.751C52.3326 32.0644 51.9293 33.3911 51.4709 34.6986C50.6749 36.9692 49.608 39.0984 48.0214 40.9309C47.0433 42.0605 45.8984 42.9956 44.4942 43.5397C42.9188 44.1502 41.3221 44.201 39.7645 43.4553C38.7864 42.987 38.2424 42.1853 38.0737 41.1129C37.8938 39.9686 38.1781 38.9 38.5638 37.8443C38.9356 36.8106 39.4329 35.8264 40.0443 34.9137C40.0578 34.8937 40.0609 34.8667 40.0338 34.8128C39.9816 34.8774 39.9258 34.9395 39.8777 35.0071C39.3472 35.7526 38.7779 36.4742 38.2983 37.2512C37.683 38.2476 37.2439 39.3298 37.049 40.4945C36.8938 41.422 36.9225 42.3374 37.3979 43.1795C37.7798 43.856 38.377 44.3037 39.0901 44.5838C40.366 45.085 41.6881 45.2218 43.0344 44.9631C44.3548 44.7094 45.5471 44.1585 46.6276 43.3489C48.5968 41.8733 49.9559 39.9279 51.0125 37.7425C51.6741 36.3739 52.1193 34.9272 52.5585 33.4776C53.1809 31.4019 54.0048 29.3921 55.0185 27.4769C56.0182 25.599 57.2313 23.8608 58.4918 22.1534C58.5325 22.1126 58.5778 22.0767 58.6268 22.0464C58.6923 22.2793 58.7304 21.9085 58.6268 22.0464C58.5808 22.1075 58.6522 21.9699 58.6268 22.0464C58.5753 22.0967 58.7078 22.0265 58.6268 22.0464C58.8253 22.4074 58.863 21.8157 58.6268 22.0464C58.5616 21.9279 58.9504 21.4047 59.0912 21.4183C59.0015 21.4092 59.1811 21.427 59.0912 21.4183C59.0411 21.3247 59.1391 21.5086 59.0894 21.4147C59.0851 21.401 59.0821 21.387 59.0805 21.3727C59.1555 21.2556 59.2375 21.1431 59.3261 21.0358C59.351 21.0118 59.3808 20.9934 59.4135 20.9818C59.4461 20.9701 59.4809 20.9656 59.5154 20.9684C59.682 20.9956 59.7483 20.9274 59.662 20.7943C59.5388 20.6047 59.6586 20.5068 59.7831 20.4488C60.1292 20.2874 60.2394 19.9871 60.3383 19.6543C60.3974 19.4553 60.5136 19.2692 60.6268 19.0917C60.7296 18.9307 60.8968 18.8208 60.8848 18.5835C60.8801 18.4909 61.0246 18.384 61.113 18.2954C61.199 18.2182 61.2893 18.1459 61.3836 18.079C61.3307 18.0141 61.2613 17.9663 61.266 17.9273C61.277 17.836 61.2991 17.6995 61.3601 17.6693C61.5525 17.5743 61.7649 17.5199 61.9516 17.4559C61.7147 18.2435 61.3623 18.9917 60.9059 19.6759C59.9496 21.0938 58.9588 22.4887 57.9663 23.8817C56.3595 26.1367 55.0026 28.5295 54.0324 31.1249C53.4847 32.5902 53.0264 34.0889 52.5235 35.5711C51.7274 37.9174 50.6034 40.0835 48.9631 41.9576C47.9304 43.1377 46.727 44.1117 45.2997 44.7738C44.5317 45.1239 43.7171 45.3612 42.8811 45.4782C41.4821 45.6854 40.1381 45.5235 38.8515 44.9713C37.3922 44.345 36.6373 43.2136 36.5939 41.614C36.5738 40.8747 36.7125 40.1648 36.9338 39.4658C36.9545 39.4003 36.9724 39.3339 36.9881 39.267C36.9907 39.2557 36.9755 39.2402 36.9463 39.1833C36.4615 40.0153 35.9775 40.8179 35.5209 41.6358C34.6822 43.1382 33.9525 44.6989 33.3374 46.3059C32.592 48.2522 32.0101 50.2435 31.6708 52.3041C31.4837 53.4128 31.3896 54.5351 31.3897 55.6595C31.3935 56.6625 31.491 57.6555 31.8359 58.6082C32.0149 59.1026 32.3567 59.4903 32.6902 59.8824L33.8944 60.7178ZM41.1825 33.2271C41.6581 32.8217 44.3581 28.7812 44.3956 28.4446C43.3342 30.0243 42.2793 31.5945 41.1825 33.2271Z" fill="#774653"/>
<path d="M65.6534 11.4278C65.8922 11.3943 66.1083 11.3539 66.3261 11.3403C66.3828 11.3367 66.4574 11.4062 66.5025 11.46C67.0202 12.0814 67.44 12.7781 67.7475 13.5261C68.3317 14.9309 68.5261 16.3991 68.3896 17.9036C68.2843 19.0638 67.9445 20.1719 67.4743 21.2374C66.7409 22.8995 65.7504 24.4091 64.705 25.8858C63.475 27.6232 62.224 29.3463 61.0233 31.1037C59.6733 33.0796 58.5822 35.1971 57.6867 37.4187C56.6391 40.0177 55.8203 42.6903 55.0472 45.3794C54.5958 46.9495 54.1492 48.5215 53.6642 50.0813C53.1804 51.6374 52.3799 53.0394 51.4454 54.3658C50.3749 55.8854 49.101 57.2215 47.6988 58.4348C46.5258 59.4541 45.252 60.3514 43.8972 61.1129C42.7689 61.7443 41.6073 62.3142 40.3122 62.5388C38.6128 62.8408 36.8645 62.7043 35.2326 62.1422C34.6522 61.9444 34.1013 61.6595 33.5389 61.41C33.4604 61.3684 33.3852 61.3205 33.3143 61.2669C33.4207 61.0377 33.5163 60.8317 33.6204 60.6075C33.9005 60.7471 34.1908 60.903 34.4901 61.0393C36.0961 61.7711 37.7874 62.0061 39.5323 61.8458C40.5556 61.7518 41.5083 61.3993 42.4309 60.9499C43.532 60.405 44.5835 59.7653 45.5737 59.038C46.6562 58.2525 47.6693 57.3755 48.6019 56.4167C49.9292 55.0549 51.0722 53.5571 51.964 51.8693C52.6086 50.6494 53.0089 49.3452 53.3827 48.0275C53.8522 46.3729 54.2987 44.7106 54.8181 43.0716C55.389 41.2703 55.9998 39.4819 56.6506 37.7062C57.6269 35.0494 58.9562 32.5686 60.5817 30.2524C61.8588 28.4325 63.1799 26.6436 64.4614 24.8268C65.4704 23.3964 66.4063 21.9217 67.0442 20.2771C67.8416 18.2214 67.9468 16.1567 67.2052 14.0596C66.8813 13.1334 66.3745 12.2816 65.7151 11.555C65.6901 11.5149 65.6694 11.4723 65.6534 11.4278Z" fill="#774653"/>
<path d="M41.1823 33.2272C42.2792 31.5946 43.3341 30.0244 44.3954 28.4447C44.358 28.7813 41.6579 32.8218 41.1823 33.2272Z" fill="white"/>
</g>
<defs>
<clipPath id="clip0_445_6394">
<rect width="85" height="85" fill="white"/>
</clipPath>
</defs>
</svg>
