<svg width="85" height="85" viewBox="0 0 85 85" fill="none" xmlns="http://www.w3.org/2000/svg">
<g clip-path="url(#clip0_445_6533)">
<path d="M-0.416992 63.7591C0.376683 62.4998 1.58327 62.0409 2.96745 62.2938C4.4302 62.5611 5.8573 63.0248 7.29844 63.4084C8.11584 63.626 8.92304 63.8873 9.74784 64.0702C10.651 64.2705 10.5985 64.1987 10.8535 63.286C11.0955 62.4201 11.5098 61.5958 11.9118 60.7847C12.045 60.5159 12.3556 60.3163 12.6191 60.1342C13.4357 59.5699 14.3369 59.5633 14.8945 60.0889C15.4345 60.5978 15.5014 61.5703 15.0282 62.3767C14.4004 63.4465 13.4287 64.0557 12.2638 64.4016C11.2201 64.7114 11.1928 64.7272 11.564 65.7776C12.9197 69.6142 15.8572 71.5331 19.6773 72.2235C22.2311 72.6928 24.8687 72.2478 27.1271 70.9664C27.3376 70.8505 27.5385 70.7172 27.7533 70.5863C27.6833 70.4607 27.664 70.3654 27.6119 70.3414C24.7232 69.0112 24.1118 66.4744 24.265 63.6781C24.4223 60.8056 25.9213 58.4966 27.8506 56.4643C31.0003 53.1462 34.8712 50.9339 39.0624 49.2144C40.421 48.657 41.7501 48.0277 43.0908 47.427C43.2798 47.3634 43.4552 47.2645 43.6074 47.1356C43.7476 46.9506 43.8659 46.7501 43.9601 46.538C43.7446 46.4469 43.512 46.2512 43.3165 46.283C42.5039 46.3999 41.7005 46.5729 40.9119 46.8008C37.7292 47.7868 34.9573 49.5406 32.2666 51.4559C30.5629 52.6685 28.8451 53.8727 27.0554 54.9507C24.256 56.6368 22.3874 55.6673 22.0506 52.4116C21.9809 51.6681 22.0062 50.9188 22.126 50.1817C22.3335 48.8479 23.2749 48.2692 24.5729 48.6152C25.2698 48.8009 25.9493 49.051 26.6425 49.2521C27.1281 49.3929 27.6561 49.5458 27.9264 48.9185C28.1433 48.4149 27.717 47.746 27.0455 47.5747C26.4196 47.415 25.7719 47.3411 25.1347 47.2252C24.7645 47.1755 24.398 47.1019 24.0373 47.005C23.0555 46.6905 22.6165 45.9168 22.8269 44.9089C23.0246 43.9613 23.5766 43.2395 24.3116 42.6407C24.5364 42.4576 24.762 42.2755 25.011 42.0736C24.897 41.974 24.8512 41.901 24.7915 41.8868C23.5741 41.5987 23.327 41.1079 24.0266 40.0683C25.6835 37.621 27.9374 35.637 30.5751 34.304C31.7869 33.6778 33.0998 33.7967 34.3414 34.3532C35.0452 34.6686 35.7108 35.0706 36.4187 35.3752C36.6268 35.4647 36.9209 35.3541 37.1756 35.3352C37.1163 35.0662 37.1455 34.6952 36.9785 34.5503C36.6581 34.2804 36.2809 34.0863 35.875 33.9825C35.1779 33.8044 34.4434 33.7695 33.7502 33.5806C33.351 33.4718 32.797 33.2516 32.6887 32.9476C32.5813 32.6463 32.8513 32.0907 33.1196 31.7956C34.4973 30.2802 36.3375 29.8863 38.2121 30.6261C38.3353 30.6613 38.4607 30.6884 38.5875 30.707C38.6728 30.3593 38.7721 30.038 38.8287 29.7094C39.1547 27.8188 39.4804 25.928 39.787 24.0341C40.0975 22.1167 40.7354 21.561 42.6515 21.5369C43.5479 21.5476 44.4441 21.5077 45.336 21.4174C47.8855 21.0943 49.1768 19.7382 49.5248 17.0303C49.2701 16.9925 49.0088 16.9709 48.7558 16.913C47.7437 16.6814 46.6793 16.5686 45.7363 16.1703C44.216 15.5281 43.7556 14.3396 44.1764 12.7334C44.6235 11.0271 45.3402 10.2177 47.1953 9.35771C47.1734 9.19916 47.1404 9.04236 47.0964 8.88847C46.135 6.18112 47.2532 3.40266 49.8714 2.19975C53.0889 0.721497 56.3303 0.663552 59.5297 2.27801C60.229 2.63087 60.9939 2.98141 60.991 3.98586C60.9907 4.10514 61.2405 4.25826 61.4027 4.33875C61.9201 4.59562 62.0121 4.99331 61.7447 5.45056C61.5174 5.83537 61.2475 6.1934 60.9402 6.51789C59.3201 8.2373 57.2576 9.30299 55.1964 10.3701C54.5569 10.7012 53.9331 11.0627 53.3021 11.4103C53.3284 11.4764 53.3547 11.5425 53.381 11.6086C53.688 11.6301 53.9963 11.6279 54.303 11.6019C55.9075 11.3534 57.4529 10.8131 58.8626 10.0076C60.6561 8.98237 61.8674 7.50393 62.4411 5.50868C62.7934 4.2833 63.2922 4.12073 64.3095 4.87743C65.8969 6.05825 65.858 8.33849 64.2023 9.80466C63.7166 10.2335 63.1985 10.6242 62.6525 10.9733C62.1877 11.271 62.0001 11.6334 61.9456 12.1871C61.7015 14.6692 60.9168 16.9599 59.2894 18.8927C58.1695 20.2229 57.7452 20.3766 55.965 20.2989C55.9008 21.0365 56.0828 21.7745 56.4824 22.3977C57.671 24.3701 59.4139 25.6218 61.6435 26.1876C61.8619 26.2402 62.0891 26.2439 62.3091 26.1984C63.5593 25.9347 64.4015 26.5028 64.9396 27.5503C65.3099 28.2711 65.5558 29.0557 65.8937 29.9028C66.2378 29.6313 66.5381 29.3897 66.8435 29.1545C67.4023 28.724 68.001 28.6548 68.5601 29.1028C69.0995 29.5349 69.0356 30.1137 68.7496 30.6646C68.51 31.1262 68.2864 31.624 67.9367 31.9931C67.5594 32.3913 67.3446 32.7122 67.8166 33.1731C67.2032 33.308 66.9567 33.0378 67.1823 32.4721C67.4114 31.8973 67.7442 31.3637 68.0321 30.8124C68.1357 30.614 68.3003 30.4247 68.3297 30.2161C68.3643 29.9697 68.3696 29.6245 68.2272 29.4742C68.0822 29.3212 67.7227 29.267 67.4908 29.3191C66.5444 29.5317 65.9794 30.4662 66.0485 31.4255C66.2005 33.5361 66.3007 35.6506 66.4174 37.7637C66.4321 38.0305 66.4194 38.2988 66.4194 38.715C66.8078 38.5574 67.081 38.4739 67.3283 38.3419C70.359 36.7136 73.5653 35.436 76.8853 34.5337C78.6709 34.052 78.847 33.4456 77.7475 31.9648C77.6458 31.8232 77.5369 31.6868 77.4212 31.5563C75.9933 29.9961 75.0362 30.0842 73.9299 31.8723C73.7915 32.1085 73.6399 32.3367 73.4758 32.5559C72.8987 33.2887 72.3439 33.3475 71.629 32.752C71.3998 32.561 71.1955 32.3404 70.9786 32.1346C70.634 31.8076 70.2773 31.5842 69.776 31.85C69.6536 31.9148 69.4546 31.8352 69.1907 31.814C69.9257 31.0874 70.4649 31.0404 71.1044 31.577C71.3898 31.8164 71.6312 32.1075 71.9094 32.3563C72.4734 32.8608 72.7234 32.8304 73.171 32.2031C73.4892 31.7571 73.7689 31.2827 74.1023 30.8489C74.7924 29.9509 75.7006 29.7165 76.5749 30.4182C77.3819 31.0672 78.0798 31.8412 78.642 32.7108C79.207 33.5931 78.917 34.2963 77.9227 34.6741C76.3182 35.2837 74.6708 35.7793 73.0468 36.3387C72.2896 36.5996 71.545 36.897 70.7947 37.1778L70.8881 37.454C71.8375 37.2087 72.7837 36.9496 73.7373 36.7218C74.7058 36.4905 75.6779 36.2701 76.6563 36.0868C77.0254 36.0273 77.4014 36.0237 77.7715 36.0762C78.8836 36.2106 79.1443 36.5546 79.0264 37.6516C78.8624 39.1779 78.9569 39.3116 80.4732 39.6998C81.4622 39.953 81.6209 40.1044 81.5217 41.0754C81.3763 42.4999 81.8565 43.659 82.8274 44.667C83.2454 45.0951 83.6362 45.5488 83.9976 46.0255C84.3756 46.5315 84.2058 46.9441 83.5766 47.0267C83.1056 47.0754 82.6309 47.0765 82.1597 47.03C79.2765 46.8212 76.3944 46.5972 73.5116 46.3831C73.2388 46.3478 72.9623 46.4095 72.7305 46.5575C74.1606 46.8277 75.594 47.0813 77.0199 47.3722C78.8745 47.7504 80.7404 48.0917 82.5695 48.571C84.6167 49.1074 85.2329 50.1225 84.925 52.222C84.5483 54.791 83.7676 57.2196 82.2106 59.3369C81.3891 60.4541 80.4529 60.6721 79.1941 60.0736C78.5341 59.7599 77.9064 59.3783 77.1529 59.1427C77.4456 59.5269 77.7179 59.9262 77.9688 60.3389C78.3005 60.9464 78.6606 61.5626 78.8373 62.2211C78.935 62.585 78.8062 63.165 78.5516 63.4207C78.3356 63.6377 77.7721 63.6228 77.3989 63.5418C76.875 63.4281 76.385 63.1582 75.7437 62.9C75.7237 63.3199 75.6807 63.6478 75.6984 63.9725C75.7308 64.5686 75.8514 65.164 75.8382 65.7575C75.823 66.4416 75.3634 66.7042 74.7725 66.3699C74.3652 66.1315 73.9963 65.833 73.6783 65.4844C73.0337 64.7918 72.4829 64.007 71.8054 63.3512C71.1588 62.7012 70.4368 62.1309 69.6548 61.6523C68.7915 61.1487 67.9214 61.7638 67.9446 62.7697C67.9669 63.7417 68.4813 64.4142 69.3382 64.8135C70.1051 65.1709 70.9032 65.4612 71.6727 65.8134C72.9369 66.392 73.729 67.3486 73.9553 68.7479C74.2102 70.3242 73.4262 71.0038 71.9328 70.4758C71.5819 70.3517 71.2568 70.1482 70.9013 70.0453C70.529 69.9555 70.1518 69.887 69.7716 69.8401C69.3852 70.6093 70.67 71.0315 69.8958 71.8366C69.5286 71.2875 69.2108 70.8124 68.893 70.3372L68.7069 70.3704C68.6233 71.221 68.5457 72.0723 68.4531 72.9219C68.4275 73.2937 68.3685 73.6624 68.277 74.0237C68.0208 74.8844 67.3448 75.0743 66.7973 74.36C66.2636 73.6434 65.8217 72.8628 65.482 72.0363C63.6936 67.8189 61.9514 63.5819 60.182 59.3564C59.9598 58.8257 59.6721 58.3223 59.4148 57.8063L59.2118 57.9034C59.6414 58.9504 60.0795 59.994 60.499 61.045C61.9214 64.609 63.3132 68.1853 64.0871 71.9601C64.2613 72.7887 64.3518 73.6327 64.3573 74.4794C64.3578 76.2036 63.4099 77.4754 61.7668 78.0059C61.2611 78.1692 61.018 78.4198 61.1724 78.9175C61.5595 80.1656 60.8049 81.0966 60.1825 81.9516C59.8562 82.3999 59.0325 82.5717 58.3996 82.6959C56.1251 83.1421 54.0808 82.7699 52.5604 80.8143C52.3834 80.6056 52.1895 80.4119 51.9805 80.2353C51.9335 80.1921 51.8446 80.1946 51.6997 80.1561C51.4497 80.8572 51.2144 81.5579 50.9507 82.2478C50.3623 83.7878 49.2229 84.1039 47.8977 83.0961C46.7404 82.2159 46.3374 80.9387 46.1246 79.5861C45.618 76.3806 45.5095 73.1247 45.8016 69.8925C46.2248 65.2295 46.8209 60.5823 47.3213 55.9259C47.4702 54.541 47.5525 53.1486 47.6481 51.7585C47.6417 51.5236 47.6117 51.2899 47.5587 51.061L47.3283 50.9889C47.1765 51.2641 46.9783 51.5237 46.8801 51.8168C45.6886 55.3743 45.0594 59.0562 44.4473 62.7453C43.5473 68.1697 43.7779 73.6268 43.8653 79.0835C43.8767 79.8534 43.7885 80.6216 43.6029 81.3689C43.3353 82.4393 42.6277 82.9429 41.5392 82.9804C39.5032 83.0506 37.591 82.4836 35.7333 81.7421C34.6311 81.3022 34.2433 80.3271 34.2209 79.2037C34.2016 78.232 34.2504 77.2587 34.2153 76.288C34.2058 76.0278 34.0615 75.6761 33.8629 75.5515C33.7195 75.4615 33.3382 75.6184 33.1426 75.7687C32.5708 76.2081 32.0407 76.7016 31.4907 77.1698C31.0356 77.5572 30.5718 78.0629 29.9182 77.7983C29.2259 77.5182 29.245 76.8056 29.2273 76.1866C29.1737 74.3085 29.7366 72.5471 30.302 70.79C30.5125 70.1356 30.7555 69.4916 30.8548 68.7441C30.7076 68.8796 30.552 69.0071 30.4146 69.1519C25.9856 73.8187 18.5384 74.2432 13.6838 70.1012C12.2129 68.879 11.2087 67.1868 10.8405 65.3101C10.7906 65.0647 10.5131 64.7339 10.2833 64.6774C8.13442 64.1487 5.96536 63.7017 3.81759 63.1688C2.31462 62.7958 0.905963 62.815 -0.416992 63.7591ZM55.5949 50.8272L55.8634 50.7212C56.061 50.922 56.2433 51.1374 56.4086 51.3655C59.3783 56.1223 61.8904 61.1499 63.9113 66.3809C64.8307 68.7722 65.8679 71.1188 66.8861 73.4707C67.0041 73.7431 67.3432 73.9197 67.5798 74.1407C67.7047 73.8576 67.9005 73.5843 67.9416 73.2895C68.086 72.2546 68.1262 71.2036 68.3024 70.1752C68.4882 69.0903 69.122 68.7664 70.1543 69.1617C70.8281 69.4197 71.4694 69.7629 72.144 70.0188C73.1075 70.3843 73.649 69.9286 73.4947 68.896C73.3186 67.7173 72.6397 66.8938 71.5864 66.3874C70.7565 65.9884 69.8966 65.6522 69.0604 65.2656C68.3043 64.9161 67.7304 64.3708 67.5096 63.545C67.293 62.7346 67.3105 61.9191 68.0116 61.3451C68.6875 60.7917 69.4891 60.8719 70.1817 61.3072C70.8342 61.7153 71.4365 62.1987 71.9761 62.7476C72.7572 63.5492 73.4274 64.4581 74.1962 65.2728C74.4929 65.5873 74.93 65.7692 75.3031 66.0115C75.3417 65.5826 75.4117 65.1536 75.4107 64.7248C75.4095 64.2283 75.32 63.7321 75.3158 63.2353C75.3107 62.6318 75.6459 62.4277 76.201 62.6222C76.5525 62.7454 76.8749 62.9647 77.2322 63.0551C77.5681 63.1402 77.9326 63.1126 78.2845 63.1345C78.2967 62.7368 78.4622 62.2508 78.2932 61.9576C77.7576 60.9784 77.1291 60.0529 76.4166 59.1937C73.7531 56.1323 70.6157 53.5892 67.3866 51.1561C66.5191 50.5024 65.6361 49.8693 64.7366 49.2094C64.292 49.8924 63.9639 50.5416 63.5025 51.0756C62.4822 52.2566 61.2612 52.0592 60.7551 50.5959C60.4583 49.7249 60.2918 48.8148 60.261 47.8951C60.1921 45.8539 60.2312 43.8084 60.258 41.7651C60.2635 41.3442 60.3915 40.9319 59.8981 40.6921C59.9295 40.5842 59.9673 40.4782 60.0112 40.3746C60.5599 40.6546 60.7218 41.0442 60.6892 41.6086C60.6112 42.6778 60.5922 43.7505 60.6322 44.8218C60.729 46.6567 60.8829 48.4902 61.0768 50.3175C61.1314 50.8313 61.4195 51.4495 62.0237 51.3966C62.4671 51.3579 63.0562 51.03 63.2662 50.655C63.8332 49.6428 64.3762 48.575 64.6733 47.4611C66.0107 42.4467 66.2909 37.3354 65.7439 32.1877C65.5868 30.8797 65.2931 29.5918 64.8675 28.345C64.6733 27.7526 64.1739 27.1758 63.6626 26.7917C62.8982 26.2175 62.0521 26.6663 61.9506 27.6123C61.637 30.5349 61.3411 33.4593 61.0336 36.3825C60.994 36.7594 60.9268 37.1333 60.8724 37.5085C60.7789 37.4979 60.6854 37.4872 60.5918 37.4766C60.5255 34.2703 61.12 31.0991 61.279 27.8796C61.0734 28.1204 60.9167 28.3989 60.8177 28.6996C59.8554 31.2115 58.947 33.7456 57.9195 36.2305C56.9169 38.6554 55.7149 40.983 53.7725 42.8269C51.2002 45.2686 47.627 45.4311 44.8493 43.2472C44.7023 43.1317 44.5404 43.035 44.3855 42.9296C44.8953 46.0975 46.4966 48.2122 49.8339 48.7291C48.8692 48.8592 47.8908 48.6231 47.0916 48.0674C46.5001 47.6518 46.1323 47.7373 45.6189 48.185C41.6081 51.6825 38.4378 55.8392 35.8697 60.4775C35.3952 61.3344 35.3262 61.3521 34.2921 60.9126C37.4689 55.7737 40.6103 50.6401 45.5764 47.1466C44.9315 45.7368 44.3014 44.3592 43.6861 43.0138C43.0241 43.5744 42.414 44.2141 41.69 44.6752C40.6109 45.3626 39.6756 45.0614 39.2342 43.8694C38.8862 42.9118 38.6398 41.9202 38.499 40.911C38.0874 38.0576 38.1973 35.1939 38.4816 32.3334C38.5853 31.2893 38.4284 31.0265 37.4039 30.8286C35.8087 30.5205 34.4575 31.0429 33.3545 32.2124C33.1969 32.3795 33.1187 32.6215 32.953 32.9204C33.3545 33.0401 33.6516 33.1451 33.9566 33.2163C34.6599 33.3803 35.3821 33.4808 36.0668 33.6999C36.4758 33.8309 36.9274 34.062 37.1764 34.3882C37.3874 34.6644 37.3351 35.1418 37.3993 35.5303C37.0325 35.5686 36.6262 35.7259 36.3073 35.62C35.6749 35.4098 35.0952 35.0447 34.4856 34.7608C33.019 34.0779 31.5538 33.9721 30.1321 34.867C29.4387 35.3034 28.6991 35.7128 28.1227 36.2791C26.918 37.4626 25.7847 38.722 24.6771 39.998C24.4385 40.2729 24.4323 40.7496 24.319 41.1334C24.6996 41.1323 25.0963 41.2001 25.4572 41.1152C26.1096 40.9616 26.7397 40.7143 27.3805 40.5107C29.4913 39.8401 31.582 39.091 33.7238 38.5411C34.5975 38.3168 35.603 38.4112 36.5111 38.572C37.3504 38.7206 37.8125 39.5609 37.7194 40.316C37.6328 41.018 37.0758 41.4784 36.1682 41.56C35.8449 41.5758 35.521 41.5702 35.1985 41.5433C33.1595 41.4553 31.1157 41.2341 29.0832 41.311C26.9988 41.3899 25.0471 42.0473 23.6871 43.7961C22.528 45.2868 23.0105 46.5378 24.8356 46.8746C25.3744 46.974 25.9202 47.036 26.4571 47.1433C26.8252 47.2018 27.185 47.304 27.5289 47.4475C28.1591 47.7426 28.4998 48.4648 28.3128 49.0623C28.0866 49.7845 27.5037 49.8722 26.8654 49.7927C26.596 49.7501 26.33 49.688 26.0696 49.6067C25.4705 49.4405 24.8827 49.2159 24.274 49.1055C23.3194 48.9324 22.7924 49.2706 22.5829 50.2264C22.2422 51.6497 22.457 53.1494 23.1834 54.4199C23.5379 55.0438 24.1044 55.428 24.7962 55.2328C25.6673 54.987 26.5609 54.6822 27.3189 54.2036C28.7702 53.2873 30.14 52.2402 31.5305 51.2293C33.936 49.4805 36.4129 47.834 39.2306 46.8409C40.5974 46.3591 42.0643 46.1438 43.5006 45.8923C43.7662 45.8458 44.2791 46.1469 44.3567 46.39C44.4346 46.6342 44.189 47.0991 43.9468 47.3021C43.497 47.6553 43.0054 47.9518 42.4831 48.1848C40.0156 49.3721 37.479 50.4301 35.0779 51.7377C31.7699 53.5391 28.819 55.8338 26.6188 58.9539C25.3865 60.7015 24.6244 62.6386 24.7352 64.8237C24.8184 66.467 25.3506 67.9574 26.5348 69.1386C27.5174 70.1187 28.511 70.1169 29.4693 69.1394C29.9423 68.663 30.3548 68.1302 30.6976 67.5529C31.4614 66.241 32.1471 64.8837 32.8888 63.5584C33.0214 63.3214 33.2649 62.9861 33.4661 62.9798C33.941 62.9649 34.063 62.7292 34.1281 62.351C34.2215 61.809 34.538 61.7615 35.0213 61.9464C34.8943 62.1963 34.7965 62.3942 34.694 62.5897C33.1546 65.526 31.6946 68.4976 30.681 71.6662C30.1561 73.3071 29.6447 74.9538 29.8023 76.7106C29.8722 77.49 30.2086 77.6311 30.8229 77.1471C31.351 76.731 31.8386 76.2635 32.3666 75.8471C32.8819 75.4407 33.3818 74.8019 34.1266 75.1541C34.832 75.4877 34.6805 76.255 34.7103 76.8884C34.7478 77.6849 34.7547 78.4828 34.7812 79.2799C34.8124 80.2187 35.2434 80.9425 36.1201 81.2575C37.1968 81.6424 38.2963 81.9603 39.4123 82.2094C40.1662 82.3593 40.9329 82.436 41.7015 82.4383C42.3984 82.4567 42.888 82.0442 43.1166 81.408C43.2932 80.9439 43.3964 80.4551 43.4223 79.9592C43.4586 78.6644 43.4872 77.3637 43.4079 76.0721C42.9763 69.0439 43.6636 61.9918 45.4442 55.1792C45.8217 53.8118 46.2682 52.4644 46.782 51.1422C46.8791 50.8802 47.2746 50.7288 47.5325 50.5265C47.6999 50.8117 47.9841 51.0864 48.011 51.3844C48.0655 52.0543 48.0548 52.7279 47.9791 53.3958C47.4486 58.4258 46.8332 63.4478 46.3755 68.4843C46.0231 72.2619 46.1292 76.0682 46.6914 79.8203C46.8767 81.0412 47.3787 82.1162 48.5174 82.7615C49.2877 83.198 49.7839 83.0459 50.1322 82.2336C50.3668 81.6865 50.472 81.0819 50.7254 80.5457C50.9366 80.0989 51.2383 79.4232 51.5739 79.3761C51.9869 79.3181 52.4774 79.8058 52.9321 80.0619C52.9711 80.0933 53.003 80.1325 53.0261 80.177C54.1419 81.7709 55.6787 82.2735 57.5822 82.1216C60.0745 81.9226 60.7915 81.1282 60.4153 78.6827C59.5436 73.0167 58.6001 67.3594 57.0442 61.8366C56.1342 58.6063 55.0411 55.4229 53.9086 52.2621C53.409 50.8679 52.6733 49.528 51.0276 48.8496C52.3081 48.2486 53.5705 47.8418 54.6108 47.1165C55.6955 46.3604 56.642 45.3621 57.5083 44.3494C58.3209 43.3995 58.9499 42.2924 59.6596 41.2545C59.708 41.2974 59.7564 41.3404 59.8048 41.3833C58.0422 44.5161 56.1138 47.4878 52.3413 48.6893C52.517 48.933 52.6216 49.0652 52.7126 49.2062C53.4646 50.3724 54.3788 51.4671 54.935 52.7205C57.048 57.4829 58.2103 62.5405 59.2472 67.6201C59.8599 70.6215 60.3348 73.6511 60.8689 76.6684C61.0194 77.5186 61.2454 77.6428 62.0111 77.2192C62.9397 76.7055 63.5673 75.9361 63.6099 74.8517C63.6575 74.0072 63.6093 73.1601 63.4662 72.3265C62.7274 68.4668 61.3552 64.8002 59.8746 61.1798C58.5833 58.0224 57.176 54.9124 55.8329 51.776C55.7279 51.4667 55.6483 51.1494 55.5949 50.8272ZM48.4108 9.96542C48.1815 10.0001 47.9502 10.02 47.7184 10.0248C46.7468 9.96365 46.0265 10.4172 45.5009 11.1713C45.1702 11.6378 44.9022 12.1457 44.7037 12.6819C44.1317 14.2813 44.569 15.3069 46.1591 15.8807C47.0371 16.1974 47.9914 16.3124 48.9189 16.4748C49.1501 16.5152 49.4108 16.3866 49.658 16.3358C49.5984 16.0777 49.5905 15.7908 49.4667 15.5685C49.2803 15.2742 49.0649 14.9993 48.8237 14.7479C48.3036 14.1436 47.7502 13.5662 47.2569 12.941C46.6208 12.135 46.7169 11.5698 47.5957 11.0349C48.2106 10.6606 48.871 10.3585 49.5217 10.0462C50.2028 9.71925 50.8653 9.86045 51.2431 10.4701C51.7593 11.3032 52.3137 12.1864 52.5219 13.1216C52.9678 15.1241 52.3273 16.0794 50.4368 16.7884C50.203 16.9049 50.0148 17.0959 49.9017 17.3314C49.7603 17.6501 49.6459 17.9802 49.5598 18.3181C48.7564 20.782 47.3727 21.8305 44.7725 21.9243C43.876 21.9566 42.978 21.9481 42.0812 21.9752C41.1115 22.0045 40.6064 22.3389 40.4429 23.2829C40.2361 24.4764 39.9765 25.7106 40.0803 26.8975C40.2901 29.3534 40.634 31.7961 41.1105 34.2145C41.6423 36.8825 42.4653 39.4798 44.0877 41.7346C46.3313 44.8528 50.5509 45.3002 53.4003 42.7316C54.7644 41.5136 55.8468 40.0132 56.5721 38.3345C58.0036 34.9934 59.3158 31.6008 60.646 28.2171C61.2102 26.7817 61.4283 27.0647 59.8817 26.1232C58.5261 25.298 57.2633 24.3787 56.4128 23.0073C55.7331 21.9352 55.4319 20.6664 55.5572 19.4032C57.7701 19.8086 58.4762 19.4946 59.6639 17.6395C59.7847 17.4508 59.9037 17.2601 60.0098 17.0629C60.8983 15.4173 61.4595 13.615 61.6622 11.7559C61.5659 11.7371 61.4675 11.7309 61.3696 11.7375C59.4864 12.286 57.6025 12.8323 55.7257 13.4021C55.5551 13.4539 55.3046 13.6668 55.3108 13.7942C55.3431 14.1296 55.4347 14.4566 55.5815 14.7599C55.5959 14.793 55.9661 14.6816 56.1658 14.6199C56.2701 14.5775 56.37 14.5253 56.4645 14.4641L56.5833 14.6918C56.1962 14.8698 55.7891 15.2124 55.4289 15.1686C55.1835 15.1388 54.8822 14.5892 54.8224 14.2355C54.7271 13.6722 54.5081 13.4155 53.939 13.3368C53.5384 13.2814 53.1594 13.0696 52.7708 12.9276L52.8223 12.6483C53.094 12.6135 53.3648 12.5687 53.6375 12.5455C55.2935 12.4042 56.9812 12.4215 58.5985 12.0922C60.763 11.6422 62.7455 10.5603 64.2949 8.98339C65.496 7.78372 65.3431 6.16664 64.048 5.12371C63.3519 4.56314 63.084 4.65858 62.766 5.49094C62.4566 6.30092 62.2142 7.17971 61.7195 7.86816C59.6601 10.7342 56.6174 11.6831 53.2795 11.9602C53.0793 11.9768 52.8636 11.8071 52.5005 11.6625C52.765 11.4386 53.0437 11.2319 53.3348 11.0437C54.08 10.6423 54.8464 10.2802 55.5931 9.88141C57.6488 8.78339 59.5843 7.51956 61.0963 5.70871C61.2669 5.50431 61.3 5.18505 61.3969 4.91905C61.1011 4.84047 60.7695 4.63462 60.5158 4.70598C59.562 4.97435 58.5432 5.18449 57.7142 5.68854C55.9317 6.77227 54.2541 8.02815 52.5278 9.20509C52.2265 9.41054 51.8969 9.57453 51.5803 9.75768L51.3746 9.49809C52.1413 7.80694 53.4777 6.59132 54.9755 5.53386C56.485 4.46817 58.1335 3.70675 60.2063 3.59136C60.0289 3.42678 59.8403 3.27484 59.6416 3.13665C56.5509 1.47269 53.3883 1.28689 50.1508 2.68658C47.5749 3.80019 45.8159 7.28597 48.4108 9.96542ZM83.564 46.5626C83.5892 46.4773 83.6144 46.3919 83.6397 46.3066C83.4658 46.0694 83.2771 45.8434 83.0747 45.6299C81.6792 44.3202 80.7915 42.8174 81.0751 40.8008C81.1022 40.6078 80.8154 40.3073 80.6025 40.1619C80.3889 40.0159 80.0833 40.0084 79.8216 39.9283C78.7052 39.5866 78.4273 39.1562 78.5686 38.0015C78.5867 37.8532 78.5956 37.7034 78.6199 37.5562C78.7387 36.8373 78.369 36.5177 77.708 36.5163C77.1385 36.5151 76.5475 36.5063 76.0026 36.6448C73.036 37.3991 70.0825 38.2045 67.12 38.9749C66.6105 39.1074 66.3615 39.3731 66.3388 39.9049C66.2167 42.6196 65.7833 45.3112 65.0472 47.927C64.9247 48.3671 65.0472 48.5974 65.3914 48.8637C69.0921 51.7266 72.7691 54.6203 76.4767 57.4741C77.5205 58.274 78.6063 59.0173 79.7297 59.7009C80.4067 60.1146 81.1143 59.9186 81.5984 59.2934C83.4899 56.8509 84.4097 54.056 84.4795 50.9824C84.4977 50.6277 84.4014 50.2765 84.2048 49.9808C84.0081 49.685 83.7216 49.4603 83.3874 49.3399C82.6573 49.0236 81.8985 48.778 81.1214 48.6065C76.8421 47.7857 72.554 47.0103 68.2702 46.2127C68.033 46.1534 67.7999 46.0785 67.5725 45.9887L67.6185 45.7057C72.9463 45.6153 78.2474 46.318 83.564 46.5626ZM39.6936 28.4099L39.4556 28.3931C39.358 29.0407 39.2542 29.6874 39.1638 30.336C38.6744 33.8505 38.4136 37.3759 38.8789 40.911C39.0053 41.9209 39.248 42.9127 39.602 43.8669C39.9605 44.8092 40.742 44.9865 41.5308 44.3595C42.1867 43.8382 42.7388 43.1855 43.3323 42.5865C43.6425 42.2735 43.6231 41.9595 43.3901 41.5848C41.6196 38.7371 40.8269 35.5537 40.2618 32.2999C40.0377 31.0093 39.881 29.707 39.6936 28.4099ZM52.2276 14.1201L52.4288 14.031C52.0351 13.1354 51.7223 12.1918 51.2278 11.3557C50.5555 10.2188 50.2068 10.1727 49.0397 10.7389C48.7262 10.8909 48.4121 11.0454 48.1142 11.2251C47.1256 11.8215 47.1061 12.1318 47.8308 13.0249C48.657 14.043 49.4176 15.1142 50.2342 16.1403C50.3096 16.2049 50.3987 16.2514 50.4947 16.2762C50.5908 16.301 50.6913 16.3036 50.7885 16.2836C51.7677 16.0363 52.263 15.2671 52.2276 14.1201ZM29.2015 40.6508L29.2393 40.8101C30.2892 40.8722 31.3388 40.9394 32.389 40.9952C33.6506 41.0622 34.9123 41.1462 36.1748 41.1676C36.6694 41.176 37.2123 40.9345 37.1541 40.3754C37.1134 39.9854 36.7755 39.4339 36.439 39.3093C35.8192 39.0684 35.1466 38.9963 34.4898 39.1004C33.0352 39.3942 31.6121 39.8471 30.1814 40.2536C29.8476 40.3675 29.5204 40.5001 29.2015 40.6508ZM11.3827 64.0596C12.8103 64.1705 14.5456 63.0672 14.9679 61.7861C15.1533 61.2234 15.1744 60.5959 14.6528 60.3106C14.1968 60.0992 13.6762 60.0741 13.202 60.2408C11.9818 60.7161 11.0778 62.7389 11.3827 64.0596ZM59.9746 4.23772C57.7038 3.84734 52.8438 6.85975 52.1643 9.09323C54.6679 7.13318 57.0852 5.30555 59.9746 4.23772Z" fill="#774653"/>
</g>
<defs>
<clipPath id="clip0_445_6533">
<rect width="85" height="85" fill="white"/>
</clipPath>
</defs>
</svg>
