<svg width="85" height="85" viewBox="0 0 85 85" fill="none" xmlns="http://www.w3.org/2000/svg">
<g clip-path="url(#clip0_445_6465)">
<path d="M7.15062 48.5953C1.81176 45.4859 1.69668 43.7328 6.5419 39.1772C6.01215 39.1208 5.63267 39.0468 5.25298 39.0457C3.53613 39.041 2.82801 37.9863 3.08535 36.502C3.95933 31.4612 6.34812 27.2698 10.7223 24.5083C11.7099 23.8848 13.2015 23.9448 14.4675 23.9073C18.9121 23.7756 23.3626 23.812 27.8035 23.6159C29.0169 23.4871 30.1902 23.1059 31.2485 22.4966C34.2693 20.939 37.2102 19.2266 40.2105 17.6277C42.8941 16.1744 45.9868 15.6685 48.9915 16.1914C57.6189 17.4578 66.0962 19.5981 74.2936 22.5793C75.742 23.1178 77.1449 23.7723 78.4889 24.5363C82.5638 26.8705 83.0937 30.2753 79.999 33.7539C79.7954 33.9828 79.5973 34.2167 79.5532 34.2676C80.4382 35.7883 81.2191 37.3676 81.8906 38.9946C82.0029 39.4311 82.0221 39.8865 81.9471 40.3311C81.872 40.7756 81.7043 41.1992 81.4549 41.5742C80.309 43.1905 78.9562 44.6486 77.4312 45.9109C68.2232 53.0205 58.8954 59.974 49.6865 67.0825C47.9512 68.5423 45.8526 69.5005 43.6158 69.8543C41.3789 70.2082 39.0882 69.9443 36.9895 69.091C26.7849 65.3464 16.5359 61.7174 6.39847 57.7979C2.13577 56.1498 1.91557 52.6766 5.55498 49.8654C6.03879 49.4917 6.51204 49.1043 7.15062 48.5953ZM12.947 27.274L13.4667 26.5957C24.5744 34.8767 34.7572 44.5514 47.3304 50.069C54.8875 39.3347 64.9113 31.9592 75.4763 24.924C75.1323 24.7705 74.7784 24.6407 74.4168 24.5354C64.2712 22.4799 53.8837 21.8995 43.5734 22.8122C33.4838 23.7696 23.4618 25.607 13.244 24.8816C11.9019 24.9493 10.6263 25.4883 9.64022 26.4043C7.015 28.7138 5.13946 31.7593 4.25541 35.1482C3.53065 37.7171 4.06056 38.2272 6.69599 38.1003C11.8184 37.8537 16.9439 37.6759 22.0725 37.567C23.5662 37.636 25.0545 37.7949 26.5292 38.0429C21.7061 34.2187 17.3266 30.7464 12.947 27.274ZM48.4737 51.6436C46.0772 50.4655 43.6015 49.4603 41.345 48.0914C37.5906 45.8138 34.0142 43.2424 30.2839 40.9227C28.992 39.9923 27.5062 39.3687 25.9388 39.099C21.3336 38.7321 16.6984 38.7628 12.0788 38.5524C9.75561 38.4466 7.94811 39.3808 6.19329 40.7902C3.02706 43.3332 3.20383 45.6274 6.94123 47.2906C10.5561 48.8993 14.1785 50.5396 17.9188 51.8059C25.6391 54.4196 33.411 56.8755 41.2346 59.1737C42.7893 59.503 44.4105 59.2309 45.7737 58.4118C50.3841 55.5258 54.8121 52.3456 59.2919 49.2515C60.3944 48.49 61.4343 47.6373 62.5826 46.766C59.5827 45.2263 59.6216 45.2841 57.1767 46.9431C53.5416 49.4098 49.8515 51.7954 46.1715 54.1949C45.274 54.8161 44.2482 55.2259 43.1708 55.3937C42.0934 55.5615 40.9921 55.4829 39.9491 55.1639C32.7897 53.0126 25.6547 50.7798 18.4998 48.6131C14.5847 47.4275 11.0289 44.9482 6.68536 45.2798C6.62886 45.2841 6.55791 45.098 6.40414 44.8651C6.93613 44.6407 7.43509 44.4303 7.87795 44.2436L6.87966 42.7654L7.25182 42.4617C8.32258 43.163 9.30547 44.1214 10.478 44.5248C19.7695 47.7217 29.1022 50.7977 38.411 53.9439C42.2929 55.2559 45.546 54.0343 48.4737 51.6436ZM66.9076 48.6383C64.7316 46.9196 63.3294 47.3295 61.5997 48.6315C56.9061 52.1646 52.0239 55.4463 47.2045 58.8104C46.1586 59.5331 44.967 60.0161 43.7142 60.2252C42.4615 60.4343 41.1782 60.3645 39.9554 60.0206C29.9672 57.7305 20.4807 53.9696 11.0639 50.0465C8.9328 49.1586 7.52042 49.3089 5.83242 50.7994C3.22644 53.1006 3.31245 55.4108 6.50208 56.8245C16.8166 61.489 27.4566 65.3923 38.3373 68.5031C42.1111 69.5524 45.3554 69.0699 48.4405 66.7207C58.0423 59.4097 67.6911 52.1605 77.2594 44.8059C78.5769 43.6815 79.744 42.3909 80.7315 40.9661C81.086 40.5028 80.9637 39.6721 81.0593 39.0093L80.4778 38.7991C79.4706 39.5931 78.4465 40.3664 77.4602 41.1856C75.6715 42.6713 73.7975 43.9783 72.5826 46.1588C71.9272 47.335 70.2199 47.9551 68.9282 48.7267C68.2315 49.1427 67.3178 49.2146 66.6598 49.6709C59.9492 54.3239 53.2776 59.0336 46.5801 63.7057C45.5724 64.4407 44.4057 64.9259 43.1753 65.1216C41.9448 65.3173 40.6857 65.218 39.5009 64.8317C32.0025 62.5277 24.5214 60.1668 17.0407 57.8049C13.6076 56.7209 10.4233 54.7234 6.62726 54.9728C6.58418 54.9756 6.52773 54.7736 6.41625 54.5374L7.96583 54.036C7.54156 53.4971 7.19907 53.062 6.85658 52.627L7.18764 52.2344C7.66786 52.5237 8.15517 52.8018 8.62647 53.105C9.1476 53.5419 9.71825 53.9156 10.3266 54.2184C19.9876 57.4674 29.6584 60.6865 39.3393 63.8756C40.5198 64.2735 41.7785 64.3801 43.0088 64.1866C44.2391 63.993 45.4048 63.5049 46.4073 62.7636C53.1785 58.0986 59.9491 53.433 66.9076 48.6383ZM58.4087 43.3441L58.591 44.0083C61.5705 45.1661 64.5637 46.2901 67.523 47.4978C68.0631 47.7286 68.6599 47.7916 69.2361 47.6784C69.8123 47.5653 70.3414 47.2813 70.755 46.8631C73.25 44.8025 73.4153 41.9633 73.3008 39.0674C73.1958 36.4134 72.9753 33.764 72.7668 30.5044C67.8366 34.9133 63.1227 39.1287 58.4087 43.3441ZM71.8772 22.9025C64.9222 20.3049 57.7102 18.4609 50.3644 17.4017C48.3076 17.0925 45.9831 16.5924 44.1424 17.2297C40.2261 18.5855 36.5468 20.6301 32.7703 22.3924L32.9765 23.1127C45.8494 20.9633 58.982 20.8923 71.8772 22.9025ZM77.3686 27.1405L77.1891 26.3651C76.1014 26.6231 74.8191 26.5966 73.9593 27.1881C70.0165 29.7417 66.2259 32.5245 62.607 35.5223C58.2499 39.3442 54.2775 43.6109 50.1965 47.7426C49.624 48.4803 49.1427 49.2848 48.7633 50.1387L49.189 50.4931C49.8769 50.1541 50.5345 49.7563 51.1545 49.3042C52.7016 47.9744 54.2491 46.6323 55.6752 45.1757C62.2902 38.4186 68.7458 31.4791 77.3686 27.1405ZM74.4765 37.773C76.6073 35.5952 78.674 33.5893 80.5879 31.4461C81.024 30.9578 80.932 29.9948 81.0831 29.2502L80.4549 29.0669C78.9662 30.3539 77.4122 31.5631 75.7992 32.6893C73.8942 33.8955 73.5197 35.3875 74.4765 37.773ZM74.4191 42.3419C75.8718 41.1986 77.3128 40.0769 78.7402 38.938C80.8048 37.2906 80.7588 36.8222 78.3602 35.4382C76.4823 37.3545 73.1162 38.3566 74.4191 42.3419ZM73.9861 32.9641C75.8767 31.4621 77.5963 30.0892 79.324 28.7267C79.9838 28.2063 80.7014 27.6484 79.877 26.7935C79.0814 25.9686 78.2307 25.0816 76.8681 25.5085L79.1509 26.8864C77.5059 29.1009 73.1952 28.6568 73.9861 32.9641Z" fill="#774653"/>
</g>
<defs>
<clipPath id="clip0_445_6465">
<rect width="79" height="54" fill="white" transform="translate(3 16)"/>
</clipPath>
</defs>
</svg>
