<svg width="85" height="85" viewBox="0 0 85 85" fill="none" xmlns="http://www.w3.org/2000/svg">
<g clip-path="url(#clip0_445_6543)">
<mask id="path-1-outside-1_445_6543" maskUnits="userSpaceOnUse" x="-4.5917" y="3.5567" width="159.687" height="99.4886" fill="black">
<rect fill="white" x="-4.5917" y="3.5567" width="159.687" height="99.4886"/>
<path d="M8.48641 32.6251C8.90787 32.2164 9.40915 31.862 9.73306 31.3868C9.99343 31.0049 10.1097 30.543 10.0612 30.0834C10.0128 29.6237 9.80263 29.1963 9.46831 28.8771C8.73175 28.1691 7.66792 28.026 6.87239 28.528C6.45194 28.7809 6.134 29.1738 5.97439 29.6378C5.81478 30.1018 5.82369 30.6071 5.99955 31.0652C6.18182 31.5142 6.43305 31.9319 6.74418 32.3035C11.4116 37.8621 14.2779 44.2293 15.3433 51.4051C15.3682 51.5707 15.4242 51.7316 15.4753 51.9327C20.0275 51.0523 24.5559 50.2491 29.1448 49.9061L29.1847 50.1983C27.7954 50.3683 26.3999 50.4994 25.018 50.7166C22.1199 51.1721 19.2303 51.6807 16.3342 52.1492C15.6721 52.2563 15.4366 52.5459 15.5517 53.2381C15.6893 54.0656 15.7066 54.9131 15.7825 55.8303C17.834 55.3493 19.7619 54.8674 21.7032 54.4473C30.4728 52.5496 39.3453 51.7349 48.2978 52.3604C52.9556 52.6859 57.587 53.3993 62.226 53.9734C62.9873 54.097 63.7358 54.289 64.4627 54.5469C66.8189 55.2876 67.908 56.8044 67.8001 59.2799C67.7644 60.099 67.5356 60.9085 67.4189 61.7259C67.3461 62.2366 67.0325 62.3584 66.5801 62.3597C65.3304 62.363 64.5027 61.4987 64.5437 60.221C64.5712 59.3661 64.5244 58.5027 64.6312 57.6583C64.7456 56.7537 64.4358 56.3034 63.4096 56.2562C62.8014 58.1612 62.8634 60.177 62.7861 62.3083C62.2404 62.0694 61.8112 61.8831 61.3833 61.6939C57.96 60.1804 54.3117 59.9285 50.6527 59.8984C42.6737 59.8328 34.6929 59.7692 26.715 59.8746C23.2183 59.9208 19.727 60.3825 16.2333 60.6558C15.9321 60.6793 15.631 60.7051 15.2461 60.7367C15.2911 59.4494 15.3195 58.2627 15.3797 57.0776C15.4085 56.5099 15.3236 56.1783 14.6421 56.0056C13.2085 55.6423 12.8542 53.899 14.1255 52.9217C15.1101 52.1648 15.0264 51.4094 14.8443 50.4361C13.6131 43.8534 10.9788 37.9294 6.6531 32.7834C5.91263 31.9025 5.1974 30.9942 5.59865 29.7027C5.92508 28.6519 6.84019 27.8708 7.8137 27.8518C8.34527 27.8465 8.86621 28.0007 9.30928 28.2944C9.75236 28.5882 10.0972 29.0079 10.2994 29.4996C10.4737 29.9875 10.4894 30.5181 10.3441 31.0155C10.1988 31.5129 9.90006 31.9516 9.49047 32.269C9.29425 32.43 9.08 32.569 8.83658 32.7452C8.89305 32.9044 8.95773 33.0605 9.03037 33.2129C10.6456 36.201 12.264 39.1874 13.8856 42.172C14.1706 42.6948 14.4573 43.3281 15.2049 43.166C15.934 43.0079 16.1464 42.3486 16.1756 41.7084C16.3286 38.3486 16.4779 34.9879 16.5601 31.6259C16.5922 30.8369 16.4385 30.0515 16.1114 29.3328C15.7843 28.6142 15.2929 27.9824 14.6769 27.4885C13.717 26.6799 12.9611 25.7327 12.8894 24.3969C12.8494 23.6525 13.0346 22.9133 13.4209 22.2757C13.8072 21.6381 14.3766 21.1317 15.055 20.8225C15.7333 20.5132 16.4891 20.4156 17.2238 20.5422C17.9584 20.6689 18.6379 21.0139 19.1736 21.5324C19.7334 22.0686 20.1201 22.7599 20.2841 23.5176C20.448 24.2752 20.3818 25.0646 20.0938 25.7843C19.9137 26.1717 19.7035 26.5445 19.4651 26.899C18.8208 27.9311 18.5598 29.0401 19.1209 30.1535C21.1857 34.2511 23.6901 38.048 27.0502 41.2157C27.5867 41.6849 28.189 42.0731 28.8379 42.3679C31.0666 43.4692 33.5066 42.928 34.9971 40.8345C35.8971 39.5191 36.6659 38.1186 37.2923 36.653C38.3416 34.3106 39.2127 31.8889 40.2384 29.5352C41.2065 27.3137 41.2815 25.158 40.2826 22.9145C39.814 21.8621 39.4198 20.7032 39.3362 19.5673C39.1335 16.8108 41.288 14.5617 44.0528 14.4247C46.7941 14.289 49.1861 16.4894 49.3159 19.3013C49.3771 20.6282 49.1088 21.9552 48.1487 22.8684C46.1548 24.7649 46.1177 26.9531 46.7041 29.4042C47.8826 34.3303 50.0438 38.7251 53.4436 42.4973C54.3656 43.5203 55.5236 43.7908 56.7901 43.4575C57.5393 43.2805 58.2473 42.9605 58.8752 42.515C61.4837 40.5205 63.9723 38.3864 65.9007 35.6862C67.6954 33.1734 68.4803 30.4421 67.7287 27.3631C67.4669 26.291 67.3624 25.2137 68.1146 24.2567C69.0945 23.0101 70.7415 22.5857 72.1011 23.2276C73.502 23.8889 74.435 25.657 74.051 27.1448C73.8628 27.8736 73.5824 28.66 73.1074 29.2198C70.5635 32.2172 69.8915 35.7612 69.9346 39.5311C69.9509 40.9552 70.0227 42.3796 70.1108 43.8013C70.1398 44.2696 70.2995 44.7299 70.4317 45.3433C71.724 44.5375 72.8549 43.4981 73.7667 42.2782C75.3801 40.2255 76.4267 37.7854 76.8019 35.2017C76.9184 34.3574 77.195 33.5431 77.6167 32.8026C78.261 31.7159 79.4435 31.4173 80.3363 31.919C81.1702 32.3875 81.5449 33.6816 81.0271 34.7366C80.6475 35.5014 80.1764 36.2172 79.6243 36.8685C76.3245 40.7777 73.738 45.1227 71.6205 49.7631C70.9084 51.3234 70.9694 52.7539 72.0608 54.1697C73.3777 55.8779 73.4191 57.0465 71.9141 58.5876C69.9636 60.5849 69.74 62.5987 71.2085 64.8948C71.3317 65.12 71.4421 65.3521 71.539 65.5898C72.3644 67.2793 72.3179 68.9182 71.1236 70.4074C68.5996 73.5547 70.0152 76.8479 72.1887 78.8767C74.2796 80.8282 76.8061 82.1079 79.3558 83.3228C83.2391 85.2063 87.3665 86.5383 91.6182 87.2803C97.8639 88.3347 103.549 86.8456 108.683 83.3295C112.444 80.7534 116.012 77.8961 119.676 75.1774C122.992 72.717 126.458 70.5162 130.487 69.4018C134.67 68.2444 138.809 68.309 142.714 70.3743C143.972 71.0398 145.023 72.1039 146.149 73.0101C146.267 73.1172 146.362 73.2471 146.429 73.3919C146.496 73.5367 146.533 73.6934 146.538 73.8529C146.433 73.8091 146.336 73.7489 146.25 73.6745C143.615 70.4627 140.094 69.1933 136.072 69.0526C131.531 68.8936 127.453 70.4129 123.764 72.8677C120.375 75.1236 117.164 77.6523 113.91 80.1069C110.529 82.6561 107.097 85.0995 103.091 86.6059C99.2797 88.0392 95.3615 88.3206 91.3872 87.6041C84.905 86.4356 78.8671 84.1039 73.433 80.3436C71.3373 78.8934 69.7197 77.0482 69.4398 74.3501C69.3073 73.072 69.6559 71.9249 70.3605 70.8669C70.6762 70.3928 70.9741 69.9066 71.2728 69.4214C71.8718 68.4483 71.9116 67.4167 71.4962 66.3824C71.1814 65.6177 70.8283 64.8694 70.4381 64.1404C69.4762 62.3058 69.6643 60.6365 71.0696 59.0993C71.4335 58.7012 71.7383 58.2494 72.0747 57.8257C72.8139 56.8949 72.876 55.8416 72.1516 54.9817C70.2813 52.7615 70.7132 50.6211 71.8966 48.251C73.9902 44.0029 76.5562 40.0044 79.5459 36.3314C80.0775 35.6687 80.4996 34.9253 80.7964 34.1292C80.936 33.7926 80.9484 33.4166 80.8312 33.0715C80.714 32.7264 80.4753 32.4357 80.1595 32.2538C79.8289 32.0702 79.4418 32.016 79.0736 32.1019C78.7053 32.1877 78.3821 32.4074 78.1667 32.7182C77.6587 33.4961 77.3102 34.3672 77.1415 35.2809C76.4895 39.4757 74.4667 42.8093 71.1032 45.3578C70.9058 45.5074 70.6786 45.6176 70.3067 45.8417C70.1074 45.2268 69.8361 44.7139 69.7855 44.18C69.5162 41.338 69.446 38.4968 69.8339 35.6508C70.1683 33.1975 71.1854 31.0808 72.7102 29.1651C73.3593 28.3496 73.822 27.4474 73.7544 26.3441C73.6633 24.8581 72.6839 23.6451 71.2807 23.3354C70.133 23.082 68.6004 23.6966 68.2346 24.8542C67.9616 25.7179 68.0257 26.7605 68.1937 27.6769C68.6132 29.9658 68.368 32.1502 67.2156 34.1373C66.4085 35.5757 65.4309 36.9115 64.3041 38.1159C62.6537 39.8096 60.8909 41.3899 59.0276 42.8461C57.5106 44.0403 55.7356 44.4528 53.9249 43.359C53.5019 43.0712 53.1259 42.7198 52.8103 42.3172C49.1617 38.09 46.9307 33.2003 46.0268 27.6985C45.7333 25.9116 46.2415 24.4019 47.5139 23.0903C48.0631 22.5424 48.4749 21.8724 48.7157 21.135C48.9566 20.3976 49.0196 19.6136 48.8998 18.8472C48.8138 18.2161 48.6004 17.609 48.2726 17.0628C47.9448 16.5167 47.5094 16.0428 46.9928 15.6701C46.4763 15.2974 45.8894 15.0335 45.2677 14.8946C44.6461 14.7556 44.0027 14.7445 43.3766 14.8618C40.8847 15.3043 39.2319 17.8227 39.7805 20.3887C39.8918 21.0071 40.0864 21.6075 40.3588 22.1737C41.7798 24.8712 41.5882 27.5155 40.359 30.2313C39.077 33.0636 37.9892 35.9842 36.6919 38.8089C36.1795 39.8893 35.4935 40.8783 34.6611 41.7366C32.9239 43.5508 30.3597 43.7505 28.1309 42.4334C26.4494 41.4397 25.1497 40.0356 24.0321 38.4834C22.5 36.3557 21.0703 34.154 19.6125 31.9735C19.3731 31.5848 19.1613 31.1799 18.9784 30.7618C18.2673 29.2846 18.2341 27.8669 19.2891 26.5021C19.5894 26.1179 19.8044 25.6741 19.9197 25.2003C20.0351 24.7265 20.0481 24.2336 19.9579 23.7543C19.7144 22.2664 18.6848 21.1959 17.2375 20.938C15.8057 20.6828 14.3707 21.2832 13.7594 22.3932C12.9537 23.8561 13.107 25.3135 14.1942 26.5062C14.3036 26.6381 14.4245 26.7599 14.5556 26.8702C16.619 28.4413 17.0697 30.6328 16.9573 33.051C16.8316 35.7564 16.7204 38.4624 16.6028 41.1682C16.599 41.2536 16.5972 41.3394 16.5884 41.4244C16.4584 42.6802 15.9842 43.4487 15.2004 43.5446C14.128 43.6758 13.8304 42.7868 13.4428 42.0811C11.9314 39.3289 10.448 36.5612 8.93793 33.8081C8.70955 33.4461 8.45762 33.0995 8.18377 32.7705C8.28465 32.722 8.38553 32.6736 8.48641 32.6251ZM62.2987 61.6625C62.506 59.9376 62.6822 58.3265 62.9057 56.722C62.9555 56.3645 62.8061 55.7613 63.53 55.8458C64.5267 55.9621 65.0459 56.3609 65.0242 57.0115C64.9871 58.1226 64.9335 59.2331 64.8899 60.344C64.8739 60.5616 64.905 60.7801 64.9809 60.9846C65.0569 61.1891 65.1759 61.3748 65.33 61.5292C65.4842 61.6837 65.6697 61.8031 65.874 61.8795C66.0784 61.9558 66.2968 61.9873 66.5144 61.9718C66.7246 61.9537 67.0504 61.7157 67.0914 61.5283C67.8567 58.034 67.7053 55.4673 62.9689 54.4991C62.9409 54.4934 62.913 54.4876 62.885 54.4821C58.069 53.536 53.1924 52.9307 48.2913 52.671C37.4095 52.0979 26.7222 53.3284 16.2044 56.1218C16.1004 56.1615 16.0075 56.2255 15.9334 56.3086C15.8594 56.3916 15.8064 56.4912 15.7789 56.5991C15.7041 57.813 15.6814 59.0301 15.6409 60.2833C15.8738 60.2866 16.0406 60.3008 16.2057 60.2896C20.725 59.9828 25.2412 59.4752 29.7639 59.4097C37.0866 59.3036 44.4139 59.46 51.7385 59.5631C54.5664 59.6029 57.3833 59.8711 60.0902 60.7883C60.8385 61.0418 61.5619 61.3686 62.2987 61.6625ZM15.3746 55.7699C15.299 54.7278 15.2261 53.7226 15.1482 52.6483C14.1279 53.1755 13.6129 54.0081 13.7971 54.7334C13.9834 55.4672 14.5051 55.7734 15.3746 55.7699Z"/>
</mask>
<path d="M8.48641 32.6251C8.90787 32.2164 9.40915 31.862 9.73306 31.3868C9.99343 31.0049 10.1097 30.543 10.0612 30.0834C10.0128 29.6237 9.80263 29.1963 9.46831 28.8771C8.73175 28.1691 7.66792 28.026 6.87239 28.528C6.45194 28.7809 6.134 29.1738 5.97439 29.6378C5.81478 30.1018 5.82369 30.6071 5.99955 31.0652C6.18182 31.5142 6.43305 31.9319 6.74418 32.3035C11.4116 37.8621 14.2779 44.2293 15.3433 51.4051C15.3682 51.5707 15.4242 51.7316 15.4753 51.9327C20.0275 51.0523 24.5559 50.2491 29.1448 49.9061L29.1847 50.1983C27.7954 50.3683 26.3999 50.4994 25.018 50.7166C22.1199 51.1721 19.2303 51.6807 16.3342 52.1492C15.6721 52.2563 15.4366 52.5459 15.5517 53.2381C15.6893 54.0656 15.7066 54.9131 15.7825 55.8303C17.834 55.3493 19.7619 54.8674 21.7032 54.4473C30.4728 52.5496 39.3453 51.7349 48.2978 52.3604C52.9556 52.6859 57.587 53.3993 62.226 53.9734C62.9873 54.097 63.7358 54.289 64.4627 54.5469C66.8189 55.2876 67.908 56.8044 67.8001 59.2799C67.7644 60.099 67.5356 60.9085 67.4189 61.7259C67.3461 62.2366 67.0325 62.3584 66.5801 62.3597C65.3304 62.363 64.5027 61.4987 64.5437 60.221C64.5712 59.3661 64.5244 58.5027 64.6312 57.6583C64.7456 56.7537 64.4358 56.3034 63.4096 56.2562C62.8014 58.1612 62.8634 60.177 62.7861 62.3083C62.2404 62.0694 61.8112 61.8831 61.3833 61.6939C57.96 60.1804 54.3117 59.9285 50.6527 59.8984C42.6737 59.8328 34.6929 59.7692 26.715 59.8746C23.2183 59.9208 19.727 60.3825 16.2333 60.6558C15.9321 60.6793 15.631 60.7051 15.2461 60.7367C15.2911 59.4494 15.3195 58.2627 15.3797 57.0776C15.4085 56.5099 15.3236 56.1783 14.6421 56.0056C13.2085 55.6423 12.8542 53.899 14.1255 52.9217C15.1101 52.1648 15.0264 51.4094 14.8443 50.4361C13.6131 43.8534 10.9788 37.9294 6.6531 32.7834C5.91263 31.9025 5.1974 30.9942 5.59865 29.7027C5.92508 28.6519 6.84019 27.8708 7.8137 27.8518C8.34527 27.8465 8.86621 28.0007 9.30928 28.2944C9.75236 28.5882 10.0972 29.0079 10.2994 29.4996C10.4737 29.9875 10.4894 30.5181 10.3441 31.0155C10.1988 31.5129 9.90006 31.9516 9.49047 32.269C9.29425 32.43 9.08 32.569 8.83658 32.7452C8.89305 32.9044 8.95773 33.0605 9.03037 33.2129C10.6456 36.201 12.264 39.1874 13.8856 42.172C14.1706 42.6948 14.4573 43.3281 15.2049 43.166C15.934 43.0079 16.1464 42.3486 16.1756 41.7084C16.3286 38.3486 16.4779 34.9879 16.5601 31.6259C16.5922 30.8369 16.4385 30.0515 16.1114 29.3328C15.7843 28.6142 15.2929 27.9824 14.6769 27.4885C13.717 26.6799 12.9611 25.7327 12.8894 24.3969C12.8494 23.6525 13.0346 22.9133 13.4209 22.2757C13.8072 21.6381 14.3766 21.1317 15.055 20.8225C15.7333 20.5132 16.4891 20.4156 17.2238 20.5422C17.9584 20.6689 18.6379 21.0139 19.1736 21.5324C19.7334 22.0686 20.1201 22.7599 20.2841 23.5176C20.448 24.2752 20.3818 25.0646 20.0938 25.7843C19.9137 26.1717 19.7035 26.5445 19.4651 26.899C18.8208 27.9311 18.5598 29.0401 19.1209 30.1535C21.1857 34.2511 23.6901 38.048 27.0502 41.2157C27.5867 41.6849 28.189 42.0731 28.8379 42.3679C31.0666 43.4692 33.5066 42.928 34.9971 40.8345C35.8971 39.5191 36.6659 38.1186 37.2923 36.653C38.3416 34.3106 39.2127 31.8889 40.2384 29.5352C41.2065 27.3137 41.2815 25.158 40.2826 22.9145C39.814 21.8621 39.4198 20.7032 39.3362 19.5673C39.1335 16.8108 41.288 14.5617 44.0528 14.4247C46.7941 14.289 49.1861 16.4894 49.3159 19.3013C49.3771 20.6282 49.1088 21.9552 48.1487 22.8684C46.1548 24.7649 46.1177 26.9531 46.7041 29.4042C47.8826 34.3303 50.0438 38.7251 53.4436 42.4973C54.3656 43.5203 55.5236 43.7908 56.7901 43.4575C57.5393 43.2805 58.2473 42.9605 58.8752 42.515C61.4837 40.5205 63.9723 38.3864 65.9007 35.6862C67.6954 33.1734 68.4803 30.4421 67.7287 27.3631C67.4669 26.291 67.3624 25.2137 68.1146 24.2567C69.0945 23.0101 70.7415 22.5857 72.1011 23.2276C73.502 23.8889 74.435 25.657 74.051 27.1448C73.8628 27.8736 73.5824 28.66 73.1074 29.2198C70.5635 32.2172 69.8915 35.7612 69.9346 39.5311C69.9509 40.9552 70.0227 42.3796 70.1108 43.8013C70.1398 44.2696 70.2995 44.7299 70.4317 45.3433C71.724 44.5375 72.8549 43.4981 73.7667 42.2782C75.3801 40.2255 76.4267 37.7854 76.8019 35.2017C76.9184 34.3574 77.195 33.5431 77.6167 32.8026C78.261 31.7159 79.4435 31.4173 80.3363 31.919C81.1702 32.3875 81.5449 33.6816 81.0271 34.7366C80.6475 35.5014 80.1764 36.2172 79.6243 36.8685C76.3245 40.7777 73.738 45.1227 71.6205 49.7631C70.9084 51.3234 70.9694 52.7539 72.0608 54.1697C73.3777 55.8779 73.4191 57.0465 71.9141 58.5876C69.9636 60.5849 69.74 62.5987 71.2085 64.8948C71.3317 65.12 71.4421 65.3521 71.539 65.5898C72.3644 67.2793 72.3179 68.9182 71.1236 70.4074C68.5996 73.5547 70.0152 76.8479 72.1887 78.8767C74.2796 80.8282 76.8061 82.1079 79.3558 83.3228C83.2391 85.2063 87.3665 86.5383 91.6182 87.2803C97.8639 88.3347 103.549 86.8456 108.683 83.3295C112.444 80.7534 116.012 77.8961 119.676 75.1774C122.992 72.717 126.458 70.5162 130.487 69.4018C134.67 68.2444 138.809 68.309 142.714 70.3743C143.972 71.0398 145.023 72.1039 146.149 73.0101C146.267 73.1172 146.362 73.2471 146.429 73.3919C146.496 73.5367 146.533 73.6934 146.538 73.8529C146.433 73.8091 146.336 73.7489 146.25 73.6745C143.615 70.4627 140.094 69.1933 136.072 69.0526C131.531 68.8936 127.453 70.4129 123.764 72.8677C120.375 75.1236 117.164 77.6523 113.91 80.1069C110.529 82.6561 107.097 85.0995 103.091 86.6059C99.2797 88.0392 95.3615 88.3206 91.3872 87.6041C84.905 86.4356 78.8671 84.1039 73.433 80.3436C71.3373 78.8934 69.7197 77.0482 69.4398 74.3501C69.3073 73.072 69.6559 71.9249 70.3605 70.8669C70.6762 70.3928 70.9741 69.9066 71.2728 69.4214C71.8718 68.4483 71.9116 67.4167 71.4962 66.3824C71.1814 65.6177 70.8283 64.8694 70.4381 64.1404C69.4762 62.3058 69.6643 60.6365 71.0696 59.0993C71.4335 58.7012 71.7383 58.2494 72.0747 57.8257C72.8139 56.8949 72.876 55.8416 72.1516 54.9817C70.2813 52.7615 70.7132 50.6211 71.8966 48.251C73.9902 44.0029 76.5562 40.0044 79.5459 36.3314C80.0775 35.6687 80.4996 34.9253 80.7964 34.1292C80.936 33.7926 80.9484 33.4166 80.8312 33.0715C80.714 32.7264 80.4753 32.4357 80.1595 32.2538C79.8289 32.0702 79.4418 32.016 79.0736 32.1019C78.7053 32.1877 78.3821 32.4074 78.1667 32.7182C77.6587 33.4961 77.3102 34.3672 77.1415 35.2809C76.4895 39.4757 74.4667 42.8093 71.1032 45.3578C70.9058 45.5074 70.6786 45.6176 70.3067 45.8417C70.1074 45.2268 69.8361 44.7139 69.7855 44.18C69.5162 41.338 69.446 38.4968 69.8339 35.6508C70.1683 33.1975 71.1854 31.0808 72.7102 29.1651C73.3593 28.3496 73.822 27.4474 73.7544 26.3441C73.6633 24.8581 72.6839 23.6451 71.2807 23.3354C70.133 23.082 68.6004 23.6966 68.2346 24.8542C67.9616 25.7179 68.0257 26.7605 68.1937 27.6769C68.6132 29.9658 68.368 32.1502 67.2156 34.1373C66.4085 35.5757 65.4309 36.9115 64.3041 38.1159C62.6537 39.8096 60.8909 41.3899 59.0276 42.8461C57.5106 44.0403 55.7356 44.4528 53.9249 43.359C53.5019 43.0712 53.1259 42.7198 52.8103 42.3172C49.1617 38.09 46.9307 33.2003 46.0268 27.6985C45.7333 25.9116 46.2415 24.4019 47.5139 23.0903C48.0631 22.5424 48.4749 21.8724 48.7157 21.135C48.9566 20.3976 49.0196 19.6136 48.8998 18.8472C48.8138 18.2161 48.6004 17.609 48.2726 17.0628C47.9448 16.5167 47.5094 16.0428 46.9928 15.6701C46.4763 15.2974 45.8894 15.0335 45.2677 14.8946C44.6461 14.7556 44.0027 14.7445 43.3766 14.8618C40.8847 15.3043 39.2319 17.8227 39.7805 20.3887C39.8918 21.0071 40.0864 21.6075 40.3588 22.1737C41.7798 24.8712 41.5882 27.5155 40.359 30.2313C39.077 33.0636 37.9892 35.9842 36.6919 38.8089C36.1795 39.8893 35.4935 40.8783 34.6611 41.7366C32.9239 43.5508 30.3597 43.7505 28.1309 42.4334C26.4494 41.4397 25.1497 40.0356 24.0321 38.4834C22.5 36.3557 21.0703 34.154 19.6125 31.9735C19.3731 31.5848 19.1613 31.1799 18.9784 30.7618C18.2673 29.2846 18.2341 27.8669 19.2891 26.5021C19.5894 26.1179 19.8044 25.6741 19.9197 25.2003C20.0351 24.7265 20.0481 24.2336 19.9579 23.7543C19.7144 22.2664 18.6848 21.1959 17.2375 20.938C15.8057 20.6828 14.3707 21.2832 13.7594 22.3932C12.9537 23.8561 13.107 25.3135 14.1942 26.5062C14.3036 26.6381 14.4245 26.7599 14.5556 26.8702C16.619 28.4413 17.0697 30.6328 16.9573 33.051C16.8316 35.7564 16.7204 38.4624 16.6028 41.1682C16.599 41.2536 16.5972 41.3394 16.5884 41.4244C16.4584 42.6802 15.9842 43.4487 15.2004 43.5446C14.128 43.6758 13.8304 42.7868 13.4428 42.0811C11.9314 39.3289 10.448 36.5612 8.93793 33.8081C8.70955 33.4461 8.45762 33.0995 8.18377 32.7705C8.28465 32.722 8.38553 32.6736 8.48641 32.6251ZM62.2987 61.6625C62.506 59.9376 62.6822 58.3265 62.9057 56.722C62.9555 56.3645 62.8061 55.7613 63.53 55.8458C64.5267 55.9621 65.0459 56.3609 65.0242 57.0115C64.9871 58.1226 64.9335 59.2331 64.8899 60.344C64.8739 60.5616 64.905 60.7801 64.9809 60.9846C65.0569 61.1891 65.1759 61.3748 65.33 61.5292C65.4842 61.6837 65.6697 61.8031 65.874 61.8795C66.0784 61.9558 66.2968 61.9873 66.5144 61.9718C66.7246 61.9537 67.0504 61.7157 67.0914 61.5283C67.8567 58.034 67.7053 55.4673 62.9689 54.4991C62.9409 54.4934 62.913 54.4876 62.885 54.4821C58.069 53.536 53.1924 52.9307 48.2913 52.671C37.4095 52.0979 26.7222 53.3284 16.2044 56.1218C16.1004 56.1615 16.0075 56.2255 15.9334 56.3086C15.8594 56.3916 15.8064 56.4912 15.7789 56.5991C15.7041 57.813 15.6814 59.0301 15.6409 60.2833C15.8738 60.2866 16.0406 60.3008 16.2057 60.2896C20.725 59.9828 25.2412 59.4752 29.7639 59.4097C37.0866 59.3036 44.4139 59.46 51.7385 59.5631C54.5664 59.6029 57.3833 59.8711 60.0902 60.7883C60.8385 61.0418 61.5619 61.3686 62.2987 61.6625ZM15.3746 55.7699C15.299 54.7278 15.2261 53.7226 15.1482 52.6483C14.1279 53.1755 13.6129 54.0081 13.7971 54.7334C13.9834 55.4672 14.5051 55.7734 15.3746 55.7699Z" fill="#774653"/>
<path d="M8.48641 32.6251C8.90787 32.2164 9.40915 31.862 9.73306 31.3868C9.99343 31.0049 10.1097 30.543 10.0612 30.0834C10.0128 29.6237 9.80263 29.1963 9.46831 28.8771C8.73175 28.1691 7.66792 28.026 6.87239 28.528C6.45194 28.7809 6.134 29.1738 5.97439 29.6378C5.81478 30.1018 5.82369 30.6071 5.99955 31.0652C6.18182 31.5142 6.43305 31.9319 6.74418 32.3035C11.4116 37.8621 14.2779 44.2293 15.3433 51.4051C15.3682 51.5707 15.4242 51.7316 15.4753 51.9327C20.0275 51.0523 24.5559 50.2491 29.1448 49.9061L29.1847 50.1983C27.7954 50.3683 26.3999 50.4994 25.018 50.7166C22.1199 51.1721 19.2303 51.6807 16.3342 52.1492C15.6721 52.2563 15.4366 52.5459 15.5517 53.2381C15.6893 54.0656 15.7066 54.9131 15.7825 55.8303C17.834 55.3493 19.7619 54.8674 21.7032 54.4473C30.4728 52.5496 39.3453 51.7349 48.2978 52.3604C52.9556 52.6859 57.587 53.3993 62.226 53.9734C62.9873 54.097 63.7358 54.289 64.4627 54.5469C66.8189 55.2876 67.908 56.8044 67.8001 59.2799C67.7644 60.099 67.5356 60.9085 67.4189 61.7259C67.3461 62.2366 67.0325 62.3584 66.5801 62.3597C65.3304 62.363 64.5027 61.4987 64.5437 60.221C64.5712 59.3661 64.5244 58.5027 64.6312 57.6583C64.7456 56.7537 64.4358 56.3034 63.4096 56.2562C62.8014 58.1612 62.8634 60.177 62.7861 62.3083C62.2404 62.0694 61.8112 61.8831 61.3833 61.6939C57.96 60.1804 54.3117 59.9285 50.6527 59.8984C42.6737 59.8328 34.6929 59.7692 26.715 59.8746C23.2183 59.9208 19.727 60.3825 16.2333 60.6558C15.9321 60.6793 15.631 60.7051 15.2461 60.7367C15.2911 59.4494 15.3195 58.2627 15.3797 57.0776C15.4085 56.5099 15.3236 56.1783 14.6421 56.0056C13.2085 55.6423 12.8542 53.899 14.1255 52.9217C15.1101 52.1648 15.0264 51.4094 14.8443 50.4361C13.6131 43.8534 10.9788 37.9294 6.6531 32.7834C5.91263 31.9025 5.1974 30.9942 5.59865 29.7027C5.92508 28.6519 6.84019 27.8708 7.8137 27.8518C8.34527 27.8465 8.86621 28.0007 9.30928 28.2944C9.75236 28.5882 10.0972 29.0079 10.2994 29.4996C10.4737 29.9875 10.4894 30.5181 10.3441 31.0155C10.1988 31.5129 9.90006 31.9516 9.49047 32.269C9.29425 32.43 9.08 32.569 8.83658 32.7452C8.89305 32.9044 8.95773 33.0605 9.03037 33.2129C10.6456 36.201 12.264 39.1874 13.8856 42.172C14.1706 42.6948 14.4573 43.3281 15.2049 43.166C15.934 43.0079 16.1464 42.3486 16.1756 41.7084C16.3286 38.3486 16.4779 34.9879 16.5601 31.6259C16.5922 30.8369 16.4385 30.0515 16.1114 29.3328C15.7843 28.6142 15.2929 27.9824 14.6769 27.4885C13.717 26.6799 12.9611 25.7327 12.8894 24.3969C12.8494 23.6525 13.0346 22.9133 13.4209 22.2757C13.8072 21.6381 14.3766 21.1317 15.055 20.8225C15.7333 20.5132 16.4891 20.4156 17.2238 20.5422C17.9584 20.6689 18.6379 21.0139 19.1736 21.5324C19.7334 22.0686 20.1201 22.7599 20.2841 23.5176C20.448 24.2752 20.3818 25.0646 20.0938 25.7843C19.9137 26.1717 19.7035 26.5445 19.4651 26.899C18.8208 27.9311 18.5598 29.0401 19.1209 30.1535C21.1857 34.2511 23.6901 38.048 27.0502 41.2157C27.5867 41.6849 28.189 42.0731 28.8379 42.3679C31.0666 43.4692 33.5066 42.928 34.9971 40.8345C35.8971 39.5191 36.6659 38.1186 37.2923 36.653C38.3416 34.3106 39.2127 31.8889 40.2384 29.5352C41.2065 27.3137 41.2815 25.158 40.2826 22.9145C39.814 21.8621 39.4198 20.7032 39.3362 19.5673C39.1335 16.8108 41.288 14.5617 44.0528 14.4247C46.7941 14.289 49.1861 16.4894 49.3159 19.3013C49.3771 20.6282 49.1088 21.9552 48.1487 22.8684C46.1548 24.7649 46.1177 26.9531 46.7041 29.4042C47.8826 34.3303 50.0438 38.7251 53.4436 42.4973C54.3656 43.5203 55.5236 43.7908 56.7901 43.4575C57.5393 43.2805 58.2473 42.9605 58.8752 42.515C61.4837 40.5205 63.9723 38.3864 65.9007 35.6862C67.6954 33.1734 68.4803 30.4421 67.7287 27.3631C67.4669 26.291 67.3624 25.2137 68.1146 24.2567C69.0945 23.0101 70.7415 22.5857 72.1011 23.2276C73.502 23.8889 74.435 25.657 74.051 27.1448C73.8628 27.8736 73.5824 28.66 73.1074 29.2198C70.5635 32.2172 69.8915 35.7612 69.9346 39.5311C69.9509 40.9552 70.0227 42.3796 70.1108 43.8013C70.1398 44.2696 70.2995 44.7299 70.4317 45.3433C71.724 44.5375 72.8549 43.4981 73.7667 42.2782C75.3801 40.2255 76.4267 37.7854 76.8019 35.2017C76.9184 34.3574 77.195 33.5431 77.6167 32.8026C78.261 31.7159 79.4435 31.4173 80.3363 31.919C81.1702 32.3875 81.5449 33.6816 81.0271 34.7366C80.6475 35.5014 80.1764 36.2172 79.6243 36.8685C76.3245 40.7777 73.738 45.1227 71.6205 49.7631C70.9084 51.3234 70.9694 52.7539 72.0608 54.1697C73.3777 55.8779 73.4191 57.0465 71.9141 58.5876C69.9636 60.5849 69.74 62.5987 71.2085 64.8948C71.3317 65.12 71.4421 65.3521 71.539 65.5898C72.3644 67.2793 72.3179 68.9182 71.1236 70.4074C68.5996 73.5547 70.0152 76.8479 72.1887 78.8767C74.2796 80.8282 76.8061 82.1079 79.3558 83.3228C83.2391 85.2063 87.3665 86.5383 91.6182 87.2803C97.8639 88.3347 103.549 86.8456 108.683 83.3295C112.444 80.7534 116.012 77.8961 119.676 75.1774C122.992 72.717 126.458 70.5162 130.487 69.4018C134.67 68.2444 138.809 68.309 142.714 70.3743C143.972 71.0398 145.023 72.1039 146.149 73.0101C146.267 73.1172 146.362 73.2471 146.429 73.3919C146.496 73.5367 146.533 73.6934 146.538 73.8529C146.433 73.8091 146.336 73.7489 146.25 73.6745C143.615 70.4627 140.094 69.1933 136.072 69.0526C131.531 68.8936 127.453 70.4129 123.764 72.8677C120.375 75.1236 117.164 77.6523 113.91 80.1069C110.529 82.6561 107.097 85.0995 103.091 86.6059C99.2797 88.0392 95.3615 88.3206 91.3872 87.6041C84.905 86.4356 78.8671 84.1039 73.433 80.3436C71.3373 78.8934 69.7197 77.0482 69.4398 74.3501C69.3073 73.072 69.6559 71.9249 70.3605 70.8669C70.6762 70.3928 70.9741 69.9066 71.2728 69.4214C71.8718 68.4483 71.9116 67.4167 71.4962 66.3824C71.1814 65.6177 70.8283 64.8694 70.4381 64.1404C69.4762 62.3058 69.6643 60.6365 71.0696 59.0993C71.4335 58.7012 71.7383 58.2494 72.0747 57.8257C72.8139 56.8949 72.876 55.8416 72.1516 54.9817C70.2813 52.7615 70.7132 50.6211 71.8966 48.251C73.9902 44.0029 76.5562 40.0044 79.5459 36.3314C80.0775 35.6687 80.4996 34.9253 80.7964 34.1292C80.936 33.7926 80.9484 33.4166 80.8312 33.0715C80.714 32.7264 80.4753 32.4357 80.1595 32.2538C79.8289 32.0702 79.4418 32.016 79.0736 32.1019C78.7053 32.1877 78.3821 32.4074 78.1667 32.7182C77.6587 33.4961 77.3102 34.3672 77.1415 35.2809C76.4895 39.4757 74.4667 42.8093 71.1032 45.3578C70.9058 45.5074 70.6786 45.6176 70.3067 45.8417C70.1074 45.2268 69.8361 44.7139 69.7855 44.18C69.5162 41.338 69.446 38.4968 69.8339 35.6508C70.1683 33.1975 71.1854 31.0808 72.7102 29.1651C73.3593 28.3496 73.822 27.4474 73.7544 26.3441C73.6633 24.8581 72.6839 23.6451 71.2807 23.3354C70.133 23.082 68.6004 23.6966 68.2346 24.8542C67.9616 25.7179 68.0257 26.7605 68.1937 27.6769C68.6132 29.9658 68.368 32.1502 67.2156 34.1373C66.4085 35.5757 65.4309 36.9115 64.3041 38.1159C62.6537 39.8096 60.8909 41.3899 59.0276 42.8461C57.5106 44.0403 55.7356 44.4528 53.9249 43.359C53.5019 43.0712 53.1259 42.7198 52.8103 42.3172C49.1617 38.09 46.9307 33.2003 46.0268 27.6985C45.7333 25.9116 46.2415 24.4019 47.5139 23.0903C48.0631 22.5424 48.4749 21.8724 48.7157 21.135C48.9566 20.3976 49.0196 19.6136 48.8998 18.8472C48.8138 18.2161 48.6004 17.609 48.2726 17.0628C47.9448 16.5167 47.5094 16.0428 46.9928 15.6701C46.4763 15.2974 45.8894 15.0335 45.2677 14.8946C44.6461 14.7556 44.0027 14.7445 43.3766 14.8618C40.8847 15.3043 39.2319 17.8227 39.7805 20.3887C39.8918 21.0071 40.0864 21.6075 40.3588 22.1737C41.7798 24.8712 41.5882 27.5155 40.359 30.2313C39.077 33.0636 37.9892 35.9842 36.6919 38.8089C36.1795 39.8893 35.4935 40.8783 34.6611 41.7366C32.9239 43.5508 30.3597 43.7505 28.1309 42.4334C26.4494 41.4397 25.1497 40.0356 24.0321 38.4834C22.5 36.3557 21.0703 34.154 19.6125 31.9735C19.3731 31.5848 19.1613 31.1799 18.9784 30.7618C18.2673 29.2846 18.2341 27.8669 19.2891 26.5021C19.5894 26.1179 19.8044 25.6741 19.9197 25.2003C20.0351 24.7265 20.0481 24.2336 19.9579 23.7543C19.7144 22.2664 18.6848 21.1959 17.2375 20.938C15.8057 20.6828 14.3707 21.2832 13.7594 22.3932C12.9537 23.8561 13.107 25.3135 14.1942 26.5062C14.3036 26.6381 14.4245 26.7599 14.5556 26.8702C16.619 28.4413 17.0697 30.6328 16.9573 33.051C16.8316 35.7564 16.7204 38.4624 16.6028 41.1682C16.599 41.2536 16.5972 41.3394 16.5884 41.4244C16.4584 42.6802 15.9842 43.4487 15.2004 43.5446C14.128 43.6758 13.8304 42.7868 13.4428 42.0811C11.9314 39.3289 10.448 36.5612 8.93793 33.8081C8.70955 33.4461 8.45762 33.0995 8.18377 32.7705C8.28465 32.722 8.38553 32.6736 8.48641 32.6251ZM62.2987 61.6625C62.506 59.9376 62.6822 58.3265 62.9057 56.722C62.9555 56.3645 62.8061 55.7613 63.53 55.8458C64.5267 55.9621 65.0459 56.3609 65.0242 57.0115C64.9871 58.1226 64.9335 59.2331 64.8899 60.344C64.8739 60.5616 64.905 60.7801 64.9809 60.9846C65.0569 61.1891 65.1759 61.3748 65.33 61.5292C65.4842 61.6837 65.6697 61.8031 65.874 61.8795C66.0784 61.9558 66.2968 61.9873 66.5144 61.9718C66.7246 61.9537 67.0504 61.7157 67.0914 61.5283C67.8567 58.034 67.7053 55.4673 62.9689 54.4991C62.9409 54.4934 62.913 54.4876 62.885 54.4821C58.069 53.536 53.1924 52.9307 48.2913 52.671C37.4095 52.0979 26.7222 53.3284 16.2044 56.1218C16.1004 56.1615 16.0075 56.2255 15.9334 56.3086C15.8594 56.3916 15.8064 56.4912 15.7789 56.5991C15.7041 57.813 15.6814 59.0301 15.6409 60.2833C15.8738 60.2866 16.0406 60.3008 16.2057 60.2896C20.725 59.9828 25.2412 59.4752 29.7639 59.4097C37.0866 59.3036 44.4139 59.46 51.7385 59.5631C54.5664 59.6029 57.3833 59.8711 60.0902 60.7883C60.8385 61.0418 61.5619 61.3686 62.2987 61.6625ZM15.3746 55.7699C15.299 54.7278 15.2261 53.7226 15.1482 52.6483C14.1279 53.1755 13.6129 54.0081 13.7971 54.7334C13.9834 55.4672 14.5051 55.7734 15.3746 55.7699Z" stroke="#774653" stroke-width="0.4" mask="url(#path-1-outside-1_445_6543)"/>
<path d="M-23.0516 66.6557L-22.9848 66.6201C-22.8359 66.5407 -22.68 66.475 -22.5192 66.4239L-22.5109 66.4213L-22.5108 66.4216C-16.642 65.1056 -10.7617 63.8071 -4.73144 63.3778C1.70761 62.9194 7.98033 63.5649 14.0421 65.992C17.9627 67.5617 21.9095 69.1087 26.1043 69.7164L26.105 69.7165C29.2572 70.1959 32.4318 70.5142 35.6164 70.6702C44.5578 71.0432 53.5036 70.9328 62.443 70.4876C64.9249 70.364 67.3591 69.9759 69.5938 68.8126C69.953 68.6256 70.2203 68.4478 70.4022 68.2701C70.5831 68.0933 70.6749 67.9213 70.6941 67.7437C70.7134 67.5651 70.6612 67.3648 70.5219 67.1285C70.3957 66.9143 70.2013 66.6764 69.9358 66.4065C68.8726 67.9753 67.1881 68.2503 65.5323 68.3165C64.0033 68.3776 62.4742 68.4403 60.945 68.503C54.0463 68.7859 47.1459 69.0689 40.2429 69.2062C33.4709 69.3409 26.7229 68.7679 20.0227 67.7737L20.0207 67.7734C18.946 67.591 17.8948 67.2907 16.886 66.8778M-23.0516 66.6557L16.9231 66.7849M-23.0516 66.6557L-23.0355 66.7297L-23.0516 66.6557ZM16.886 66.8778C16.8857 66.8777 16.8855 66.8776 16.8852 66.8775L16.9231 66.7849M16.886 66.8778C16.8863 66.8779 16.8866 66.8781 16.8869 66.8782L16.9231 66.7849M16.886 66.8778C15.895 66.4936 15.2123 65.7196 15.2397 64.56C15.267 63.4079 16.0409 62.6823 17.0156 62.4472M16.9231 66.7849C15.9619 66.4126 15.3134 65.6713 15.3397 64.5624C15.3657 63.464 16.0997 62.7709 17.0393 62.5443M17.0156 62.4472C17.0155 62.4472 17.0154 62.4472 17.0153 62.4472L17.0393 62.5443M17.0156 62.4472C18.4823 62.0845 19.9796 61.8598 21.4881 61.7759L21.4888 61.7759C27.4372 61.4857 33.3892 61.1992 39.3441 61.0628M17.0156 62.4472C17.0157 62.4471 17.0158 62.4471 17.0159 62.4471L17.0393 62.5443M17.0393 62.5443L39.3441 61.0628M39.3441 61.0628C39.3442 61.0628 39.3442 61.0628 39.3442 61.0628L39.3465 61.1628L39.3441 61.0628ZM18.2279 67.0435L18.2735 66.9603L18.2759 66.9558C18.2481 66.9406 18.2201 66.9255 18.1919 66.9105L18.1918 66.9106L18.1425 66.9915L18.2279 67.0435ZM40.9083 68.656C40.9082 68.656 40.9082 68.656 40.9081 68.656L40.9093 68.756L40.9085 68.656C40.9084 68.656 40.9084 68.656 40.9083 68.656ZM19.1235 62.5158C19.1239 62.5157 19.1244 62.5157 19.1248 62.5157C19.1253 62.5156 19.1258 62.5156 19.1262 62.5155L19.1164 62.416L19.1235 62.5158ZM69.5253 65.0059C69.5621 65.0196 69.599 65.0333 69.6359 65.0469C69.6277 65.0111 69.6206 64.9726 69.6139 64.9321C69.578 64.9188 69.5422 64.9054 69.5064 64.892C69.5122 64.9305 69.5184 64.9688 69.5253 65.0059ZM60.4198 62.4522C60.4196 62.4522 60.4194 62.4521 60.4191 62.4521C60.4189 62.4521 60.4186 62.452 60.4183 62.452L60.4043 62.551L60.4198 62.4522ZM57.9789 50.997C57.979 50.997 57.979 50.997 57.9791 50.997L57.9938 50.8981L57.9787 50.9969C57.9788 50.9969 57.9788 50.997 57.9789 50.997ZM68.7926 52.5811C68.7921 52.5809 68.7917 52.5807 68.7912 52.5805L68.7536 52.6731L68.794 52.5817C68.7936 52.5815 68.7931 52.5813 68.7926 52.5811ZM70.7899 58.1269C70.7905 58.1256 70.7911 58.1243 70.7916 58.1231L70.7 58.083L70.788 58.1305C70.7887 58.1293 70.7893 58.1281 70.7899 58.1269Z" fill="#774653" stroke="#774653" stroke-width="0.2"/>
</g>
<defs>
<clipPath id="clip0_445_6543">
<rect width="85" height="85" fill="white"/>
</clipPath>
</defs>
</svg>
