<svg width="85" height="85" viewBox="0 0 85 85" fill="none" xmlns="http://www.w3.org/2000/svg">
<g clip-path="url(#clip0_445_6477)">
<mask id="path-1-outside-1_445_6477" maskUnits="userSpaceOnUse" x="-23.7285" y="-1" width="118" height="87" fill="black">
<rect fill="white" x="-23.7285" y="-1" width="118" height="87"/>
<path d="M44.8676 75.0091C44.8071 75.3421 44.7642 75.5958 44.7146 75.8481C44.4675 77.1052 44.9179 77.7688 46.2031 77.7726C47.1798 77.7919 48.1543 77.6733 49.0979 77.4204C52.6133 76.4005 56.1078 75.3072 59.5958 74.1966C60.0935 74.0381 60.1674 74.305 60.3314 74.5882C61.6885 76.931 62.9918 79.3075 64.4303 81.5992C65.0455 82.5961 65.8248 83.4818 66.7353 84.2188C67.7584 85.0234 69.1078 85.0254 70.3842 84.9882C73.5448 84.896 76.5951 84.1614 79.5728 83.1861C83.6428 81.8529 87.6671 80.3804 91.7115 78.9692C92.2298 78.7883 92.7514 78.6169 93.2715 78.4411L93.2691 78.2709C93.0641 78.2189 92.852 78.2007 92.6411 78.217C92.1688 78.3361 91.7098 78.5102 91.2483 78.6702C87.0819 80.1148 82.9484 81.6662 78.7373 82.9661C76.3477 83.6479 73.9106 84.1504 71.4462 84.4693C70.3124 84.6401 69.112 84.3925 67.9443 84.3022C67.5159 84.2691 67.3546 84.0494 67.3875 83.5423C67.4665 81.5182 67.2151 79.4946 66.6432 77.5513C66.0977 75.4918 65.4401 73.4621 64.8692 71.4089C64.8288 71.2607 64.8205 71.1056 64.8448 70.9539C64.8691 70.8023 64.9255 70.6575 65.0102 70.5294C66.4487 68.9996 67.378 67.1743 68.292 65.3106C69.0015 63.9833 69.7887 62.699 70.6495 61.4644C71.3122 60.4406 72.0567 59.4695 72.7121 58.4413C73.0071 57.9671 73.1912 57.4325 73.2507 56.8772C73.3102 56.3219 73.2436 55.7604 73.0559 55.2344C72.7245 54.1466 72.3597 53.0797 71.55 52.2275C71.5016 52.1618 71.468 52.0864 71.4514 52.0064C71.4348 51.9265 71.4357 51.8439 71.454 51.7644C72.0205 49.7349 72.5936 47.7071 73.1885 45.6858C73.588 44.3284 74.1538 43.006 74.4128 41.6244C74.7674 39.7329 74.1012 38.1051 72.399 37.1274C69.9768 35.7363 67.5041 34.4289 65.017 33.1561C61.7988 31.5092 58.5249 29.9706 55.3158 28.3066C53.8616 27.5525 52.5217 26.5811 51.0995 25.761C50.1715 25.2258 49.1912 24.8108 48.054 25.0633C47.9275 25.0913 47.6419 24.8007 47.567 24.6054C45.961 20.4183 44.3775 16.2225 42.7824 12.0311C42.364 10.9316 41.9699 9.81866 41.4732 8.75456C41.0623 7.98498 40.6095 7.23853 40.1169 6.51858C40.2859 6.07794 40.036 5.59872 39.3199 5.54993C39.1449 5.54899 38.9748 5.49177 38.8348 5.38673C38.6947 5.28168 38.5922 5.13439 38.5423 4.96661C38.2368 4.25252 37.9324 3.53799 37.629 2.823C37.4726 2.4555 37.3398 2.0759 37.1574 1.72188C36.0917 -0.345802 35.6224 -0.41957 33.369 0.801891C32.8035 1.10844 32.7213 1.6962 32.8889 2.26997C33.1188 3.05639 33.3962 3.82981 33.6772 4.60003C33.8444 5.05812 34.0612 5.4979 34.2496 5.94847C34.6893 7.00027 34.6938 7.00741 33.8625 7.76998C33.5635 8.00825 33.3387 8.32686 33.2144 8.68842C33.0901 9.04998 33.0715 9.4395 33.1608 9.81126C33.5082 11.1376 33.9534 12.4398 34.3934 13.74C35.5886 17.2719 36.7954 20.7999 38.014 24.3239C38.2892 25.1205 38.6141 25.9007 38.9384 26.6791C39.0731 27.0024 39.0629 27.1902 38.6961 27.3502C31.6166 30.4379 24.5504 33.5563 17.4586 36.6153C16.1623 37.1405 14.8285 37.5678 13.4684 37.8936C11.0587 38.5262 8.76708 38.0054 6.52188 37.0679C-1.07478 33.8768 -8.39375 30.0612 -15.3598 25.6604C-17.5768 24.2675 -19.8595 22.9788 -22.1126 21.6434C-22.1856 21.5926 -22.2659 21.5533 -22.3509 21.5269C-22.5651 21.4794 -22.7832 21.4491 -22.9997 21.412C-22.8764 21.587 -22.7306 21.745 -22.5661 21.882C-22.1359 22.1552 -21.6747 22.3787 -21.2346 22.637C-15.9131 25.7603 -10.6693 29.0272 -5.24715 31.9646C-1.314 34.0954 2.84409 35.8148 6.92255 37.6722C9.72218 38.9472 12.6044 38.8803 15.4241 37.7925C19.0668 36.3872 22.6822 34.9118 26.2703 33.3662C30.1431 31.6983 33.9667 29.9162 37.8126 28.1858C38.1105 28.0375 38.4362 27.9535 38.7687 27.9392C38.5874 28.2211 38.4079 28.5041 38.2245 28.7846C37.1516 30.4256 36.1722 32.1198 35.6294 34.0161C34.3927 38.3363 35.6532 41.663 39.4269 44.1301C39.8717 44.4235 40.3326 44.6918 40.8074 44.9338C41.6515 45.2922 42.3904 45.8598 42.9543 46.583C43.7627 47.7013 45.1509 47.9204 46.4749 48.0545C46.6148 48.0687 46.7718 47.9151 46.9209 47.8393C46.8307 47.6761 46.7819 47.4396 46.6435 47.3615C45.7752 46.871 44.9009 46.3865 44.0019 45.9558C42.6087 45.2884 42.6127 45.3117 43.1001 43.8589C43.7426 41.9436 43.6207 39.9558 43.6182 37.9807C43.6166 36.7404 43.6179 35.5001 43.6179 34.2119C43.7018 34.3599 43.7772 34.5125 43.8436 34.6692C45.4808 39.1761 47.1059 43.6875 48.7665 48.1858C48.9134 48.537 49.1819 48.8236 49.5229 48.993C52.6004 50.3851 55.6764 51.7724 58.332 53.9167C59.5899 54.9324 60.6834 56.0841 61.3322 57.5959C61.4459 57.8587 61.5279 58.1341 61.5765 58.4163C59.5875 56.2529 56.9393 55.6531 54.2323 55.2525C51.7899 54.8911 50.3788 55.9222 49.8377 58.3343C49.7458 58.7234 49.6814 59.1185 49.645 59.5167C49.513 61.1724 50.1617 62.3932 51.6733 63.0705C52.7628 63.5586 53.9255 63.8817 55.0473 64.3003C55.5322 64.4812 55.9965 64.7174 56.4702 64.9285L56.4163 65.175C55.7733 65.1822 55.1311 65.1282 54.4983 65.0136C51.7625 64.2585 49.0413 63.4497 46.3212 62.6387C45.599 62.4233 44.9053 62.1145 44.1889 61.8775C42.8294 61.4167 41.5716 60.698 40.4842 59.7608C36.1402 56.1345 31.3046 53.3789 25.7434 52.0623C23.6201 51.4977 21.3703 51.6439 19.3379 52.4786C19.1132 52.5975 18.8995 52.7361 18.6993 52.8929L18.7837 53.066C18.8823 53.066 18.9973 53.0998 19.0771 53.0611C21.6602 51.8061 24.3044 52.0079 26.9429 52.793C31.8444 54.2512 36.1733 56.7815 40.1356 59.9751C40.205 60.03 40.2691 60.0916 40.3267 60.1588C40.3513 60.1881 40.3487 60.2403 40.3938 60.4331C37.7834 59.392 35.2502 58.0976 32.4313 59.3263C31.0915 59.9103 29.7817 60.5634 28.4619 61.1927C28.3905 61.2428 28.3388 61.316 28.3153 61.4C28.2968 61.4505 28.333 61.521 28.3648 61.6881C28.84 61.4383 29.262 61.1724 29.7165 60.986C31.0263 60.4485 32.3264 59.8704 33.6739 59.447C34.8609 59.1014 36.1315 59.1842 37.2637 59.6807C38.5622 60.1994 39.8799 60.6701 41.1785 61.1885C41.4685 61.2938 41.7262 61.4726 41.9264 61.7074C42.4135 62.3516 42.8415 63.0405 43.3523 63.8003C41.4866 64.3169 39.7915 64.7719 38.0002 64.1873C36.3263 63.641 34.6459 63.5427 32.9927 64.289C32.7839 64.3832 32.5924 64.5158 32.3929 64.6306L32.4805 64.8824C32.736 64.8196 32.9873 64.7408 33.2328 64.6462C34.4449 64.1345 35.7969 64.0588 37.0586 64.432C35.7379 64.7671 34.2446 64.6097 33.1631 65.7743C33.2909 65.8376 33.3385 65.8808 33.3625 65.8703C36.6827 64.4211 40.0961 64.7594 43.5064 65.3916C44.5493 65.5849 45.4443 65.496 46.2212 64.7504C46.5039 64.4639 46.8661 64.269 47.261 64.1909C47.6558 64.1129 48.0651 64.1553 48.4355 64.3127C49.3177 64.6126 50.2186 64.8572 51.1071 65.1392C51.349 65.216 51.5757 65.3405 52.002 65.5276C51.4818 65.8265 51.1395 66.0477 50.7765 66.2272C49.6431 66.7878 48.4967 67.3221 47.3648 67.8857C45.1039 69.0115 44.1514 70.8426 44.4584 73.3414C44.4855 73.5618 44.501 73.7836 44.5187 74.005C44.5626 74.5537 44.2851 74.8254 43.7636 74.7356C43.196 74.6363 42.6377 74.4898 42.0944 74.2978C41.0092 73.9168 39.9391 73.4929 38.8556 73.0841C39.2956 72.3525 39.2955 72.3525 39.0095 71.9398C38.7019 72.8388 38.0261 72.7094 37.323 72.6298C36.0684 72.4878 34.8073 72.4027 33.5487 72.2966C33.3719 72.2817 33.1934 72.287 33.0161 72.2754C30.9328 72.1395 30.3411 70.9869 31.4084 69.1665C31.5241 68.9616 31.7024 68.7991 31.9172 68.7028C32.1319 68.6066 32.3719 68.5816 32.6019 68.6316C33.2412 68.7061 33.8768 68.813 34.5147 68.9007C34.7183 68.9287 34.9243 68.9401 35.2238 68.9678C34.7075 68.3611 32.9786 68.1034 31.3186 68.3347C31.5324 67.8846 31.6939 67.4866 31.9048 67.1167C32.1228 66.7343 32.3888 66.3792 32.6338 66.0122L32.4755 65.8689C32.0903 66.2447 31.7375 66.6524 31.4208 67.0875C31.1645 67.5772 30.9483 68.0868 30.7742 68.6113C30.5152 68.2217 30.5057 68.0793 30.7818 67.3476C30.9345 66.943 31.1317 66.5551 31.3835 65.9928C31.0995 66.0915 30.8986 66.1041 30.8712 66.1796C30.617 66.8811 30.3693 67.5872 30.1763 68.307C30.1557 68.4149 30.1615 68.5262 30.1932 68.6313C30.225 68.7364 30.2817 68.8323 30.3586 68.9107C30.9373 69.2554 30.7336 69.6905 30.624 70.168C30.2907 71.6195 30.8098 72.3777 32.2682 72.6228C32.486 72.6676 32.7081 72.6881 32.9304 72.6839C35.9654 72.5077 38.7634 73.3814 41.4986 74.5735C42.5395 75.0271 43.6183 75.3685 44.8676 75.0091ZM66.7668 67.2371C66.6818 67.2876 66.5822 67.3077 66.4844 67.294C66.108 67.1705 65.7539 66.9804 65.38 66.8476C63.0959 66.0365 61.8759 64.2782 62.1797 61.868C62.4939 59.8115 62.082 57.7098 61.0147 55.9241C60.7367 55.4386 60.5799 54.8931 60.5577 54.334C60.5356 53.7749 60.6487 53.2187 60.8874 52.7127C60.9753 52.4978 61.2219 52.344 61.4054 52.1728C61.8392 51.8117 62.2498 51.4238 62.635 51.0114C62.7761 50.8418 62.6976 50.4897 62.719 50.2207C62.4537 50.2538 62.1964 50.3341 61.9594 50.4579C61.5668 50.8054 61.1945 51.1753 60.8445 51.5658C60.7511 51.3121 60.6744 51.0526 60.615 50.7888C60.4055 48.9976 60.5381 47.1829 61.0056 45.4412C61.0618 45.2756 61.174 45.1349 61.3229 45.0433C62.5999 44.2182 63.1576 42.9106 63.6318 41.5642C63.7237 41.3035 63.5765 40.9585 63.5395 40.6524C63.2362 40.7259 62.947 40.8484 62.6831 41.0149C61.7834 41.8867 61.161 43.0045 60.8937 44.2284C60.8566 44.4688 60.7264 44.685 60.5312 44.8303C60.3361 44.9756 60.0917 45.0384 59.8507 45.0051C57.9622 45.0223 56.5031 44.1183 55.21 42.8572C54.8114 42.4685 54.2541 42.1323 54.0659 41.6551C52.2828 37.1338 50.5616 32.5881 48.8279 28.0474C48.5223 27.2468 48.2411 26.4368 47.8864 25.4597C48.2909 25.4133 48.6997 25.4192 49.1026 25.477C49.8061 25.6693 50.4864 25.9382 51.1313 26.2788C52.5008 27.0554 53.7776 28.0045 55.1753 28.7211C58.9046 30.633 62.6921 32.4311 66.4276 34.3312C68.4024 35.3357 70.3428 36.4068 72.2488 37.5445C73.6287 38.3689 74.1914 39.7019 74.0321 41.2989C73.973 41.9387 73.851 42.5712 73.6677 43.187C72.5555 46.8106 71.4256 50.4289 70.2782 54.0417C69.842 55.4141 69.3521 56.77 68.8546 58.1216C68.8095 58.2213 68.7416 58.3089 68.6563 58.3773C68.571 58.4458 68.4707 58.4932 68.3637 58.5156C67.4277 58.5259 67.0886 58.668 66.7582 59.5667C66.1035 61.3475 65.6552 63.1767 65.8083 65.1008C65.8082 65.3675 65.8563 65.6321 65.9503 65.8817C66.1602 66.3117 66.4413 66.7069 66.7668 67.2371ZM42.3559 33.6538C42.2867 33.5248 42.2066 33.3999 42.1493 33.2652C39.8089 27.7723 37.5028 22.2682 35.7847 16.536C35.2376 14.7103 34.4988 12.9429 33.9006 11.1313C33.706 10.521 33.5982 9.88635 33.5803 9.24602C33.5566 8.56155 34.0846 8.16351 34.5701 7.75265C34.9875 7.39937 35.1982 7.87027 35.5062 7.89671C35.8781 7.93291 36.2534 7.90778 36.6171 7.82232C37.0176 7.69173 37.4091 7.5348 37.789 7.35257C39.4343 6.69222 40.2812 7.01883 40.9691 8.64233C41.5143 9.92928 42.017 11.2349 42.515 12.5411C44.0569 16.5847 45.5785 20.6361 47.1328 24.6748C47.3466 25.2304 47.2644 25.4947 46.664 25.5933C46.0513 25.694 45.4465 25.8415 44.8362 25.9582C43.205 26.2701 42.7452 27.084 43.3319 28.6327C43.6462 29.4625 43.9626 30.2915 44.2743 31.1223C44.3621 31.3297 44.3785 31.5604 44.3208 31.7781C44.2631 31.9958 44.1346 32.1881 43.9556 32.3247C43.4437 32.7692 42.9134 33.1924 42.3559 33.6538ZM57.9236 52.9211C57.7689 52.8969 57.716 52.9042 57.6848 52.8815C55.2591 51.1225 52.5573 49.8831 49.8351 48.6759C49.5261 48.5312 49.2798 48.2795 49.142 47.9673C47.3436 43.1178 45.5669 38.2604 43.8118 33.3949C43.7937 33.3096 43.7969 33.2211 43.821 33.1373C43.8451 33.0535 43.8895 32.9769 43.9501 32.9143C44.8742 32.2767 44.9193 31.4515 44.5337 30.5046C44.2323 29.7645 43.9234 29.0261 43.6577 28.2729C43.2962 27.2477 43.5439 26.738 44.5736 26.472C45.535 26.2236 46.5161 26.0519 47.501 25.8438C50.9699 34.8559 54.4345 43.8566 57.9236 52.9211ZM42.2151 45.1347C41.8901 44.9853 41.5601 44.8607 41.2571 44.6888C40.6014 44.3168 39.9331 43.9584 39.3165 43.5278C36.0389 41.2389 34.9487 38.276 35.9644 34.4274C36.4982 32.4047 37.5458 30.6261 38.6775 28.8925C38.8865 28.5723 39.1007 28.2554 39.3553 27.8725C39.4719 28.0754 39.5363 28.1644 39.5777 28.263C40.3513 30.1043 41.1233 31.9462 41.8935 33.7889C42.247 34.6339 42.3034 34.6424 42.8771 33.9347C42.8917 33.9167 42.9562 33.9391 43.0514 33.9473C43.0955 37.6702 43.7564 41.4311 42.2151 45.1347ZM52.0349 64.9581C52.8628 65.1758 53.7039 65.3398 54.553 65.4491C55.456 65.5091 56.1912 65.6305 56.2775 66.7296C56.3099 66.8592 56.3658 66.9817 56.4426 67.0909C57.3546 68.8675 58.2671 70.6438 59.18 72.4198C59.3788 72.807 59.5744 73.1958 59.8457 73.7301L53.9674 75.6684C54.75 73.9296 54.39 73.0155 52.6318 72.6428C51.3009 72.3937 49.9564 72.2232 48.6054 72.1321C47.1096 71.9958 45.6689 72.0595 45.0906 73.9344C44.4936 72.3335 44.9141 70.3309 46.1252 69.3214C46.908 68.7042 47.749 68.1647 48.6362 67.7105C49.6091 67.1803 50.6442 66.7658 51.6335 66.264C52.1282 66.013 52.5541 65.6687 52.0349 64.9581ZM53.7999 55.6153C55.8099 55.7854 57.7628 56.3707 59.5352 57.334C60.0488 57.5951 60.4932 57.9742 60.832 58.4402C61.1921 58.9609 61.3809 59.581 61.3721 60.214C61.3071 61.0474 61.0514 61.8547 60.6248 62.5736C60.1983 63.2925 59.6122 63.9037 58.9118 64.3601C58.1187 64.8794 57.3206 65.3155 56.4245 64.4608C56.0842 64.2113 55.6979 64.0317 55.2879 63.9323C54.5372 63.6633 53.7732 63.4316 53.0174 63.1766C50.2991 62.2597 49.5787 60.9058 50.331 58.1371C50.3484 58.0729 50.3623 58.0078 50.3807 57.9439C50.8407 56.3468 51.9115 55.5652 53.7999 55.6153ZM65.3956 81.9474L65.2253 82.1713L60.4354 73.9689C61.7928 73.0343 63.0421 72.1741 64.3671 71.2618C65.3497 74.7206 66.6453 78.0717 66.9083 81.5557L65.3956 81.9474ZM45.505 75.1212C45.4699 74.7718 45.474 74.4196 45.5173 74.0711C45.7553 73.0594 46.4654 72.4847 47.6295 72.532C49.1096 72.592 50.5899 72.7507 52.0579 72.9543C52.7962 73.0567 53.6789 73.1266 53.8768 74.1024C54.0227 74.8221 53.5503 75.5023 52.4056 75.9022C50.9055 76.4291 49.372 76.856 47.8153 77.1801C45.7373 77.6081 45.4245 77.28 45.505 75.1212ZM60.3999 73.5048L60.289 73.3521C60.251 73.3306 60.1946 73.3187 60.1776 73.2862C59.5113 72.01 58.8417 70.7353 58.198 69.4476C58.18 69.3694 58.1822 69.2878 58.2045 69.2107C58.2268 69.1335 58.2685 69.0634 58.3255 69.0068C59.6637 68.1876 61.055 67.4993 62.6898 67.6683C62.8094 67.6926 62.922 67.7433 63.0195 67.8166C63.117 67.8899 63.197 67.984 63.2536 68.0921C63.5589 68.8279 63.8151 69.5861 64.0455 70.3493C64.0686 70.4485 64.068 70.5518 64.0437 70.6507C64.0194 70.7496 63.9721 70.8414 63.9056 70.9186C62.7511 71.7991 61.5719 72.6472 60.3999 73.5048ZM61.662 61.3306C61.45 63.552 62.0931 65.4151 64.0543 66.8406C63.474 66.9989 63.0876 67.1407 62.6886 67.2049C61.9942 67.3168 61.2603 67.2805 60.6007 67.4889C59.6646 67.7846 58.7808 68.2456 57.8051 68.6659C57.4004 67.8971 56.9719 67.1012 56.5615 66.2961C56.3256 65.8334 56.4138 65.5836 57.0037 65.5078C57.8014 65.4224 58.5671 65.1473 59.2367 64.7055C59.9063 64.2637 60.4605 63.6681 60.8529 62.9683C61.1618 62.4456 61.3945 61.8778 61.662 61.3306ZM71.2169 52.6097C71.3487 52.7 71.4206 52.7245 71.452 52.7745C73.0804 55.3608 73.344 57.0321 71.7946 59.1461C70.786 60.5222 69.8031 61.917 68.8069 63.3021C68.7123 63.4337 68.605 63.556 68.4564 63.7414C68.5733 62.2289 68.6774 60.8182 68.7978 59.409C68.8329 59.2363 68.8937 59.0699 68.9782 58.9152C69.3121 58.1191 69.6922 57.3392 69.9748 56.5254C70.4168 55.2524 70.7934 53.9568 71.2169 52.6097ZM35.0915 6.83376C34.755 6.0357 34.4352 5.28507 34.1222 4.53152C33.9356 4.08204 33.7343 3.63634 33.5835 3.17461C32.9996 1.38696 33.185 1.06532 35.0052 0.51836C35.4991 0.369934 35.9296 0.445848 36.1542 0.896973C36.9065 2.40816 37.6143 3.94156 38.3305 5.4485L35.0915 6.83376ZM58.9024 53.798C59.2683 53.484 59.5567 53.0898 59.745 52.6459C59.9333 52.2021 60.0165 51.7208 59.988 51.2395C59.9604 50.0739 59.5096 48.9581 58.7198 48.1005C58.0225 47.266 57.3308 46.4264 56.6587 45.5718C56.2699 45.0774 55.9247 44.5487 55.5599 44.0355L55.6603 43.907C57.1086 44.9166 58.6431 45.644 60.5365 45.3765C60.4492 45.8969 60.3596 46.3264 60.3075 46.7604C60.099 48.4976 59.7645 50.243 60.5844 51.9277C60.6218 52.0303 60.6264 52.142 60.5974 52.2473C60.4062 53.097 60.2059 53.9446 60.0018 54.8208C59.6883 54.5291 59.3258 54.1919 58.9024 53.798ZM55.1128 44.4432L55.1873 44.3979C56.4256 45.956 57.6925 47.4926 58.8836 49.086C59.2067 49.5644 59.4213 50.1077 59.5124 50.6778C59.6321 51.1772 59.6128 51.6999 59.4565 52.1892C59.3003 52.6785 59.0131 53.1157 58.6262 53.4534C57.4239 50.3701 56.2684 47.4066 55.1128 44.4432ZM66.9699 66.5803L66.6627 66.5638C66.4817 66.1155 66.3434 65.6511 66.2496 65.1768C66.0451 63.2554 66.5346 61.4358 67.1904 59.6564C67.302 59.3914 67.4855 59.163 67.7202 58.997C68.0614 58.7492 68.4181 58.9358 68.3694 59.3473C68.1279 61.391 67.8746 63.4341 67.5649 65.4681C67.5052 65.8599 67.1752 66.2106 66.9699 66.5803ZM45.3129 64.7751C45.0441 64.5231 44.8113 64.1246 44.4953 64.0412C43.351 63.739 43.3144 62.6311 42.7081 61.949L42.8137 61.8202L47.5182 63.5349C46.7868 63.9462 46.0718 64.3483 45.3129 64.7751ZM64.5625 70.4127C64.2135 69.4011 63.9432 68.6174 63.6789 67.8513C64.6199 67.4846 65.5122 67.3779 66.4651 67.9794L64.5625 70.4127ZM35.5299 7.49143L35.4385 7.14255C36.3111 6.78988 37.1851 6.44072 38.0557 6.08314C38.5437 5.88269 38.8282 6.09814 39.125 6.61569C37.7927 6.57289 36.8133 7.69201 35.5299 7.49143ZM61.4128 44.3454C61.6021 43.1112 62.247 41.9927 63.2205 41.2107C62.971 42.4229 62.3371 43.5223 61.4128 44.3454ZM45.9011 47.3525C44.7457 47.4367 43.5715 46.8333 43.1847 46.0302C44.1581 46.504 45.0296 46.9283 45.9011 47.3525ZM66.8974 83.6133L66.6327 83.7197C66.4059 83.323 66.1581 82.9359 65.968 82.5224C65.9232 82.4249 66.0729 82.238 66.1331 82.0923C66.2785 82.1532 66.5192 82.1817 66.5529 82.2807C66.7005 82.7138 66.7881 83.1673 66.8974 83.6133ZM42.1838 64.6772C43.2887 64.0774 43.7141 64.1605 44.1099 65.0635C43.4603 64.9332 42.8539 64.8116 42.1838 64.6772Z"/>
</mask>
<path d="M44.8676 75.0091C44.8071 75.3421 44.7642 75.5958 44.7146 75.8481C44.4675 77.1052 44.9179 77.7688 46.2031 77.7726C47.1798 77.7919 48.1543 77.6733 49.0979 77.4204C52.6133 76.4005 56.1078 75.3072 59.5958 74.1966C60.0935 74.0381 60.1674 74.305 60.3314 74.5882C61.6885 76.931 62.9918 79.3075 64.4303 81.5992C65.0455 82.5961 65.8248 83.4818 66.7353 84.2188C67.7584 85.0234 69.1078 85.0254 70.3842 84.9882C73.5448 84.896 76.5951 84.1614 79.5728 83.1861C83.6428 81.8529 87.6671 80.3804 91.7115 78.9692C92.2298 78.7883 92.7514 78.6169 93.2715 78.4411L93.2691 78.2709C93.0641 78.2189 92.852 78.2007 92.6411 78.217C92.1688 78.3361 91.7098 78.5102 91.2483 78.6702C87.0819 80.1148 82.9484 81.6662 78.7373 82.9661C76.3477 83.6479 73.9106 84.1504 71.4462 84.4693C70.3124 84.6401 69.112 84.3925 67.9443 84.3022C67.5159 84.2691 67.3546 84.0494 67.3875 83.5423C67.4665 81.5182 67.2151 79.4946 66.6432 77.5513C66.0977 75.4918 65.4401 73.4621 64.8692 71.4089C64.8288 71.2607 64.8205 71.1056 64.8448 70.9539C64.8691 70.8023 64.9255 70.6575 65.0102 70.5294C66.4487 68.9996 67.378 67.1743 68.292 65.3106C69.0015 63.9833 69.7887 62.699 70.6495 61.4644C71.3122 60.4406 72.0567 59.4695 72.7121 58.4413C73.0071 57.9671 73.1912 57.4325 73.2507 56.8772C73.3102 56.3219 73.2436 55.7604 73.0559 55.2344C72.7245 54.1466 72.3597 53.0797 71.55 52.2275C71.5016 52.1618 71.468 52.0864 71.4514 52.0064C71.4348 51.9265 71.4357 51.8439 71.454 51.7644C72.0205 49.7349 72.5936 47.7071 73.1885 45.6858C73.588 44.3284 74.1538 43.006 74.4128 41.6244C74.7674 39.7329 74.1012 38.1051 72.399 37.1274C69.9768 35.7363 67.5041 34.4289 65.017 33.1561C61.7988 31.5092 58.5249 29.9706 55.3158 28.3066C53.8616 27.5525 52.5217 26.5811 51.0995 25.761C50.1715 25.2258 49.1912 24.8108 48.054 25.0633C47.9275 25.0913 47.6419 24.8007 47.567 24.6054C45.961 20.4183 44.3775 16.2225 42.7824 12.0311C42.364 10.9316 41.9699 9.81866 41.4732 8.75456C41.0623 7.98498 40.6095 7.23853 40.1169 6.51858C40.2859 6.07794 40.036 5.59872 39.3199 5.54993C39.1449 5.54899 38.9748 5.49177 38.8348 5.38673C38.6947 5.28168 38.5922 5.13439 38.5423 4.96661C38.2368 4.25252 37.9324 3.53799 37.629 2.823C37.4726 2.4555 37.3398 2.0759 37.1574 1.72188C36.0917 -0.345802 35.6224 -0.41957 33.369 0.801891C32.8035 1.10844 32.7213 1.6962 32.8889 2.26997C33.1188 3.05639 33.3962 3.82981 33.6772 4.60003C33.8444 5.05812 34.0612 5.4979 34.2496 5.94847C34.6893 7.00027 34.6938 7.00741 33.8625 7.76998C33.5635 8.00825 33.3387 8.32686 33.2144 8.68842C33.0901 9.04998 33.0715 9.4395 33.1608 9.81126C33.5082 11.1376 33.9534 12.4398 34.3934 13.74C35.5886 17.2719 36.7954 20.7999 38.014 24.3239C38.2892 25.1205 38.6141 25.9007 38.9384 26.6791C39.0731 27.0024 39.0629 27.1902 38.6961 27.3502C31.6166 30.4379 24.5504 33.5563 17.4586 36.6153C16.1623 37.1405 14.8285 37.5678 13.4684 37.8936C11.0587 38.5262 8.76708 38.0054 6.52188 37.0679C-1.07478 33.8768 -8.39375 30.0612 -15.3598 25.6604C-17.5768 24.2675 -19.8595 22.9788 -22.1126 21.6434C-22.1856 21.5926 -22.2659 21.5533 -22.3509 21.5269C-22.5651 21.4794 -22.7832 21.4491 -22.9997 21.412C-22.8764 21.587 -22.7306 21.745 -22.5661 21.882C-22.1359 22.1552 -21.6747 22.3787 -21.2346 22.637C-15.9131 25.7603 -10.6693 29.0272 -5.24715 31.9646C-1.314 34.0954 2.84409 35.8148 6.92255 37.6722C9.72218 38.9472 12.6044 38.8803 15.4241 37.7925C19.0668 36.3872 22.6822 34.9118 26.2703 33.3662C30.1431 31.6983 33.9667 29.9162 37.8126 28.1858C38.1105 28.0375 38.4362 27.9535 38.7687 27.9392C38.5874 28.2211 38.4079 28.5041 38.2245 28.7846C37.1516 30.4256 36.1722 32.1198 35.6294 34.0161C34.3927 38.3363 35.6532 41.663 39.4269 44.1301C39.8717 44.4235 40.3326 44.6918 40.8074 44.9338C41.6515 45.2922 42.3904 45.8598 42.9543 46.583C43.7627 47.7013 45.1509 47.9204 46.4749 48.0545C46.6148 48.0687 46.7718 47.9151 46.9209 47.8393C46.8307 47.6761 46.7819 47.4396 46.6435 47.3615C45.7752 46.871 44.9009 46.3865 44.0019 45.9558C42.6087 45.2884 42.6127 45.3117 43.1001 43.8589C43.7426 41.9436 43.6207 39.9558 43.6182 37.9807C43.6166 36.7404 43.6179 35.5001 43.6179 34.2119C43.7018 34.3599 43.7772 34.5125 43.8436 34.6692C45.4808 39.1761 47.1059 43.6875 48.7665 48.1858C48.9134 48.537 49.1819 48.8236 49.5229 48.993C52.6004 50.3851 55.6764 51.7724 58.332 53.9167C59.5899 54.9324 60.6834 56.0841 61.3322 57.5959C61.4459 57.8587 61.5279 58.1341 61.5765 58.4163C59.5875 56.2529 56.9393 55.6531 54.2323 55.2525C51.7899 54.8911 50.3788 55.9222 49.8377 58.3343C49.7458 58.7234 49.6814 59.1185 49.645 59.5167C49.513 61.1724 50.1617 62.3932 51.6733 63.0705C52.7628 63.5586 53.9255 63.8817 55.0473 64.3003C55.5322 64.4812 55.9965 64.7174 56.4702 64.9285L56.4163 65.175C55.7733 65.1822 55.1311 65.1282 54.4983 65.0136C51.7625 64.2585 49.0413 63.4497 46.3212 62.6387C45.599 62.4233 44.9053 62.1145 44.1889 61.8775C42.8294 61.4167 41.5716 60.698 40.4842 59.7608C36.1402 56.1345 31.3046 53.3789 25.7434 52.0623C23.6201 51.4977 21.3703 51.6439 19.3379 52.4786C19.1132 52.5975 18.8995 52.7361 18.6993 52.8929L18.7837 53.066C18.8823 53.066 18.9973 53.0998 19.0771 53.0611C21.6602 51.8061 24.3044 52.0079 26.9429 52.793C31.8444 54.2512 36.1733 56.7815 40.1356 59.9751C40.205 60.03 40.2691 60.0916 40.3267 60.1588C40.3513 60.1881 40.3487 60.2403 40.3938 60.4331C37.7834 59.392 35.2502 58.0976 32.4313 59.3263C31.0915 59.9103 29.7817 60.5634 28.4619 61.1927C28.3905 61.2428 28.3388 61.316 28.3153 61.4C28.2968 61.4505 28.333 61.521 28.3648 61.6881C28.84 61.4383 29.262 61.1724 29.7165 60.986C31.0263 60.4485 32.3264 59.8704 33.6739 59.447C34.8609 59.1014 36.1315 59.1842 37.2637 59.6807C38.5622 60.1994 39.8799 60.6701 41.1785 61.1885C41.4685 61.2938 41.7262 61.4726 41.9264 61.7074C42.4135 62.3516 42.8415 63.0405 43.3523 63.8003C41.4866 64.3169 39.7915 64.7719 38.0002 64.1873C36.3263 63.641 34.6459 63.5427 32.9927 64.289C32.7839 64.3832 32.5924 64.5158 32.3929 64.6306L32.4805 64.8824C32.736 64.8196 32.9873 64.7408 33.2328 64.6462C34.4449 64.1345 35.7969 64.0588 37.0586 64.432C35.7379 64.7671 34.2446 64.6097 33.1631 65.7743C33.2909 65.8376 33.3385 65.8808 33.3625 65.8703C36.6827 64.4211 40.0961 64.7594 43.5064 65.3916C44.5493 65.5849 45.4443 65.496 46.2212 64.7504C46.5039 64.4639 46.8661 64.269 47.261 64.1909C47.6558 64.1129 48.0651 64.1553 48.4355 64.3127C49.3177 64.6126 50.2186 64.8572 51.1071 65.1392C51.349 65.216 51.5757 65.3405 52.002 65.5276C51.4818 65.8265 51.1395 66.0477 50.7765 66.2272C49.6431 66.7878 48.4967 67.3221 47.3648 67.8857C45.1039 69.0115 44.1514 70.8426 44.4584 73.3414C44.4855 73.5618 44.501 73.7836 44.5187 74.005C44.5626 74.5537 44.2851 74.8254 43.7636 74.7356C43.196 74.6363 42.6377 74.4898 42.0944 74.2978C41.0092 73.9168 39.9391 73.4929 38.8556 73.0841C39.2956 72.3525 39.2955 72.3525 39.0095 71.9398C38.7019 72.8388 38.0261 72.7094 37.323 72.6298C36.0684 72.4878 34.8073 72.4027 33.5487 72.2966C33.3719 72.2817 33.1934 72.287 33.0161 72.2754C30.9328 72.1395 30.3411 70.9869 31.4084 69.1665C31.5241 68.9616 31.7024 68.7991 31.9172 68.7028C32.1319 68.6066 32.3719 68.5816 32.6019 68.6316C33.2412 68.7061 33.8768 68.813 34.5147 68.9007C34.7183 68.9287 34.9243 68.9401 35.2238 68.9678C34.7075 68.3611 32.9786 68.1034 31.3186 68.3347C31.5324 67.8846 31.6939 67.4866 31.9048 67.1167C32.1228 66.7343 32.3888 66.3792 32.6338 66.0122L32.4755 65.8689C32.0903 66.2447 31.7375 66.6524 31.4208 67.0875C31.1645 67.5772 30.9483 68.0868 30.7742 68.6113C30.5152 68.2217 30.5057 68.0793 30.7818 67.3476C30.9345 66.943 31.1317 66.5551 31.3835 65.9928C31.0995 66.0915 30.8986 66.1041 30.8712 66.1796C30.617 66.8811 30.3693 67.5872 30.1763 68.307C30.1557 68.4149 30.1615 68.5262 30.1932 68.6313C30.225 68.7364 30.2817 68.8323 30.3586 68.9107C30.9373 69.2554 30.7336 69.6905 30.624 70.168C30.2907 71.6195 30.8098 72.3777 32.2682 72.6228C32.486 72.6676 32.7081 72.6881 32.9304 72.6839C35.9654 72.5077 38.7634 73.3814 41.4986 74.5735C42.5395 75.0271 43.6183 75.3685 44.8676 75.0091ZM66.7668 67.2371C66.6818 67.2876 66.5822 67.3077 66.4844 67.294C66.108 67.1705 65.7539 66.9804 65.38 66.8476C63.0959 66.0365 61.8759 64.2782 62.1797 61.868C62.4939 59.8115 62.082 57.7098 61.0147 55.9241C60.7367 55.4386 60.5799 54.8931 60.5577 54.334C60.5356 53.7749 60.6487 53.2187 60.8874 52.7127C60.9753 52.4978 61.2219 52.344 61.4054 52.1728C61.8392 51.8117 62.2498 51.4238 62.635 51.0114C62.7761 50.8418 62.6976 50.4897 62.719 50.2207C62.4537 50.2538 62.1964 50.3341 61.9594 50.4579C61.5668 50.8054 61.1945 51.1753 60.8445 51.5658C60.7511 51.3121 60.6744 51.0526 60.615 50.7888C60.4055 48.9976 60.5381 47.1829 61.0056 45.4412C61.0618 45.2756 61.174 45.1349 61.3229 45.0433C62.5999 44.2182 63.1576 42.9106 63.6318 41.5642C63.7237 41.3035 63.5765 40.9585 63.5395 40.6524C63.2362 40.7259 62.947 40.8484 62.6831 41.0149C61.7834 41.8867 61.161 43.0045 60.8937 44.2284C60.8566 44.4688 60.7264 44.685 60.5312 44.8303C60.3361 44.9756 60.0917 45.0384 59.8507 45.0051C57.9622 45.0223 56.5031 44.1183 55.21 42.8572C54.8114 42.4685 54.2541 42.1323 54.0659 41.6551C52.2828 37.1338 50.5616 32.5881 48.8279 28.0474C48.5223 27.2468 48.2411 26.4368 47.8864 25.4597C48.2909 25.4133 48.6997 25.4192 49.1026 25.477C49.8061 25.6693 50.4864 25.9382 51.1313 26.2788C52.5008 27.0554 53.7776 28.0045 55.1753 28.7211C58.9046 30.633 62.6921 32.4311 66.4276 34.3312C68.4024 35.3357 70.3428 36.4068 72.2488 37.5445C73.6287 38.3689 74.1914 39.7019 74.0321 41.2989C73.973 41.9387 73.851 42.5712 73.6677 43.187C72.5555 46.8106 71.4256 50.4289 70.2782 54.0417C69.842 55.4141 69.3521 56.77 68.8546 58.1216C68.8095 58.2213 68.7416 58.3089 68.6563 58.3773C68.571 58.4458 68.4707 58.4932 68.3637 58.5156C67.4277 58.5259 67.0886 58.668 66.7582 59.5667C66.1035 61.3475 65.6552 63.1767 65.8083 65.1008C65.8082 65.3675 65.8563 65.6321 65.9503 65.8817C66.1602 66.3117 66.4413 66.7069 66.7668 67.2371ZM42.3559 33.6538C42.2867 33.5248 42.2066 33.3999 42.1493 33.2652C39.8089 27.7723 37.5028 22.2682 35.7847 16.536C35.2376 14.7103 34.4988 12.9429 33.9006 11.1313C33.706 10.521 33.5982 9.88635 33.5803 9.24602C33.5566 8.56155 34.0846 8.16351 34.5701 7.75265C34.9875 7.39937 35.1982 7.87027 35.5062 7.89671C35.8781 7.93291 36.2534 7.90778 36.6171 7.82232C37.0176 7.69173 37.4091 7.5348 37.789 7.35257C39.4343 6.69222 40.2812 7.01883 40.9691 8.64233C41.5143 9.92928 42.017 11.2349 42.515 12.5411C44.0569 16.5847 45.5785 20.6361 47.1328 24.6748C47.3466 25.2304 47.2644 25.4947 46.664 25.5933C46.0513 25.694 45.4465 25.8415 44.8362 25.9582C43.205 26.2701 42.7452 27.084 43.3319 28.6327C43.6462 29.4625 43.9626 30.2915 44.2743 31.1223C44.3621 31.3297 44.3785 31.5604 44.3208 31.7781C44.2631 31.9958 44.1346 32.1881 43.9556 32.3247C43.4437 32.7692 42.9134 33.1924 42.3559 33.6538ZM57.9236 52.9211C57.7689 52.8969 57.716 52.9042 57.6848 52.8815C55.2591 51.1225 52.5573 49.8831 49.8351 48.6759C49.5261 48.5312 49.2798 48.2795 49.142 47.9673C47.3436 43.1178 45.5669 38.2604 43.8118 33.3949C43.7937 33.3096 43.7969 33.2211 43.821 33.1373C43.8451 33.0535 43.8895 32.9769 43.9501 32.9143C44.8742 32.2767 44.9193 31.4515 44.5337 30.5046C44.2323 29.7645 43.9234 29.0261 43.6577 28.2729C43.2962 27.2477 43.5439 26.738 44.5736 26.472C45.535 26.2236 46.5161 26.0519 47.501 25.8438C50.9699 34.8559 54.4345 43.8566 57.9236 52.9211ZM42.2151 45.1347C41.8901 44.9853 41.5601 44.8607 41.2571 44.6888C40.6014 44.3168 39.9331 43.9584 39.3165 43.5278C36.0389 41.2389 34.9487 38.276 35.9644 34.4274C36.4982 32.4047 37.5458 30.6261 38.6775 28.8925C38.8865 28.5723 39.1007 28.2554 39.3553 27.8725C39.4719 28.0754 39.5363 28.1644 39.5777 28.263C40.3513 30.1043 41.1233 31.9462 41.8935 33.7889C42.247 34.6339 42.3034 34.6424 42.8771 33.9347C42.8917 33.9167 42.9562 33.9391 43.0514 33.9473C43.0955 37.6702 43.7564 41.4311 42.2151 45.1347ZM52.0349 64.9581C52.8628 65.1758 53.7039 65.3398 54.553 65.4491C55.456 65.5091 56.1912 65.6305 56.2775 66.7296C56.3099 66.8592 56.3658 66.9817 56.4426 67.0909C57.3546 68.8675 58.2671 70.6438 59.18 72.4198C59.3788 72.807 59.5744 73.1958 59.8457 73.7301L53.9674 75.6684C54.75 73.9296 54.39 73.0155 52.6318 72.6428C51.3009 72.3937 49.9564 72.2232 48.6054 72.1321C47.1096 71.9958 45.6689 72.0595 45.0906 73.9344C44.4936 72.3335 44.9141 70.3309 46.1252 69.3214C46.908 68.7042 47.749 68.1647 48.6362 67.7105C49.6091 67.1803 50.6442 66.7658 51.6335 66.264C52.1282 66.013 52.5541 65.6687 52.0349 64.9581ZM53.7999 55.6153C55.8099 55.7854 57.7628 56.3707 59.5352 57.334C60.0488 57.5951 60.4932 57.9742 60.832 58.4402C61.1921 58.9609 61.3809 59.581 61.3721 60.214C61.3071 61.0474 61.0514 61.8547 60.6248 62.5736C60.1983 63.2925 59.6122 63.9037 58.9118 64.3601C58.1187 64.8794 57.3206 65.3155 56.4245 64.4608C56.0842 64.2113 55.6979 64.0317 55.2879 63.9323C54.5372 63.6633 53.7732 63.4316 53.0174 63.1766C50.2991 62.2597 49.5787 60.9058 50.331 58.1371C50.3484 58.0729 50.3623 58.0078 50.3807 57.9439C50.8407 56.3468 51.9115 55.5652 53.7999 55.6153ZM65.3956 81.9474L65.2253 82.1713L60.4354 73.9689C61.7928 73.0343 63.0421 72.1741 64.3671 71.2618C65.3497 74.7206 66.6453 78.0717 66.9083 81.5557L65.3956 81.9474ZM45.505 75.1212C45.4699 74.7718 45.474 74.4196 45.5173 74.0711C45.7553 73.0594 46.4654 72.4847 47.6295 72.532C49.1096 72.592 50.5899 72.7507 52.0579 72.9543C52.7962 73.0567 53.6789 73.1266 53.8768 74.1024C54.0227 74.8221 53.5503 75.5023 52.4056 75.9022C50.9055 76.4291 49.372 76.856 47.8153 77.1801C45.7373 77.6081 45.4245 77.28 45.505 75.1212ZM60.3999 73.5048L60.289 73.3521C60.251 73.3306 60.1946 73.3187 60.1776 73.2862C59.5113 72.01 58.8417 70.7353 58.198 69.4476C58.18 69.3694 58.1822 69.2878 58.2045 69.2107C58.2268 69.1335 58.2685 69.0634 58.3255 69.0068C59.6637 68.1876 61.055 67.4993 62.6898 67.6683C62.8094 67.6926 62.922 67.7433 63.0195 67.8166C63.117 67.8899 63.197 67.984 63.2536 68.0921C63.5589 68.8279 63.8151 69.5861 64.0455 70.3493C64.0686 70.4485 64.068 70.5518 64.0437 70.6507C64.0194 70.7496 63.9721 70.8414 63.9056 70.9186C62.7511 71.7991 61.5719 72.6472 60.3999 73.5048ZM61.662 61.3306C61.45 63.552 62.0931 65.4151 64.0543 66.8406C63.474 66.9989 63.0876 67.1407 62.6886 67.2049C61.9942 67.3168 61.2603 67.2805 60.6007 67.4889C59.6646 67.7846 58.7808 68.2456 57.8051 68.6659C57.4004 67.8971 56.9719 67.1012 56.5615 66.2961C56.3256 65.8334 56.4138 65.5836 57.0037 65.5078C57.8014 65.4224 58.5671 65.1473 59.2367 64.7055C59.9063 64.2637 60.4605 63.6681 60.8529 62.9683C61.1618 62.4456 61.3945 61.8778 61.662 61.3306ZM71.2169 52.6097C71.3487 52.7 71.4206 52.7245 71.452 52.7745C73.0804 55.3608 73.344 57.0321 71.7946 59.1461C70.786 60.5222 69.8031 61.917 68.8069 63.3021C68.7123 63.4337 68.605 63.556 68.4564 63.7414C68.5733 62.2289 68.6774 60.8182 68.7978 59.409C68.8329 59.2363 68.8937 59.0699 68.9782 58.9152C69.3121 58.1191 69.6922 57.3392 69.9748 56.5254C70.4168 55.2524 70.7934 53.9568 71.2169 52.6097ZM35.0915 6.83376C34.755 6.0357 34.4352 5.28507 34.1222 4.53152C33.9356 4.08204 33.7343 3.63634 33.5835 3.17461C32.9996 1.38696 33.185 1.06532 35.0052 0.51836C35.4991 0.369934 35.9296 0.445848 36.1542 0.896973C36.9065 2.40816 37.6143 3.94156 38.3305 5.4485L35.0915 6.83376ZM58.9024 53.798C59.2683 53.484 59.5567 53.0898 59.745 52.6459C59.9333 52.2021 60.0165 51.7208 59.988 51.2395C59.9604 50.0739 59.5096 48.9581 58.7198 48.1005C58.0225 47.266 57.3308 46.4264 56.6587 45.5718C56.2699 45.0774 55.9247 44.5487 55.5599 44.0355L55.6603 43.907C57.1086 44.9166 58.6431 45.644 60.5365 45.3765C60.4492 45.8969 60.3596 46.3264 60.3075 46.7604C60.099 48.4976 59.7645 50.243 60.5844 51.9277C60.6218 52.0303 60.6264 52.142 60.5974 52.2473C60.4062 53.097 60.2059 53.9446 60.0018 54.8208C59.6883 54.5291 59.3258 54.1919 58.9024 53.798ZM55.1128 44.4432L55.1873 44.3979C56.4256 45.956 57.6925 47.4926 58.8836 49.086C59.2067 49.5644 59.4213 50.1077 59.5124 50.6778C59.6321 51.1772 59.6128 51.6999 59.4565 52.1892C59.3003 52.6785 59.0131 53.1157 58.6262 53.4534C57.4239 50.3701 56.2684 47.4066 55.1128 44.4432ZM66.9699 66.5803L66.6627 66.5638C66.4817 66.1155 66.3434 65.6511 66.2496 65.1768C66.0451 63.2554 66.5346 61.4358 67.1904 59.6564C67.302 59.3914 67.4855 59.163 67.7202 58.997C68.0614 58.7492 68.4181 58.9358 68.3694 59.3473C68.1279 61.391 67.8746 63.4341 67.5649 65.4681C67.5052 65.8599 67.1752 66.2106 66.9699 66.5803ZM45.3129 64.7751C45.0441 64.5231 44.8113 64.1246 44.4953 64.0412C43.351 63.739 43.3144 62.6311 42.7081 61.949L42.8137 61.8202L47.5182 63.5349C46.7868 63.9462 46.0718 64.3483 45.3129 64.7751ZM64.5625 70.4127C64.2135 69.4011 63.9432 68.6174 63.6789 67.8513C64.6199 67.4846 65.5122 67.3779 66.4651 67.9794L64.5625 70.4127ZM35.5299 7.49143L35.4385 7.14255C36.3111 6.78988 37.1851 6.44072 38.0557 6.08314C38.5437 5.88269 38.8282 6.09814 39.125 6.61569C37.7927 6.57289 36.8133 7.69201 35.5299 7.49143ZM61.4128 44.3454C61.6021 43.1112 62.247 41.9927 63.2205 41.2107C62.971 42.4229 62.3371 43.5223 61.4128 44.3454ZM45.9011 47.3525C44.7457 47.4367 43.5715 46.8333 43.1847 46.0302C44.1581 46.504 45.0296 46.9283 45.9011 47.3525ZM66.8974 83.6133L66.6327 83.7197C66.4059 83.323 66.1581 82.9359 65.968 82.5224C65.9232 82.4249 66.0729 82.238 66.1331 82.0923C66.2785 82.1532 66.5192 82.1817 66.5529 82.2807C66.7005 82.7138 66.7881 83.1673 66.8974 83.6133ZM42.1838 64.6772C43.2887 64.0774 43.7141 64.1605 44.1099 65.0635C43.4603 64.9332 42.8539 64.8116 42.1838 64.6772Z" fill="#774653"/>
<path d="M44.8676 75.0091C44.8071 75.3421 44.7642 75.5958 44.7146 75.8481C44.4675 77.1052 44.9179 77.7688 46.2031 77.7726C47.1798 77.7919 48.1543 77.6733 49.0979 77.4204C52.6133 76.4005 56.1078 75.3072 59.5958 74.1966C60.0935 74.0381 60.1674 74.305 60.3314 74.5882C61.6885 76.931 62.9918 79.3075 64.4303 81.5992C65.0455 82.5961 65.8248 83.4818 66.7353 84.2188C67.7584 85.0234 69.1078 85.0254 70.3842 84.9882C73.5448 84.896 76.5951 84.1614 79.5728 83.1861C83.6428 81.8529 87.6671 80.3804 91.7115 78.9692C92.2298 78.7883 92.7514 78.6169 93.2715 78.4411L93.2691 78.2709C93.0641 78.2189 92.852 78.2007 92.6411 78.217C92.1688 78.3361 91.7098 78.5102 91.2483 78.6702C87.0819 80.1148 82.9484 81.6662 78.7373 82.9661C76.3477 83.6479 73.9106 84.1504 71.4462 84.4693C70.3124 84.6401 69.112 84.3925 67.9443 84.3022C67.5159 84.2691 67.3546 84.0494 67.3875 83.5423C67.4665 81.5182 67.2151 79.4946 66.6432 77.5513C66.0977 75.4918 65.4401 73.4621 64.8692 71.4089C64.8288 71.2607 64.8205 71.1056 64.8448 70.9539C64.8691 70.8023 64.9255 70.6575 65.0102 70.5294C66.4487 68.9996 67.378 67.1743 68.292 65.3106C69.0015 63.9833 69.7887 62.699 70.6495 61.4644C71.3122 60.4406 72.0567 59.4695 72.7121 58.4413C73.0071 57.9671 73.1912 57.4325 73.2507 56.8772C73.3102 56.3219 73.2436 55.7604 73.0559 55.2344C72.7245 54.1466 72.3597 53.0797 71.55 52.2275C71.5016 52.1618 71.468 52.0864 71.4514 52.0064C71.4348 51.9265 71.4357 51.8439 71.454 51.7644C72.0205 49.7349 72.5936 47.7071 73.1885 45.6858C73.588 44.3284 74.1538 43.006 74.4128 41.6244C74.7674 39.7329 74.1012 38.1051 72.399 37.1274C69.9768 35.7363 67.5041 34.4289 65.017 33.1561C61.7988 31.5092 58.5249 29.9706 55.3158 28.3066C53.8616 27.5525 52.5217 26.5811 51.0995 25.761C50.1715 25.2258 49.1912 24.8108 48.054 25.0633C47.9275 25.0913 47.6419 24.8007 47.567 24.6054C45.961 20.4183 44.3775 16.2225 42.7824 12.0311C42.364 10.9316 41.9699 9.81866 41.4732 8.75456C41.0623 7.98498 40.6095 7.23853 40.1169 6.51858C40.2859 6.07794 40.036 5.59872 39.3199 5.54993C39.1449 5.54899 38.9748 5.49177 38.8348 5.38673C38.6947 5.28168 38.5922 5.13439 38.5423 4.96661C38.2368 4.25252 37.9324 3.53799 37.629 2.823C37.4726 2.4555 37.3398 2.0759 37.1574 1.72188C36.0917 -0.345802 35.6224 -0.41957 33.369 0.801891C32.8035 1.10844 32.7213 1.6962 32.8889 2.26997C33.1188 3.05639 33.3962 3.82981 33.6772 4.60003C33.8444 5.05812 34.0612 5.4979 34.2496 5.94847C34.6893 7.00027 34.6938 7.00741 33.8625 7.76998C33.5635 8.00825 33.3387 8.32686 33.2144 8.68842C33.0901 9.04998 33.0715 9.4395 33.1608 9.81126C33.5082 11.1376 33.9534 12.4398 34.3934 13.74C35.5886 17.2719 36.7954 20.7999 38.014 24.3239C38.2892 25.1205 38.6141 25.9007 38.9384 26.6791C39.0731 27.0024 39.0629 27.1902 38.6961 27.3502C31.6166 30.4379 24.5504 33.5563 17.4586 36.6153C16.1623 37.1405 14.8285 37.5678 13.4684 37.8936C11.0587 38.5262 8.76708 38.0054 6.52188 37.0679C-1.07478 33.8768 -8.39375 30.0612 -15.3598 25.6604C-17.5768 24.2675 -19.8595 22.9788 -22.1126 21.6434C-22.1856 21.5926 -22.2659 21.5533 -22.3509 21.5269C-22.5651 21.4794 -22.7832 21.4491 -22.9997 21.412C-22.8764 21.587 -22.7306 21.745 -22.5661 21.882C-22.1359 22.1552 -21.6747 22.3787 -21.2346 22.637C-15.9131 25.7603 -10.6693 29.0272 -5.24715 31.9646C-1.314 34.0954 2.84409 35.8148 6.92255 37.6722C9.72218 38.9472 12.6044 38.8803 15.4241 37.7925C19.0668 36.3872 22.6822 34.9118 26.2703 33.3662C30.1431 31.6983 33.9667 29.9162 37.8126 28.1858C38.1105 28.0375 38.4362 27.9535 38.7687 27.9392C38.5874 28.2211 38.4079 28.5041 38.2245 28.7846C37.1516 30.4256 36.1722 32.1198 35.6294 34.0161C34.3927 38.3363 35.6532 41.663 39.4269 44.1301C39.8717 44.4235 40.3326 44.6918 40.8074 44.9338C41.6515 45.2922 42.3904 45.8598 42.9543 46.583C43.7627 47.7013 45.1509 47.9204 46.4749 48.0545C46.6148 48.0687 46.7718 47.9151 46.9209 47.8393C46.8307 47.6761 46.7819 47.4396 46.6435 47.3615C45.7752 46.871 44.9009 46.3865 44.0019 45.9558C42.6087 45.2884 42.6127 45.3117 43.1001 43.8589C43.7426 41.9436 43.6207 39.9558 43.6182 37.9807C43.6166 36.7404 43.6179 35.5001 43.6179 34.2119C43.7018 34.3599 43.7772 34.5125 43.8436 34.6692C45.4808 39.1761 47.1059 43.6875 48.7665 48.1858C48.9134 48.537 49.1819 48.8236 49.5229 48.993C52.6004 50.3851 55.6764 51.7724 58.332 53.9167C59.5899 54.9324 60.6834 56.0841 61.3322 57.5959C61.4459 57.8587 61.5279 58.1341 61.5765 58.4163C59.5875 56.2529 56.9393 55.6531 54.2323 55.2525C51.7899 54.8911 50.3788 55.9222 49.8377 58.3343C49.7458 58.7234 49.6814 59.1185 49.645 59.5167C49.513 61.1724 50.1617 62.3932 51.6733 63.0705C52.7628 63.5586 53.9255 63.8817 55.0473 64.3003C55.5322 64.4812 55.9965 64.7174 56.4702 64.9285L56.4163 65.175C55.7733 65.1822 55.1311 65.1282 54.4983 65.0136C51.7625 64.2585 49.0413 63.4497 46.3212 62.6387C45.599 62.4233 44.9053 62.1145 44.1889 61.8775C42.8294 61.4167 41.5716 60.698 40.4842 59.7608C36.1402 56.1345 31.3046 53.3789 25.7434 52.0623C23.6201 51.4977 21.3703 51.6439 19.3379 52.4786C19.1132 52.5975 18.8995 52.7361 18.6993 52.8929L18.7837 53.066C18.8823 53.066 18.9973 53.0998 19.0771 53.0611C21.6602 51.8061 24.3044 52.0079 26.9429 52.793C31.8444 54.2512 36.1733 56.7815 40.1356 59.9751C40.205 60.03 40.2691 60.0916 40.3267 60.1588C40.3513 60.1881 40.3487 60.2403 40.3938 60.4331C37.7834 59.392 35.2502 58.0976 32.4313 59.3263C31.0915 59.9103 29.7817 60.5634 28.4619 61.1927C28.3905 61.2428 28.3388 61.316 28.3153 61.4C28.2968 61.4505 28.333 61.521 28.3648 61.6881C28.84 61.4383 29.262 61.1724 29.7165 60.986C31.0263 60.4485 32.3264 59.8704 33.6739 59.447C34.8609 59.1014 36.1315 59.1842 37.2637 59.6807C38.5622 60.1994 39.8799 60.6701 41.1785 61.1885C41.4685 61.2938 41.7262 61.4726 41.9264 61.7074C42.4135 62.3516 42.8415 63.0405 43.3523 63.8003C41.4866 64.3169 39.7915 64.7719 38.0002 64.1873C36.3263 63.641 34.6459 63.5427 32.9927 64.289C32.7839 64.3832 32.5924 64.5158 32.3929 64.6306L32.4805 64.8824C32.736 64.8196 32.9873 64.7408 33.2328 64.6462C34.4449 64.1345 35.7969 64.0588 37.0586 64.432C35.7379 64.7671 34.2446 64.6097 33.1631 65.7743C33.2909 65.8376 33.3385 65.8808 33.3625 65.8703C36.6827 64.4211 40.0961 64.7594 43.5064 65.3916C44.5493 65.5849 45.4443 65.496 46.2212 64.7504C46.5039 64.4639 46.8661 64.269 47.261 64.1909C47.6558 64.1129 48.0651 64.1553 48.4355 64.3127C49.3177 64.6126 50.2186 64.8572 51.1071 65.1392C51.349 65.216 51.5757 65.3405 52.002 65.5276C51.4818 65.8265 51.1395 66.0477 50.7765 66.2272C49.6431 66.7878 48.4967 67.3221 47.3648 67.8857C45.1039 69.0115 44.1514 70.8426 44.4584 73.3414C44.4855 73.5618 44.501 73.7836 44.5187 74.005C44.5626 74.5537 44.2851 74.8254 43.7636 74.7356C43.196 74.6363 42.6377 74.4898 42.0944 74.2978C41.0092 73.9168 39.9391 73.4929 38.8556 73.0841C39.2956 72.3525 39.2955 72.3525 39.0095 71.9398C38.7019 72.8388 38.0261 72.7094 37.323 72.6298C36.0684 72.4878 34.8073 72.4027 33.5487 72.2966C33.3719 72.2817 33.1934 72.287 33.0161 72.2754C30.9328 72.1395 30.3411 70.9869 31.4084 69.1665C31.5241 68.9616 31.7024 68.7991 31.9172 68.7028C32.1319 68.6066 32.3719 68.5816 32.6019 68.6316C33.2412 68.7061 33.8768 68.813 34.5147 68.9007C34.7183 68.9287 34.9243 68.9401 35.2238 68.9678C34.7075 68.3611 32.9786 68.1034 31.3186 68.3347C31.5324 67.8846 31.6939 67.4866 31.9048 67.1167C32.1228 66.7343 32.3888 66.3792 32.6338 66.0122L32.4755 65.8689C32.0903 66.2447 31.7375 66.6524 31.4208 67.0875C31.1645 67.5772 30.9483 68.0868 30.7742 68.6113C30.5152 68.2217 30.5057 68.0793 30.7818 67.3476C30.9345 66.943 31.1317 66.5551 31.3835 65.9928C31.0995 66.0915 30.8986 66.1041 30.8712 66.1796C30.617 66.8811 30.3693 67.5872 30.1763 68.307C30.1557 68.4149 30.1615 68.5262 30.1932 68.6313C30.225 68.7364 30.2817 68.8323 30.3586 68.9107C30.9373 69.2554 30.7336 69.6905 30.624 70.168C30.2907 71.6195 30.8098 72.3777 32.2682 72.6228C32.486 72.6676 32.7081 72.6881 32.9304 72.6839C35.9654 72.5077 38.7634 73.3814 41.4986 74.5735C42.5395 75.0271 43.6183 75.3685 44.8676 75.0091ZM66.7668 67.2371C66.6818 67.2876 66.5822 67.3077 66.4844 67.294C66.108 67.1705 65.7539 66.9804 65.38 66.8476C63.0959 66.0365 61.8759 64.2782 62.1797 61.868C62.4939 59.8115 62.082 57.7098 61.0147 55.9241C60.7367 55.4386 60.5799 54.8931 60.5577 54.334C60.5356 53.7749 60.6487 53.2187 60.8874 52.7127C60.9753 52.4978 61.2219 52.344 61.4054 52.1728C61.8392 51.8117 62.2498 51.4238 62.635 51.0114C62.7761 50.8418 62.6976 50.4897 62.719 50.2207C62.4537 50.2538 62.1964 50.3341 61.9594 50.4579C61.5668 50.8054 61.1945 51.1753 60.8445 51.5658C60.7511 51.3121 60.6744 51.0526 60.615 50.7888C60.4055 48.9976 60.5381 47.1829 61.0056 45.4412C61.0618 45.2756 61.174 45.1349 61.3229 45.0433C62.5999 44.2182 63.1576 42.9106 63.6318 41.5642C63.7237 41.3035 63.5765 40.9585 63.5395 40.6524C63.2362 40.7259 62.947 40.8484 62.6831 41.0149C61.7834 41.8867 61.161 43.0045 60.8937 44.2284C60.8566 44.4688 60.7264 44.685 60.5312 44.8303C60.3361 44.9756 60.0917 45.0384 59.8507 45.0051C57.9622 45.0223 56.5031 44.1183 55.21 42.8572C54.8114 42.4685 54.2541 42.1323 54.0659 41.6551C52.2828 37.1338 50.5616 32.5881 48.8279 28.0474C48.5223 27.2468 48.2411 26.4368 47.8864 25.4597C48.2909 25.4133 48.6997 25.4192 49.1026 25.477C49.8061 25.6693 50.4864 25.9382 51.1313 26.2788C52.5008 27.0554 53.7776 28.0045 55.1753 28.7211C58.9046 30.633 62.6921 32.4311 66.4276 34.3312C68.4024 35.3357 70.3428 36.4068 72.2488 37.5445C73.6287 38.3689 74.1914 39.7019 74.0321 41.2989C73.973 41.9387 73.851 42.5712 73.6677 43.187C72.5555 46.8106 71.4256 50.4289 70.2782 54.0417C69.842 55.4141 69.3521 56.77 68.8546 58.1216C68.8095 58.2213 68.7416 58.3089 68.6563 58.3773C68.571 58.4458 68.4707 58.4932 68.3637 58.5156C67.4277 58.5259 67.0886 58.668 66.7582 59.5667C66.1035 61.3475 65.6552 63.1767 65.8083 65.1008C65.8082 65.3675 65.8563 65.6321 65.9503 65.8817C66.1602 66.3117 66.4413 66.7069 66.7668 67.2371ZM42.3559 33.6538C42.2867 33.5248 42.2066 33.3999 42.1493 33.2652C39.8089 27.7723 37.5028 22.2682 35.7847 16.536C35.2376 14.7103 34.4988 12.9429 33.9006 11.1313C33.706 10.521 33.5982 9.88635 33.5803 9.24602C33.5566 8.56155 34.0846 8.16351 34.5701 7.75265C34.9875 7.39937 35.1982 7.87027 35.5062 7.89671C35.8781 7.93291 36.2534 7.90778 36.6171 7.82232C37.0176 7.69173 37.4091 7.5348 37.789 7.35257C39.4343 6.69222 40.2812 7.01883 40.9691 8.64233C41.5143 9.92928 42.017 11.2349 42.515 12.5411C44.0569 16.5847 45.5785 20.6361 47.1328 24.6748C47.3466 25.2304 47.2644 25.4947 46.664 25.5933C46.0513 25.694 45.4465 25.8415 44.8362 25.9582C43.205 26.2701 42.7452 27.084 43.3319 28.6327C43.6462 29.4625 43.9626 30.2915 44.2743 31.1223C44.3621 31.3297 44.3785 31.5604 44.3208 31.7781C44.2631 31.9958 44.1346 32.1881 43.9556 32.3247C43.4437 32.7692 42.9134 33.1924 42.3559 33.6538ZM57.9236 52.9211C57.7689 52.8969 57.716 52.9042 57.6848 52.8815C55.2591 51.1225 52.5573 49.8831 49.8351 48.6759C49.5261 48.5312 49.2798 48.2795 49.142 47.9673C47.3436 43.1178 45.5669 38.2604 43.8118 33.3949C43.7937 33.3096 43.7969 33.2211 43.821 33.1373C43.8451 33.0535 43.8895 32.9769 43.9501 32.9143C44.8742 32.2767 44.9193 31.4515 44.5337 30.5046C44.2323 29.7645 43.9234 29.0261 43.6577 28.2729C43.2962 27.2477 43.5439 26.738 44.5736 26.472C45.535 26.2236 46.5161 26.0519 47.501 25.8438C50.9699 34.8559 54.4345 43.8566 57.9236 52.9211ZM42.2151 45.1347C41.8901 44.9853 41.5601 44.8607 41.2571 44.6888C40.6014 44.3168 39.9331 43.9584 39.3165 43.5278C36.0389 41.2389 34.9487 38.276 35.9644 34.4274C36.4982 32.4047 37.5458 30.6261 38.6775 28.8925C38.8865 28.5723 39.1007 28.2554 39.3553 27.8725C39.4719 28.0754 39.5363 28.1644 39.5777 28.263C40.3513 30.1043 41.1233 31.9462 41.8935 33.7889C42.247 34.6339 42.3034 34.6424 42.8771 33.9347C42.8917 33.9167 42.9562 33.9391 43.0514 33.9473C43.0955 37.6702 43.7564 41.4311 42.2151 45.1347ZM52.0349 64.9581C52.8628 65.1758 53.7039 65.3398 54.553 65.4491C55.456 65.5091 56.1912 65.6305 56.2775 66.7296C56.3099 66.8592 56.3658 66.9817 56.4426 67.0909C57.3546 68.8675 58.2671 70.6438 59.18 72.4198C59.3788 72.807 59.5744 73.1958 59.8457 73.7301L53.9674 75.6684C54.75 73.9296 54.39 73.0155 52.6318 72.6428C51.3009 72.3937 49.9564 72.2232 48.6054 72.1321C47.1096 71.9958 45.6689 72.0595 45.0906 73.9344C44.4936 72.3335 44.9141 70.3309 46.1252 69.3214C46.908 68.7042 47.749 68.1647 48.6362 67.7105C49.6091 67.1803 50.6442 66.7658 51.6335 66.264C52.1282 66.013 52.5541 65.6687 52.0349 64.9581ZM53.7999 55.6153C55.8099 55.7854 57.7628 56.3707 59.5352 57.334C60.0488 57.5951 60.4932 57.9742 60.832 58.4402C61.1921 58.9609 61.3809 59.581 61.3721 60.214C61.3071 61.0474 61.0514 61.8547 60.6248 62.5736C60.1983 63.2925 59.6122 63.9037 58.9118 64.3601C58.1187 64.8794 57.3206 65.3155 56.4245 64.4608C56.0842 64.2113 55.6979 64.0317 55.2879 63.9323C54.5372 63.6633 53.7732 63.4316 53.0174 63.1766C50.2991 62.2597 49.5787 60.9058 50.331 58.1371C50.3484 58.0729 50.3623 58.0078 50.3807 57.9439C50.8407 56.3468 51.9115 55.5652 53.7999 55.6153ZM65.3956 81.9474L65.2253 82.1713L60.4354 73.9689C61.7928 73.0343 63.0421 72.1741 64.3671 71.2618C65.3497 74.7206 66.6453 78.0717 66.9083 81.5557L65.3956 81.9474ZM45.505 75.1212C45.4699 74.7718 45.474 74.4196 45.5173 74.0711C45.7553 73.0594 46.4654 72.4847 47.6295 72.532C49.1096 72.592 50.5899 72.7507 52.0579 72.9543C52.7962 73.0567 53.6789 73.1266 53.8768 74.1024C54.0227 74.8221 53.5503 75.5023 52.4056 75.9022C50.9055 76.4291 49.372 76.856 47.8153 77.1801C45.7373 77.6081 45.4245 77.28 45.505 75.1212ZM60.3999 73.5048L60.289 73.3521C60.251 73.3306 60.1946 73.3187 60.1776 73.2862C59.5113 72.01 58.8417 70.7353 58.198 69.4476C58.18 69.3694 58.1822 69.2878 58.2045 69.2107C58.2268 69.1335 58.2685 69.0634 58.3255 69.0068C59.6637 68.1876 61.055 67.4993 62.6898 67.6683C62.8094 67.6926 62.922 67.7433 63.0195 67.8166C63.117 67.8899 63.197 67.984 63.2536 68.0921C63.5589 68.8279 63.8151 69.5861 64.0455 70.3493C64.0686 70.4485 64.068 70.5518 64.0437 70.6507C64.0194 70.7496 63.9721 70.8414 63.9056 70.9186C62.7511 71.7991 61.5719 72.6472 60.3999 73.5048ZM61.662 61.3306C61.45 63.552 62.0931 65.4151 64.0543 66.8406C63.474 66.9989 63.0876 67.1407 62.6886 67.2049C61.9942 67.3168 61.2603 67.2805 60.6007 67.4889C59.6646 67.7846 58.7808 68.2456 57.8051 68.6659C57.4004 67.8971 56.9719 67.1012 56.5615 66.2961C56.3256 65.8334 56.4138 65.5836 57.0037 65.5078C57.8014 65.4224 58.5671 65.1473 59.2367 64.7055C59.9063 64.2637 60.4605 63.6681 60.8529 62.9683C61.1618 62.4456 61.3945 61.8778 61.662 61.3306ZM71.2169 52.6097C71.3487 52.7 71.4206 52.7245 71.452 52.7745C73.0804 55.3608 73.344 57.0321 71.7946 59.1461C70.786 60.5222 69.8031 61.917 68.8069 63.3021C68.7123 63.4337 68.605 63.556 68.4564 63.7414C68.5733 62.2289 68.6774 60.8182 68.7978 59.409C68.8329 59.2363 68.8937 59.0699 68.9782 58.9152C69.3121 58.1191 69.6922 57.3392 69.9748 56.5254C70.4168 55.2524 70.7934 53.9568 71.2169 52.6097ZM35.0915 6.83376C34.755 6.0357 34.4352 5.28507 34.1222 4.53152C33.9356 4.08204 33.7343 3.63634 33.5835 3.17461C32.9996 1.38696 33.185 1.06532 35.0052 0.51836C35.4991 0.369934 35.9296 0.445848 36.1542 0.896973C36.9065 2.40816 37.6143 3.94156 38.3305 5.4485L35.0915 6.83376ZM58.9024 53.798C59.2683 53.484 59.5567 53.0898 59.745 52.6459C59.9333 52.2021 60.0165 51.7208 59.988 51.2395C59.9604 50.0739 59.5096 48.9581 58.7198 48.1005C58.0225 47.266 57.3308 46.4264 56.6587 45.5718C56.2699 45.0774 55.9247 44.5487 55.5599 44.0355L55.6603 43.907C57.1086 44.9166 58.6431 45.644 60.5365 45.3765C60.4492 45.8969 60.3596 46.3264 60.3075 46.7604C60.099 48.4976 59.7645 50.243 60.5844 51.9277C60.6218 52.0303 60.6264 52.142 60.5974 52.2473C60.4062 53.097 60.2059 53.9446 60.0018 54.8208C59.6883 54.5291 59.3258 54.1919 58.9024 53.798ZM55.1128 44.4432L55.1873 44.3979C56.4256 45.956 57.6925 47.4926 58.8836 49.086C59.2067 49.5644 59.4213 50.1077 59.5124 50.6778C59.6321 51.1772 59.6128 51.6999 59.4565 52.1892C59.3003 52.6785 59.0131 53.1157 58.6262 53.4534C57.4239 50.3701 56.2684 47.4066 55.1128 44.4432ZM66.9699 66.5803L66.6627 66.5638C66.4817 66.1155 66.3434 65.6511 66.2496 65.1768C66.0451 63.2554 66.5346 61.4358 67.1904 59.6564C67.302 59.3914 67.4855 59.163 67.7202 58.997C68.0614 58.7492 68.4181 58.9358 68.3694 59.3473C68.1279 61.391 67.8746 63.4341 67.5649 65.4681C67.5052 65.8599 67.1752 66.2106 66.9699 66.5803ZM45.3129 64.7751C45.0441 64.5231 44.8113 64.1246 44.4953 64.0412C43.351 63.739 43.3144 62.6311 42.7081 61.949L42.8137 61.8202L47.5182 63.5349C46.7868 63.9462 46.0718 64.3483 45.3129 64.7751ZM64.5625 70.4127C64.2135 69.4011 63.9432 68.6174 63.6789 67.8513C64.6199 67.4846 65.5122 67.3779 66.4651 67.9794L64.5625 70.4127ZM35.5299 7.49143L35.4385 7.14255C36.3111 6.78988 37.1851 6.44072 38.0557 6.08314C38.5437 5.88269 38.8282 6.09814 39.125 6.61569C37.7927 6.57289 36.8133 7.69201 35.5299 7.49143ZM61.4128 44.3454C61.6021 43.1112 62.247 41.9927 63.2205 41.2107C62.971 42.4229 62.3371 43.5223 61.4128 44.3454ZM45.9011 47.3525C44.7457 47.4367 43.5715 46.8333 43.1847 46.0302C44.1581 46.504 45.0296 46.9283 45.9011 47.3525ZM66.8974 83.6133L66.6327 83.7197C66.4059 83.323 66.1581 82.9359 65.968 82.5224C65.9232 82.4249 66.0729 82.238 66.1331 82.0923C66.2785 82.1532 66.5192 82.1817 66.5529 82.2807C66.7005 82.7138 66.7881 83.1673 66.8974 83.6133ZM42.1838 64.6772C43.2887 64.0774 43.7141 64.1605 44.1099 65.0635C43.4603 64.9332 42.8539 64.8116 42.1838 64.6772Z" stroke="#774653" stroke-width="0.2" mask="url(#path-1-outside-1_445_6477)"/>
<path d="M16.9036 54.2139C16.73 54.2465 16.5632 54.3082 16.4103 54.3965C14.3274 56.1738 13.3258 59.8651 14.2241 62.4556C14.8291 64.2002 16.1296 65.0819 17.9078 65.282C20.3348 65.5551 22.5601 64.8061 24.7185 63.8143C25.3554 63.5006 25.9753 63.1535 26.5756 62.7745C26.7214 62.6599 26.8516 62.5267 26.9629 62.3783L26.8286 62.2015C26.7654 62.2322 26.7012 62.2612 26.6369 62.2902C26.4985 62.3528 26.3601 62.4153 26.2315 62.494L16.9036 54.2139ZM16.9036 54.2139L16.9814 54.4208L16.9036 54.2139ZM16.8943 54.1647L16.9356 54.157L16.9503 54.1963L17.0282 54.4032L17.0393 54.4326L17.0175 54.4553C16.9645 54.5109 16.9113 54.5662 16.8582 54.6214C16.7444 54.7398 16.6309 54.8579 16.5188 54.9776L16.5188 54.9776L16.518 54.9784C15.7052 55.8108 15.0957 56.8196 14.7368 57.9263C14.3779 59.033 14.2795 60.2075 14.4492 61.3585L14.4493 61.3596C14.5633 62.2767 14.9035 63.0478 15.4388 63.6261C15.9739 64.2042 16.7063 64.5921 17.6095 64.7391C18.4146 64.8629 19.2331 64.8728 20.041 64.7684C22.2381 64.4483 24.3403 63.6582 26.2044 62.452L26.2054 62.4514C26.3367 62.371 26.48 62.3063 26.6199 62.243C26.6834 62.2143 26.7462 62.1859 26.8068 62.1565L26.8437 62.1387L26.8685 62.1713L27.0027 62.3481L27.0255 62.3781L27.0029 62.4083C26.889 62.5602 26.7558 62.6965 26.6065 62.8138L26.6067 62.814L26.6023 62.8167C26.0005 63.1968 25.3791 63.5447 24.7406 63.8592L24.7406 63.8592L24.7394 63.8598C22.5786 64.8526 20.343 65.6064 17.9022 65.3317C17.0064 65.2309 16.2278 64.958 15.5962 64.4881C14.9642 64.0179 14.4823 63.3527 14.1769 62.472C13.7237 61.1651 13.7506 59.584 14.151 58.108C14.5514 56.6319 15.327 55.2551 16.3778 54.3585L16.3773 54.3578L16.3853 54.3532C16.5431 54.2621 16.7152 54.1984 16.8943 54.1647Z" fill="#774653" stroke="#774653" stroke-width="0.1"/>
<path d="M33.5298 9.24735C33.5175 8.89017 33.6497 8.60823 33.8447 8.3652C34.0147 8.15339 34.2345 7.96868 34.4486 7.78882C34.4783 7.76389 34.5079 7.73905 34.5372 7.71424C34.6474 7.62098 34.7487 7.57821 34.8455 7.57226C34.9418 7.56634 35.0265 7.59736 35.1022 7.63799C35.1401 7.65828 35.1765 7.68145 35.2115 7.70426C35.2198 7.70967 35.2279 7.71504 35.236 7.72036C35.2625 7.73779 35.2881 7.75461 35.3141 7.77042C35.3819 7.81168 35.4447 7.84106 35.5099 7.84665L35.5105 7.84671C35.8762 7.88231 36.2453 7.8577 36.603 7.77389C37.0008 7.64411 37.3895 7.48822 37.7668 7.30725L37.7667 7.30715L37.7698 7.30593C38.5957 6.97444 39.2343 6.88491 39.7561 7.09437C40.2784 7.30399 40.669 7.80709 41.0145 8.62259C41.5602 9.91046 42.0631 11.2168 42.5612 12.5231C43.1496 14.0664 43.7351 15.6107 44.3206 17.155C45.2692 19.6572 46.2178 22.1592 47.1789 24.6566C47.2858 24.9345 47.327 25.1577 47.2485 25.3263C47.1683 25.4983 46.9745 25.5927 46.6715 25.6424C46.3029 25.703 45.9391 25.7802 45.5739 25.8576C45.3321 25.9089 45.0898 25.9603 44.845 26.0071C44.0339 26.1621 43.5298 26.4395 43.2953 26.8559C43.0609 27.2723 43.0864 27.8448 43.378 28.6148C43.4745 28.8694 43.5712 29.1241 43.6679 29.3788C43.8861 29.9534 44.1043 30.5281 44.3202 31.1036C44.4119 31.3209 44.429 31.5626 44.3685 31.7907C44.3081 32.0186 44.1738 32.2199 43.9866 32.3633C43.6301 32.6728 43.2643 32.9723 42.8873 33.281C42.7228 33.4158 42.5561 33.5522 42.3872 33.6921L42.3401 33.731L42.3113 33.6772C42.2905 33.6385 42.2682 33.5992 42.2454 33.5592C42.1951 33.4708 42.1429 33.3791 42.1027 33.2846C39.7624 27.7918 37.4552 22.2853 35.7363 16.5501C35.4631 15.6388 35.1421 14.7417 34.8142 13.8453C34.7645 13.7092 34.7146 13.5731 34.6646 13.437C34.3857 12.6769 34.1065 11.9158 33.8525 11.1467L33.8524 11.1463C33.6564 10.5315 33.5478 9.89231 33.5298 9.24735ZM33.5298 9.24735C33.5298 9.2474 33.5298 9.24746 33.5298 9.24751L33.5797 9.24578M33.5298 9.24735C33.5298 9.24729 33.5298 9.24723 33.5298 9.24718L33.5797 9.24578M33.5797 9.24578C33.5976 9.88612 33.7054 10.5208 33.9 11.1311L37.7884 7.35233C37.4085 7.53456 37.0171 7.69149 36.6165 7.82208C36.2528 7.90754 35.8775 7.93267 35.5056 7.89647C35.399 7.88732 35.304 7.82489 35.2081 7.76183C35.0269 7.64276 34.8424 7.52145 34.5695 7.75241C34.54 7.77738 34.5103 7.80231 34.4806 7.82726C34.0219 8.21272 33.5575 8.60292 33.5797 9.24578Z" stroke="#774653" stroke-width="0.1"/>
<path d="M44.5729 26.4719L44.5604 26.4235C45.2285 26.2509 45.907 26.1151 46.5881 25.9787C46.8884 25.9186 47.1893 25.8584 47.4899 25.7948L47.5316 25.786L47.5469 25.8258L57.9695 52.9031L58.0006 52.9839L57.9151 52.9705C57.8554 52.9611 57.8118 52.9566 57.7775 52.9531C57.7683 52.9521 57.7597 52.9513 57.7517 52.9504C57.7176 52.9466 57.6828 52.9423 57.6547 52.9219C55.2338 51.1663 52.5366 49.9288 49.8142 48.7215L49.8132 48.7211C49.4932 48.5713 49.2383 48.3107 49.0956 47.9874L49.0955 47.9875L49.0944 47.9846C47.3019 43.1328 45.5251 38.2752 43.7641 33.4119L43.7636 33.412L43.7622 33.4052C43.7424 33.3119 43.7458 33.2151 43.7722 33.1234C43.7986 33.0318 43.8471 32.948 43.9135 32.8794L43.9128 32.8787L43.921 32.8731C44.3744 32.5602 44.6076 32.205 44.6833 31.8158C44.7593 31.4248 44.6777 30.9923 44.4867 30.5234C44.444 30.4186 44.4012 30.3138 44.3583 30.2089C44.0987 29.5739 43.8383 28.9372 43.6099 28.2895C43.4279 27.7736 43.3936 27.3729 43.5486 27.0652C43.704 26.7567 44.0413 26.5576 44.5604 26.4235L44.5729 26.4719ZM44.5729 26.4719C43.5432 26.738 43.2955 27.2476 43.657 28.2728C43.885 28.9193 44.1448 29.5548 44.4045 30.1898C44.4474 30.2947 44.4903 30.3996 44.533 30.5046C44.9186 31.4514 44.8735 32.2766 43.9494 32.9142C43.8887 32.9769 43.8444 33.0535 43.8203 33.1373C43.7962 33.2211 43.793 33.3095 43.8111 33.3949C45.5721 38.2581 47.3488 43.1155 49.1413 47.9672C49.2791 48.2794 49.5254 48.5312 49.8344 48.6758C52.5566 49.883 55.2584 51.1224 57.6841 52.8815C57.703 52.8951 57.7298 52.8979 57.7822 52.9033C57.8049 52.9056 57.8324 52.9085 57.8661 52.9129L57.8762 52.939L57.9229 52.9211L57.9306 52.8717C57.9207 52.8701 57.9113 52.8687 57.9022 52.8674L47.5003 25.8438C47.1985 25.9075 46.897 25.9679 46.5963 26.0281C45.9159 26.1643 45.2397 26.2997 44.5729 26.4719Z" stroke="#774653" stroke-width="0.1"/>
<path d="M42.2611 45.1539L42.2412 45.2018L42.1941 45.1801C42.0943 45.1343 41.9931 45.0904 41.8918 45.0464C41.6675 44.9492 41.4426 44.8517 41.2323 44.7323C41.1212 44.6693 41.0096 44.6066 40.8978 44.5438C40.3516 44.2368 39.8017 43.9277 39.2877 43.5688C37.6427 42.42 36.543 41.0995 35.9834 39.5798C35.4238 38.0601 35.4061 36.3464 35.9159 34.4147C36.4519 32.3838 37.5034 30.5995 38.6355 28.8652C38.7761 28.6498 38.9192 28.4357 39.0751 28.2024C39.1511 28.0886 39.2302 27.9702 39.3136 27.8449L39.3583 27.7776L39.3986 27.8477C39.4411 27.9216 39.4764 27.98 39.5065 28.0298C39.5175 28.048 39.5278 28.065 39.5375 28.0812C39.5735 28.1414 39.6015 28.1909 39.6237 28.2437L39.6237 28.2437C40.3968 30.0852 41.1688 31.9271 41.9395 33.7696C42.0281 33.9815 42.0967 34.1372 42.1586 34.2424C42.2224 34.3506 42.2701 34.3888 42.3099 34.3947C42.3496 34.4006 42.4057 34.3781 42.4968 34.2929C42.5854 34.2101 42.6943 34.0807 42.8382 33.9033L42.8382 33.9033C42.8565 33.8806 42.8835 33.8784 42.8954 33.878C42.9099 33.8775 42.9262 33.8795 42.9411 33.8817C42.9499 33.883 42.9589 33.8845 42.9683 33.886C42.9938 33.8901 43.0222 33.8946 43.0556 33.8975L43.1007 33.9014L43.1013 33.9467C43.1109 34.7593 43.1499 35.5737 43.1891 36.3899C43.1947 36.5075 43.2003 36.6251 43.2059 36.7428C43.2499 37.6768 43.2886 38.613 43.2776 39.5489C43.2556 41.4209 43.0351 43.294 42.2611 45.1539Z" stroke="#774653" stroke-width="0.1"/>
<path d="M51.9946 64.9875L51.9115 64.8739L52.0476 64.9097C52.873 65.1267 53.7115 65.2902 54.5579 65.3993C55.0074 65.4292 55.4277 65.4746 55.7463 65.6562C56.0703 65.8408 56.2822 66.1616 56.3271 66.7214C56.3581 66.8435 56.4111 66.959 56.4835 67.0621L56.4839 67.0619L56.487 67.068C57.3999 68.8441 58.3123 70.6204 59.2245 72.3969C59.3567 72.6544 59.4875 72.9126 59.64 73.2138C59.7169 73.3656 59.7994 73.5283 59.8903 73.7074L59.9166 73.7593L59.8614 73.7775L53.9831 75.7159L53.8752 75.7514L53.9218 75.6478C54.3121 74.7808 54.4096 74.135 54.2065 73.663C54.0045 73.1936 53.4961 72.8771 52.6221 72.6917C51.2932 72.4431 49.9509 72.2729 48.6021 72.1819L48.6009 72.1818C47.8533 72.1137 47.1294 72.0969 46.5216 72.3258C45.9182 72.553 45.4235 73.0246 45.1384 73.949L45.0951 74.0894L45.0437 73.9518C44.4406 72.3344 44.8632 70.3082 46.0932 69.2829L46.0932 69.2829L46.0943 69.282C46.8794 68.663 47.7229 68.1219 48.6129 67.6662C49.1007 67.4004 49.6038 67.1637 50.1078 66.9312C50.1793 66.8981 50.2509 66.8652 50.3225 66.8322C50.7554 66.633 51.1873 66.4342 51.6109 66.2193C51.8582 66.0939 52.0744 65.9512 52.1697 65.7609C52.2615 65.5779 52.2481 65.3346 51.9946 64.9875Z" stroke="#774653" stroke-width="0.1"/>
<path d="M53.8008 55.5651L53.8008 55.565L53.8037 55.5652C55.8204 55.7359 57.7798 56.323 59.5581 57.2895C60.0785 57.5541 60.5288 57.9383 60.8721 58.4105L60.8721 58.4105L60.8728 58.4115C61.2388 58.9408 61.4307 59.571 61.4218 60.2144L61.4219 60.2144L61.4216 60.2176C61.356 61.0587 61.098 61.8734 60.6675 62.5988C60.237 63.3243 59.6456 63.9411 58.9389 64.4017C58.543 64.6609 58.137 64.9058 57.7145 64.9748C57.2875 65.0445 56.8493 64.9341 56.392 64.499C56.0577 64.2544 55.6784 64.0782 55.2758 63.9806L55.2757 63.9809L55.2707 63.9791C54.8086 63.8136 54.3426 63.6625 53.8758 63.5111C53.5843 63.4166 53.2924 63.322 53.001 63.2237C51.6378 62.7639 50.7631 62.1907 50.3282 61.3745C49.8933 60.5584 49.9051 59.5122 50.2824 58.1237C50.2899 58.0961 50.2967 58.0683 50.3037 58.0398L50.3066 58.0281C50.3145 57.9958 50.3228 57.9627 50.3323 57.9298C50.5646 57.1232 50.9528 56.5175 51.5258 56.1205C52.0985 55.7239 52.8498 55.5398 53.8008 55.5651Z" stroke="#774653" stroke-width="0.1"/>
<path d="M66.9581 81.5518L66.9612 81.5935L66.9207 81.604L65.4249 81.9914L65.265 82.2015L65.2197 82.261L65.182 82.1964L60.3921 73.994L60.3687 73.9539L60.407 73.9276L64.3387 71.2205L64.3961 71.181L64.4151 71.2481C64.654 72.0889 64.9117 72.9243 65.1688 73.7574C65.9671 76.3453 66.7587 78.9113 66.9581 81.5518Z" stroke="#774653" stroke-width="0.1"/>
<path d="M47.8253 77.2291L47.8252 77.2291C47.3051 77.3362 46.8915 77.3969 46.5655 77.3926C46.2392 77.3882 45.9936 77.3185 45.8169 77.1577C45.6407 76.9974 45.5414 76.754 45.4902 76.4215C45.439 76.0895 45.4347 75.6613 45.4547 75.1228C45.4196 74.7708 45.4239 74.416 45.4675 74.0649L45.4672 74.0649L45.4684 74.0597C45.5895 73.545 45.8318 73.1371 46.1959 72.8645C46.56 72.5918 47.0406 72.4581 47.6314 72.482C49.1135 72.5422 50.5956 72.7011 52.0646 72.9048C52.1011 72.9099 52.1382 72.9149 52.1756 72.9199C52.5124 72.9654 52.879 73.0149 53.1903 73.1553C53.541 73.3133 53.8231 73.587 53.9256 74.0925C54.0016 74.4671 53.916 74.8319 53.6643 75.1531C53.4137 75.473 53 75.7474 52.422 75.9494C50.9197 76.4771 49.3841 76.9046 47.8253 77.2291Z" stroke="#774653" stroke-width="0.1"/>
<path d="M60.4285 73.5452L60.388 73.5748L60.3585 73.5342L60.2546 73.391C60.2496 73.3886 60.2439 73.3861 60.2375 73.3833C60.235 73.3823 60.2323 73.3812 60.2296 73.38C60.2213 73.3765 60.2121 73.3726 60.2035 73.3687C60.1827 73.359 60.1495 73.342 60.1325 73.3094C60.0592 73.1691 59.9859 73.0289 59.9127 72.8886C59.3192 71.7529 58.7255 70.6166 58.1524 69.47L58.1511 69.4706L58.1484 69.4589C58.1285 69.3723 58.131 69.2821 58.1556 69.1968C58.1803 69.1115 58.2263 69.0339 58.2894 68.9714L58.2884 68.9704L58.2985 68.9642C59.638 68.1442 61.0417 67.4478 62.6941 67.6186L62.6941 67.6183L62.6989 67.6193C62.8258 67.6451 62.9452 67.6989 63.0487 67.7767C63.1521 67.8544 63.237 67.9543 63.297 68.0689L63.2972 68.0688L63.2989 68.073C63.605 68.8108 63.8617 69.5707 64.0925 70.3349L64.0926 70.3348L64.0934 70.338C64.1182 70.4448 64.1175 70.5561 64.0914 70.6626C64.0652 70.7692 64.0142 70.8681 63.9427 70.9512L63.9435 70.9519L63.9351 70.9584C63.0401 71.6409 62.1302 72.3041 61.2208 72.9669C60.9566 73.1596 60.6923 73.3521 60.4285 73.5452Z" stroke="#774653" stroke-width="0.1"/>
<path d="M61.6165 61.3086L61.7112 61.3353C61.6057 62.44 61.7132 63.4526 62.0888 64.365C62.4643 65.2771 63.1091 66.0922 64.0831 66.8002L64.1674 66.8614L64.0669 66.8888C63.8753 66.9411 63.7038 66.9919 63.5454 67.0388C63.2286 67.1327 62.9642 67.2111 62.696 67.2543C62.4324 67.2967 62.1625 67.3181 61.8954 67.3392C61.8083 67.3461 61.7216 67.3529 61.6354 67.3605C61.2833 67.3914 60.9395 67.4341 60.6151 67.5366C59.9666 67.7414 59.3449 68.0253 58.6968 68.3212C58.4125 68.451 58.1232 68.5831 57.8243 68.7118L57.7818 68.7301L57.7603 68.6892C57.6419 68.4642 57.5213 68.2368 57.3998 68.0074C57.1063 67.4536 56.8067 66.8884 56.5164 66.3187C56.398 66.0866 56.3494 65.8876 56.4278 65.734C56.5066 65.58 56.7003 65.4963 56.9968 65.4582L56.9968 65.4582L56.9978 65.4581C57.7876 65.3735 58.5456 65.1012 59.2086 64.6638C59.8715 64.2264 60.4202 63.6366 60.8087 62.9438L60.8086 62.9438L60.8092 62.9428C61.0201 62.5861 61.1945 62.2098 61.3701 61.8308C61.4507 61.6567 61.5316 61.4821 61.6165 61.3086Z" stroke="#774653" stroke-width="0.1"/>
<path d="M71.1686 52.5949L71.1889 52.5304L71.2446 52.5686C71.2927 52.6016 71.3319 52.6252 71.3654 52.6452C71.3768 52.6521 71.3875 52.6586 71.3977 52.6648C71.4356 52.6882 71.4711 52.7121 71.4938 52.748L71.4938 52.748C72.3092 54.0431 72.7876 55.116 72.8643 56.1338C72.9412 57.1543 72.6139 58.1122 71.8343 59.1759C71.1697 60.0827 70.5163 60.9975 69.8628 61.9125C69.5247 62.3858 69.1867 62.8591 68.8469 63.3315L68.8063 63.3023L68.8469 63.3315C68.7838 63.4192 68.7145 63.5037 68.6325 63.6037C68.5903 63.6551 68.5447 63.7107 68.4948 63.7729L68.3935 63.8995L68.406 63.7378C68.4334 63.3831 68.4601 63.0339 68.4865 62.689C68.5726 61.5636 68.6552 60.4838 68.7474 59.4049L68.7471 59.4049L68.7483 59.3992C68.7842 59.2225 68.8463 59.0521 68.9325 58.8937C69.0404 58.6366 69.1527 58.3819 69.2648 58.1278C69.5009 57.5924 69.736 57.0593 69.927 56.5092C70.2358 55.6195 70.5126 54.7193 70.7961 53.7972C70.918 53.4008 71.0411 53.0003 71.1686 52.5949Z" stroke="#774653" stroke-width="0.1"/>
<path d="M35.1107 6.88002L35.0645 6.89979L35.0449 6.85347C34.9441 6.61416 34.8446 6.37905 34.7464 6.14683C34.5173 5.60488 34.2947 5.0786 34.0756 4.55099C34.0348 4.45261 33.9931 4.35418 33.9513 4.25553C33.8031 3.90538 33.6538 3.55258 33.5355 3.19042C33.3894 2.74314 33.2902 2.38399 33.2533 2.08882C33.2163 1.79312 33.2411 1.55649 33.3484 1.35777C33.4555 1.15922 33.641 1.00591 33.9099 0.868527C34.1784 0.731313 34.535 0.607593 34.9904 0.470765C35.2427 0.394945 35.4842 0.374668 35.6941 0.435071C35.906 0.496036 36.0805 0.637786 36.1985 0.87498C36.7433 1.96933 37.2649 3.07552 37.7829 4.17433C37.9805 4.59343 38.1776 5.01145 38.3752 5.42733L38.3976 5.47431L38.3497 5.49477L35.1107 6.88002Z" stroke="#774653" stroke-width="0.1"/>
<path d="M58.8683 53.8344L58.8273 53.7962L58.8698 53.7598C59.2299 53.4509 59.5136 53.0629 59.6989 52.6262C59.8843 52.1894 59.9661 51.7158 59.9381 51.2422L59.938 51.2404C59.9107 50.0869 59.4646 48.9828 58.683 48.1341L58.6829 48.1341L58.6814 48.1323C57.984 47.2977 57.2919 46.4577 56.6194 45.6024C56.3502 45.2602 56.1014 44.9009 55.8535 44.5429C55.7424 44.3825 55.6315 44.2224 55.5191 44.0642L55.4975 44.0339L55.5205 44.0045L55.6209 43.8759L55.6501 43.8386L55.6889 43.8657C57.1331 44.8725 58.6546 45.5916 60.5295 45.3267L60.5971 45.3172L60.5858 45.3845C60.557 45.5564 60.528 45.7178 60.5003 45.8723C60.4436 46.1882 60.392 46.4757 60.3572 46.7661C60.3367 46.9367 60.315 47.1073 60.2934 47.2776C60.0941 48.8471 59.8969 50.4005 60.6294 51.9056L60.6296 51.9055L60.6314 51.9104C60.6722 52.0223 60.6773 52.1442 60.6459 52.2592C60.4992 52.911 60.3472 53.5616 60.1923 54.2245C60.1453 54.4257 60.098 54.6281 60.0505 54.8319L60.0309 54.916L59.9678 54.8572L58.8683 53.8344Z" stroke="#774653" stroke-width="0.1"/>
<path d="M55.0662 44.4614L55.051 44.4223L55.0868 44.4005L55.1614 44.3552L55.199 44.3323L55.2265 44.3668C55.566 44.794 55.9078 45.2197 56.2496 45.6456C57.1539 46.772 58.0589 47.8993 58.9236 49.0561L58.9237 49.056L58.925 49.058C59.2519 49.542 59.4691 50.0914 59.5615 50.6681C59.6828 51.1758 59.663 51.7071 59.5042 52.2045C59.3452 52.7025 59.0529 53.1474 58.659 53.4911L58.6054 53.5379L58.5796 53.4716L55.0662 44.4614Z" stroke="#774653" stroke-width="0.1"/>
<path d="M67.0128 66.6043L66.9976 66.6316L66.9664 66.6299L66.6591 66.6134L66.6274 66.6117L66.6155 66.5822C66.4333 66.131 66.2941 65.6636 66.1997 65.1862L66.1995 65.1863L66.1991 65.1818C65.9933 63.2488 66.4861 61.4204 67.1427 59.6388L67.1426 59.6388L67.1435 59.6367C67.2586 59.3632 67.448 59.1274 67.6902 58.956C67.8718 58.8243 68.0668 58.8021 68.2137 58.8805C68.3618 58.9596 68.4444 59.1319 68.4182 59.3529C68.1767 61.3967 67.9233 63.4404 67.6135 65.4754C67.582 65.682 67.4798 65.8748 67.3634 66.059C67.3191 66.129 67.2733 66.1972 67.2279 66.2645C67.1516 66.3778 67.0768 66.489 67.0128 66.6043Z" stroke="#774653" stroke-width="0.1"/>
<path d="M45.3368 64.8187L45.3048 64.8367L45.2781 64.8116C45.2089 64.7468 45.1426 64.6731 45.0779 64.5988C45.061 64.5795 45.0443 64.5601 45.0277 64.5409C44.9799 64.4856 44.9327 64.431 44.8845 64.379C44.7538 64.2381 44.625 64.1274 44.4819 64.0896C43.8918 63.9338 43.5874 63.5686 43.3559 63.1624C43.2829 63.0344 43.2161 62.9001 43.15 62.7674C43.1125 62.692 43.0752 62.6172 43.0373 62.5443C42.9313 62.341 42.8176 62.1482 42.6701 61.9823L42.6418 61.9504L42.6688 61.9173L42.7744 61.7886L42.7969 61.7612L42.8302 61.7733L47.5347 63.488L47.6369 63.5253L47.5421 63.5786L45.3368 64.8187Z" stroke="#774653" stroke-width="0.1"/>
<path d="M64.6016 70.4435L64.5449 70.516L64.5149 70.429L63.6314 67.8676L63.6157 67.8222L63.6605 67.8047C64.6094 67.4349 65.52 67.3239 66.4915 67.9371L66.5383 67.9666L66.5042 68.0102L64.6016 70.4435Z" stroke="#774653" stroke-width="0.1"/>
<path d="M35.5222 7.54062L35.4899 7.53556L35.4816 7.5039L35.3901 7.15502L35.3789 7.11246L35.4197 7.09598C35.6771 6.99195 35.9346 6.88825 36.192 6.78456C36.8076 6.53662 37.4229 6.28876 38.0367 6.03667C38.2906 5.93237 38.5003 5.93345 38.6862 6.03619C38.8681 6.13666 39.0191 6.33024 39.1684 6.5906L39.213 6.66833L39.1234 6.66545C38.5017 6.64548 37.9577 6.88342 37.411 7.12257C37.3837 7.13451 37.3564 7.14644 37.3291 7.15835C36.7583 7.40727 36.18 7.64343 35.5222 7.54062Z" stroke="#774653" stroke-width="0.1"/>
<path d="M61.4453 44.3825L61.3416 44.4749L61.3627 44.3376C61.5538 43.091 62.2052 41.9613 63.1884 41.1715L63.2967 41.0845L63.2687 41.2205C63.0171 42.4433 62.3776 43.5522 61.4453 44.3825Z" stroke="#774653" stroke-width="0.1"/>
<path d="M45.9223 47.3077L46.0893 47.389L45.904 47.4025C45.3168 47.4453 44.7255 47.3134 44.2317 47.069C43.7385 46.8249 43.3384 46.4663 43.1389 46.052L43.0764 45.9223L43.2058 45.9853L45.9223 47.3077Z" stroke="#774653" stroke-width="0.1"/>
<path d="M66.5529 82.2807L66.6003 82.2646C66.7094 82.5849 66.7863 82.9173 66.8624 83.2468C66.8899 83.3656 66.9172 83.4841 66.946 83.6014L66.9564 83.6436L66.9161 83.6598L66.6513 83.7661L66.6109 83.7824L66.5893 83.7445C66.5294 83.6397 66.4677 83.5351 66.4058 83.4301C66.2352 83.1407 66.063 82.8487 65.9226 82.5433L65.9226 82.5433C65.9044 82.5037 65.9082 82.4603 65.9181 82.422C65.9281 82.3831 65.9465 82.3422 65.9667 82.3027C65.9817 82.2733 65.9987 82.2428 66.0152 82.2132C66.0208 82.203 66.0264 82.193 66.0319 82.1831C66.0536 82.1437 66.073 82.1068 66.0869 82.0732L66.1061 82.0267L66.1525 82.0462C66.186 82.0602 66.226 82.0728 66.2694 82.0855C66.2803 82.0887 66.2914 82.092 66.3027 82.0952C66.3354 82.1047 66.3691 82.1144 66.4005 82.1247C66.4427 82.1386 66.4847 82.1547 66.5191 82.1751C66.5527 82.1951 66.5862 82.2233 66.6003 82.2646L66.5529 82.2807ZM66.5529 82.2807C66.5298 82.2129 66.4097 82.1782 66.2895 82.1435C66.2365 82.1281 66.1834 82.1128 66.1386 82.0946L66.1331 82.0923C66.1324 82.0941 66.1316 82.0959 66.1308 82.0978C66.112 82.1422 66.0852 82.1902 66.0585 82.2382C65.9979 82.3469 65.9374 82.4556 65.9681 82.5224C66.1073 82.8253 66.2775 83.114 66.4477 83.4028C66.5099 83.5082 66.572 83.6136 66.6327 83.7197L66.8975 83.6134C66.8683 83.4945 66.8408 83.3752 66.8132 83.2559C66.7372 82.9272 66.6612 82.5985 66.5529 82.2807Z" stroke="#774653" stroke-width="0.1"/>
<path d="M42.1735 64.7262L42.0382 64.6991L42.1595 64.6332C42.4369 64.4826 42.674 64.3736 42.8799 64.3098C43.0859 64.2459 43.264 64.2262 43.4221 64.2577C43.742 64.3216 43.9563 64.5897 44.1552 65.0434L44.1937 65.1314L44.0995 65.1125L42.1735 64.7262Z" stroke="#774653" stroke-width="0.1"/>
</g>
<defs>
<clipPath id="clip0_445_6477">
<rect width="85" height="85" fill="white"/>
</clipPath>
</defs>
</svg>
