<svg width="85" height="85" viewBox="0 0 85 85" fill="none" xmlns="http://www.w3.org/2000/svg">
<g clip-path="url(#clip0_445_6353)">
<path d="M13.9299 24.0377C14.0758 23.8021 14.2075 23.558 14.3242 23.3067C14.8188 22.0836 15.1345 20.7957 15.2618 19.4826C15.3123 18.9438 15.2885 18.3984 15.3128 17.8566C15.3366 17.7043 15.3753 17.5546 15.4282 17.4097C15.3647 17.2691 15.272 17.0636 15.1793 16.8581L15.3036 16.7804C15.3966 16.9218 15.5614 17.0582 15.5718 17.2055C15.726 19.3833 15.4396 21.5033 14.4735 23.4708C13.8721 24.6958 13.1008 25.8364 12.4328 27.03C12.1506 27.4998 11.9255 28.0015 11.7623 28.5247C11.5374 29.3403 11.8526 30.0541 12.3955 30.6693C12.598 30.8987 12.8217 31.1092 13.0534 31.3465C12.9039 31.5112 12.7755 31.6939 12.6714 31.8904C12.4555 32.4413 12.29 33.0118 12.0867 33.568C12.0069 33.7436 11.9129 33.9123 11.8055 34.0725C11.6611 33.959 11.5302 33.8292 11.4153 33.6859C11.239 33.4092 11.1016 33.1077 10.9117 32.7477C10.8601 32.8662 10.8184 32.9888 10.787 33.1142C10.5332 34.851 10.627 36.6209 11.063 38.3211C11.1673 38.7268 11.4115 39.0949 11.5641 39.4908C11.5991 39.6149 11.5836 39.7477 11.521 39.8604C10.8364 41.0339 10.5847 42.3077 10.6079 43.6505C10.5986 43.7436 10.5782 43.8352 10.5472 43.9234C10.4642 43.8584 10.3481 43.8106 10.304 43.7254C10.0922 43.354 9.90896 42.967 9.75595 42.5678C9.37405 41.4332 8.91899 40.3078 8.69062 39.1401C8.17475 36.5025 8.50695 33.9091 9.36612 31.3728C9.4139 31.1733 9.39761 30.9637 9.31957 30.7739C9.04662 30.034 8.67295 29.3238 8.47221 28.5666C8.25501 27.7082 8.10944 26.8332 8.03698 25.9507C7.94445 24.9535 8.21372 23.9929 8.54702 23.059C8.72159 22.5699 8.93027 22.0929 9.13013 21.6131C9.15082 21.5635 9.21649 21.5325 9.26133 21.4928C9.25402 21.5647 9.2389 21.6355 9.21623 21.704C8.68893 22.8783 8.39147 24.1426 8.33995 25.4288C8.27871 26.7655 8.5521 28.0673 8.93985 29.3435C8.96367 29.4021 8.99301 29.4584 9.02746 29.5115C9.05437 29.3387 9.05644 29.1629 9.03362 28.9896C9.0219 28.8724 9.00179 28.7562 8.97341 28.6418C8.64023 27.438 8.69738 26.1594 9.13663 24.9901C9.60094 23.7887 10.1852 22.6326 10.7386 21.467C11.2668 20.3544 11.828 19.2572 12.0362 18.0248C12.1225 17.5136 11.8988 17.0822 11.4939 16.9956C11.4427 17.2004 11.3761 17.4011 11.2947 17.5959C10.828 18.5226 10.3495 19.4433 9.8705 20.3637C9.67045 20.7482 9.45904 21.1267 9.2528 21.5079C9.26248 21.4188 9.28286 21.3312 9.31351 21.247C9.78274 20.3192 10.2844 19.4065 10.7187 18.4628C10.9069 18.0135 11.0388 17.5427 11.1115 17.061C11.1824 16.6745 10.9739 16.3723 10.6645 16.1297C9.73502 15.4006 9.19978 14.0555 9.71881 12.7691C8.94951 12.9994 8.66378 12.414 8.34487 11.9475C8.07019 11.5533 7.8464 11.1259 7.67883 10.6756C7.1498 9.20246 7.48722 8.64698 8.6147 7.89381C9.30394 7.43339 9.96321 6.92655 10.6646 6.48617C11.9811 5.65959 13.3033 4.83951 14.6536 4.07031C15.307 3.69808 15.9403 3.32766 16.4285 2.74487C16.5281 2.6351 16.6373 2.53439 16.7548 2.44391C17.2072 2.06683 17.664 2.04955 18.1155 2.41784C18.7912 2.95909 19.6243 3.26659 20.4896 3.2942C21.8924 3.36675 23.2995 3.35406 24.7045 3.38741C25.0885 3.39345 25.4717 3.42256 25.8521 3.47458C26.7433 3.60397 27.6512 3.473 28.5392 3.73192C30.2453 4.22939 31.6935 5.086 32.5977 6.64927C32.9195 7.1712 33.0901 7.77219 33.0906 8.38534C33.0911 8.99849 32.9214 9.59974 32.6004 10.1222C32.539 10.2295 32.3855 10.2842 32.2566 10.3764C33.4115 12.6091 32.5078 14.4636 31.0507 16.2151C32.1705 16.2812 33.0091 16.8619 33.7789 17.5724C34.7856 18.5283 35.6157 19.6544 36.2312 20.8987C36.4454 21.3534 36.6121 21.8289 36.7287 22.3178C36.7516 22.4065 36.7538 22.4992 36.7349 22.5888C36.7161 22.6784 36.6768 22.7624 36.6201 22.8343C36.5249 22.9094 36.2466 22.8483 36.1092 22.757C35.5896 22.412 35.0576 22.1402 34.4156 22.1053C34.3081 22.0994 34.1627 21.9058 34.1176 21.7712C33.6507 20.3931 32.8973 19.1294 31.907 18.0634C31.4868 17.6046 31 17.2087 30.3344 17.182C30.162 17.2043 29.9944 17.2546 29.8383 17.3311C29.5136 17.4356 29.1892 17.5407 28.8748 17.6423C29.5615 18.3326 30.2921 19.0765 31.0334 19.8096C32.1019 20.8663 33.1103 21.9757 33.8583 23.2866C34.8466 25.0187 35.1558 26.8627 34.6432 28.815C34.6171 28.9145 34.5703 29.0086 34.5031 29.1831C34.2938 28.8933 34.1353 28.6501 33.9529 28.4264C33.5516 27.9338 33.1667 27.4299 33.0659 26.7832C33.0087 26.4157 33.0174 26.0385 32.9804 25.6673C32.8581 24.5233 32.4523 23.428 31.7998 22.4804C31.0534 21.3626 30.0454 20.5169 28.9986 19.6875C28.1991 19.0253 27.4577 18.2959 26.7827 17.5071C26.0631 16.7008 25.4233 15.823 24.7548 14.9716C24.5959 14.7439 24.4232 14.5263 24.2375 14.3199C24.3309 14.5231 24.4155 14.7309 24.5193 14.9287C25.0202 15.8836 25.5332 16.8322 26.0287 17.7898C26.6712 19.0316 27.301 20.2799 27.9366 21.5252C28.7229 23.0655 29.5038 24.6086 30.2981 26.1447C30.7933 27.1026 31.3119 28.0483 31.8144 29.0024C32.5253 30.3523 33.2071 31.7185 33.9559 33.0469C34.1425 33.378 34.5331 33.5974 34.8393 33.8571C36.4835 35.231 38.0478 36.6979 39.5246 38.2505C40.4461 39.2335 41.3763 40.2116 42.2418 41.243C43.2315 42.4225 44.174 43.6433 45.0989 44.8748C45.8397 45.8612 46.5648 46.8644 47.2229 47.9067C48.1552 49.3834 49.028 50.8979 49.9088 52.4065C50.2853 53.0512 50.6407 53.7106 50.965 54.383C51.5125 55.5181 52.0334 56.6662 52.5537 57.8142C52.792 58.3401 53.0026 58.8786 53.2257 59.4115C53.2704 59.5183 53.3147 59.6253 53.3504 59.7111C53.243 59.7725 53.1057 59.8074 53.0903 59.8716C53.0731 59.9428 53.1684 60.0402 53.2124 60.1273C53.27 60.2414 53.3253 60.3567 53.405 60.5191C53.7267 60.5688 53.6401 60.8911 53.6714 61.1659C53.3759 61.0287 53.0987 60.8717 52.98 60.5393C52.5621 59.3697 52.1798 58.1861 51.7227 57.0322C51.357 56.109 50.9284 55.2079 50.48 54.3211C49.9222 53.2178 49.3365 52.1287 48.7227 51.054C48.2576 50.2413 47.7516 49.4496 47.2232 48.6762C46.4255 47.5087 45.6077 46.3551 44.7697 45.2154C44.2259 44.4744 43.6351 43.768 43.0654 43.0462L43.0008 43.0923C43.131 43.2927 43.2509 43.5008 43.3931 43.6923C44.0768 44.6598 44.6701 45.6882 45.1654 46.7644C45.2746 46.9612 45.3507 47.1746 45.3905 47.3961C45.4079 47.5434 45.296 47.7061 45.211 47.9512C45.1247 47.8488 45.0462 47.7401 44.976 47.626C44.5714 46.8023 44.2151 45.9514 43.7599 45.157C43.3211 44.4041 42.8334 43.6807 42.2997 42.9917C40.6764 40.8654 38.7494 39.0143 36.8856 37.1072C35.6769 35.8705 34.4851 34.6139 33.2221 33.4342C31.6741 31.9883 30.0599 30.6133 28.4723 29.2098C28.4453 29.1859 28.3934 29.1901 28.3116 29.1721C28.3874 29.3657 28.4546 29.5274 28.5143 29.6917C29.2827 31.8053 30.0604 33.9156 30.8107 36.0356C31.0071 36.5947 31.3294 37.1012 31.7528 37.5158C33.0698 38.8415 34.3527 40.2022 35.6173 41.5783C37.2697 43.4032 39.0923 45.0665 41.0602 46.5458C42.3878 47.5299 43.6307 48.6287 44.9029 49.6865C45.1199 49.8879 45.3247 50.1019 45.5164 50.3275L45.6071 50.2828C45.5154 49.7246 45.4237 49.1664 45.3285 48.5867C45.4588 48.654 45.5836 48.7185 45.7083 48.7829L45.7507 48.7312C45.5388 48.5426 45.3268 48.3541 45.1149 48.1656L45.1943 48.0822C45.5405 48.2608 45.8375 48.4558 45.9556 48.894C46.3565 50.3816 45.8126 51.5826 44.834 52.6341C44.3686 53.1342 43.3642 53.232 42.8512 52.9179C42.9502 52.8575 43.0494 52.7972 43.1279 52.7495C42.9274 52.6568 42.7581 52.5785 42.5888 52.5003L42.6218 52.4041C42.6901 52.4051 42.7584 52.4064 42.8266 52.4069C43.1226 52.4356 43.4206 52.4346 43.7163 52.404C44.5431 52.2387 45.0479 51.651 45.449 50.9615C45.4621 50.9152 45.4641 50.8664 45.4548 50.8191C45.4455 50.7718 45.4252 50.7274 45.3955 50.6895C45.1932 50.4427 44.9716 50.2125 44.7328 50.001C43.3846 48.8722 42.0422 47.7356 40.6677 46.6396C39.3901 45.6208 38.069 44.6502 36.9473 43.457C35.2192 41.6187 33.5303 39.7436 31.8223 37.8865C31.6954 37.7485 31.5484 37.6291 31.3526 37.4469C31.7669 38.6291 32.1314 39.725 32.5371 40.8053C32.7379 41.4147 33.0048 42.0003 33.333 42.5515C34.0142 43.5903 34.7492 44.598 35.5199 45.5727C36.6735 47.0317 37.8393 48.4846 39.0726 49.8756C39.9007 50.8095 40.8575 51.6267 42.0244 52.1481C42.1052 52.1842 42.1446 52.3099 42.2072 52.3908C42.2661 52.4817 42.3363 52.5648 42.4161 52.6381C42.5564 52.7455 42.7139 52.8304 42.8641 52.9248C42.2461 52.8715 41.7527 52.5246 41.2581 52.2071C40.012 51.3738 38.8804 50.381 37.8919 49.2541C36.8139 48.0722 35.7698 46.8598 34.7597 45.6166C33.7737 44.4053 32.8508 43.1427 31.8978 41.9046C31.7466 41.7019 31.5726 41.5173 31.3793 41.3543C31.4302 41.5444 31.472 41.7375 31.5335 41.9241C32.0301 43.43 32.5196 44.9384 33.0323 46.4388C33.711 48.4252 34.382 50.4151 35.1072 52.3847C35.6688 53.91 36.2743 55.4189 36.9237 56.9113C37.4602 58.1434 38.0689 59.3455 38.6817 60.5424C39.1476 61.4046 39.538 62.3055 39.8487 63.2349C40.1723 64.2735 40.7616 65.2025 41.4466 66.0599C43.0343 68.0473 45.0875 69.3335 47.5022 70.0587C48.2223 70.275 48.9684 70.4049 49.6701 70.5668C49.8592 70.0615 49.9881 69.6 50.1978 69.1786C50.8366 67.8946 52.4922 67.0139 53.9155 67.366C54.2216 67.4417 54.3365 67.3367 54.2935 66.9736C54.199 66.1769 54.0913 65.3812 53.9621 64.5895C53.8707 64.0296 53.7466 63.4742 53.6155 62.922C53.5271 62.5497 53.9371 62.6434 53.9964 62.3689C54.0445 62.4298 54.0861 62.4954 54.1208 62.5647C54.5287 63.9755 54.9295 65.3917 54.9573 66.8718C54.9705 67.5796 54.8791 68.2995 54.3468 68.8383C54.0536 69.1146 53.7312 69.3584 53.3855 69.5653C52.8666 69.8997 52.3352 70.2164 51.7972 70.5194C50.6913 71.1424 49.5461 71.2394 48.3092 70.8971C45.7054 70.1765 43.4531 68.8533 41.4375 67.0874C41.4136 67.0679 41.386 67.0532 41.3564 67.0444C41.3249 67.0419 41.2932 67.0437 41.2621 67.0496C41.3995 67.7286 41.533 68.4041 41.673 69.0783C42.0216 70.7565 42.4164 72.4266 42.7079 74.1146C42.8983 75.217 42.9634 76.3434 43.0436 77.462C43.1293 78.8978 42.9838 80.3382 42.6127 81.7279C42.3997 82.5746 41.8571 83.0482 41.185 83.4548C40.1669 84.0566 39.0287 84.4267 37.8514 84.5388C36.8546 84.6762 35.8402 84.606 34.8719 84.3327C34.5199 84.2231 34.2202 83.9066 33.9289 83.6482C32.5365 82.4129 31.3995 80.9605 30.3604 79.4241C29.4428 78.0674 28.4977 76.7291 27.5905 75.3655C27.4601 75.1694 27.4743 74.877 27.4848 74.6128C27.6927 74.885 28.0576 75.0661 27.92 75.4974C27.9051 75.5442 27.996 75.6423 28.0576 75.6921C28.1715 75.7842 28.3454 75.83 28.416 75.9437C29.6118 77.8768 31.0259 79.6661 32.6306 81.2762C33.4025 82.0493 34.2359 82.7609 35.0314 83.511C35.1911 83.6617 35.2971 83.6399 35.4733 83.5383C36.6227 82.8687 37.8803 82.4052 39.1894 82.1689C39.7657 82.0662 40.3452 81.9808 40.9551 81.8824C40.9316 82.2571 41.1128 82.2483 41.2951 82.141C41.4432 82.0611 41.568 81.944 41.6571 81.8012C42.181 80.7904 42.4812 79.6786 42.5374 78.5415C42.659 76.7714 42.387 75.043 42.0422 73.3219C41.5034 70.6326 40.9988 67.9331 40.1573 65.3167C39.7416 63.9317 39.197 62.5887 38.5304 61.3055C38.3572 60.9872 38.2053 60.6573 38.0376 60.3359C37.9953 60.2791 37.9458 60.228 37.8904 60.184C37.9057 60.8639 37.9251 61.4983 37.9331 62.1328C37.9442 62.9404 37.7967 63.7424 37.499 64.4931C37.2776 65.0565 37.0719 65.6195 36.677 66.0945C35.9212 67.004 34.9205 67.5213 33.8101 67.807C32.4076 68.1678 30.9876 68.2592 29.5775 67.7934C28.367 67.3935 27.377 66.6623 26.5164 65.7455C25.747 64.9325 25.108 64.0053 24.6221 62.9969C24.1486 62.0049 23.7648 60.969 23.3648 59.9433C22.9215 58.8065 22.5095 57.6575 22.0749 56.5172C21.5985 55.2672 21.1103 54.0217 20.6302 52.7732C20.2382 51.7537 19.822 50.7424 19.4672 49.7101C18.7323 47.5715 18.0294 45.422 17.6382 43.1857C17.5464 42.6609 17.4316 42.1402 17.3274 41.6175L17.2415 41.6262C17.2778 41.995 17.2907 42.3679 17.3546 42.7319C17.6025 44.1453 17.8428 45.5608 18.1339 46.9655C18.3029 47.7813 18.5681 48.577 18.7817 49.3839C19.7333 52.9794 20.6426 56.5866 21.6478 60.167C22.1741 62.0418 22.8301 63.8832 23.4957 65.7149C24.0724 67.3023 24.7106 68.8699 25.3877 70.4174C25.8449 71.4622 26.4161 72.4573 26.9384 73.4736C27.0085 73.6283 27.0935 73.7759 27.1919 73.9143C27.3972 74.1736 27.4172 74.404 27.1033 74.6493C26.7444 74.0538 26.3676 73.4678 26.0309 72.8596C25.6384 72.1505 25.2593 71.4322 24.9136 70.6994C24.4899 69.8011 24.0889 68.8921 23.7108 67.9724C23.3555 67.1118 23.0033 66.2466 22.716 65.3619C22.1203 63.5278 21.5076 61.6958 21.0109 59.8339C19.7924 55.2671 18.6234 50.687 17.4657 46.1044C17.2662 45.2819 17.1408 44.4432 17.091 43.5983C16.9882 42.0764 16.9029 40.549 16.9141 39.0246C16.9288 37.0129 17.0517 35.0023 17.1119 32.9907C17.1464 31.8406 17.1779 30.6889 17.1568 29.539C17.1379 28.5049 17.0389 27.4725 16.9878 26.4388C16.9525 25.7245 16.9315 25.0093 16.9164 24.2943C16.8855 22.833 16.8596 21.3717 16.8385 19.9102C16.8268 19.0469 16.8423 18.1832 16.827 17.3201C16.8002 15.8055 16.7689 14.2909 16.7209 12.777C16.6855 11.6564 16.6307 10.5361 16.5648 9.41686C16.53 8.82385 16.4508 8.23428 16.328 7.65308C16.1888 8.0463 16.0237 8.43258 15.9153 8.83412C15.6559 9.795 15.3947 10.757 15.1875 11.7299C14.9781 12.7132 15.0659 13.7053 15.238 14.6898C15.3536 15.3514 15.4639 16.014 15.5828 16.7129C15.2499 16.6363 15.1759 16.4492 15.159 16.1889C15.116 15.5283 15.0542 14.8688 14.9959 14.2093C14.9862 14.1001 14.9562 13.9926 14.9355 13.8844L14.8323 13.8818C14.7491 14.3197 14.6538 14.7557 14.5858 15.196C14.5047 15.7211 14.4521 16.2505 14.3742 16.7761C14.3604 16.8693 14.2831 16.9531 14.2394 17.0334C14.2768 17.3225 14.3151 17.6197 14.3558 17.9351L13.8964 17.8593C13.9293 17.9495 13.9355 17.9997 13.9505 18.0024C14.3906 18.0835 14.4238 18.3902 14.4242 18.7641C14.4252 19.7004 14.4774 20.6367 14.4764 21.573C14.4532 22.3405 14.2867 23.0968 13.9857 23.8031C13.9628 23.8812 13.9469 23.9611 13.9384 24.042C13.6969 24.451 13.4531 24.8587 13.2151 25.2698C13.1496 25.383 13.1012 25.5062 13.045 25.6248C13.3329 25.1971 13.601 24.7637 13.8578 24.3237C13.8951 24.2322 13.9193 24.136 13.9299 24.0377ZM29.6459 47.1039C29.2156 46.0151 28.7901 44.8138 28.2696 43.6552C27.7282 42.3864 26.9136 41.2527 25.8838 40.3349C25.1945 39.7395 24.4161 39.3197 23.4825 39.2569C22.1839 39.1695 21.1175 39.7124 20.1518 40.5049C20.0931 40.5583 20.0459 40.6231 20.0129 40.6952C19.9799 40.7673 19.9618 40.8453 19.9597 40.9246C20.0005 41.7986 20.0589 42.6717 20.1349 43.5439C20.2322 44.6513 20.3034 45.7643 20.4741 46.8612C20.7372 48.5526 21.0581 50.2358 21.386 51.9163C21.7648 53.9607 22.3426 55.9631 23.1112 57.895C23.6226 59.1624 24.1995 60.4023 24.8395 61.6099C25.4657 62.7884 26.2832 63.8549 27.2585 64.7658C28.5087 65.9262 29.8886 66.8156 31.7057 66.6884C32.8475 66.6086 33.9084 66.3364 34.8367 65.6123C35.7516 64.8985 36.0931 63.434 35.414 62.4124C34.6666 61.288 34.022 60.0921 33.3781 58.9027C32.9506 58.1131 32.5677 57.3001 32.2311 56.4676C31.7503 55.2771 31.3051 54.0725 30.8955 52.8537C30.5959 51.9597 30.3459 51.0499 30.1465 50.1283C29.9394 49.1683 29.8214 48.189 29.6459 47.1039ZM22.851 22.4154C22.1353 20.0682 21.4769 17.8938 20.8081 15.7225C20.4738 14.6371 20.1366 13.5522 19.7718 12.4768C19.3005 11.0875 18.8214 9.69987 18.3028 8.32772C18.0431 7.70764 17.7514 7.10143 17.429 6.51152C17.4055 6.47311 17.3743 6.44005 17.3372 6.41449C17.3002 6.38893 17.2582 6.37143 17.2139 6.36314C17.1738 6.35756 17.08 6.47595 17.0725 6.54506C17.0403 6.78818 17.0296 7.03366 17.0404 7.27866C17.1409 8.74846 17.2625 10.2169 17.3565 11.687C17.4048 12.4433 17.4057 13.2026 17.4369 13.9601C17.4915 15.2819 17.5546 16.6034 17.611 17.9251C17.6423 18.6611 17.6579 19.3978 17.6972 20.1333C17.7718 21.5297 17.8566 22.9255 17.9404 24.3213C17.9915 25.1747 18.026 26.0299 18.1081 26.8804C18.2446 28.2952 18.3724 29.713 18.5823 31.1179C18.7321 32.1205 18.9991 33.1068 19.241 34.0937C19.3086 34.2965 19.4265 34.4789 19.5836 34.6238C19.6351 34.6651 19.6948 34.695 19.7587 34.7115C19.8226 34.7281 19.8894 34.7308 19.9544 34.7196C20.2119 34.6553 20.4654 34.5757 20.7135 34.4814C21.2117 34.3167 21.3132 34.1635 21.2098 33.648C21.0384 32.8847 21.0638 32.0904 21.2834 31.3395C21.7517 29.8213 22.6351 28.6817 24.2098 28.1959C24.4249 28.1296 24.4741 28.0477 24.4115 27.8326C23.8692 25.9702 23.3364 24.105 22.851 22.4154ZM36.3953 62.3337C36.4273 62.2226 36.4482 62.1086 36.4575 61.9934C36.4298 61.1952 36.4335 60.3933 36.3521 59.6002C36.1929 58.0477 35.5844 56.617 35.0368 55.1774C34.3983 53.4984 33.6726 51.8523 33.0403 50.171C32.5016 48.7385 32.0418 47.2762 31.5468 45.8273C31.4706 45.6042 31.4007 45.3992 31.5399 45.1544C31.6537 44.9543 31.4947 44.6154 31.3446 44.6518C31.1312 44.7036 31.1128 44.5731 31.0662 44.4422C30.8364 43.7969 30.6367 43.1387 30.3683 42.5098C29.9619 41.5578 29.5425 40.6079 29.0635 39.6911C28.5872 38.7505 27.9662 37.8905 27.2232 37.1424C25.9807 35.9225 24.6758 34.7955 22.7921 34.7298C21.9594 34.7008 21.1316 34.6233 20.3171 34.8985C20.0582 34.9683 19.8267 35.1152 19.6534 35.3198C19.48 35.5244 19.3731 35.7769 19.3468 36.0437C19.2851 36.5497 19.275 37.0606 19.3166 37.5686C19.383 38.3531 19.514 39.1321 19.6226 39.9511C19.7243 39.8994 19.7797 39.8776 19.8284 39.8455C20.6473 39.2909 21.5988 38.9637 22.5857 38.8971C23.6978 38.8259 24.7592 39.0076 25.6954 39.6229C27.255 40.648 28.2871 42.1026 29.0375 43.7961C29.7163 45.3282 30.0682 46.95 30.4615 48.5614C30.8398 50.1116 31.1714 51.6732 31.5329 53.2277C31.8412 54.4536 32.3009 55.6364 32.9016 56.7487C33.3174 57.5547 33.7143 58.3705 34.128 59.1777C34.5405 59.9828 34.9422 60.7947 35.3913 61.5792C35.492 61.7716 35.6344 61.9392 35.8081 62.0697C35.9818 62.2003 36.1824 62.2904 36.3953 62.3337ZM33.3194 49.277L33.3366 49.2634C33.2731 49.0267 33.224 48.785 33.1438 48.5541C32.8068 47.5842 32.4499 46.6212 32.1201 45.649C31.6073 44.1378 31.1067 42.6223 30.6081 41.1063C29.9888 39.2235 29.3817 37.3366 28.7601 35.4545C27.9504 33.0029 27.1356 30.5528 26.3159 28.1044C26.1568 27.6269 25.9747 27.1563 25.8338 26.6737C25.7853 26.4403 25.7569 26.2031 25.749 25.9649L25.8663 25.9411C25.9098 26.0185 25.9483 26.0987 25.9817 26.1811C26.1439 26.6622 26.3005 27.1452 26.4606 27.6271C26.9673 29.1517 27.4615 30.6808 27.9863 32.1992C28.35 33.2515 28.7441 34.2938 29.1468 35.332C29.5915 36.4787 30.0533 37.6191 30.5239 38.7555C30.8019 39.4269 31.0976 40.0907 31.4112 40.7472C31.5755 41.0926 31.7183 41.4692 32.1396 41.7128C32.1564 41.5843 32.1578 41.4542 32.1438 41.3254C31.9511 40.6004 31.7881 39.8639 31.539 39.1582C30.7083 36.8056 29.8503 34.4625 28.9926 32.1195C28.5584 30.9333 28.105 29.7541 27.6553 28.5737C27.3167 27.6849 26.9624 26.8021 26.6295 25.9113C26.3223 25.0892 26.0377 24.2587 25.7374 23.4339C25.0302 21.4919 24.3159 19.5525 23.6114 17.6096C22.9399 15.7573 22.291 13.8968 21.6047 12.0501C21.2621 11.1283 20.8782 10.2202 20.476 9.32251C20.1271 8.54366 19.7437 7.77875 19.3421 7.02556C19.075 6.52466 18.7489 6.05519 18.4492 5.57166L18.3728 5.61368C18.5606 6.02568 18.752 6.43612 18.9357 6.84995C19.5168 8.15915 20.1126 9.46223 20.6685 10.7821C21.063 11.7185 21.4141 12.6739 21.763 13.6288C22.2666 15.0066 22.765 16.3866 23.2391 17.7748C23.7168 19.1738 24.1651 20.5828 24.6204 21.9894C24.9868 23.121 25.3437 24.2556 25.7063 25.3884C25.758 25.5499 25.7714 25.6853 25.5089 25.7133C23.3033 19.1981 21.0029 12.7161 18.1567 6.44233C18.1793 6.62158 18.2195 6.79817 18.2768 6.96953C18.7825 8.41485 19.3073 9.85367 19.7974 11.3042C20.4112 13.1209 21.0096 14.9428 21.5925 16.7698C22.4453 19.456 23.325 22.1351 24.1019 24.8435C25.1007 28.3255 26.0168 31.8314 26.9475 35.3326C27.0827 35.7889 27.2978 36.2177 27.5827 36.599C28.1281 37.3616 28.6338 38.1519 29.0978 38.9666C29.6344 39.9489 30.1141 40.966 30.5588 41.9938C31.0851 43.2103 31.5593 44.4498 32.0338 45.6879C32.3664 46.5561 32.6615 47.4386 32.9738 48.3146C33.0883 48.6356 33.2041 48.9562 33.3194 49.277ZM20.1051 5.25627C20.1117 5.29119 20.1258 5.32427 20.1464 5.3533C21.504 6.66533 22.8305 8.01203 24.2314 9.27624C25.8698 10.7548 27.5766 12.1585 29.0854 13.7754C29.4771 14.1883 29.8369 14.6305 30.1616 15.098C30.333 15.3495 30.3796 15.686 30.4878 15.9994C31.1177 15.4302 31.6146 14.7294 31.9432 13.9466C32.3526 12.8925 32.4779 11.8453 31.7876 10.8258C31.3998 10.2677 30.9005 9.79592 30.3213 9.44028C28.9029 8.53264 27.3134 8.02677 25.7355 7.4909C24.4393 7.05071 23.1425 6.60946 21.8639 6.12155C21.2553 5.88931 20.6885 5.54739 20.1051 5.25627ZM32.4319 32.1058L32.5617 32.0284C32.5729 31.887 32.5638 31.7448 32.5348 31.606C32.3748 31.1411 32.1912 30.6847 31.9846 30.2385C31.364 28.9624 30.7299 27.6929 30.0823 26.4301C29.6325 25.5573 29.1437 24.7048 28.6753 23.8417C27.9687 22.5394 27.2637 21.2364 26.5604 19.9324C26.191 19.2467 25.8181 18.5626 25.4664 17.868C25.0469 17.0397 24.6535 16.1982 24.2391 15.3673C23.9486 14.7849 23.6451 14.2088 23.3415 13.6329C22.7097 12.4342 22.0754 11.2369 21.4385 10.0409C21.1912 9.57823 20.9266 9.12481 20.6698 8.66717C20.6539 8.78968 20.6701 8.91423 20.7169 9.02855C21.3411 10.5172 21.9871 11.997 22.59 13.4942C23.0618 14.6655 23.4879 15.8555 23.9222 17.0416C24.3714 18.2682 24.8042 19.5009 25.2477 20.7296C25.5422 21.5453 25.8422 22.3591 26.1411 23.1732C26.5691 24.3395 27.0526 25.4889 27.4113 26.676C27.715 27.7462 28.3488 28.6932 29.2225 29.3818C30.0591 30.0483 30.8542 30.7669 31.6683 31.4617C31.9216 31.6778 32.1773 31.8912 32.4319 32.1058ZM12.2532 17.6003C12.209 18.5268 11.9991 19.4379 11.6336 20.2904C11.236 21.3078 10.6189 22.2154 10.2131 23.229C9.98708 23.7934 9.7209 24.3319 9.84892 24.9682C9.90132 25.2286 9.90356 25.4986 9.94455 25.7618C10.0579 26.4897 10.1233 27.2324 10.5611 27.866C10.7052 28.0745 10.9068 28.1565 11.1076 28.0062C11.3248 27.8566 11.5083 27.6633 11.6464 27.4388C12.3535 26.138 13.0556 24.8335 13.7171 23.5092C14.1154 22.69 14.2498 21.7675 14.102 20.8687C14.0255 20.3324 13.9807 19.7917 13.9212 19.2488L14.1687 19.212C13.6572 18.9439 13.9157 18.3887 13.7006 18.0177C13.091 18.3645 12.7088 17.8906 12.2532 17.6003ZM17.4999 24.2659L17.4259 24.2728C17.4331 24.7171 17.4417 25.1613 17.4473 25.6056C17.4673 27.1729 17.4867 28.7403 17.5054 30.3076C17.5126 30.9255 17.5078 31.5437 17.5228 32.1614C17.5531 33.4083 17.5924 34.655 17.6298 35.9017C17.649 36.54 17.6613 37.1788 17.696 37.8163C17.7447 38.7116 17.8085 39.6062 17.8712 40.5007C17.9093 41.0443 17.8889 41.6035 18.0132 42.1277C18.5667 44.4629 19.1582 46.7893 19.7489 49.1156C19.8416 49.481 20.001 49.8295 20.1295 50.1858L20.275 50.1762C20.2812 49.8712 20.311 49.5645 20.289 49.2615C20.2288 48.4308 20.1499 47.6014 20.0726 46.772C20.0081 46.08 19.9445 45.3876 19.8642 44.6973C19.7419 43.6461 19.6025 42.5968 19.476 41.546C19.3865 40.8026 19.3124 40.0574 19.2207 39.3144C19.086 38.2215 18.938 37.1303 18.8028 36.0374C18.7109 35.2943 18.6345 34.5492 18.5454 33.8057C18.4194 32.755 18.2837 31.7054 18.1607 30.6544C18.0786 29.9533 18.0125 29.2503 17.9372 28.5484C17.8346 27.5921 17.7274 26.6363 17.6277 25.6797C17.5787 25.2091 17.5421 24.7372 17.4999 24.2659ZM19.0846 3.6782C23.7433 4.61245 28.0494 6.49789 32.287 8.53161C32.4112 8.399 32.4965 8.23469 32.5333 8.05675C32.5702 7.87882 32.5573 7.69416 32.496 7.52311C32.2836 6.75215 31.8168 6.14289 31.2614 5.61201C30.8604 5.22874 30.4179 4.8054 29.9138 4.62975C28.597 4.20147 27.2279 3.95441 25.8445 3.89537C23.8895 3.77169 21.9287 3.73972 19.9703 3.67283C19.6755 3.66276 19.3798 3.67584 19.0846 3.6782ZM15.7452 4.64014L15.6211 4.56508C15.272 4.95221 14.9429 5.35686 14.6349 5.77747C13.9782 6.76658 13.3588 7.78058 12.7287 8.78723C11.8882 10.13 11.0395 11.4679 10.2205 12.8237C9.94411 13.2814 9.66018 13.7669 9.94847 14.3471C10.4288 15.3137 11.0407 16.1754 11.9338 16.8009C12.1062 16.9217 12.3526 16.937 12.5649 17.0009C12.6119 16.7904 12.6406 16.5762 12.6506 16.3607C12.6351 15.8927 12.547 15.4253 12.5553 14.9588C12.5842 13.3458 12.9995 11.8108 13.5752 10.3167C14.197 8.70285 14.8393 7.09696 15.467 5.48537C15.5744 5.20938 15.6532 4.92216 15.7452 4.64014ZM18.6957 4.57335L18.6506 4.61306C19.3204 5.74678 19.9904 6.88039 20.6605 8.0139C21.2471 9.0021 21.8254 9.99565 22.4318 10.9716C22.9599 11.8215 23.5202 12.6515 24.0697 13.4879C25.038 14.9585 26.1339 16.3409 27.3447 17.6193C28.4701 18.8031 29.7141 19.8683 31.0571 20.798C31.5017 21.1081 31.9722 21.381 32.4308 21.6709C32.4409 21.6403 32.4433 21.6076 32.4377 21.5758C32.4321 21.5441 32.4187 21.5142 32.3988 21.4888C31.646 20.7124 30.8834 19.9454 30.1384 19.1616C28.9331 17.8934 27.6523 16.6963 26.7005 15.1992C26.0683 14.2048 25.3223 13.2833 24.6443 12.3172C24.144 11.6042 23.6782 10.8671 23.1843 10.1494C22.6417 9.36098 22.107 8.56538 21.5271 7.80473C20.9822 7.09 20.3932 6.40786 19.8037 5.72869C19.4543 5.32625 19.0663 4.95734 18.6957 4.57335ZM10.2402 43.1032C10.2752 43.0667 10.3067 43.0269 10.3344 42.9845C10.353 42.9462 10.3643 42.9047 10.3677 42.8622C10.3921 41.7771 10.728 40.7802 11.2059 39.8187C11.2387 39.753 11.2575 39.6813 11.2612 39.608C11.2649 39.5348 11.2534 39.4615 11.2274 39.3929C10.597 38.2881 10.4133 37.0774 10.3906 35.8383C10.3767 35.0838 10.428 34.3262 10.4849 33.5727C10.5984 32.0691 10.767 30.5728 11.2589 29.1339C11.2964 29.0243 11.3194 28.9099 11.351 28.7982C11.3809 28.6924 11.4134 28.5874 11.4448 28.482C8.29396 33.1253 8.16059 38.0012 10.2402 43.1032ZM14.6474 4.56266C14.4248 4.68743 14.24 4.78712 14.059 4.8932C13.3046 5.33515 12.5531 5.78197 11.7974 6.2215C10.6544 6.8862 9.53511 7.58444 8.57594 8.50664C8.04937 9.01292 7.68575 9.57199 8.06545 10.3365C8.10303 10.4122 8.10328 10.5067 8.14239 10.5812C8.37857 11.0808 8.6431 11.5665 8.9347 12.036C9.20245 12.4285 9.5133 12.357 9.65706 11.9229C10.2549 10.1742 11.1742 8.55266 12.3677 7.14173C13.0863 6.27041 13.8625 5.44667 14.6474 4.56266ZM22.7554 8.73479C22.832 8.8658 22.8779 8.96139 22.9389 9.04605C23.7589 10.1834 24.5909 11.3123 25.3996 12.4577C26.0804 13.422 26.7054 14.4269 27.4122 15.371C27.8269 15.8797 28.2811 16.3549 28.7705 16.7923C28.8543 16.8769 28.9627 16.9327 29.0802 16.9516C29.1978 16.9706 29.3183 16.9517 29.4244 16.8978C29.7084 16.7662 29.9909 15.9188 29.8272 15.6498C29.2258 14.6476 28.4818 13.7383 27.6186 12.9502C26.7151 12.1337 25.7893 11.3418 24.8689 10.5442C24.18 9.94714 23.484 9.35808 22.7554 8.73479ZM26.4353 35.5618C26.2502 35.1501 25.9704 34.7879 25.6187 34.5048C24.7432 33.7663 24.0626 32.824 23.6368 31.7608C23.2539 30.7845 23.11 29.8088 23.9681 28.9658C23.9736 28.9603 23.9571 28.9323 23.9177 28.8218C23.5209 29.0829 23.0826 29.2711 22.7795 29.5885C21.5817 30.8427 21.297 32.3292 21.7905 33.9803C21.7968 34.0197 21.811 34.0574 21.8324 34.091C21.8537 34.1247 21.8816 34.1537 21.9145 34.1762C21.9474 34.1987 21.9845 34.2143 22.0236 34.222C22.0627 34.2297 22.103 34.2294 22.1419 34.221C23.0262 34.154 23.9134 34.3044 24.7261 34.6593C25.302 34.906 25.8393 35.243 26.4353 35.5618ZM24.5091 62.3132C24.5919 62.5539 24.6908 62.7886 24.8054 63.0159C25.3004 63.9083 25.9105 64.7318 26.6201 65.4652C28.322 67.1499 30.2949 68.1452 32.7485 67.7881C33.4825 67.7016 34.1931 67.4752 34.8419 67.1211C35.982 66.4424 36.6667 65.3492 37.0466 64.0761C37.4472 62.6987 37.4954 61.2427 37.1869 59.8418C37.0523 59.1878 36.8337 58.5512 36.6533 57.9067L36.5543 57.9348C36.5763 58.0167 36.596 58.0992 36.6204 58.1803C37.0793 59.7065 37.2691 61.2511 36.9146 62.8272C36.5955 64.2456 35.87 65.4207 34.6418 66.2045C33.0987 67.1893 31.4037 67.3682 29.6592 66.8489C27.2492 66.1315 25.6672 64.4598 24.5091 62.3132ZM16.1756 5.02924L16.0697 5.0123C16.0252 5.11643 15.9766 5.21904 15.9368 5.32493C15.2834 7.06041 14.631 8.7963 13.9798 10.5326C13.4704 11.8997 13.0061 13.2788 12.9823 14.7613C12.9592 15.5766 13.0952 16.3885 13.3828 17.1517C13.4311 17.2284 13.4925 17.296 13.5642 17.3514C13.6123 17.2781 13.6918 17.2095 13.7036 17.1307C13.8212 16.3446 13.9833 15.5597 14.0248 14.7689C14.0922 13.4827 14.4018 12.2571 14.7661 11.0342C15.19 9.61129 15.6138 8.1873 15.9828 6.74969C16.1248 6.19617 16.1158 5.60387 16.1756 5.02924ZM30.44 16.7396C30.7493 17.1325 31.1245 17.2919 31.4783 17.4764C31.9609 17.7102 32.367 18.0764 32.6493 18.5324C32.99 19.0598 33.2963 19.6087 33.5663 20.1756C33.7729 20.6709 34.0815 21.1173 34.4719 21.4855C34.8624 21.8537 35.326 22.1356 35.8326 22.3129C35.9134 22.3438 36.0506 22.3653 36.0939 22.3226C36.1259 22.2845 36.149 22.2398 36.1616 22.1917C36.1742 22.1436 36.176 22.0933 36.1668 22.0444C36.1084 21.7617 36.0153 21.4874 35.8895 21.2276C35.4688 20.4273 35.006 19.6497 34.5032 18.8982C33.8498 17.9753 33.1553 17.064 31.8881 16.9089C31.434 16.8533 30.9984 16.645 30.44 16.7396ZM20.1702 4.51119L20.1405 4.5901C20.848 4.93548 21.5387 5.32219 22.2662 5.61852C24.4644 6.51394 26.6815 7.36318 28.8818 8.25363C29.791 8.62157 30.7347 8.92583 31.5233 9.55185C31.7026 9.66144 31.9024 9.73318 32.1104 9.76267C32.1709 9.77753 32.2544 9.69881 32.3273 9.66297C32.3057 9.59692 32.2738 9.53467 32.2329 9.47846C32.0057 9.2275 31.7587 8.99518 31.4943 8.78374C29.9038 7.65583 28.0934 6.9864 26.2691 6.36762C24.7038 5.83672 23.114 5.37787 21.5332 4.89325C21.0822 4.75498 20.6247 4.63796 20.1702 4.51119ZM31.7218 21.8674C31.7765 21.9536 31.8306 22.0403 31.8861 22.1259C31.9444 22.2157 32.0107 22.3008 32.0621 22.3942C32.7491 23.6709 33.1628 25.0766 33.2769 26.5219C33.3255 27.0965 33.572 27.6365 33.9743 28.0496C34.0851 28.1364 34.2086 28.2057 34.3405 28.2549C34.4056 28.1273 34.5177 28.0029 34.5267 27.8713C34.5493 27.5319 34.5471 27.1912 34.5201 26.852C34.4417 25.8428 34.2583 24.8524 33.7889 23.9456C33.3245 23.0608 32.6041 22.3366 31.7218 21.8674ZM54.3008 67.965C52.6317 67.1747 50.2803 68.7025 50.2524 70.4135C51.3206 70.1 53.7275 68.9222 54.3008 67.965ZM9.70945 30.508C10.0115 29.9184 10.3243 29.3964 10.543 28.8375C10.6309 28.6128 10.5541 28.2945 10.4771 28.0417C10.3696 27.6887 10.1369 27.3697 10.0553 27.0139C9.88259 26.2611 9.77305 25.4938 9.64438 24.7705C8.90329 26.6265 9.0606 28.5292 9.70945 30.508ZM11.4016 29.6421C11.348 29.8368 11.2916 29.9977 11.2604 30.1632C11.1176 30.7699 11.012 31.3847 10.9439 32.0043C10.9045 32.627 11.4162 33.0302 11.7062 33.6228C12.2298 32.8318 12.2209 31.9038 12.8165 31.3254C12.3479 30.7679 11.8878 30.2206 11.4016 29.6421ZM25.6261 32.3384C25.4435 31.5023 25.2827 30.7205 25.0982 29.9444C25.0295 29.6551 24.9261 29.3053 24.5756 29.2966C24.2315 29.2881 24.0835 29.6218 23.937 29.8962C23.9324 29.9059 23.9286 29.9159 23.9256 29.9261C23.687 30.631 23.8186 31.2935 24.1661 31.9261C24.1878 31.9577 24.217 31.9834 24.251 32.0011C24.285 32.0188 24.3228 32.0279 24.3612 32.0276C24.8183 31.9011 25.1953 32.0928 25.6261 32.3384ZM35.584 83.891C36.8122 84.1572 40.5916 83.1244 41.0162 82.4125C39.1308 82.5721 37.2902 83.0731 35.584 83.891ZM10.2391 11.892C11.4968 9.95978 12.7545 8.02752 14.0122 6.09527C12.255 7.70549 10.9557 9.61093 10.2391 11.892ZM16.6678 4.15072C16.6958 4.24292 16.7308 4.33286 16.7725 4.41975C17.0003 4.84658 17.4009 4.89918 17.6777 4.50043C17.8367 4.25524 17.9427 3.97942 17.9886 3.69077C18.0669 3.25017 17.6819 2.94754 17.2447 3.06434C16.7562 3.19485 16.5278 3.5898 16.6678 4.15072ZM24.5814 32.2572C24.4878 32.7205 25.5016 34.0478 26.1549 34.3351C26.3119 33.4101 25.5552 32.3949 24.5814 32.2572Z" fill="#774653"/>
<path d="M53.3399 61.3016C53.5369 61.4566 53.7195 61.6291 53.8853 61.817C53.9154 61.8553 53.9367 61.8997 53.9476 61.9471C53.9586 61.9946 53.9589 62.0438 53.9486 62.0914C53.9383 62.139 53.9177 62.1837 53.8881 62.2223C53.8585 62.261 53.8208 62.2927 53.7776 62.315C53.6437 62.4011 53.5057 62.4021 53.4506 62.2178C53.3692 61.9458 53.3015 61.6697 53.228 61.3954L53.3399 61.3016Z" fill="#774653"/>
</g>
<defs>
<clipPath id="clip0_445_6353">
<rect width="85" height="85" fill="white"/>
</clipPath>
</defs>
</svg>
