<svg width="85" height="85" viewBox="0 0 85 85" fill="none" xmlns="http://www.w3.org/2000/svg">
<g clip-path="url(#clip0_445_6387)">
<path d="M1.40346 83.8865C1.51769 83.7696 1.63807 83.6585 1.7641 83.5537C2.01646 83.3469 2.26189 83.1339 2.51081 82.9232C2.76958 82.7045 3.04049 82.4989 3.29111 82.2723C3.53889 82.0491 3.78606 81.8259 4.02975 81.5994C4.2775 81.3694 4.51254 81.1282 4.75854 80.8965C5.02425 80.6474 5.30094 80.41 5.57243 80.1665C6.09284 79.6987 6.62828 79.2473 7.14579 78.7766C7.68123 78.2907 8.17732 77.767 8.6815 77.2505C8.92232 77.0036 9.18397 76.7748 9.44041 76.5437C9.69337 76.316 9.94112 76.0849 10.1877 75.851C10.6948 75.3708 11.2065 74.8973 11.7391 74.4436C11.9955 74.2244 12.256 74.0074 12.4968 73.7713C12.7637 73.5102 13.0265 73.2458 13.291 72.9825C13.5289 72.7452 13.7813 72.5226 14.0343 72.3005C14.3029 72.0649 14.5657 71.8242 14.8169 71.5711C15.0588 71.3265 15.295 71.0767 15.5393 70.8349C15.7998 70.5773 16.0638 70.3242 16.3295 70.0722C16.5928 69.8213 16.8446 69.5608 17.0907 69.2936C17.3349 69.0286 17.5821 68.7682 17.8385 68.5139C18.0747 68.2805 18.3167 68.0523 18.55 67.8161C18.807 67.5556 19.0594 67.2907 19.31 67.0234C19.6556 66.655 20.0035 66.2895 20.3641 65.9341C20.7346 65.5685 21.1068 65.2035 21.4645 64.825C22.1672 64.0801 22.8686 63.3313 23.5156 62.5396C23.7248 62.2686 23.9311 61.9947 24.1511 61.7321C24.3624 61.4813 24.5904 61.2428 24.8243 61.0118C25.0882 60.7507 25.3539 60.4937 25.6312 60.2462C25.9039 60.0027 26.1887 59.7727 26.4729 59.5422C27.0309 59.0908 27.5988 58.6517 28.1915 58.2438C28.4986 58.0407 28.8183 57.8565 29.149 57.6924C29.465 57.5285 29.7921 57.3844 30.118 57.2404C30.3461 57.1394 30.5769 57.0448 30.8073 56.9499L30.7816 56.9605C31.0888 56.8339 31.3972 56.7058 31.7122 56.5991C32.0612 56.4804 32.4132 56.3753 32.768 56.2736C33.0939 56.181 33.4279 56.1058 33.7602 56.038C33.9431 56.0013 34.1249 55.9646 34.309 55.9341C34.5121 55.8996 34.7153 55.873 34.9197 55.8459C35.2161 55.8057 35.5149 55.7847 35.8141 55.7831C35.8529 55.7831 35.8917 55.7835 35.9304 55.7844C36.115 55.7889 36.2974 55.7962 36.482 55.8087C36.6933 55.8233 36.9017 55.8522 37.1112 55.8798C37.4483 55.9313 37.7822 56.0007 38.1115 56.0878C38.4519 56.1702 38.7917 56.2567 39.1326 56.3375C39.4132 56.4046 39.6983 56.4488 39.9829 56.4942C41.3826 56.6635 42.7994 56.716 44.1809 57.0104C44.8865 57.1601 45.5794 57.3522 46.2781 57.5268C46.97 57.687 47.653 57.8818 48.3244 58.1105C48.5256 58.1829 48.7275 58.2564 48.9266 58.3363C48.9651 58.3198 49.0066 58.3107 49.0486 58.3097C49.1916 58.3069 49.334 58.308 49.477 58.3041C49.6171 58.3001 49.7572 58.295 49.8978 58.2933C50.1855 58.2894 50.4732 58.2888 50.7609 58.2815C51.3236 58.2673 51.886 58.2523 52.4483 58.2363C53.0584 58.2182 53.6685 58.2238 54.2787 58.2261C54.8506 58.2278 55.4225 58.2278 55.9944 58.2216C56.5721 58.2153 57.1493 58.1973 57.727 58.1826C58.3365 58.1673 58.9457 58.1506 59.5544 58.1323C59.8011 58.1244 60.0471 58.1165 60.2937 58.1125C60.3143 58.1122 60.3349 58.1121 60.3556 58.1121C60.4587 58.1121 60.5615 58.1153 60.6647 58.1176C60.6894 58.1183 60.714 58.12 60.7387 58.1211C60.8433 58.0151 60.9621 57.9235 61.092 57.8488C61.3614 57.702 61.642 57.5756 61.9313 57.4708C62.2138 57.365 62.5017 57.2738 62.7939 57.1973C62.9484 57.1561 63.1047 57.1199 63.2604 57.0832C63.3229 57.0685 63.3872 57.0589 63.4497 57.0476C63.5325 57.0324 63.6147 57.0154 63.6986 57.0053C63.8202 56.9906 63.9429 56.9708 64.065 56.9612C64.1688 56.9535 64.2726 56.9456 64.3764 56.9376L64.376 56.9293C64.3785 56.8089 64.3911 56.6889 64.4136 56.5705C64.4393 56.4126 64.479 56.2572 64.5323 56.1061C64.7793 55.4547 65.0791 54.8237 65.429 54.2189C65.55 53.9902 65.6706 53.761 65.7907 53.5314C65.7453 53.5089 65.6995 53.4871 65.6544 53.4641C65.5357 53.4036 65.4165 53.3398 65.3042 53.2686C65.1554 53.1731 65.0159 53.0691 64.8769 52.9595C64.7659 52.8668 64.6611 52.7671 64.5632 52.6612C64.4712 52.5669 64.382 52.4699 64.2958 52.3702C64.1059 52.151 63.9199 51.9286 63.7378 51.7029C63.5471 51.4744 63.3806 51.2276 63.2411 50.9662C63.1768 50.8464 63.1241 50.7209 63.0836 50.5916C63.0593 50.5119 63.0437 50.4294 63.0275 50.3475C62.9903 50.1825 62.9755 50.0134 62.9835 49.8447C62.9899 49.7543 63.0032 49.6633 63.0159 49.574C63.0967 49.0156 63.24 48.4675 63.4431 47.9395C63.5427 47.6669 63.6668 47.4035 63.8142 47.1524C63.8881 47.0283 63.9689 46.9081 64.0561 46.7925C64.1328 46.6915 64.2147 46.5944 64.3015 46.5015C64.3621 46.4386 64.4303 46.3832 64.5047 46.3365C64.5491 46.3114 64.5963 46.2914 64.6454 46.2767C64.6837 46.2681 64.7226 46.262 64.7618 46.2586C64.7685 46.2583 64.7753 46.2581 64.7821 46.2581C64.8121 46.258 64.842 46.2614 64.8712 46.2682C64.9842 46.2889 65.092 46.3311 65.1884 46.3925C65.2544 46.4298 65.318 46.471 65.3811 46.5123C65.4911 46.584 65.5971 46.6614 65.7036 46.7366C65.9525 46.9134 66.2055 47.088 66.4428 47.279C66.6666 47.4589 66.8807 47.6501 67.0842 47.8519C67.2943 48.0592 67.4969 48.2728 67.7035 48.483C67.9032 48.6858 68.1053 48.887 68.2963 49.0983C68.4948 49.3181 68.6818 49.5475 68.8659 49.7797C68.9631 49.9023 69.0569 50.0266 69.1466 50.1554C69.23 50.2752 69.3058 50.3995 69.3811 50.5244C69.4032 50.5609 69.423 50.5988 69.4436 50.6362C69.3473 50.2455 69.2834 49.8479 69.2525 49.4472C69.2432 49.3201 69.2415 49.1919 69.2392 49.0648C69.2363 48.9359 69.2334 48.8065 69.2369 48.6777C69.2432 48.3946 69.2583 48.1127 69.2791 47.8296C69.3014 47.5488 69.3403 47.2694 69.3955 46.9929C69.4198 46.868 69.4459 46.7431 69.4759 46.6194C69.5078 46.4889 69.5356 46.3567 69.5755 46.2284C69.616 46.0973 69.6595 45.9696 69.7069 45.8408C69.737 45.76 69.7775 45.6815 69.8134 45.603C69.8801 45.4598 69.9626 45.3241 70.0594 45.1984C70.2629 44.8976 70.5631 44.6715 70.9127 44.5555C71.0014 44.5314 71.0931 44.5197 71.1851 44.5207C71.2701 44.5215 71.3548 44.528 71.4389 44.5402C71.6068 44.5643 71.7693 44.6158 71.9198 44.6924L71.9213 44.6864C71.9339 44.6431 71.9607 44.605 71.9975 44.5779C72.0344 44.5508 72.0793 44.5362 72.1255 44.5363C72.1437 44.5363 72.1619 44.5387 72.1795 44.5434C72.2329 44.5583 72.2782 44.593 72.3057 44.6401C72.3332 44.6872 72.3406 44.743 72.3265 44.7954C72.3126 44.849 72.3009 44.9029 72.2889 44.9567C72.3161 44.9801 72.3438 45.0028 72.3709 45.0267C72.4676 45.113 72.5596 45.2043 72.6464 45.3001C72.8364 45.5057 73.0069 45.7277 73.1558 45.9634C73.2912 46.1793 73.4163 46.403 73.5373 46.6262C73.6687 46.868 73.7983 47.1104 73.9193 47.3573C74.0831 47.6918 74.2389 48.0308 74.405 48.3647C74.4546 48.4643 74.5064 48.5627 74.5575 48.6615C74.5896 48.4623 74.6252 48.2636 74.6567 48.0642C74.6735 47.9546 74.688 47.845 74.7036 47.7354C74.7002 47.7585 74.6972 47.7811 74.6938 47.8043C74.7378 47.441 74.7702 47.0771 74.7951 46.7121C74.8194 46.3556 74.8344 45.9963 74.8877 45.6426C74.9475 45.1972 75.0616 44.7604 75.2275 44.3414C75.3062 44.15 75.4143 43.9715 75.5482 43.812C75.6239 43.7276 75.7093 43.6522 75.8029 43.5871C75.9026 43.5132 76.0081 43.4471 76.1184 43.3894C76.2318 43.3295 76.3516 43.2809 76.4697 43.2306C76.6697 43.1403 76.8794 43.0722 77.0949 43.0278C77.1954 43.0091 77.2974 42.9998 77.3997 43C77.5401 43.0008 77.6801 43.0159 77.8173 43.0453C77.9271 43.0717 78.0341 43.1082 78.1369 43.1543C78.2362 43.2012 78.3264 43.2645 78.4037 43.3413C78.5368 43.4636 78.6556 43.5998 78.758 43.7476C78.8633 43.9116 78.9465 44.0882 79.0057 44.273C79.1236 44.6084 79.2148 44.9522 79.2784 45.3013C79.3114 45.4725 79.3357 45.646 79.364 45.8177C79.3947 46.0014 79.4248 46.185 79.452 46.3692C79.4827 46.575 79.5024 46.7823 79.5111 46.9901C79.518 47.1591 79.5157 47.3291 79.5163 47.4981C79.5186 47.9461 79.535 48.3934 79.5655 48.8399C79.5932 49.251 79.6255 49.6615 79.6748 50.0706C79.7282 50.3699 79.8089 50.661 79.8868 50.9553C79.9466 51.1818 80.0011 51.4098 80.0566 51.6375C80.3983 51.3433 80.7622 51.0747 81.1452 50.8337C81.3083 50.7184 81.4788 50.6134 81.6557 50.5196C81.8494 50.4236 82.0482 50.338 82.2514 50.2631C82.4432 50.1905 82.6392 50.129 82.8384 50.0789C83.0382 50.032 83.243 50.0088 83.4485 50.01L83.4564 50.0099C83.7018 50.0187 83.9369 50.1084 84.1234 50.2642C84.3379 50.4392 84.5116 50.6568 84.6329 50.9026C84.75 51.1281 84.8347 51.3682 84.8847 51.6163C84.9206 51.7807 84.9379 51.9485 84.9599 52.1151C84.9715 52.2038 84.9796 52.2931 84.9889 52.3818C85.0093 52.6439 84.9956 52.9074 84.9483 53.1661C84.8731 53.5978 84.7324 54.0161 84.531 54.4074C84.3573 54.7611 84.1483 55.0972 83.94 55.4317C83.7287 55.7713 83.4971 56.0995 83.2714 56.4301C82.8285 57.0776 82.4459 57.7629 81.9689 58.3878C81.9173 58.4554 81.866 58.5227 81.814 58.5895C81.515 58.9683 81.2191 59.3492 80.9177 59.7258C80.6293 60.0856 80.3291 60.4359 80.0394 60.7942C79.8117 61.0918 79.5859 61.3904 79.3553 61.6858C79.0943 62.0214 78.8477 62.3683 78.575 62.6948C78.3261 62.992 78.0876 63.2994 77.8289 63.5887C77.6842 63.7503 77.5383 63.909 77.3878 64.0656C77.2512 64.2079 77.1013 64.3401 76.9554 64.4741C76.6619 64.7435 76.3615 65.0057 76.0668 65.2741C75.7786 65.5363 75.5001 65.8086 75.2055 66.0645C74.5797 66.6162 73.8977 67.1039 73.1702 67.52C72.8845 67.6872 72.5826 67.8265 72.2689 67.9358C71.9924 68.0304 71.7109 68.1101 71.4255 68.1748C71.1067 68.2441 70.7818 68.2829 70.4553 68.2907C70.3257 68.2935 70.1954 68.2901 70.0657 68.2844C69.9668 68.2817 69.8682 68.2724 69.7705 68.2567C69.7483 68.253 69.7265 68.2479 69.7046 68.2431C69.6433 68.4819 69.5468 68.7107 69.4182 68.9224C69.33 69.0635 69.2187 69.1897 69.0888 69.2959C68.9628 69.3979 68.8269 69.4878 68.6831 69.5642C68.4818 69.6672 68.266 69.7406 68.0428 69.7823C67.8652 69.8221 67.6855 69.8526 67.5045 69.8739C67.1739 69.9072 66.8417 69.9224 66.5094 69.9196C66.1644 69.9219 65.8188 69.9213 65.4738 69.9281C65.302 69.9314 65.1302 69.9354 64.9585 69.9403C64.9332 70.0306 64.8862 70.1138 64.8215 70.1829C64.6446 70.3653 64.4469 70.5274 64.2322 70.6659C64.045 70.7871 63.8505 70.8973 63.6498 70.9959C63.2464 71.2123 62.8487 71.4377 62.4255 71.6163C62.2959 71.6711 62.1651 71.7236 62.0337 71.775C61.8152 71.8604 61.587 71.9202 61.3541 71.953C61.0965 71.9909 60.8401 72.0197 60.5807 72.0383C60.3556 72.0497 60.1301 72.0484 59.9052 72.0344C59.6586 72.0242 59.412 72.011 59.1654 71.9948C58.8485 71.9744 58.5325 71.9429 58.2176 71.903L58.2485 71.9072C58.2167 71.9031 58.1849 71.8989 58.1532 71.8947L58.1408 71.8931L58.146 71.8938C58.0854 71.8858 58.0248 71.8779 57.9643 71.8699L57.9695 71.8705L57.9594 71.8692C57.9268 71.865 57.8943 71.8607 57.8618 71.8564L57.8896 71.8602C57.1416 71.7639 56.392 71.6788 55.6407 71.6106C55.2511 71.5756 54.8604 71.5541 54.4702 71.5264C54.0459 71.4965 53.6245 71.4417 53.2031 71.3863C53.2401 71.3908 53.2772 71.3959 53.3142 71.4004C52.7596 71.3283 52.2077 71.2371 51.6538 71.1586C50.7767 71.049 49.8964 70.9481 49.0127 70.9072C48.0923 70.8637 47.1713 70.8413 46.2498 70.84C45.8341 70.84 45.4185 70.8417 45.0023 70.8473C44.6087 70.853 44.2157 70.8744 43.8226 70.8965C43.4544 70.9174 43.0857 70.9366 42.7176 70.9597C42.3273 70.9845 41.9381 71.0178 41.55 71.0598C40.6578 71.1845 39.7684 71.3363 38.889 71.5298C38.6754 71.5767 38.4606 71.6248 38.2505 71.6863C38.0074 71.7575 37.7671 71.8327 37.5263 71.9101C37.0846 72.053 36.6499 72.2191 36.2117 72.3728C35.6954 72.5547 35.1738 72.7225 34.6569 72.9034C34.1436 73.0827 33.6315 73.2654 33.1242 73.4613C32.9246 73.5453 32.7238 73.6292 32.5313 73.7288C32.3096 73.843 32.0844 73.956 31.8725 74.0887C31.4432 74.3585 31.0245 74.6425 30.6125 74.9368C30.4407 75.0688 30.271 75.2016 30.1041 75.3396C29.9455 75.4713 29.7898 75.6075 29.637 75.7453C29.2758 76.073 28.9151 76.4018 28.5522 76.7279C27.8813 77.3307 27.2017 77.9228 26.5887 78.5833C26.0335 79.1805 25.49 79.7885 24.9384 80.3891C24.6686 80.684 24.3977 80.9773 24.1297 81.2739C23.8814 81.5496 23.6468 81.8356 23.4154 82.1255C23.1828 82.4221 22.9516 82.7198 22.7219 83.0186C22.4167 83.3849 22.1537 83.7827 21.9376 84.205C21.8586 84.4045 21.7973 84.6102 21.7546 84.8199C21.7367 84.8827 21.694 84.9361 21.6358 84.9683C21.5777 85.0005 21.5088 85.0089 21.4443 84.9916C21.3804 84.9733 21.3263 84.9315 21.2935 84.875C21.2606 84.8185 21.2516 84.7517 21.2683 84.6888C21.3431 84.2794 21.4881 83.8854 21.6973 83.5232C21.8177 83.3265 21.9398 83.1322 22.0689 82.9407C22.3259 82.5587 22.587 82.1794 22.8521 81.8027C23.1213 81.4219 23.4101 81.0575 23.7164 80.7049C24.0075 80.3704 24.3074 80.0433 24.6055 79.715C25.2353 79.0212 25.8558 78.3178 26.5123 77.6477C26.8138 77.3392 27.138 77.0477 27.4628 76.7629C27.8159 76.4527 28.1701 76.1431 28.5215 75.8312C28.859 75.5312 29.1918 75.2238 29.538 74.934C29.9108 74.6221 30.2922 74.3232 30.6934 74.0464C30.8746 73.9209 31.0552 73.7938 31.2416 73.6763C31.4482 73.5452 31.6566 73.4209 31.8691 73.2994C32.2831 73.0728 32.7131 72.8751 33.1559 72.7079C33.5837 72.5367 34.0224 72.3881 34.4572 72.2333C34.8699 72.0864 35.285 71.9468 35.6994 71.8044C36.1469 71.6502 36.5903 71.4846 37.0366 71.3275C37.4835 71.1699 37.9327 71.0247 38.3905 70.9004C38.5984 70.8445 38.8091 70.7987 39.0192 70.7524C39.2357 70.7049 39.4516 70.6558 39.6693 70.614C40.1266 70.5258 40.585 70.4365 41.0458 70.3676C41.5349 70.2947 42.0241 70.2337 42.5178 70.1964C42.9885 70.1608 43.4591 70.1297 43.9303 70.0958C44.8559 70.0292 45.7832 70.0145 46.7111 70.0066C47.6402 69.9987 48.5693 70.0264 49.4961 70.084C49.8538 70.1066 50.2104 70.1467 50.5664 70.1846C50.9513 70.2258 51.3351 70.2744 51.7189 70.3264C52.4 70.418 53.0749 70.5446 53.7541 70.6481C54.1753 70.6997 54.5961 70.7408 55.0196 70.7739C55.4711 70.8083 55.9226 70.8439 56.3724 70.8948C56.8164 70.9445 57.2609 70.9902 57.7044 71.0467C58.1674 71.1055 58.6294 71.1614 59.0959 71.1953C59.4311 71.2191 59.7686 71.2298 60.1049 71.2377C60.4032 71.2429 60.7014 71.2271 60.9974 71.1903C61.0596 71.1803 61.1215 71.1702 61.1839 71.1597C61.36 71.1293 61.5322 71.0804 61.6976 71.014C62.0109 70.8804 62.3138 70.7246 62.6038 70.5478C62.9133 70.3594 63.2236 70.1715 63.5236 69.9682C63.4684 69.9684 63.4133 69.9695 63.3581 69.9693C62.635 69.9707 61.9125 69.9307 61.1943 69.8495C60.8603 69.8106 60.5275 69.7597 60.1952 69.7083C59.8565 69.6558 59.515 69.6106 59.1804 69.5383C58.842 69.4674 58.5114 69.3644 58.1935 69.2309C57.8786 69.0968 57.5687 68.952 57.2551 68.8158C56.774 68.623 56.2824 68.4562 55.7825 68.3161C55.2783 68.1783 54.7647 68.0752 54.2457 68.0075C54.056 67.9851 53.8663 67.9593 53.676 67.9393C53.4798 67.9154 53.2821 67.9049 53.0844 67.9076C52.9752 67.9126 52.8663 67.9233 52.7582 67.9397C52.4777 67.9874 52.2004 68.0428 51.9232 68.1065C51.6465 68.1704 51.3739 68.2472 51.1006 68.3218C50.5152 68.4751 49.9211 68.5946 49.3212 68.6794C49.0248 68.7246 48.7267 68.7619 48.4275 68.7823C48.1311 68.8021 47.8347 68.7998 47.5377 68.797C46.9184 68.7913 46.2978 68.7535 45.6796 68.7111C45.6192 68.7102 45.5616 68.6864 45.5189 68.6447C45.4762 68.6031 45.4518 68.5468 45.4509 68.4879C45.451 68.4287 45.4751 68.3719 45.518 68.33C45.5608 68.2881 45.6189 68.2644 45.6796 68.2642C46.1849 68.2986 46.6903 68.3246 47.1968 68.324C47.2489 68.324 47.3004 68.324 47.3525 68.3246C47.5429 68.3246 47.734 68.3252 47.9227 68.3139C48.1524 68.3009 48.3795 68.2823 48.608 68.2591C49.3029 68.1624 49.9903 68.0197 50.6653 67.8319C51.3134 67.6148 51.9778 67.4472 52.6526 67.3308C52.9324 67.2831 53.2171 67.2677 53.5006 67.285C53.6841 67.3025 53.8665 67.3234 54.0494 67.3443C54.4297 67.3873 54.8059 67.4404 55.1805 67.5155C55.8443 67.6594 56.4944 67.8583 57.1237 68.1099C57.5855 68.2872 58.026 68.5082 58.476 68.7116C58.6817 68.7928 58.8879 68.8681 59.1005 68.9309C59.3133 68.9908 59.5291 69.0398 59.7471 69.0778C60.2151 69.1657 60.6854 69.2422 61.1581 69.3073C61.6996 69.3719 62.2413 69.4075 62.7868 69.4236C62.9861 69.4296 63.1855 69.4295 63.3847 69.4273C63.214 69.2948 63.0925 69.1113 63.0391 68.9048C63.0054 68.697 63 68.4858 63.0229 68.2765C63.0339 68.1183 63.0536 67.9613 63.0721 67.8037C63.0912 67.6404 63.1057 67.4771 63.1196 67.3132C63.1497 66.9623 63.1798 66.6092 63.2447 66.2623C63.2853 65.9824 63.3794 65.7123 63.5219 65.4662C63.6574 65.2706 63.8383 65.109 64.0498 64.9944C64.14 64.945 64.2341 64.9027 64.3312 64.8679C64.4035 64.8413 64.4759 64.817 64.55 64.7944C64.6993 64.7548 64.8527 64.7311 65.0073 64.7238C65.1861 64.7097 65.3656 64.6978 65.5451 64.686C65.7118 64.6746 65.8791 64.6645 66.0464 64.6639H66.0616C66.2382 64.6639 66.4138 64.6734 66.5899 64.6871C66.9451 64.7201 67.2979 64.7745 67.6463 64.8498C67.8512 64.8906 68.0558 64.9331 68.2604 64.9752C67.942 64.6226 67.5871 64.303 67.2014 64.0215C66.8533 63.7613 66.4905 63.5204 66.1146 63.3C66.0122 63.2424 65.9103 63.1853 65.8078 63.1277C65.7065 63.0707 65.5983 63.0238 65.4941 62.9718C65.3249 62.8878 65.1485 62.8158 64.9732 62.7435C64.5336 62.5683 64.0814 62.4247 63.6203 62.3141C63.3812 62.2604 63.1428 62.2101 62.9008 62.1695C62.6727 62.1309 62.4431 62.1005 62.2138 62.0703C61.5421 61.9898 60.8686 61.9404 60.1929 61.8977C59.8398 61.8757 59.4861 61.8531 59.1324 61.8367C58.7735 61.8197 58.4146 61.8141 58.0557 61.8022C57.3564 61.7796 56.6601 61.7412 55.9648 61.6683C55.2544 61.6142 54.5506 61.4961 53.8624 61.3157C53.5411 61.222 53.2205 61.1242 52.905 61.0135C52.6009 60.907 52.3028 60.7857 52.0051 60.663L52.0251 60.6711C51.731 60.5502 51.4375 60.4287 51.1475 60.2987C50.8494 60.1648 50.5611 60.0185 50.2775 59.8569C50.0159 59.7083 49.7617 59.5478 49.5018 59.3964C49.3635 59.3156 49.2222 59.241 49.0798 59.1659C48.9569 59.1016 48.8281 59.0472 48.7022 58.9891C48.2733 58.816 47.841 58.656 47.3982 58.5184C46.9369 58.3743 46.4668 58.2642 46.0009 58.137C45.5042 58.0014 45.0087 57.8653 44.508 57.7438C44.0245 57.6262 43.5382 57.5312 43.0468 57.4506C42.5344 57.3848 42.0211 57.3281 41.5071 57.2805C40.9468 57.2279 40.3812 57.2014 39.8244 57.1166C39.6866 57.0957 39.5487 57.0748 39.4105 57.0539C39.2623 57.0313 39.1153 56.9952 38.9682 56.9658C38.7031 56.9121 38.4397 56.8404 38.1775 56.7748C37.9182 56.7098 37.6583 56.6499 37.3972 56.5918C37.1549 56.5379 36.9107 56.5013 36.665 56.4671C36.3316 56.4363 35.9967 56.423 35.6618 56.4273C35.3304 56.4368 35.004 56.4701 34.6756 56.5093C34.3493 56.5614 34.0241 56.618 33.7011 56.69C33.3515 56.7675 33.0048 56.8528 32.6598 56.95C32.3489 57.037 32.0392 57.1319 31.7371 57.2443C31.4229 57.3615 31.1129 57.4865 30.8035 57.6135C30.3571 57.8038 29.9169 58.0041 29.4818 58.2178C29.0323 58.4472 28.6022 58.7114 28.1958 59.0078C27.5368 59.5095 26.9021 60.0406 26.2772 60.5824C25.956 60.8604 25.6573 61.1637 25.3603 61.4655C25.2324 61.5954 25.1045 61.7259 24.9829 61.861C24.8472 62.0126 24.7164 62.1662 24.5874 62.3226C24.3826 62.5924 24.1791 62.8635 23.967 63.1288C23.736 63.4175 23.4952 63.6967 23.2498 63.9735C23.0107 64.243 22.7682 64.5091 22.5262 64.7758C22.297 65.029 22.0706 65.286 21.8333 65.5329C21.3268 66.0612 20.8041 66.5742 20.3057 67.1099C20.0672 67.3658 19.8345 67.6263 19.6 67.8856C19.3494 68.1636 19.0895 68.4337 18.8272 68.7015C18.5957 68.9376 18.3601 69.1699 18.1367 69.4134C17.8918 69.6795 17.6597 69.9564 17.4108 70.2191C17.1705 70.4722 16.9216 70.7168 16.6721 70.9615C16.4059 71.2237 16.144 71.49 15.8866 71.7604C15.6406 72.018 15.3998 72.2791 15.1486 72.5316C14.9043 72.7774 14.6461 73.0102 14.3949 73.2492C13.8942 73.7266 13.4455 74.2532 12.9599 74.7448C12.711 74.9968 12.4441 75.2329 12.1854 75.4753C11.9359 75.7086 11.6887 75.9443 11.4392 76.1776C11.1735 76.4268 10.909 76.6776 10.6392 76.9223C10.3845 77.1528 10.1229 77.376 9.86701 77.6048C9.35532 78.0625 8.92115 78.5953 8.43781 79.0806C8.18889 79.3303 7.93824 79.5806 7.67892 79.8208C7.41959 80.0614 7.15446 80.2953 6.89398 80.5338C6.60455 80.7988 6.31976 81.0688 6.02106 81.3237C5.72815 81.574 5.4445 81.8333 5.16085 82.0932C4.88184 82.3491 4.59125 82.5932 4.30415 82.8407C4.0262 83.0811 3.73192 83.3013 3.43642 83.5208C3.09014 83.7883 2.74455 84.0558 2.39057 84.3132C2.28787 84.3921 2.18555 84.4714 2.08363 84.551C1.93965 84.6638 1.7893 84.7687 1.63328 84.8651C1.55325 84.9107 1.45999 84.9291 1.3681 84.9175C1.27621 84.9059 1.19084 84.8649 1.12532 84.801C1.05981 84.737 1.01782 84.6537 1.00594 84.564C0.994049 84.4743 1.01292 84.3833 1.05962 84.3052C1.16379 84.1578 1.27869 84.0178 1.40346 83.8865ZM67.7632 49.4006C67.5704 49.1864 67.3609 48.9853 67.1582 48.7796C66.9695 48.587 66.7826 48.3932 66.5892 48.2045C66.3929 48.0123 66.18 47.8336 65.9645 47.661C65.9382 47.6415 65.9113 47.6227 65.8848 47.6032C65.8974 47.6542 65.9086 47.7056 65.9225 47.7562C65.9561 47.8788 65.9908 48.0002 66.029 48.1217C66.0594 48.2173 66.097 48.3105 66.1353 48.403C66.1662 48.4696 66.1979 48.5356 66.2334 48.6003C66.2793 48.6777 66.3296 48.7525 66.3842 48.8244C66.4304 48.8823 66.4775 48.9397 66.5292 48.9929C66.5948 49.0604 66.6646 49.1238 66.7383 49.1828C66.8087 49.2334 66.8796 49.2832 66.9546 49.3269C67.0293 49.3697 67.1064 49.4085 67.1854 49.443C67.4008 49.5212 67.6237 49.578 67.8508 49.6126C67.8862 49.6166 67.9217 49.6191 67.9571 49.6224C67.8929 49.5482 67.829 49.4738 67.7632 49.4006ZM69.7209 51.5379C69.7481 51.7671 69.7619 51.9977 69.7626 52.2284C69.7637 52.5171 69.7641 52.806 69.7637 53.0951C69.7637 53.6579 69.7406 54.2212 69.7012 54.7828C69.6804 55.0743 69.6369 55.3648 69.608 55.6557C69.5819 55.9196 69.5733 56.1851 69.542 56.449C69.4972 56.8228 69.4363 57.194 69.3821 57.5671C69.3279 57.9935 69.2768 58.4198 69.2469 58.8483C69.2776 58.8003 69.3068 58.7513 69.3338 58.7003C69.3802 58.6139 69.4207 58.5248 69.4601 58.435C69.5733 58.1141 69.6581 57.7844 69.7135 57.4494C69.7778 57.1217 69.8345 56.7928 69.9034 56.4668C69.9786 56.1137 70.0562 55.7611 70.15 55.4125C70.2559 55.0476 70.3974 54.6934 70.5726 54.3548C70.6802 54.1368 70.8076 53.926 70.9257 53.7136C70.9988 53.5823 71.0697 53.4499 71.1399 53.3172C71.0809 53.2804 71.0207 53.2451 70.963 53.2062C70.6999 53.0324 70.4683 52.817 70.2777 52.5689C70.1954 52.4652 70.1196 52.3567 70.0508 52.244C69.9835 52.1306 69.9223 52.0138 69.8673 51.8943C69.8131 51.7772 69.7655 51.6581 69.7209 51.5379ZM74.3257 48.7789C74.1925 48.5432 74.0669 48.3037 73.9419 48.0635C73.6941 47.5878 73.4383 47.116 73.1604 46.6567C73.0054 46.4004 72.8453 46.1485 72.6651 45.9077C72.6174 45.8503 72.5701 45.7928 72.5196 45.738C72.4507 45.664 72.3813 45.5917 72.3101 45.5199C72.2756 45.4852 72.238 45.4534 72.2014 45.4206L72.2003 45.4294C72.1933 45.4791 72.1862 45.5288 72.1792 45.5787C72.1678 45.6852 72.1544 45.7918 72.1488 45.8983C72.1418 46.0271 72.1407 46.1543 72.1413 46.2831C72.1459 46.4941 72.1637 46.7046 72.1943 46.9136C72.222 47.073 72.259 47.2307 72.3051 47.386C72.3511 47.5327 72.4044 47.6752 72.4628 47.8177C72.522 47.9379 72.5822 48.0564 72.653 48.1708C72.7236 48.2841 72.7981 48.393 72.8785 48.4998C73.0463 48.6985 73.2348 48.8796 73.4409 49.0404C73.5136 49.0909 73.5866 49.1422 73.6631 49.1872C73.7592 49.2437 73.856 49.2987 73.9537 49.3522C74.1162 49.4412 74.2814 49.5232 74.4517 49.5968C74.4631 49.4522 74.475 49.3078 74.4894 49.1631C74.4919 49.1387 74.4955 49.1145 74.4983 49.0901C74.4414 48.986 74.3838 48.8823 74.3257 48.7789ZM78.6283 47.8382C78.6225 47.6325 78.6225 47.4263 78.6191 47.2201C78.6167 47.1037 78.6138 46.9879 78.6086 46.8715C78.6042 46.768 78.5925 46.6655 78.5825 46.5626C78.5328 46.2106 78.4815 45.8589 78.4361 45.5065C78.4057 45.3058 78.3702 45.1061 78.3319 44.907C78.3111 44.7985 78.285 44.6911 78.259 44.5838C78.2401 44.5062 78.2206 44.4288 78.1989 44.3519C78.2019 44.3926 78.2063 44.4332 78.2083 44.4739C78.2274 44.8355 78.195 45.1954 78.1829 45.5559C78.1713 45.9152 78.1657 46.2744 78.1661 46.6334C78.1667 46.8181 78.1678 47.0029 78.1742 47.1871C78.1807 47.3635 78.1842 47.5415 78.2053 47.7168C78.2323 47.8524 78.2744 47.9847 78.331 48.1113C78.3551 48.159 78.3787 48.2072 78.4052 48.2532C78.4331 48.3018 78.4626 48.347 78.4941 48.3928C78.5257 48.4308 78.5576 48.4681 78.591 48.5047C78.6143 48.5299 78.6412 48.5517 78.6669 48.5745C78.6494 48.3295 78.635 48.0842 78.6283 47.8382ZM83.1791 55.1281C83.3925 54.8187 83.6001 54.5064 83.7987 54.1876C83.9114 54.0065 84.0117 53.8183 84.099 53.6242C84.2155 53.3427 84.2989 53.0493 84.3477 52.7495C84.3772 52.4329 84.37 52.114 84.3262 51.7989C84.3019 51.6353 84.2625 51.4741 84.2087 51.3172C84.15 51.3741 84.0905 51.4303 84.032 51.4874C83.9359 51.5812 83.8462 51.6812 83.7542 51.779C83.5898 51.9548 83.4343 52.1384 83.2843 52.3259C83.182 52.4612 83.0793 52.5965 82.9877 52.7395C82.8841 52.8938 82.7902 53.0542 82.7066 53.2197C82.6673 53.3243 82.6383 53.4322 82.6201 53.5421C82.6137 53.61 82.6132 53.6782 82.6185 53.7461C82.6415 53.8878 82.6722 54.0282 82.7105 54.1667C82.7437 54.2771 82.7836 54.3855 82.8301 54.4913C82.8847 54.6129 82.9418 54.7333 83.0074 54.8503C83.0603 54.9456 83.1231 55.0348 83.1791 55.1281ZM67.1957 65.4037C66.8146 65.3554 66.4306 65.3331 66.0464 65.3368C65.8461 65.3397 65.6469 65.3549 65.4472 65.3685C65.2687 65.381 65.0902 65.3941 64.9121 65.413C64.7649 65.4397 64.621 65.4812 64.4825 65.5368C64.3974 65.5754 64.3154 65.6203 64.2372 65.6711C64.1828 65.7147 64.1319 65.7623 64.0849 65.8135C64.0603 65.8522 64.0377 65.8922 64.0174 65.9333C63.9372 66.1546 63.8822 66.3839 63.8535 66.6169C63.8121 66.9749 63.7908 67.3333 63.7593 67.6918C63.7431 67.8737 63.7228 68.0556 63.706 68.2376C63.68 68.4282 63.6707 68.6206 63.6781 68.8127L63.6787 68.8148C63.6953 68.8449 63.7126 68.8732 63.7322 68.9015C63.7737 68.9493 63.8192 68.9938 63.8681 69.0344C63.9295 69.0771 63.9948 69.1141 64.0632 69.1448C64.0769 69.1501 64.0907 69.1554 64.1043 69.1608C64.1762 69.1824 64.2379 69.2285 64.2779 69.2907C64.2844 69.3023 64.2901 69.3144 64.2948 69.3268C64.3418 69.313 64.3906 69.3056 64.4397 69.3049C64.5422 69.3051 64.6426 69.3329 64.7298 69.3853C65.1602 69.3664 65.5905 69.3443 66.0214 69.3326C66.5257 69.319 67.0299 69.3169 67.5315 69.2625C67.7758 69.226 68.0158 69.1662 68.2481 69.0839C68.3177 69.0466 68.3852 69.0055 68.4501 68.9608C68.5266 68.8995 68.5988 68.8332 68.6661 68.7623C68.7174 68.687 68.7625 68.6079 68.801 68.5257C68.866 68.3531 68.913 68.1745 68.9413 67.9927C68.9936 67.5371 68.9983 67.0775 68.9553 66.6211C68.8899 66.2935 68.7919 65.973 68.6629 65.664C68.1783 65.5557 67.6883 65.4723 67.1957 65.4037ZM67.7742 63.4373C68.071 63.6422 68.3542 63.8651 68.6223 64.1046C68.8903 64.3464 69.1187 64.6269 69.2995 64.9363C69.4098 65.1409 69.5059 65.3525 69.5872 65.5697C69.7629 65.9934 69.8536 66.446 69.8547 66.9031C69.8538 67.0818 69.8449 67.2605 69.8291 67.4387C69.9171 67.4237 70.009 67.4192 70.097 67.4109C70.2301 67.3985 70.3629 67.3846 70.4954 67.3693C71.0703 67.2901 71.6352 67.1527 72.1809 66.9593C72.822 66.6568 73.4304 66.2922 73.9969 65.8711C74.2868 65.6476 74.568 65.415 74.8385 65.169C75.1453 64.8893 75.4526 64.6108 75.7641 64.3356C76.0616 64.0723 76.3615 63.8119 76.6468 63.5361C76.927 63.2636 77.1908 62.9755 77.437 62.6734C77.5941 62.4811 77.7511 62.2884 77.9082 62.0954C78.1402 61.7968 78.3605 61.4901 78.593 61.1919C78.7076 61.0445 78.8234 60.8976 78.9374 60.7495C79.0734 60.5738 79.2031 60.3941 79.3426 60.2207C79.5944 59.9082 79.8607 59.6077 80.116 59.298C80.3817 58.9766 80.6445 58.6528 80.909 58.3302C80.9863 58.2367 81.0634 58.1429 81.1403 58.0487C81.363 57.7634 81.5762 57.4733 81.7756 57.1719C81.9874 56.8522 82.19 56.5267 82.4106 56.2131C82.5766 55.978 82.7448 55.744 82.9118 55.5092C82.9093 55.5068 82.9062 55.505 82.9038 55.5023C82.7996 55.3881 82.7042 55.2665 82.6184 55.1385C82.5461 55.03 82.4824 54.917 82.4181 54.804C82.2767 54.5589 82.1678 54.2973 82.094 54.0254C82.0571 53.8931 82.033 53.7576 82.0222 53.6209C82.0178 53.469 82.0348 53.3173 82.0725 53.17C82.1076 53.0376 82.1592 52.9099 82.2259 52.7897C82.2584 52.7265 82.2931 52.6643 82.3302 52.6033C82.4862 52.3527 82.6601 52.1131 82.8505 51.8863C83.1753 51.4969 83.5243 51.1275 83.8955 50.7799C83.8562 50.7384 83.8143 50.6993 83.7701 50.6628C83.7231 50.6307 83.6739 50.6017 83.6229 50.576C83.5899 50.5648 83.5563 50.5556 83.5222 50.5483C83.4317 50.5453 83.341 50.5489 83.251 50.5592C83.108 50.5824 82.9668 50.6154 82.8285 50.658C82.675 50.7069 82.5257 50.7628 82.376 50.8219C82.2444 50.8782 82.1133 50.9351 81.9874 51.0027C81.85 51.0762 81.7166 51.1569 81.588 51.2445C81.3216 51.4251 81.0558 51.6058 80.7946 51.7936C80.5644 51.9706 80.3548 52.1716 80.1695 52.3932C79.9982 52.6203 79.8546 52.8646 79.6899 53.0966C79.5707 53.2638 79.4497 53.4282 79.3247 53.5915C79.1041 53.8804 78.869 54.1588 78.6385 54.4408C78.3792 54.7788 78.1334 55.1264 77.8706 55.4617C77.7403 55.6278 77.6066 55.7905 77.4613 55.9436C77.398 56.0104 77.3327 56.0752 77.2675 56.1403C77.4172 56.1744 77.5619 56.227 77.698 56.2967C77.7769 56.3418 77.8383 56.411 77.8727 56.4937C77.9072 56.5763 77.9127 56.6678 77.8885 56.7538C77.8579 56.8566 77.7874 56.9436 77.6921 56.9965C77.5967 57.0494 77.484 57.0638 77.3779 57.0369C77.2757 57.0134 77.1722 56.9967 77.0686 56.9809C76.892 56.9595 76.7137 56.9546 76.5362 56.9661C76.4972 56.9739 76.4593 56.9831 76.4214 56.9945C76.4162 56.9974 76.411 57.0004 76.4058 57.0034C76.3639 57.0438 76.325 57.0853 76.2866 57.129C76.176 57.2762 76.0756 57.4298 75.9748 57.5838C75.848 57.777 75.7166 57.9668 75.5765 58.1516C75.2755 58.5488 74.993 58.9596 74.674 59.3432C74.3702 59.6857 74.0481 60.0123 73.7091 60.3218C73.3832 60.6393 73.0775 60.9778 72.7522 61.297C72.6007 61.4457 72.4421 61.5879 72.2822 61.7286C72.3392 61.7884 72.3946 61.849 72.4496 61.9083C72.6109 62.0709 72.7534 62.2504 72.8745 62.4434C72.9034 62.4916 72.9169 62.5471 72.9133 62.6028C72.9098 62.6586 72.8892 62.712 72.8543 62.7563C72.8195 62.8006 72.7719 62.8337 72.7176 62.8514C72.6633 62.8692 72.6049 62.8707 72.5497 62.8558C72.4779 62.8351 72.4166 62.789 72.3778 62.7264C72.3088 62.6266 72.2347 62.5302 72.1604 62.4341C72.0138 62.2488 71.8536 62.0743 71.681 61.9117C71.6507 61.8956 71.6227 61.8754 71.598 61.8518C71.5848 61.8383 71.5728 61.8238 71.562 61.8084C71.5589 61.8059 71.5561 61.8031 71.5531 61.8006C71.5115 61.772 71.4679 61.7465 71.4224 61.7242C71.4053 61.7193 71.3883 61.7151 71.371 61.7114C71.3488 61.7102 71.3267 61.7101 71.3045 61.7112C71.1265 61.7566 70.953 61.8171 70.7858 61.8921C70.6638 61.943 70.5422 61.9951 70.4201 62.0467C70.2794 62.1066 70.1359 62.158 69.9912 62.2072C69.8464 62.2558 69.6965 62.2914 69.5489 62.3298C69.4245 62.362 69.2982 62.392 69.1721 62.4185C68.8699 62.4818 68.5662 62.5366 68.2609 62.5829C68.1162 62.6044 67.9715 62.6247 67.8256 62.64C67.7232 62.6501 67.6207 62.6609 67.5182 62.6716C67.4708 62.6767 67.4228 62.6835 67.3747 62.6857C67.1279 62.6965 66.8811 62.7082 66.6334 62.713C67.0259 62.9356 67.4066 63.1774 67.7742 63.4373ZM65.9566 62.3582C66.0796 62.4162 66.2001 62.479 66.3206 62.542C66.3129 62.5194 66.3088 62.4959 66.3084 62.4722C66.3091 62.4079 66.3355 62.3464 66.382 62.3009C66.4285 62.2554 66.4915 62.2295 66.5573 62.2287C66.8305 62.2253 67.1026 62.2111 67.3747 62.1987C67.4644 62.1948 67.5541 62.1806 67.6433 62.171C67.7465 62.1601 67.8497 62.1487 67.9533 62.1381C68.1181 62.1126 68.2837 62.09 68.4473 62.0592C68.658 62.0196 68.8676 61.9784 69.0771 61.9315C69.4563 61.8503 69.8288 61.742 70.1916 61.6075C70.3564 61.5382 70.5203 61.4677 70.6846 61.3987C70.79 61.3546 70.8936 61.3077 71.0001 61.267C71.0752 61.2349 71.1536 61.2106 71.234 61.1947C71.383 61.1694 71.5364 61.1892 71.6735 61.2514C71.8833 61.0663 72.0879 60.8769 72.2804 60.6743C72.4749 60.4698 72.6573 60.254 72.8414 60.0404C73.1967 59.6288 73.5832 59.2444 73.9372 58.8307C74.1345 58.5688 74.3157 58.2969 74.505 58.0285C74.7041 57.7454 74.9137 57.4696 75.0989 57.177C75.1869 57.0374 75.2708 56.8945 75.3664 56.7595C75.5062 56.529 75.7031 56.3365 75.9388 56.1995C76.1375 56.1071 76.3559 56.062 76.5759 56.068L76.5826 56.0683C76.7201 55.9391 76.8587 55.8094 76.9855 55.6707C77.0497 55.6001 77.1186 55.5323 77.1782 55.4577C77.2313 55.3925 77.2836 55.3273 77.3364 55.2617C77.5724 54.9426 77.794 54.6138 78.0303 54.2949C78.2758 53.9633 78.5368 53.6418 78.788 53.3141C78.9137 53.1502 79.0318 52.9807 79.1499 52.8118C79.261 52.6528 79.3649 52.4898 79.4734 52.3295C79.4274 52.2854 79.3949 52.2296 79.3797 52.1684C79.2911 51.7938 79.1919 51.4222 79.0821 51.0536C79.0318 50.8864 78.9733 50.722 78.927 50.5542C78.882 50.3899 78.8476 50.2231 78.824 50.0547C78.7764 49.711 78.7361 49.3669 78.7032 49.0223C78.6676 49.0312 78.6302 49.031 78.5948 49.0216C78.5593 49.0123 78.5269 48.9942 78.5007 48.9691C78.4189 48.8959 78.3425 48.8171 78.272 48.7335C78.208 48.6623 78.1514 48.585 78.103 48.503C77.9901 48.3082 77.9045 48.0995 77.8483 47.8826C77.8219 47.7508 77.8086 47.6168 77.8084 47.4826C77.8043 47.3967 77.8037 47.3108 77.802 47.2243C77.7985 47.043 77.8014 46.8616 77.8072 46.6797C77.8188 46.3079 77.8402 45.9367 77.8645 45.5655C77.8877 45.2073 77.9293 44.8496 77.9183 44.4903C77.9121 44.3015 77.8934 44.1149 77.8727 43.9273C77.8635 43.8602 77.8552 43.7929 77.8433 43.7262L77.8408 43.7233C77.8038 43.6997 77.7653 43.6785 77.7254 43.6599C77.6287 43.6257 77.5293 43.5995 77.4281 43.5816C77.3354 43.5735 77.2422 43.5736 77.1496 43.5818C76.914 43.6264 76.6841 43.6959 76.464 43.7891C76.3148 43.8516 76.1728 43.9292 76.0402 44.0206C75.9726 44.0738 75.9101 44.1328 75.8536 44.1971C75.778 44.3014 75.7132 44.4127 75.6602 44.5295C75.5085 44.9202 75.4048 45.327 75.3514 45.7415C75.3177 46.0948 75.299 46.4476 75.2842 46.802C75.2692 47.1494 75.2529 47.4981 75.2205 47.8444C75.2032 48.0297 75.1841 48.2139 75.1621 48.3987C75.1412 48.5733 75.1163 48.7484 75.1025 48.9241C75.0757 49.2601 75.0572 49.5963 75.0471 49.9326C75.0662 49.9791 75.0693 50.0304 75.0558 50.0788C75.0521 50.0913 75.0472 50.1034 75.0413 50.1151C75.0238 50.4669 75.0312 50.8195 75.0635 51.1703C75.0813 51.2758 75.1093 51.3795 75.1472 51.4799C75.1794 51.5434 75.2165 51.6044 75.2583 51.6624C75.3077 51.7184 75.3605 51.7714 75.4164 51.8211C75.4479 51.8122 75.4805 51.8076 75.5133 51.8074C75.5746 51.8073 75.6349 51.8229 75.6881 51.8527C75.7414 51.8825 75.7856 51.9255 75.8165 51.9772C75.8369 52.0127 75.8512 52.0512 75.8589 52.0912C75.968 52.1438 76.079 52.1927 76.1901 52.2407C76.3411 52.3001 76.4882 52.3684 76.6306 52.4452C76.6757 52.4707 76.713 52.5073 76.739 52.5514C76.765 52.5954 76.7786 52.6453 76.7786 52.6961C76.7786 52.7469 76.765 52.7968 76.739 52.8408C76.713 52.8849 76.6757 52.9215 76.6306 52.947C76.5967 52.9673 76.5588 52.9805 76.5192 52.9856C76.4797 52.9906 76.4396 52.9875 76.4014 52.9763C76.2471 52.9139 76.091 52.8571 75.9372 52.7936C75.8485 52.7566 75.7604 52.7185 75.6726 52.6791C75.5831 52.8973 75.4936 53.1155 75.4044 53.3338C75.2515 53.7067 75.1097 54.0835 74.9592 54.457C74.8099 54.8271 74.6565 55.1949 74.5262 55.5723C74.4 55.9384 74.3144 56.3164 74.2067 56.6876C74.1555 56.8679 74.0946 57.0453 74.0244 57.2193C73.9513 57.4082 73.866 57.5924 73.7691 57.7707C73.673 57.9397 73.5682 58.1024 73.4594 58.264C73.3587 58.4143 73.2602 58.5668 73.1497 58.7103C73.0137 58.8878 72.8718 59.0573 72.719 59.2217C72.5853 59.3657 72.4365 59.498 72.2901 59.6296C71.9786 59.9132 71.6474 60.1756 71.2991 60.415C71.1008 60.5432 70.8948 60.6594 70.682 60.763C70.5604 60.8246 70.4354 60.8794 70.3086 60.9297C70.1993 60.9751 70.0857 61.0101 69.9694 61.0342C69.7152 61.0784 69.4581 61.1048 69.2001 61.1133C68.9794 61.1236 68.7575 61.1235 68.5378 61.1497L68.5706 61.1455L68.5371 61.1498L68.5124 61.1529L68.5357 61.15C68.4881 61.1561 68.4404 61.1623 68.3926 61.1687C68.425 61.1647 68.4574 61.1602 68.4904 61.1562C68.177 61.1945 67.8687 61.266 67.5712 61.3697C67.4083 61.4386 67.2491 61.5156 67.0942 61.6004C66.9171 61.6981 66.7504 61.8133 66.579 61.919C66.34 62.0721 66.0841 62.1982 65.816 62.2951C65.8629 62.316 65.9102 62.3363 65.9566 62.3582ZM64.9048 61.935C64.9478 61.9505 64.9906 61.9665 65.0336 61.9822C65.0431 61.9428 65.0613 61.9059 65.087 61.8741C65.1127 61.8423 65.1452 61.8163 65.1822 61.7981C65.3044 61.7427 65.4248 61.6874 65.5504 61.6388C65.6428 61.6026 65.7377 61.5714 65.8308 61.5363C66.086 61.4142 66.3316 61.274 66.5657 61.1167C66.8587 60.9368 67.1698 60.7867 67.4942 60.6686C67.6465 60.6126 67.8029 60.5675 67.9619 60.5336C68.1171 60.498 68.2739 60.4641 68.4319 60.441C68.6235 60.4127 68.8152 60.3895 69.0085 60.372C69.1488 60.3594 69.2896 60.3484 69.4297 60.333C69.575 60.3117 69.7176 60.2756 69.8551 60.2252C70.1123 60.1165 70.3676 60.0061 70.6166 59.8805C70.886 59.7409 71.1428 59.5792 71.3841 59.3972C71.6051 59.2296 71.8233 59.06 72.0336 58.8798C72.2353 58.7039 72.4221 58.5123 72.5921 58.307C72.7224 58.1353 72.8468 57.9599 72.9627 57.7787C73.0722 57.6032 73.1685 57.4203 73.251 57.2313C73.3196 57.0623 73.3824 56.893 73.4362 56.7187C73.4918 56.5413 73.5369 56.3611 73.5821 56.1808C73.6313 55.9831 73.6811 55.7859 73.7384 55.5904C73.7934 55.4017 73.8599 55.2169 73.9294 55.0333C74.0712 54.6593 74.2328 54.2926 74.3832 53.9219C74.5338 53.5502 74.686 53.179 74.8498 52.8128C74.9082 52.683 74.9661 52.5528 75.0234 52.4225C75.0365 52.3914 75.0491 52.36 75.0621 52.3289C74.9431 52.2349 74.836 52.1276 74.743 52.0091C74.5978 51.8185 74.4999 51.5976 74.457 51.3638C74.3993 50.9929 74.3844 50.617 74.4125 50.2429C74.414 50.2008 74.4175 50.159 74.4194 50.1171L74.4023 50.1104C74.2692 50.0567 74.1378 50.0025 74.0081 49.9426C73.9016 49.8935 73.7985 49.8381 73.6961 49.7827C73.5925 49.7268 73.4865 49.672 73.3875 49.6081C73.1715 49.4728 72.9707 49.3156 72.7884 49.1392C72.6986 49.051 72.614 48.9581 72.5349 48.8606C72.4492 48.7527 72.3705 48.6426 72.2952 48.5273C72.1556 48.3066 72.0398 48.0724 71.9497 47.8284C71.8637 47.6016 71.8017 47.3668 71.7644 47.1278C71.7232 46.8673 71.7014 46.6043 71.699 46.3407C71.6983 46.0901 71.7159 45.8397 71.7517 45.5915C71.7712 45.4357 71.7949 45.2801 71.8237 45.1255C71.7793 45.0976 71.7333 45.0725 71.6858 45.0502C71.5801 45.0122 71.4709 44.9846 71.3597 44.9677C71.2869 44.9606 71.2136 44.96 71.1408 44.9658C71.0873 44.9753 71.0348 44.9891 70.9836 45.007C70.9195 45.0368 70.8583 45.0722 70.8007 45.1128C70.7101 45.188 70.6273 45.2717 70.5534 45.3627C70.4499 45.5032 70.3616 45.6538 70.29 45.8122C70.2699 45.8639 70.2497 45.9159 70.2296 45.968C70.2065 46.0273 70.1909 46.0894 70.1717 46.1499C70.137 46.2701 70.1086 46.3919 70.0866 46.5149C70.0411 46.7399 70.0052 46.9663 69.9733 47.1929C69.9527 47.3954 69.9371 47.5973 69.9286 47.8008C69.9199 48.0025 69.9211 48.2054 69.9217 48.4071C69.924 48.8071 69.9433 49.2078 69.9818 49.6062C70.0018 49.745 70.0231 49.8837 70.0542 50.0207C70.0953 50.2027 70.1399 50.384 70.1897 50.5643C70.2743 50.8675 70.377 51.1656 70.4973 51.4571C70.5578 51.5826 70.6185 51.7073 70.691 51.8265C70.7624 51.9445 70.8417 52.056 70.924 52.1669C70.9934 52.2487 71.0645 52.328 71.139 52.4056C71.2086 52.4758 71.2834 52.541 71.3626 52.6007C71.4861 52.6907 71.6132 52.7761 71.7389 52.8635C71.7474 52.8674 71.7569 52.8693 71.765 52.874C71.7939 52.8908 71.8199 52.912 71.842 52.9367C71.9155 52.9894 71.9882 53.0433 72.0583 53.1006C72.0911 53.1317 72.1171 53.1691 72.1346 53.2104C72.1522 53.2516 72.1609 53.296 72.1602 53.3407C72.1602 53.4308 72.1235 53.5171 72.0583 53.5808C71.993 53.6445 71.9045 53.6803 71.8123 53.6803C71.7816 53.6763 71.7509 53.6723 71.7202 53.6684C71.7134 53.6665 71.7078 53.6627 71.7011 53.6605C71.6065 53.839 71.5129 54.018 71.416 54.1955C71.2909 54.4249 71.1714 54.6553 71.0608 54.8917C71.0021 55.0419 70.9429 55.192 70.8979 55.347C70.8475 55.5199 70.8041 55.6939 70.763 55.869C70.6849 56.2086 70.6102 56.5493 70.5349 56.8894C70.4597 57.2284 70.3798 57.5658 70.2913 57.9019C70.2473 58.0686 70.2009 58.2342 70.146 58.398C70.0855 58.5694 70.0108 58.7357 69.9225 58.8952C69.8804 58.9792 69.8326 59.0604 69.7795 59.1382C69.7101 59.2342 69.6354 59.3263 69.5567 59.4162C69.3966 59.5805 69.1999 59.7067 68.9819 59.7851C68.8863 59.8241 68.7903 59.8619 68.6913 59.893C68.2992 60.0164 67.9017 60.1179 67.519 60.2673C67.225 60.3964 66.938 60.5361 66.6548 60.688C66.3793 60.8354 66.1113 60.9959 65.838 61.149C65.5521 61.3089 65.2679 61.4716 64.9819 61.6321C64.8576 61.7015 64.7326 61.7693 64.6073 61.8367C64.7072 61.8673 64.8065 61.8995 64.9048 61.935ZM50.5496 59.1958C51.2453 59.5864 51.9678 59.9296 52.712 60.2231C53.1647 60.4033 53.6268 60.557 54.0916 60.7055C54.5413 60.84 55.0025 60.9351 55.4695 60.9896C55.8158 61.0309 56.1627 61.0709 56.5101 61.1027C56.858 61.1344 57.2071 61.1508 57.5555 61.1671C58.271 61.1999 58.9871 61.2061 59.7026 61.2389C60.0458 61.2542 60.3891 61.2711 60.7318 61.2858C61.0588 61.3005 61.3853 61.3141 61.7118 61.3412C62.0904 61.3728 62.4684 61.4129 62.8458 61.4587C63.0991 61.4894 63.3536 61.5284 63.6046 61.5795C63.6374 61.509 63.6906 61.4493 63.7576 61.4078C63.9087 61.3134 64.0783 61.2451 64.2363 61.1626C64.3886 61.0835 64.542 61.0066 64.6954 60.9292C65.0085 60.7722 65.3229 60.6179 65.6354 60.4603C65.9567 60.2987 66.2751 60.1326 66.6022 59.9834C66.9393 59.8223 67.29 59.6898 67.6505 59.5874C67.9999 59.4956 68.3532 59.4195 68.6947 59.3008C68.7346 59.2834 68.7732 59.2645 68.8118 59.2456C68.8033 59.2236 68.7993 59.2003 68.7999 59.1768C68.8298 58.4389 68.9281 57.7036 69.0309 56.9729C69.0654 56.7017 69.0927 56.4309 69.1125 56.158C69.1235 56.0122 69.1275 55.8659 69.1339 55.7196C69.1403 55.5761 69.1548 55.4325 69.1675 55.289C69.2167 54.728 69.2277 54.1664 69.2242 53.6031C69.2219 53.2844 69.2109 52.9657 69.2016 52.6471C69.192 52.3234 69.1856 52.0013 69.1517 51.6787C69.1351 51.5727 69.1164 51.4676 69.0916 51.3628C69.0688 51.2704 69.0391 51.1797 69.0027 51.0915C68.9012 50.8948 68.7871 50.707 68.6668 50.521C68.6005 50.4183 68.5274 50.32 68.4526 50.223C68.4209 50.2362 68.3864 50.242 68.352 50.2399C68.0801 50.212 67.8113 50.161 67.5485 50.0874C67.284 50.019 67.0301 49.9162 66.7937 49.7817C66.6725 49.7054 66.5573 49.6202 66.4493 49.5269C66.3586 49.4514 66.276 49.3672 66.2027 49.2754C66.1112 49.1608 66.0256 49.0449 65.9451 48.9223C65.8479 48.7587 65.7704 48.5846 65.7141 48.4037C65.68 48.3099 65.6545 48.2121 65.6273 48.1166C65.6012 48.0251 65.5775 47.933 65.5561 47.8403C65.5122 47.6513 65.47 47.4614 65.428 47.2718C65.4162 47.2633 65.4045 47.2547 65.3927 47.2462C65.2897 47.1716 65.1866 47.0982 65.083 47.0247C64.9783 46.9459 64.8683 46.874 64.7537 46.8095C64.7416 46.8164 64.73 46.8236 64.7184 46.8311C64.6227 46.9174 64.5341 47.011 64.4535 47.111C64.3717 47.2191 64.2969 47.3322 64.2298 47.4496C64.195 47.514 64.1557 47.5779 64.125 47.6445C64.0956 47.7076 64.0665 47.7703 64.0371 47.8328C63.9321 48.077 63.8427 48.3274 63.7696 48.5824C63.6933 48.8678 63.6324 49.1568 63.587 49.4484C63.5545 49.6444 63.5438 49.8433 63.5553 50.0415C63.5809 50.2043 63.6233 50.3642 63.682 50.5186C63.7423 50.6429 63.8092 50.764 63.8825 50.8814C63.9412 50.9738 64.0054 51.0628 64.0749 51.1478C64.2842 51.4034 64.5048 51.65 64.7282 51.8945C64.8428 52.0199 64.9605 52.1425 65.0813 52.2623C65.1941 52.3739 65.3129 52.4795 65.4372 52.5787C65.6428 52.722 65.8578 52.8519 66.081 52.9674C66.195 53.0285 66.3102 53.0883 66.4248 53.1488C66.5712 53.2169 66.7078 53.3033 66.8312 53.4059C66.8674 53.4412 66.8935 53.4852 66.9069 53.5334C66.9202 53.5817 66.9204 53.6325 66.9073 53.6808C66.8943 53.7292 66.8684 53.7733 66.8324 53.8088C66.7964 53.8444 66.7515 53.87 66.7021 53.8833C66.626 53.902 66.5455 53.8917 66.4769 53.8545C66.4671 53.8499 66.4572 53.8455 66.4473 53.8411C66.4157 53.8281 66.385 53.8135 66.3538 53.7998C66.1753 54.141 65.996 54.4817 65.8157 54.8218C65.6359 55.1594 65.466 55.5 65.3102 55.8484C65.2536 55.9885 65.2014 56.1299 65.1563 56.2744C65.1135 56.4178 65.0789 56.5635 65.0529 56.7106C65.0458 56.7765 65.0428 56.8419 65.0425 56.9077C65.1682 56.9039 65.294 56.8997 65.4196 56.8973L65.4226 56.8973C65.4791 56.8982 65.533 56.9208 65.5726 56.9603C65.6121 56.9998 65.6341 57.0529 65.6337 57.1081C65.6333 57.1633 65.6106 57.2161 65.5705 57.2551C65.5304 57.294 65.4761 57.3159 65.4196 57.316C65.3291 57.3175 65.2387 57.3207 65.1482 57.3235C65.2109 57.4452 65.2817 57.5629 65.3601 57.6756C65.4643 57.8259 65.5818 57.9683 65.6802 58.1214C65.7133 58.1766 65.7287 58.2401 65.7246 58.3039C65.7205 58.3676 65.697 58.4287 65.6571 58.4794C65.6172 58.5301 65.5627 58.5679 65.5006 58.5882C65.4385 58.6085 65.3717 58.6102 65.3086 58.5932C65.227 58.569 65.1572 58.5166 65.1123 58.4457C65.1034 58.434 65.0943 58.422 65.0856 58.4099C64.8666 58.1542 64.6794 57.8742 64.5277 57.5756C64.4946 57.5037 64.4658 57.4299 64.4415 57.3547C64.3158 57.3647 64.1902 57.3772 64.0649 57.3882C63.9165 57.4092 63.7687 57.4292 63.6222 57.4607C63.5423 57.4776 63.4607 57.4911 63.382 57.5121C63.2818 57.5392 63.1823 57.5657 63.0821 57.5929C62.7776 57.679 62.4785 57.7827 62.1864 57.9032C61.8904 58.0219 61.6081 58.1706 61.3439 58.3468C61.3036 58.381 61.2653 58.4173 61.2292 58.4558C61.2239 58.4629 61.2179 58.4695 61.2112 58.4754C61.1933 58.4947 61.175 58.5137 61.1576 58.5338C61.1042 58.6085 61.0568 58.6852 61.0098 58.7641C60.9411 58.8738 60.8637 58.9781 60.7783 59.076C60.7466 59.108 60.7085 59.1333 60.6664 59.1503C60.6242 59.1673 60.579 59.1757 60.5334 59.1749C60.4878 59.175 60.4427 59.1663 60.4006 59.1493C60.3584 59.1324 60.3202 59.1074 60.288 59.076C60.2557 59.0445 60.2302 59.0072 60.2128 58.9661C60.1954 58.925 60.1865 58.8809 60.1867 58.8364C60.1888 58.7472 60.2249 58.662 60.288 58.5974C60.331 58.5472 60.3778 58.5001 60.4278 58.4564C60.2843 58.4645 60.141 58.477 59.999 58.4911C59.7015 58.5205 59.4039 58.5506 59.1064 58.5815C58.5113 58.6431 57.9151 58.6962 57.32 58.7549C57.0254 58.7843 56.7319 58.8148 56.4367 58.8397C56.1611 58.8628 55.885 58.8798 55.6083 58.8945C55.0219 58.9256 54.435 58.9549 53.848 58.9674C53.2373 58.9804 52.6272 58.9979 52.0176 59.0199C51.7438 59.0301 51.4698 59.0356 51.1957 59.0363C50.9132 59.0369 50.6289 59.0397 50.3465 59.0182C50.3095 59.0155 50.2726 59.0117 50.2357 59.0086C50.3403 59.0708 50.445 59.1332 50.5496 59.1958Z" fill="#774653"/>
</g>
<g clip-path="url(#clip1_445_6387)">
<path d="M34.9956 19.4989L47.8976 50.4944L48.0594 51.2462L48.558 50.6624L74.5284 29.669L68.9267 20.4455L68.8444 20.4685L65.0529 17.1125L49.2488 13.0471L44.3339 14.1629L44.2723 14.1026L34.9956 19.4989ZM44.152 15.0981L47.4991 18.3678L42.8356 24.9115L36.2065 19.7194L44.152 15.0981ZM43.5816 25.241L48.1881 18.7769L63.279 22.6593L64.2735 30.5642L43.5816 25.241ZM48.4973 49.5028L43.4436 26.0293L64.0222 31.3238L48.4973 49.5028ZM67.9317 20.7239L63.6338 21.9263L48.2225 17.9617L45.0148 14.828L49.2403 13.8689L64.6723 17.839L67.9317 20.7239ZM68.5624 21.378L73.36 29.2777L65.0843 30.6354L64.0776 22.6329L68.5624 21.378ZM51.392 47.3436L64.95 31.4675L72.5806 30.2158L51.392 47.3436ZM46.9745 46.2075L36.4484 20.9204L42.5607 25.7074L46.9745 46.2075Z" fill="#774653"/>
<path d="M66.4817 29.1241L65.5446 23.5928C65.5446 23.5928 66.5165 26.7101 67.3479 27.5659C68.1792 28.4216 71.0192 28.3661 71.0192 28.3661L66.4817 29.1241Z" fill="#774653"/>
<path d="M50.2323 16.3316C50.1428 17.2685 54.4618 18.4807 54.4618 18.4807L48.9038 17.3013L47.1054 15.4059L49.8127 14.8855L63.7627 18.4711C63.7627 18.4711 50.3217 15.3947 50.2323 16.3316Z" fill="#774653"/>
</g>
<defs>
<clipPath id="clip0_445_6387">
<rect width="84" height="42" fill="white" transform="matrix(-1 0 0 1 85 43)"/>
</clipPath>
<clipPath id="clip1_445_6387">
<rect width="41" height="33" fill="white" transform="translate(63.4922 3) rotate(67.5187)"/>
</clipPath>
</defs>
</svg>
