<svg width="1759" height="506" viewBox="0 0 1759 506" fill="none" xmlns="http://www.w3.org/2000/svg">
<g clip-path="url(#clip0_445_6555)">
<path d="M1603.85 182.877C1652.06 228.819 1794.1 357.059 1744.69 411.186C1698.14 462.097 1690.94 464.789 1671.54 483.723C1646.59 508.116 1629.61 505.71 1585.64 485.953C1464.54 431.525 1129.04 223.153 378.558 307.768" stroke="#F3E1E2" stroke-width="8.03977" stroke-miterlimit="3.8637"/>
<path fill-rule="evenodd" clip-rule="evenodd" d="M680.033 3.94439H661.388L653.967 24.3847L652.673 30.8352H650.886L650.735 24.3847C648.005 20.0538 636.675 -0.00634766 592.205 -0.00634766C514.73 -0.00634766 438.209 48.7317 410.552 124.703C387.844 187.041 410.031 247.248 503.221 247.248C544.053 247.331 583.731 233.715 615.908 208.578L608.625 199.975C568.625 227.23 533.809 232.22 509.067 232.22C448.122 232.22 422.91 185.254 445.885 122.204C468.861 59.1174 524.7 15.0698 587.077 15.0698C630.823 15.0698 648.359 38.7228 637.253 70.2409H655.881L680.033 3.94439Z" fill="#F3E1E2"/>
<path fill-rule="evenodd" clip-rule="evenodd" d="M737.035 16.471H766.788L688.619 231.165H658.863L654.296 243.672H837.159L855.817 192.449H836.062L824.318 224.707H722.142L797.989 16.471H830.614L835.178 3.94824H741.608L737.035 16.471Z" fill="#F3E1E2"/>
<path fill-rule="evenodd" clip-rule="evenodd" d="M1063.59 171.997L1070.03 231.162H1037.75L1033.18 243.668H1123.56L1128.1 231.162H1103L1082.08 -0.00634766H1067.75L886.703 231.162H860.93L856.367 243.668H930.583L935.136 231.162H903.257L948.769 171.997H1063.59ZM1063.07 156.604H960.5L1048.68 44.4352L1053.54 35.1033H1055.68L1053.74 44.4352L1063.07 156.604Z" fill="#F3E1E2"/>
<path fill-rule="evenodd" clip-rule="evenodd" d="M1380.99 3.94439L1375.88 17.9072L1374.57 25.4334H1372.45L1371.42 19.3315C1358.38 3.94439 1348.01 -0.00634766 1321.83 -0.00634766C1282.04 -0.00634766 1236.27 22.2082 1221.05 64.1359C1204.73 108.932 1239.73 120.034 1281.57 139.014C1308.11 150.86 1326.4 157.714 1314.78 189.561C1302.93 222.167 1265.55 233.288 1237.59 233.288C1190.63 233.288 1183.9 207.479 1188.41 192.097L1191.99 180.257H1175.53L1152.44 243.668H1168.9L1174.64 227.908L1175.73 220.052H1177.48L1178.38 227.56C1192.16 245.844 1214.56 248.319 1232.13 248.319C1286.94 248.319 1332.83 218.992 1348.08 177.032C1363.36 135.099 1331.71 121.477 1304.85 109.664C1276.05 97.0864 1237.79 87.0711 1249.55 54.8149C1257.39 33.3037 1286.94 15.0698 1325.66 15.0698C1371.55 15.0698 1363.1 49.0803 1362.12 53.7202L1359.92 62.7148H1376.41L1397.85 3.94439H1380.99Z" fill="#F3E1E2"/>
<path fill-rule="evenodd" clip-rule="evenodd" d="M1601.29 3.94439L1596.2 17.9072L1594.87 25.4334H1592.73L1591.71 19.3315C1578.7 3.94439 1568.26 -0.00634766 1542.09 -0.00634766C1502.31 -0.00634766 1456.57 22.2082 1441.31 64.1359C1425 108.932 1460.02 120.034 1501.89 139.014C1528.4 150.86 1546.71 157.714 1535.11 189.561C1523.24 222.167 1485.83 233.288 1457.9 233.288C1410.9 233.288 1404.16 207.479 1408.66 192.097L1412.3 180.257H1395.82L1372.72 243.668H1389.2L1394.94 227.908L1396.01 220.052H1397.82L1398.64 227.56C1412.44 245.844 1434.85 248.319 1452.42 248.319C1507.29 248.319 1553.1 218.992 1568.36 177.032C1583.64 135.099 1552.01 121.477 1525.12 109.664C1496.36 97.0864 1458.07 87.0711 1469.8 54.8149C1477.63 33.3037 1507.22 15.0698 1545.97 15.0698C1591.83 15.0698 1583.38 49.0803 1582.41 53.7202L1580.23 62.7148H1596.69L1618.11 3.94439H1601.29Z" fill="#F3E1E2"/>
<path fill-rule="evenodd" clip-rule="evenodd" d="M87.9946 3.45947L83.1315 16.8116H114.863L36.5636 230.087H4.87242L0 243.421H95.3857L100.257 230.087H68.5168L99.7449 145.963H132.675C142.853 170.908 193.237 271.366 331.342 307.765L333.407 302.055C196.279 242.369 169.709 140.404 169.709 140.404C225.316 127.891 245.643 99.7122 256.208 70.7189C263.976 46.1944 266.33 3.45947 200.964 3.45947H87.9946ZM145.802 19.4982H182.901C219.198 19.4982 230.02 42.4131 218.774 73.3646C209.169 99.7122 182.061 129.918 143.469 129.918H105.599L145.802 19.4982Z" fill="#F3E1E2"/>
</g>
<defs>
<clipPath id="clip0_445_6555">
<rect width="1759" height="505.415" fill="white"/>
</clipPath>
</defs>
</svg>
