<svg width="144" height="42" viewBox="0 0 144 42" fill="none" xmlns="http://www.w3.org/2000/svg">
<g clip-path="url(#clip0_445_6605)">
<path d="M131.298 14.835C135.245 18.5618 146.874 28.9649 142.828 33.3557C139.017 37.4857 138.428 37.704 136.839 39.24C134.798 41.2188 133.407 41.0236 129.808 39.4209C119.894 35.0056 92.428 18.1022 30.9902 24.9663" stroke="white" stroke-width="0.658173" stroke-miterlimit="3.8637"/>
<path fill-rule="evenodd" clip-rule="evenodd" d="M55.6705 0.320002H54.1441L53.5366 1.97815L53.4307 2.50142H53.2844L53.272 1.97815C53.0485 1.62682 52.121 -0.000488281 48.4805 -0.000488281C42.138 -0.000488281 35.8736 3.95321 33.6095 10.1161C31.7506 15.1731 33.5668 20.0572 41.1959 20.0572C44.5385 20.0639 47.7868 18.9593 50.421 16.9202L49.8247 16.2223C46.5501 18.4333 43.6999 18.8381 41.6744 18.8381C36.6852 18.8381 34.6212 15.0281 36.502 9.91341C38.3829 4.79572 42.9542 1.22251 48.0607 1.22251C51.6419 1.22251 53.0775 3.14128 52.1683 5.69808H53.6933L55.6705 0.320002Z" fill="white"/>
<path fill-rule="evenodd" clip-rule="evenodd" d="M60.3369 1.33618H62.7726L56.3733 18.7525H53.9373L53.5635 19.767H68.5335L70.061 15.6117H68.4437L67.4823 18.2286H59.1177L65.3269 1.33618H67.9977L68.3713 0.320312H60.7112L60.3369 1.33618Z" fill="white"/>
<path fill-rule="evenodd" clip-rule="evenodd" d="M87.0705 13.9527L87.598 18.7522H84.9556L84.581 19.7667H91.9798L92.3518 18.7522H90.2968L88.5843 -0.000488281H87.4109L72.5899 18.7522H70.48L70.1064 19.7667H76.1821L76.5549 18.7522H73.9451L77.6709 13.9527H87.0705ZM87.0278 12.704H78.6312L85.8498 3.60468L86.2477 2.84766H86.4228L86.2647 3.60468L87.0278 12.704Z" fill="white"/>
<path fill-rule="evenodd" clip-rule="evenodd" d="M113.054 0.320002L112.635 1.45269L112.528 2.06322H112.354L112.271 1.56823C111.203 0.320002 110.354 -0.000488281 108.211 -0.000488281C104.953 -0.000488281 101.207 1.80159 99.9601 5.20282C98.6242 8.83679 101.49 9.73737 104.915 11.2771C107.087 12.238 108.584 12.794 107.634 15.3775C106.663 18.0226 103.603 18.9247 101.315 18.9247C97.4698 18.9247 96.9194 16.831 97.288 15.5832L97.5811 14.6228H96.2337L94.3438 19.7667H95.6912L96.1614 18.4883L96.2507 17.851H96.3934L96.4669 18.46C97.5953 19.9433 99.4289 20.144 100.868 20.144C105.354 20.144 109.111 17.765 110.359 14.3611C111.611 10.9595 109.02 9.85445 106.82 8.89614C104.463 7.87582 101.331 7.06336 102.294 4.44669C102.935 2.70167 105.354 1.22251 108.524 1.22251C112.281 1.22251 111.589 3.98149 111.509 4.35789L111.329 5.08754H112.679L114.434 0.320002H113.054Z" fill="white"/>
<path fill-rule="evenodd" clip-rule="evenodd" d="M131.089 0.320002L130.673 1.45269L130.564 2.06322H130.388L130.305 1.56823C129.24 0.320002 128.385 -0.000488281 126.243 -0.000488281C122.986 -0.000488281 119.242 1.80159 117.992 5.20282C116.657 8.83679 119.525 9.73737 122.952 11.2771C125.123 12.238 126.621 12.794 125.671 15.3775C124.7 18.0226 121.637 18.9247 119.351 18.9247C115.503 18.9247 114.951 16.831 115.32 15.5832L115.618 14.6228H114.269L112.378 19.7667H113.727L114.197 18.4883L114.284 17.851H114.432L114.499 18.46C115.629 19.9433 117.464 20.144 118.902 20.144C123.394 20.144 127.145 17.765 128.393 14.3611C129.644 10.9595 127.055 9.85445 124.853 8.89614C122.499 7.87582 119.364 7.06336 120.325 4.44669C120.966 2.70167 123.388 1.22251 126.561 1.22251C130.315 1.22251 129.623 3.98149 129.544 4.35789L129.365 5.08754H130.712L132.466 0.320002H131.089Z" fill="white"/>
<path fill-rule="evenodd" clip-rule="evenodd" d="M7.20365 0.280762L6.80553 1.36391H9.40326L2.99327 18.6651H0.398879L0 19.7468H7.80872L8.20749 18.6651H5.60911L8.16558 11.8408H10.8614C11.6947 13.8645 15.8193 22.0137 27.1252 24.9664L27.2942 24.5033C16.0683 19.6615 13.8932 11.3899 13.8932 11.3899C18.4454 10.3748 20.1095 8.08893 20.9744 5.73694C21.6103 3.74748 21.803 0.280762 16.4519 0.280762H7.20365ZM11.9361 1.58184H14.9732C17.9446 1.58184 18.8305 3.44074 17.9099 5.95157C17.1236 8.08893 14.9044 10.5393 11.745 10.5393H8.64481L11.9361 1.58184Z" fill="white"/>
</g>
<defs>
<clipPath id="clip0_445_6605">
<rect width="144" height="41" fill="white"/>
</clipPath>
</defs>
</svg>
